<svg width="19" height="20" viewBox="0 0 19 20" fill="none" xmlns="http://www.w3.org/2000/svg">
<path d="M9 0C4.59356 0 1 3.59356 1 8V9V9.90234C0.426291 10.4494 0 11.1531 0 12C0 13.242 0.857551 14.1629 1.94336 14.6133C3.24439 17.7231 5.85024 20 9 20H12V18H9C6.74155 18 4.69096 16.2995 3.66016 13.6133L3.44727 13.0625L2.86133 12.9805C2.36883 12.9127 2 12.5151 2 12C2 11.615 2.19441 11.313 2.49805 11.1387L3 10.8516V10V9C3 8.43497 3.43497 8 4 8H14C14.565 8 15 8.43497 15 9V10V14H10.9121C10.8088 13.7079 10.6176 13.4549 10.3648 13.2759C10.1119 13.0968 9.80983 13.0004 9.5 13C9.10218 13 8.72064 13.158 8.43934 13.4393C8.15804 13.7206 8 14.1022 8 14.5C8.00051 14.8789 8.14438 15.2435 8.4027 15.5207C8.66103 15.7979 9.01467 15.967 9.39258 15.9941C9.42825 15.998 9.46411 16 9.5 16H16H17C18.1 16 19 15.1 19 14V12C19 10.9 18.1 10 17 10V9V8C17 3.59356 13.4064 0 9 0ZM9 2C11.6556 2 13.8906 3.70738 14.6855 6.08789C14.4642 6.03504 14.2365 6 14 6H4C3.7635 6 3.53581 6.03504 3.31445 6.08789C4.10938 3.70738 6.34441 2 9 2Z" fill="#1E8FC6"/>
</svg>
