<svg width="16" height="20" viewBox="0 0 16 20" fill="none" xmlns="http://www.w3.org/2000/svg">
<path d="M8 0C3.589 0 0 3.589 0 8C0 12.0715 3.0604 15.4368 7 15.9316V17.7676C6.36426 17.3863 5.4829 17 4.5 17C2.567 17 1 18.5 1 18.5C1 18.5 2.567 20 4.5 20C5.70065 20 6.70745 19.4385 7.33789 19H8.66211C9.29255 19.4385 10.2994 20 11.5 20C13.433 20 15 18.5 15 18.5C15 18.5 13.433 17 11.5 17C10.5171 17 9.63574 17.3863 9 17.7676V15.9316C12.9396 15.4368 16 12.0715 16 8C16 3.589 12.411 0 8 0ZM7.71289 2.01367V3.02734C7.37389 3.07034 5.47656 3.42875 5.47656 5.71875C5.47656 9.05975 8.93555 8.06983 8.93555 10.2988C8.93555 11.4148 8.21341 11.4414 8.06641 11.4414C7.93241 11.4414 7.05273 11.5127 7.05273 9.80469H5.16211C5.16211 12.6967 7.26027 12.9277 7.57227 12.9707V13.9785C4.4628 13.7579 2 11.1648 2 8C2 4.7878 4.53752 2.16479 7.71289 2.01367ZM8.7207 2.04883C11.6905 2.40635 14 4.93528 14 8C14 11.1154 11.6148 13.6809 8.57422 13.9707V12.9707C8.91222 12.9287 10.8242 12.6132 10.8242 10.2852C10.8242 7.08016 7.36623 7.69356 7.36523 5.72656C7.36523 4.59956 7.98514 4.56445 8.11914 4.56445C8.36414 4.56445 8.94727 4.7813 8.94727 6.1543H10.8379C10.8379 3.5273 9.0417 3.11764 8.7207 3.05664V2.04883Z" fill="#1E8FC6"/>
</svg>
