<svg width="26" height="27" viewBox="0 0 26 27" fill="none" xmlns="http://www.w3.org/2000/svg">
<path d="M12.75 0L12.0625 0.6875L9.4375 3.21875L5.84375 2.71875L4.875 2.5625L4.71875 3.53125L4.09375 7.09375L0.875 8.8125L0 9.28125L0.4375 10.125L2.03125 13.4062L0.4375 16.6875L0 17.5312L0.875 18L4.09375 19.7188L4.71875 23.2812L4.875 24.25L5.84375 24.0938L9.4375 23.5938L12.0625 26.125L12.75 26.8125L13.4375 26.125L16.0625 23.5938L19.6562 24.0938L20.625 24.25L20.7812 23.2812L21.4062 19.6875L24.625 18L25.4688 17.5312L25.0625 16.6875L23.4688 13.4062L25.0625 10.125L25.4688 9.28125L24.625 8.8125L21.4062 7.125L20.7812 3.53125L20.625 2.5625L19.6562 2.71875L16.0625 3.21875L13.4375 0.6875L12.75 0ZM12.75 2.78125L15.0312 5L15.375 5.34375L15.8438 5.28125L18.9688 4.8125L19.5312 7.9375L19.625 8.40625L20.0312 8.65625L22.8125 10.125L21.4375 12.9688L21.2188 13.4062L21.4375 13.8438L22.8125 16.6875L20.0312 18.1562L19.625 18.4062L19.5312 18.875L18.9688 22L15.8438 21.5312L15.375 21.4688L15.0312 21.8125L12.75 24.0312L10.4688 21.8125L10.125 21.4688L9.65625 21.5312L6.53125 22L5.96875 18.875L5.875 18.4062L5.4375 18.1562L2.65625 16.6562L4.03125 13.8438L4.25 13.4062L4.03125 12.9688L2.65625 10.1562L5.4375 8.65625L5.875 8.40625L5.96875 7.9375L6.53125 4.8125L9.65625 5.28125L10.125 5.34375L10.4688 5L12.75 2.78125ZM7.5 11.4062C6.8125 11.4062 6.25 11.9688 6.25 12.6562C6.25 13.3438 6.8125 13.9062 7.5 13.9062C7.63672 13.9062 7.75 14.0195 7.75 14.1562C7.75 14.25 7.71875 14.4062 7.5 14.4062C7.25 14.4062 7.25 14.3672 7.25 14.2188H6.25C6.25 14.9531 6.73047 15.4062 7.5 15.4062C8.21484 15.4062 8.75 14.8711 8.75 14.1562C8.75 13.4688 8.1875 12.9062 7.5 12.9062C7.36328 12.9062 7.25 12.793 7.25 12.6562C7.25 12.5195 7.36328 12.4062 7.5 12.4062C7.72656 12.4062 7.75 12.5625 7.75 12.625H8.75C8.75 12.0391 8.3125 11.4062 7.5 11.4062ZM10.875 11.4062L9.78125 14.75L9.75 15.4062H10.75V15L10.7812 14.9062H11.7188L11.75 15V15.4062H12.75V14.9062L11.75 11.75L11.5938 11.4062H10.875ZM13.75 11.4062V15.4062H15.75V14.4062H14.75V11.4062H13.75ZM16.75 11.4062V15.4062H19.3125V14.4062H17.75V13.9062H19.0938V12.9062H17.75V12.4062H19.3125V11.4062H16.75ZM11.25 13.4375L11.4062 13.9062H11.0938L11.25 13.4375Z" fill="#1E8FC6"/>
</svg>
