<svg xmlns="http://www.w3.org/2000/svg" width="137.784" height="33.043" viewBox="0 0 137.784 33.043"><defs><style>.a{fill:#231f20;}.b{fill:#2a84b3;}</style></defs><g transform="translate(-126.371 -491.354)"><path class="a" d="M160.619,529.429l-7.529-7.078a2.424,2.424,0,0,0-.817-.567,2.138,2.138,0,0,0-.707-.125,2.308,2.308,0,0,0-.78.135,1.742,1.742,0,0,0-.661.423,2.111,2.111,0,0,0-.459.75,3.093,3.093,0,0,0-.175,1.1v10.675h3.452v-7.559l7.529,7.078a2.259,2.259,0,0,0,.8.567,2.188,2.188,0,0,0,.725.125,2.378,2.378,0,0,0,.79-.135,1.681,1.681,0,0,0,.67-.433,2.23,2.23,0,0,0,.459-.76,3.1,3.1,0,0,0,.174-1.1V521.87h-3.47Zm-22.372-3H130.19V521.87h-3.819v12.867h3.819v-4.962h8.056v4.962h3.783V521.87h-3.783Zm5.276,8.309h3.8V521.87h-3.8Zm36.2-11.107a7.076,7.076,0,0,0-2.341-1.3,9.2,9.2,0,0,0-2.975-.462h-5.8l-2.424,3.347h8.227a4.167,4.167,0,0,1,1.432.24,3.853,3.853,0,0,1,1.157.654,2.909,2.909,0,0,1,.771.99,3,3,0,0,1,0,2.51,2.933,2.933,0,0,1-.753.971,3.4,3.4,0,0,1-1.148.625,4.635,4.635,0,0,1-1.46.221H170v-4.712h-3.819v8.02h8.227a8.5,8.5,0,0,0,2.956-.5,7.236,7.236,0,0,0,2.342-1.375,6.336,6.336,0,0,0,1.543-2.077,6.1,6.1,0,0,0,.56-2.606,5.862,5.862,0,0,0-2.085-4.549Zm8.463,1.779a1.967,1.967,0,0,1,.982-.192h12.982l-3-3.347h-9.689a8.724,8.724,0,0,0-2.4.289,4.525,4.525,0,0,0-1.634.808,3.156,3.156,0,0,0-.937,1.26,4.3,4.3,0,0,0-.3,1.644,3.994,3.994,0,0,0,.276,1.51,2.939,2.939,0,0,0,.845,1.164,4.078,4.078,0,0,0,1.432.75,6.95,6.95,0,0,0,2.057.269h6.684a1.8,1.8,0,0,1,.991.212.8.8,0,0,1,.313.712.821.821,0,0,1-.312.721,1.741,1.741,0,0,1-.991.221H186.2l-2.442,3.308h11.44a8.742,8.742,0,0,0,2.4-.289,4.441,4.441,0,0,0,1.643-.827,3.126,3.126,0,0,0,.936-1.327,5.037,5.037,0,0,0,.294-1.769,3.086,3.086,0,0,0-1.176-2.645,5.693,5.693,0,0,0-3.434-.875h-6.684a1.883,1.883,0,0,1-.982-.2.762.762,0,0,1-.321-.7A.74.74,0,0,1,188.188,525.409Zm22.044-.292c-.062-.09-6.427-6.435-6.427-6.435h-4.885l9.634,9.977Zm36.987-3.247v2.892H253.5v9.975h3.8v-9.975h4.389l2.461-2.892Zm-7.6,0H225.139a9.324,9.324,0,0,0-2.956.452,6.943,6.943,0,0,0-2.341,1.289,6.044,6.044,0,0,0-1.543,2,5.848,5.848,0,0,0-.56,2.567,6.1,6.1,0,0,0,.56,2.606,6.332,6.332,0,0,0,1.543,2.077,7.225,7.225,0,0,0,2.341,1.375,8.5,8.5,0,0,0,2.956.5h9.175V526.7h-7.86l-2.277,2.865h6.354v1.866h-5.392a4.544,4.544,0,0,1-1.45-.221,3.515,3.515,0,0,1-1.148-.625,2.784,2.784,0,0,1-.753-.971,2.93,2.93,0,0,1-.266-1.26,2.847,2.847,0,0,1,.276-1.259,3.1,3.1,0,0,1,.762-.991,3.481,3.481,0,0,1,1.148-.654,4.317,4.317,0,0,1,1.432-.231h10.87v9.52h3.606v-5.154H248V534.7h3.606v-8.138H239.615Z" transform="translate(0 -16.379)"/><path class="b" d="M372.505,492.366S336.675,482.5,328.4,524.4h3.34S337.965,488.039,372.505,492.366Z" transform="translate(-121.086 0)"/></g></svg>