<svg xmlns="http://www.w3.org/2000/svg" width="39.053" height="39.053" viewBox="0 0 39.053 39.053"><defs><style>.a{fill:#2a84b3;}</style></defs><g transform="translate(0.002 0.001)"><g transform="translate(-0.002 -0.001)"><path class="a" d="M1.957,25.336a4.771,4.771,0,0,0,.676.391c.282.144.753.385.786.554a1.124,1.124,0,0,1-.076.659c-.1.208-.2.387-.286.542-.239.42-.637,1.125-.036,1.617.141.13.383.318.605.488a1.64,1.64,0,0,0-.212.939.939.939,0,0,0,.382.638c.146.1.3.2.456.283.383.218.532.32.586.521a1.8,1.8,0,0,1-.072.788c-.038.169-.076.338-.1.511a3.826,3.826,0,0,0,.22,1.753A2.439,2.439,0,0,0,7.192,36.8a2.645,2.645,0,0,0,.532-.056A49.343,49.343,0,0,0,13.211,35.1c1.466.86,2.393,3.477,2.634,4.459a.651.651,0,0,0,.632.493l16.337-.046a.651.651,0,0,0,.62-.846,5.028,5.028,0,0,0-.659-1.237,6.039,6.039,0,0,1-.422-.7,12.391,12.391,0,0,1-.735-1.853,21.937,21.937,0,0,1-.77-3.851A11.019,11.019,0,0,1,31.7,25.8a14.549,14.549,0,0,1,1.768-2.794c.391-.527.8-1.073,1.16-1.647a10.066,10.066,0,0,0,1.341-3.17A.651.651,0,0,0,34.7,17.9a8.787,8.787,0,0,1-1.172,2.766c-.338.534-.728,1.06-1.106,1.569a15.728,15.728,0,0,0-1.916,3.049,12.313,12.313,0,0,0-.954,6.392,23.1,23.1,0,0,0,.821,4.083,13.567,13.567,0,0,0,.808,2.039,7.113,7.113,0,0,0,.5.846l.044.065-14.763.044a10.379,10.379,0,0,0-2.292-4.156l.586-.2c.437-.153.767-.268.938-.325,2.787-.888,4.181-2.158,4.143-3.775a.639.639,0,0,0-.665-.632.651.651,0,0,0-.635.666c.016.666-.533,1.641-3.239,2.5-.177.057-.521.176-.97.334-.484.169-1.1.383-1.774.613h0a50.693,50.693,0,0,1-5.594,1.692A1.159,1.159,0,0,1,6.122,34.6a2.6,2.6,0,0,1-.161-1.153c.019-.13.049-.267.079-.4a2.84,2.84,0,0,0,.065-1.4,2.157,2.157,0,0,0-1.2-1.328l-.14-.08a2.4,2.4,0,0,1,.251-.4.651.651,0,0,0-.126-.927c-.156-.115-.521-.391-.794-.608.031-.057.065-.119.1-.175.1-.18.219-.391.333-.629A2.43,2.43,0,0,0,4.7,26.037c-.156-.794-.916-1.183-1.472-1.467a3.76,3.76,0,0,1-.536-.312,2.774,2.774,0,0,1-.391-.316c0-.1.106-.338.6-.941a26.261,26.261,0,0,0,2.978-4.839,1.934,1.934,0,0,0,.251-.88,2.278,2.278,0,0,0-.955-1.627c-.264-.242-.513-.47-.541-.662a1.279,1.279,0,0,1,.105-.463c.106-.279.229-.552.351-.826a9.553,9.553,0,0,0,.651-1.764A17.457,17.457,0,0,1,6.33,9.786,11.159,11.159,0,0,1,8.665,5.971,10.719,10.719,0,0,1,14.5,3.2a42.294,42.294,0,0,1,6.106-.88,14.247,14.247,0,0,1,2.073.044.652.652,0,1,0,.121-1.3,15.832,15.832,0,0,0-2.262-.045,43.444,43.444,0,0,0-6.3.9A11.833,11.833,0,0,0,7.718,5.077,12.449,12.449,0,0,0,5.107,9.335a19.028,19.028,0,0,0-.641,2.352,8.43,8.43,0,0,1-.558,1.484c-.13.3-.264.592-.381.9a2.274,2.274,0,0,0-.177,1.093A2.5,2.5,0,0,0,4.3,16.613c.319.292.529.5.532.678a1.1,1.1,0,0,1-.111.282A25.123,25.123,0,0,1,1.874,22.2a2.709,2.709,0,0,0-.862,1.915A1.994,1.994,0,0,0,1.957,25.336Z" transform="translate(-0.998 -0.999)"/><path class="a" d="M12,12.548a8.574,8.574,0,0,1,1.786-2.929,8.325,8.325,0,0,1,4.46-2.011.651.651,0,1,0-.253-1.277,9.547,9.547,0,0,0-5.152,2.391A9.867,9.867,0,0,0,10.774,12.1a16.562,16.562,0,0,0-.534,1.986l1.271.282A15.563,15.563,0,0,1,12,12.548Z" transform="translate(-4.224 -2.856)"/><path class="a" d="M29.369,4.645l-.391,1.947a7.753,7.753,0,0,0-1.1.456L26.23,5.941a1.3,1.3,0,0,0-1.635.17l-1.08,1.08a1.3,1.3,0,0,0-.172,1.65l1.1,1.645a7.749,7.749,0,0,0-.456,1.1l-1.945.391A1.3,1.3,0,0,0,21,13.249v1.536a1.3,1.3,0,0,0,1.041,1.276l1.947.391a7.749,7.749,0,0,0,.456,1.1L23.338,19.2a1.3,1.3,0,0,0,.17,1.635l1.08,1.08a1.306,1.306,0,0,0,1.649.171l1.645-1.1a7.75,7.75,0,0,0,1.1.456l.391,1.945a1.3,1.3,0,0,0,1.277,1.045h1.536a1.3,1.3,0,0,0,1.276-1.041l.391-1.947a7.749,7.749,0,0,0,1.1-.456L36.6,22.093a1.3,1.3,0,0,0,1.635-.17l1.08-1.08a1.3,1.3,0,0,0,.172-1.65l-1.1-1.645a7.75,7.75,0,0,0,.456-1.1l1.945-.391a1.3,1.3,0,0,0,.9-.678l.981.657a1.188,1.188,0,0,0,.632.183,1.172,1.172,0,0,0,.831-.346l.866-.866a1.182,1.182,0,0,0,.152-1.48l-.84-1.256a6.122,6.122,0,0,0,.315-.756l1.473-.294a1.172,1.172,0,0,0,.946-1.154V8.849A1.172,1.172,0,0,0,46.094,7.7L44.615,7.4a6.028,6.028,0,0,0-.314-.756l.853-1.271a1.176,1.176,0,0,0-.163-1.463l-.866-.866a1.181,1.181,0,0,0-1.48-.152l-1.256.84a6.119,6.119,0,0,0-.756-.315l-.294-1.473A1.172,1.172,0,0,0,39.185,1H37.962a1.172,1.172,0,0,0-1.153.941L36.514,3.42a6.024,6.024,0,0,0-.756.316l-1.271-.853a1.177,1.177,0,0,0-1.463.163l-.586.586a1.333,1.333,0,0,0-.256-.028H30.646A1.3,1.3,0,0,0,29.369,4.645ZM39.32,7.2l-.3-.3a2.59,2.59,0,0,1,.809,4.886l-.988-.2a7.75,7.75,0,0,0-.456-1.1l1.106-1.653A1.3,1.3,0,0,0,39.32,7.2ZM33.872,4.036l1.488,1a.651.651,0,0,0,.7.019,4.761,4.761,0,0,1,1.191-.5.651.651,0,0,0,.469-.5l.35-1.753h1.018l.35,1.757a.651.651,0,0,0,.469.5,4.761,4.761,0,0,1,1.191.5.651.651,0,0,0,.7-.023l1.488-1L44,4.759,43,6.248a.651.651,0,0,0-.019.7,4.76,4.76,0,0,1,.5,1.191.651.651,0,0,0,.5.469l1.757.35V9.97l-1.754.35a.651.651,0,0,0-.5.469,4.76,4.76,0,0,1-.5,1.191.651.651,0,0,0,.019.7l1,1.488-.722.722-1.451-.97v-.665a1.306,1.306,0,0,0-.456-.991,3.9,3.9,0,0,0-2.714-6.7,3.767,3.767,0,0,0-1.158.19,1.32,1.32,0,0,0-.911.2l-1.643,1.1a7.753,7.753,0,0,0-1.1-.456l-.391-1.945a1.19,1.19,0,0,0-.045-.154Zm-3.695,3.2.469-2.328h1.536l.468,2.33a.651.651,0,0,0,.468.5,6.412,6.412,0,0,1,1.537.638.651.651,0,0,0,.689-.022l1.97-1.317L38.4,8.119,37.082,10.09a.651.651,0,0,0-.022.689,6.412,6.412,0,0,1,.638,1.537.651.651,0,0,0,.5.468l2.328.465v1.537l-2.33.468a.651.651,0,0,0-.5.468,6.412,6.412,0,0,1-.638,1.537.651.651,0,0,0,.022.689l1.317,1.97-1.085,1.091-1.971-1.321a.651.651,0,0,0-.689-.022,6.412,6.412,0,0,1-1.537.638.651.651,0,0,0-.468.5l-.466,2.328H30.646l-.468-2.33a.651.651,0,0,0-.468-.5,6.412,6.412,0,0,1-1.537-.638.651.651,0,0,0-.689.022L25.515,21l-1.091-1.085,1.321-1.971a.651.651,0,0,0,.022-.689,6.412,6.412,0,0,1-.638-1.537.651.651,0,0,0-.5-.468L22.3,14.785V13.249l2.33-.468a.651.651,0,0,0,.5-.468,6.412,6.412,0,0,1,.638-1.537.651.651,0,0,0-.022-.689L24.43,8.119l1.085-1.091,1.971,1.321a.651.651,0,0,0,.689.022,6.412,6.412,0,0,1,1.537-.638A.651.651,0,0,0,30.177,7.233Z" transform="translate(-7.981 -0.999)"/><path class="a" d="M34.556,23.112A4.556,4.556,0,1,0,30,18.556,4.556,4.556,0,0,0,34.556,23.112Zm0-7.81A3.254,3.254,0,1,1,31.3,18.556,3.254,3.254,0,0,1,34.556,15.3Z" transform="translate(-11.123 -5.538)"/><ellipse class="a" cx="0.5" cy="1" rx="0.5" ry="1" transform="translate(23.051 12)"/><circle class="a" cx="0.5" cy="0.5" r="0.5" transform="translate(5.051 13)"/></g></g></svg>