<svg xmlns="http://www.w3.org/2000/svg" width="46.436" height="37.145" viewBox="0 0 46.436 37.145"><defs><style>.a{fill:#2a84b3;}</style></defs><path class="a" d="M40.972,13.966A5.432,5.432,0,0,0,35.6,9.284c-.108,0-.224,0-.333.008A12.34,12.34,0,0,0,23.776.012C23.4,0,23.048,0,22.607.012A12.357,12.357,0,0,0,11.16,9.3a6.23,6.23,0,0,0-5.549,4.659A6.191,6.191,0,0,0,0,20.119a1.319,1.319,0,0,0,.008.155,6.2,6.2,0,0,0,3.908,5.611l.108.039c.108.039.224.085.333.116a6.338,6.338,0,0,0,1.834.271h8.513v1.548H13.157a.774.774,0,0,0-.689,1.122l3.87,7.739a.774.774,0,0,0,1.378,0l3.87-7.739a.774.774,0,0,0-.689-1.122H19.349V26.31h7.739V36.372a.774.774,0,0,0,.774.774h3.1a.774.774,0,0,0,.774-.774V26.31h8.513a4.55,4.55,0,0,0,.565-.031.383.383,0,0,0,.093-.008,3.749,3.749,0,0,0,.472-.07,5.915,5.915,0,0,0,1.269-.371,5.064,5.064,0,0,0,.5-.24l.093-.046.1-.062a2.661,2.661,0,0,0,.24-.139,6.239,6.239,0,0,0,2.848-5.069,1.407,1.407,0,0,0,.008-.155,6.208,6.208,0,0,0-5.464-6.153Zm-21.33,15.44-2.616,5.232-2.616-5.232h1.068a.774.774,0,0,0,.774-.774V15.475H17.8V28.632a.774.774,0,0,0,.774.774Zm11.315-7.739a.774.774,0,0,0-.774.774V35.6H28.636V22.441a.774.774,0,0,0-.774-.774H26.794l2.616-5.232,2.616,5.232ZM44.881,20.22a4.657,4.657,0,0,1-2.121,3.816c-.062.031-.116.07-.178.1l-.155.077a2.653,2.653,0,0,1-.364.186,4.927,4.927,0,0,1-1,.286,1.763,1.763,0,0,1-.294.046.383.383,0,0,0-.093.008,4.052,4.052,0,0,1-.433.023H31.732V23.215h1.548a.774.774,0,0,0,.689-1.122L30.1,14.353a.8.8,0,0,0-1.378,0l-3.87,7.739a.774.774,0,0,0,.689,1.122h1.548v1.548H19.349V14.7a.774.774,0,0,0-.774-.774h-3.1a.774.774,0,0,0-.774.774V24.763H6.192a4.848,4.848,0,0,1-1.4-.209c-.077-.023-.155-.054-.232-.085l-.093-.031A4.633,4.633,0,0,1,1.556,20.2a.411.411,0,0,0-.008-.1,4.666,4.666,0,0,1,4.706-4.62.773.773,0,0,0,.766-.665,4.648,4.648,0,0,1,4.59-3.978H11.7a.756.756,0,0,0,.851-.627A10.763,10.763,0,0,1,22.7,1.56c.34-.015.658-.015,1.037,0a10.732,10.732,0,0,1,10.154,8.722.789.789,0,0,0,.333.511.781.781,0,0,0,.588.116,3.744,3.744,0,0,1,.789-.077,3.869,3.869,0,0,1,3.87,3.87.774.774,0,0,0,.774.774,4.652,4.652,0,0,1,4.644,4.62.718.718,0,0,0-.008.124Zm0,0" transform="translate(0 0)"/></svg>