<svg xmlns="http://www.w3.org/2000/svg" width="32.516" height="32.5" viewBox="0 0 32.516 32.5"><defs><style>.a{fill:#fff;}</style></defs><g transform="translate(-3.75 -3.75)"><path class="a" d="M21.875,26.648l-.094.008a1.293,1.293,0,0,0-.75.352l-5.047,5.047a5.69,5.69,0,0,1-8.047-8.047L13.3,18.648a5.656,5.656,0,0,1,.891-.727,5.742,5.742,0,0,1,1.156-.586,5.47,5.47,0,0,1,1.172-.289,5.54,5.54,0,0,1,.8-.055c.109,0,.219.008.359.016a5.674,5.674,0,0,1,3.656,1.641,5.6,5.6,0,0,1,1.336,2.133,1.23,1.23,0,0,0,1.508.789c.008,0,.016-.008.023-.008s.016,0,.016-.008a1.22,1.22,0,0,0,.82-1.492,7.08,7.08,0,0,0-1.922-3.2,8.224,8.224,0,0,0-4.5-2.289c-.148-.023-.3-.047-.445-.062a8.063,8.063,0,0,0-.867-.047c-.2,0-.406.008-.6.023a7.879,7.879,0,0,0-1.266.2c-.086.016-.164.039-.25.063a8.127,8.127,0,0,0-1.523.57,8.025,8.025,0,0,0-2.164,1.555L6.133,22.227a8.241,8.241,0,0,0-2.383,5.82,8.215,8.215,0,0,0,14.016,5.8l5.1-5.1A1.236,1.236,0,0,0,21.875,26.648Z"/><path class="a" d="M33.852,6.148a8.233,8.233,0,0,0-11.617,0l-4.977,4.977a1.256,1.256,0,0,0,.789,2.141,1.269,1.269,0,0,0,.992-.359l4.984-4.969a5.69,5.69,0,0,1,8.047,8.047l-5.359,5.359a5.656,5.656,0,0,1-.891.727,5.742,5.742,0,0,1-1.156.586,5.47,5.47,0,0,1-1.172.289,5.54,5.54,0,0,1-.8.055c-.109,0-.227-.008-.359-.016A5.614,5.614,0,0,1,17.4,19.352a1.248,1.248,0,0,0-1.492-.766,1.262,1.262,0,0,0-.883,1.6,7.136,7.136,0,0,0,1.852,2.93h0l.016.016a8.225,8.225,0,0,0,4.945,2.352,8.063,8.063,0,0,0,.867.047q.3,0,.609-.023a8.932,8.932,0,0,0,1.508-.25,8.127,8.127,0,0,0,1.523-.57,8.025,8.025,0,0,0,2.164-1.555l5.359-5.359a8.223,8.223,0,0,0-.016-11.625Z"/></g></svg>