<svg xmlns="http://www.w3.org/2000/svg" width="525.631" height="499.724" viewBox="0 0 525.631 499.724"><defs><style>.a,.h,.m{fill:#fff;}.a{opacity:0.5;}.b{fill:#062640;}.c{fill:#fafafa;}.d{fill:#2a84b3;}.e{opacity:0.3;}.f{fill:#2981d4;}.g{fill:#e0e0e0;}.h{font-size:9px;font-family:Montserrat-Medium, Montserrat;font-weight:500;}.i{fill:#455a64;}.j{fill:#ffbe9d;}.k{fill:#044ca4;}.l{opacity:0.6;}.n{fill:#2ab39e;}.o,.s{fill:#e54b5a;}.p{fill:#eb996e;}.q{fill:#b32a83;}.r{fill:#5da5fd;}.s{stroke:rgba(0,0,0,0);stroke-miterlimit:10;}.t{fill:#231f20;}</style></defs><g transform="translate(-930.33 -334.486)"><circle class="a" cx="15" cy="15" r="15" transform="translate(1162.534 448.916)"/><g transform="translate(899.944 334.486)"><g transform="translate(179.256 0)"><path class="b" d="M361.569,556.115H196.5c-19.881-.091-36.16-17.044-36.077-36.925l1.752-414.43A36.012,36.012,0,0,1,198.346,68.9l165.309.764A36.009,36.009,0,0,1,399.5,105.827l-1.752,414.432A36.008,36.008,0,0,1,361.569,556.115Z" transform="translate(-160.419 -68.901)"/><g transform="translate(10.976 14.306)"><path class="c" d="M361.264,81.161l-32.051-.148a7.963,7.963,0,0,0-7.816,8.1l-.026,5.814a7.96,7.96,0,0,1-7.816,8.1l-62.473-.289a7.967,7.967,0,0,1-7.748-8.172l.025-5.813a7.969,7.969,0,0,0-7.749-8.172l-11.272-.052L196.286,80.4a25.218,25.218,0,0,0-25.334,25.112l-1.711,404.514a25.22,25.22,0,0,0,25.1,25.327l164.978.761A25.22,25.22,0,0,0,384.656,511l1.71-404.517A25.219,25.219,0,0,0,361.264,81.161Z" transform="translate(-169.241 -80.399)"/></g><g transform="translate(34.954 46.756)"><g transform="translate(0 9.314)"><path class="b" d="M213.176,114.291c0,.179-5.522.324-12.331.324s-12.333-.144-12.333-.324,5.521-.325,12.333-.325S213.176,114.112,213.176,114.291Z" transform="translate(-188.512 -113.966)"/></g><g transform="translate(0 4.657)"><path class="b" d="M213.176,110.548c0,.178-5.522.323-12.331.323s-12.333-.146-12.333-.323,5.521-.325,12.333-.325S213.176,110.369,213.176,110.548Z" transform="translate(-188.512 -110.223)"/></g><path class="b" d="M213.176,106.8c0,.179-5.522.325-12.331.325s-12.333-.146-12.333-.325,5.521-.323,12.333-.323S213.176,106.626,213.176,106.8Z" transform="translate(-188.512 -106.48)"/></g><g transform="translate(33.765 404.118)"><rect class="d" width="171.55" height="39.248" rx="3.224"/></g><g transform="translate(52.42 412.089)"><g class="e"><rect class="d" width="24.29" height="24.29" rx="3.124"/></g><g transform="translate(5.212 5.099)"><g transform="translate(6.311)"><path class="d" d="M212.433,418.3a.622.622,0,0,1-.622-.622V404.828a.622.622,0,1,1,1.244,0v12.848A.622.622,0,0,1,212.433,418.3Z" transform="translate(-211.811 -404.206)"/></g><g transform="translate(0 6.424)"><path class="d" d="M219.982,410.613H207.361a.622.622,0,1,1,0-1.244h12.621a.622.622,0,0,1,0,1.244Z" transform="translate(-206.739 -409.369)"/></g></g></g><g transform="translate(40.612 329.485)"><path class="f" d="M199.9,333.717,202.011,338l4.725.687-3.419,3.333.807,4.706L199.9,344.5l-4.226,2.222.807-4.706-3.419-3.333,4.725-.687Z" transform="translate(-193.06 -333.717)"/><g transform="translate(17.446)"><path class="f" d="M213.92,333.717,216.033,338l4.725.687-3.419,3.333.807,4.706L213.92,344.5l-4.226,2.222.807-4.706-3.419-3.333,4.725-.687Z" transform="translate(-207.082 -333.717)"/></g><g transform="translate(34.893)"><path class="f" d="M227.942,333.717,230.055,338l4.725.687-3.419,3.333.807,4.706-4.226-2.222-4.226,2.222.807-4.706-3.419-3.333,4.725-.687Z" transform="translate(-221.104 -333.717)"/></g><g transform="translate(52.339)"><path class="f" d="M241.964,333.717,244.077,338l4.725.687-3.419,3.333.807,4.706-4.226-2.222-4.226,2.222.807-4.706-3.419-3.333,4.725-.687Z" transform="translate(-235.126 -333.717)"/></g><g transform="translate(69.786)"><path class="g" d="M255.986,333.717,258.1,338l4.725.687-3.419,3.333.807,4.706-4.226-2.222-4.226,2.222.807-4.706-3.419-3.333,4.725-.687Z" transform="translate(-249.148 -333.717)"/></g><g transform="translate(96.402 2.521)"><path d="M276.353,343.04V344h-5.558v-.75l3.149-3.04c.817-.8.972-1.282.972-1.768,0-.8-.562-1.282-1.646-1.282a2.428,2.428,0,0,0-1.977.84l-.751-.651a3.561,3.561,0,0,1,2.828-1.172c1.614,0,2.653.829,2.653,2.154a3.138,3.138,0,0,1-1.272,2.432l-2.364,2.276Z" transform="translate(-270.541 -335.637)"/><path d="M281.325,341.708c0,1.3-.962,2.364-2.928,2.364a4.4,4.4,0,0,1-2.841-.938l.509-.875a3.477,3.477,0,0,0,2.332.829c1.16,0,1.823-.529,1.823-1.369,0-.817-.585-1.349-1.911-1.349h-.618V339.6l1.945-2.386H275.91v-.963h5.106V337l-2.022,2.5C280.541,339.641,281.325,340.514,281.325,341.708Z" transform="translate(-269.316 -335.62)"/><path d="M289.084,343.983l-1.668-2.375c-.156.011-.321.022-.486.022h-1.912v2.353h-1.1v-7.735h3.016c2.012,0,3.226,1.018,3.226,2.7a2.44,2.44,0,0,1-1.7,2.442l1.835,2.6Zm-.034-5.039c0-1.1-.74-1.733-2.155-1.733h-1.879v3.48H286.9C288.31,340.691,289.05,340.05,289.05,338.944Z" transform="translate(-267.276 -335.62)"/><path d="M295.619,341.051h-4.75a1.983,1.983,0,0,0,2.121,1.713,2.182,2.182,0,0,0,1.69-.708l.586.684a3.191,3.191,0,0,1-5.458-2.043,2.868,2.868,0,0,1,2.94-2.984,2.823,2.823,0,0,1,2.894,3.016C295.641,340.818,295.63,340.951,295.619,341.051Zm-4.75-.763h3.756a1.89,1.89,0,0,0-3.756,0Z" transform="translate(-265.836 -335.262)"/><path d="M300.972,337.758l-2.564,5.856h-1.082l-2.564-5.856h1.1l2.011,4.7,2.057-4.7Z" transform="translate(-264.626 -335.251)"/><path d="M300.4,336.439a.7.7,0,0,1,.718-.7.687.687,0,0,1,.718.673.718.718,0,0,1-1.436.022Zm.188,1.812h1.061v5.856h-1.061Z" transform="translate(-263.25 -335.743)"/><path d="M308.4,341.051h-4.75a1.983,1.983,0,0,0,2.121,1.713,2.182,2.182,0,0,0,1.69-.708l.586.684a3.191,3.191,0,0,1-5.458-2.043,2.868,2.868,0,0,1,2.94-2.984,2.823,2.823,0,0,1,2.894,3.016C308.426,340.818,308.415,340.951,308.4,341.051Zm-4.75-.763h3.756a1.89,1.89,0,0,0-3.756,0Z" transform="translate(-262.714 -335.262)"/><path d="M317.419,337.758l-2.189,5.856h-1.015l-1.692-4.442-1.712,4.442h-1.017l-2.176-5.856h1l1.7,4.663,1.767-4.663h.895l1.736,4.686,1.746-4.686Z" transform="translate(-261.487 -335.251)"/><path d="M315.7,343.007l.442-.84a3.766,3.766,0,0,0,2.055.608c.984,0,1.392-.3,1.392-.8,0-1.315-3.7-.177-3.7-2.508,0-1.049.939-1.757,2.442-1.757a4.271,4.271,0,0,1,2.133.53l-.453.84a3.067,3.067,0,0,0-1.692-.463c-.927,0-1.38.341-1.38.8,0,1.382,3.711.255,3.711,2.531,0,1.061-.972,1.736-2.529,1.736A4.224,4.224,0,0,1,315.7,343.007Z" transform="translate(-259.514 -335.262)"/></g></g><g transform="translate(41.218 356.669)"><path d="M199.8,372.412v2.3h-1.3v-2.3a8.242,8.242,0,0,1-4.951-1.772l.755-1.589a7.1,7.1,0,0,0,4.2,1.629v-4.725c-2.241-.55-4.6-1.263-4.6-4.034,0-2.017,1.447-3.769,4.6-4.034v-2.322h1.3v2.3a8.192,8.192,0,0,1,4.136,1.242l-.672,1.631A7.342,7.342,0,0,0,199.8,359.6v4.745c2.282.571,4.727,1.243,4.727,4.035C204.528,370.4,203.02,372.147,199.8,372.412Zm-1.3-8.392v-4.4c-1.813.223-2.608,1.14-2.608,2.22C195.89,363.1,197.031,363.631,198.5,364.019Zm4.034,4.48c0-1.3-1.222-1.813-2.73-2.22v4.381C201.7,370.477,202.531,369.6,202.531,368.5Z" transform="translate(-193.547 -355.565)"/><path d="M220.678,368.285h-2.71v3.5h-1.976v-3.5h-7.924V366.86l7.292-9.33h2.2l-6.987,9h5.479v-3.1h1.915v3.1h2.71Z" transform="translate(-190.001 -355.085)"/><path d="M219.184,364.691c0-4.645,2.485-7.292,5.827-7.292,3.321,0,5.805,2.648,5.805,7.292s-2.485,7.292-5.805,7.292C221.669,371.984,219.184,369.337,219.184,364.691Zm9.594,0c0-3.647-1.548-5.479-3.767-5.479-2.241,0-3.79,1.833-3.79,5.479s1.549,5.479,3.79,5.479C227.23,370.171,228.778,368.338,228.778,364.691Z" transform="translate(-187.286 -355.117)"/><path d="M229.874,368.231a1.36,1.36,0,0,1,1.385-1.385,1.34,1.34,0,0,1,1.345,1.385,1.358,1.358,0,0,1-1.345,1.406A1.378,1.378,0,0,1,229.874,368.231Z" transform="translate(-184.676 -352.81)"/><path d="M245.046,367.787c0,2.588-2.2,4.2-5.684,4.2-3.463,0-5.642-1.609-5.642-4.2a3.534,3.534,0,0,1,2.506-3.441,3.225,3.225,0,0,1-2-3.077c0-2.383,2.058-3.869,5.134-3.869,3.1,0,5.175,1.487,5.175,3.869a3.245,3.245,0,0,1-2.017,3.077A3.546,3.546,0,0,1,245.046,367.787Zm-2.037-.06c0-1.569-1.385-2.547-3.647-2.547s-3.606.978-3.606,2.547c0,1.61,1.345,2.607,3.606,2.607S243.009,369.337,243.009,367.727Zm-6.762-6.377c0,1.4,1.16,2.281,3.115,2.281,1.976,0,3.178-.876,3.178-2.281,0-1.426-1.262-2.3-3.178-2.3S236.247,359.925,236.247,361.351Z" transform="translate(-183.737 -355.117)"/><path d="M244.329,364.691c0-4.645,2.485-7.292,5.825-7.292,3.321,0,5.805,2.648,5.805,7.292s-2.485,7.292-5.805,7.292C246.814,371.984,244.329,369.337,244.329,364.691Zm9.594,0c0-3.647-1.549-5.479-3.769-5.479-2.24,0-3.79,1.833-3.79,5.479s1.55,5.479,3.79,5.479C252.374,370.171,253.923,368.338,253.923,364.691Z" transform="translate(-181.146 -355.117)"/></g><g transform="translate(181.855 359.374)"><path class="f" d="M313.09,370.393a.59.59,0,0,1-.139-.015.568.568,0,0,1-.095-.031.59.59,0,0,1-.211-.141l-4.443-4.534a5.412,5.412,0,0,1-1.38-5.421,3.624,3.624,0,0,1,5.88-1.578,3.12,3.12,0,0,1,.387.486,3.146,3.146,0,0,1,.409-.506,3.425,3.425,0,0,1,2.516-.915,3.333,3.333,0,0,1,3.343,2.512h0a5.414,5.414,0,0,1-1.381,5.421l-4.441,4.534A.622.622,0,0,1,313.09,370.393Zm-2.849-11.409h-.056a2.105,2.105,0,0,0-2.177,1.647,4.171,4.171,0,0,0,1.084,4.171l4,4.082,4-4.082a4.169,4.169,0,0,0,1.085-4.171,2.105,2.105,0,0,0-2.177-1.647,2.163,2.163,0,0,0-1.627.561,2.827,2.827,0,0,0-.654,1.828.623.623,0,1,1-1.245.034v-.083a2.778,2.778,0,0,0-.659-1.783A2.114,2.114,0,0,0,310.24,358.983Z" transform="translate(-306.58 -357.739)"/></g><g transform="translate(72.596 97.752)"><g transform="translate(0 12.693)"><path class="b" d="M312.654,157.993c0,.179-21.02.323-46.941.323s-46.946-.144-46.946-.323,21.015-.325,46.946-.325S312.654,157.814,312.654,157.993Z" transform="translate(-218.766 -157.668)"/></g><g transform="translate(11.167)"><rect class="f" width="69.944" height="3.987"/></g></g><g transform="translate(56.039 308.97)"><g transform="translate(0 0.324)"><path class="b" d="M205.459,317.488h127" transform="translate(-205.459 -317.488)"/></g><path class="b" d="M332.46,317.552c0,.179-28.433.323-63.5.323s-63.5-.144-63.5-.323,28.426-.324,63.5-.324S332.46,317.372,332.46,317.552Z" transform="translate(-205.459 -317.228)"/></g><g transform="translate(73.912 298.012)"><g transform="translate(0 0.324)"><path class="b" d="M219.824,308.681h91.255" transform="translate(-219.824 -308.681)"/></g><path class="b" d="M311.079,308.744c0,.179-20.43.325-45.625.325s-45.63-.146-45.63-.325,20.425-.323,45.63-.323S311.079,308.565,311.079,308.744Z" transform="translate(-219.824 -308.421)"/></g><text class="h" transform="translate(95.508 426.66)"><tspan x="0" y="0">PAYMENT</tspan></text></g><g transform="translate(30.386 118.138)"><g transform="translate(0 0)"><g transform="translate(57.195 245.06)"><g transform="translate(11.905 13.847)"><rect class="i" width="16.457" height="109.887"/></g><g transform="translate(0.211 0.646)"><rect class="i" width="124.865" height="15.211"/></g><g transform="translate(21.101 60.711)"><rect class="i" width="85.852" height="15.211"/></g><g transform="translate(98.724 13.847)"><rect class="i" width="16.458" height="109.887"/></g><g transform="translate(0 15.311)"><path class="b" d="M211.75,373.441c0,.179-27.987.325-62.5.325s-62.509-.146-62.509-.325,27.981-.323,62.509-.323S211.75,373.264,211.75,373.441Z" transform="translate(-86.737 -373.118)"/></g><g transform="translate(28.109 52.293)"><path class="b" d="M109.654,439.264c-.179,0-.325-8.153-.325-18.21s.146-18.213.325-18.213.323,8.153.323,18.213S109.832,439.264,109.654,439.264Z" transform="translate(-109.329 -402.841)"/></g><g transform="translate(98.37 54.173)"><path class="b" d="M166.123,438.191c-.178,0-.323-7.576-.323-16.919s.146-16.92.323-16.92.325,7.575.325,16.92S166.3,438.191,166.123,438.191Z" transform="translate(-165.8 -404.352)"/></g><g transform="translate(0.241 0.8)"><path class="b" d="M212.415,365.456s-.449-.111-1.293-.347a22.077,22.077,0,0,0-3.79-.535c-3.325-.218-8.181.505-13.752,2.614-2.8,1.028-5.767,2.385-9,3.74a55.308,55.308,0,0,1-10.639,3.489,31.776,31.776,0,0,1-12.336-.136,67.2,67.2,0,0,1-12.656-4.029c-4.213-1.731-8.257-3.576-12.275-5.064a53.291,53.291,0,0,0-11.924-3.083,51.123,51.123,0,0,0-20.7,1.591,50.265,50.265,0,0,0-12.854,5.682l-1.861,1.2-1.313.953c-.709.515-1.09.776-1.09.776s.358-.289,1.059-.819l1.3-.974,1.85-1.223A49.6,49.6,0,0,1,104,363.52a51.068,51.068,0,0,1,20.779-1.651,53.24,53.24,0,0,1,11.982,3.082c4.032,1.489,8.08,3.334,12.285,5.061a67.226,67.226,0,0,0,12.606,4.02,31.623,31.623,0,0,0,12.243.151,55.365,55.365,0,0,0,10.6-3.453c3.235-1.345,6.214-2.695,9.022-3.714,5.6-2.094,10.484-2.793,13.821-2.543a20.89,20.89,0,0,1,3.8.586C211.977,365.312,212.415,365.456,212.415,365.456Z" transform="translate(-86.931 -361.455)"/></g><g transform="translate(18.21 3.439)"><path class="b" d="M115.125,368.5a13.886,13.886,0,0,1-3.5,1.493,17.672,17.672,0,0,1-10.084-.041l-.169-.051.128-.123a21.9,21.9,0,0,1,7.761-4.839,23.119,23.119,0,0,1,10.485-1.2,22.521,22.521,0,0,1,3.392.723,9.914,9.914,0,0,1,3.094,1.354,3.044,3.044,0,0,1,1.331,2.911,3.265,3.265,0,0,1-2.21,2.155,48.775,48.775,0,0,1-10.462,2.39,50.477,50.477,0,0,1-7.228.317c-1.708-.057-2.648-.174-2.648-.174s.238,0,.686.016l1.963.057a53.916,53.916,0,0,0,7.2-.4,49.523,49.523,0,0,0,10.394-2.43,3.03,3.03,0,0,0,2.057-1.982,2.8,2.8,0,0,0-1.24-2.66,9.741,9.741,0,0,0-3.015-1.31,22.433,22.433,0,0,0-3.351-.712,23,23,0,0,0-10.369,1.172,21.874,21.874,0,0,0-7.7,4.757l-.041-.175a17.746,17.746,0,0,0,9.987.126,18.6,18.6,0,0,0,2.636-.958C114.813,368.639,115.125,368.5,115.125,368.5Z" transform="translate(-101.373 -363.576)"/></g><g transform="translate(101.666 7.951)"><path class="b" d="M183.555,370.673a2.883,2.883,0,0,0,.557,1.331,4.2,4.2,0,0,0,3.54,1.416,4.456,4.456,0,0,0,2.511-.933,2.872,2.872,0,0,0,1.043-2.73,3.072,3.072,0,0,0-2.419-2.125,13.7,13.7,0,0,0-3.736-.088,34.584,34.584,0,0,0-7.2,1.089,19.307,19.307,0,0,0-5.42,2.385,14.906,14.906,0,0,0-3.042,2.594c-.315.355-.546.642-.7.842a2.214,2.214,0,0,1-.243.3,8.617,8.617,0,0,1,.862-1.2,14.153,14.153,0,0,1,3.018-2.681,19.057,19.057,0,0,1,5.457-2.462,33.947,33.947,0,0,1,7.247-1.117,13.727,13.727,0,0,1,3.812.1,3.3,3.3,0,0,1,2.592,2.322,3.083,3.083,0,0,1-1.14,2.946,4.62,4.62,0,0,1-2.634.949,4.266,4.266,0,0,1-3.633-1.538,2.5,2.5,0,0,1-.448-1.008A2.17,2.17,0,0,1,183.555,370.673Z" transform="translate(-168.449 -367.203)"/></g><g transform="translate(61.327)"><path class="b" d="M198.069,360.934s-.229.011-.662.007l-1.892-.027c-.82.043-1.825.095-2.986.2-1.156.161-2.476.309-3.912.628a84.538,84.538,0,0,0-9.928,2.806c-3.692,1.218-7.717,2.7-12.077,3.81a39.646,39.646,0,0,1-12.574,1.331,31.373,31.373,0,0,1-10.013-2.516,30.415,30.415,0,0,1-6.031-3.5,20.491,20.491,0,0,1-1.967-1.634s.187.132.524.4.84.666,1.5,1.15a31.576,31.576,0,0,0,16,5.856,39.792,39.792,0,0,0,12.492-1.344c4.344-1.11,8.366-2.578,12.065-3.785a81.657,81.657,0,0,1,9.969-2.758c1.442-.311,2.771-.447,3.932-.593,1.167-.092,2.177-.128,3-.158l1.9.077C197.843,360.91,198.069,360.934,198.069,360.934Z" transform="translate(-136.027 -360.812)"/></g><g transform="translate(100.348 22.483)"><path class="b" d="M167.452,480.416s-.025-.379-.047-1.1a23.24,23.24,0,0,1,.124-3.172,43.237,43.237,0,0,1,3.023-11.248c1.739-4.606,4.4-9.876,6.118-16.152a49.183,49.183,0,0,0,.876-20.95,48.779,48.779,0,0,0-3.046-10.485c-1.351-3.267-2.853-6.355-3.828-9.48a20.526,20.526,0,0,1-.938-9.169A23.641,23.641,0,0,1,172.215,391a37.183,37.183,0,0,1,7.078-9.238c1.976-1.924,3.164-2.88,3.164-2.88s-.275.265-.807.756-1.313,1.222-2.286,2.195a37.8,37.8,0,0,0-6.986,9.251,23.547,23.547,0,0,0-2.431,7.6,20.361,20.361,0,0,0,.953,9.068c.974,3.1,2.476,6.177,3.836,9.455a48.918,48.918,0,0,1,3.067,10.538,50.1,50.1,0,0,1,.672,10.953,50.631,50.631,0,0,1-1.573,10.1c-1.739,6.307-4.421,11.569-6.179,16.158a44.02,44.02,0,0,0-3.093,11.192,24.818,24.818,0,0,0-.173,3.159C167.462,480.034,167.452,480.416,167.452,480.416Z" transform="translate(-167.389 -378.882)"/></g><g transform="translate(98.349 55.351)"><path class="b" d="M165.783,405.3s.108.177.295.524c.218.417.48.921.8,1.528.684,1.331,1.675,3.259,2.8,5.692a66.722,66.722,0,0,1,3.383,8.778,36.891,36.891,0,0,1,1.661,11.382,43.919,43.919,0,0,1-1.841,11.365,82.257,82.257,0,0,1-3.221,8.841c-1.049,2.464-1.966,4.427-2.6,5.782l-.744,1.554c-.174.353-.277.534-.277.534s.071-.2.229-.556l.7-1.574c.608-1.367,1.5-3.341,2.526-5.81,1.987-4.917,4.794-11.947,4.973-20.14a37.083,37.083,0,0,0-1.631-11.309,68.987,68.987,0,0,0-3.321-8.77c-1.1-2.439-2.063-4.378-2.72-5.723-.3-.616-.549-1.127-.755-1.549C165.86,405.492,165.783,405.3,165.783,405.3Z" transform="translate(-165.783 -405.299)"/></g><g transform="translate(108.189 33.877)"><path class="b" d="M176.172,403.216a.669.669,0,0,1-.21-.341,1.24,1.24,0,0,1,.23-1.109,1.484,1.484,0,0,1,1.716-.376,2.8,2.8,0,0,1,1.565,1.792,7.882,7.882,0,0,1,.47,2.878,6.453,6.453,0,0,1-.847,3.236,2.438,2.438,0,0,1-1.466,1.122,1.685,1.685,0,0,1-1.692-.86,15.441,15.441,0,0,1-1.55-3.655,17.546,17.546,0,0,1-.485-7.592,17.281,17.281,0,0,1,4.585-9.231,11.1,11.1,0,0,1,1.135-1.04,2.351,2.351,0,0,1-.274.29c-.187.179-.453.457-.788.819a18.473,18.473,0,0,0-2.429,3.384,17.32,17.32,0,0,0-1.5,13.3,15.435,15.435,0,0,0,1.512,3.583,1.433,1.433,0,0,0,1.438.759,2.208,2.208,0,0,0,1.31-1.01,6.284,6.284,0,0,0,.831-3.111,7.78,7.78,0,0,0-.427-2.808,2.663,2.663,0,0,0-1.445-1.719,1.373,1.373,0,0,0-1.585.3,1.2,1.2,0,0,0-.26,1.033A1.5,1.5,0,0,0,176.172,403.216Z" transform="translate(-173.692 -388.04)"/></g><g transform="translate(108.973 91.877)"><path class="b" d="M182.292,434.656a1.783,1.783,0,0,1-.162.3l-.505.825c-.452.708-1.058,1.763-1.753,3.089a47,47,0,0,0-5.344,22.562c.026,1.5.095,2.714.18,3.547.03.353.056.671.081.964a1.657,1.657,0,0,1,.011.338,34.3,34.3,0,0,1-.457-4.845,44.935,44.935,0,0,1,5.366-22.653A34.363,34.363,0,0,1,182.292,434.656Z" transform="translate(-174.321 -434.656)"/></g><g transform="translate(29.077 69.486)"><path class="b" d="M179.135,417.938a76.984,76.984,0,0,1-9.881,2.833,92.2,92.2,0,0,1-24.687,1.968,91.156,91.156,0,0,1-13.549-1.789c-4.123-.834-7.736-1.994-10.788-2.844a34.084,34.084,0,0,0-7.369-1.337c-.885-.04-1.574-.026-2.039,0s-.713.029-.713.029a15.141,15.141,0,0,1,2.756-.128,32.859,32.859,0,0,1,7.413,1.26c3.068.831,6.675,1.97,10.791,2.788a92.718,92.718,0,0,0,13.513,1.764,94.451,94.451,0,0,0,24.635-1.889c3.1-.687,5.578-1.356,7.277-1.864l1.955-.6C178.9,418,179.135,417.938,179.135,417.938Z" transform="translate(-110.107 -416.66)"/></g><g transform="translate(49.763 62.217)"><path class="b" d="M154.741,414.5a18.733,18.733,0,0,1-3.609,1.249,23.776,23.776,0,0,1-10.362.265,5.508,5.508,0,0,1-1.606-.586,2.946,2.946,0,0,1-1.289-1.25,1.574,1.574,0,0,1,.368-1.8,3.611,3.611,0,0,1,1.779-.773,56.679,56.679,0,0,1,8.232-.773,59.025,59.025,0,0,1,18.693,2.623c1.242.392,2.46.82,3.591,1.248l.291.111-.284.127a61.823,61.823,0,0,1-31.1,5.176,58.956,58.956,0,0,1-9.379-1.624c-2.166-.576-3.332-.98-3.332-.98s.3.07.868.225,1.393.419,2.486.661a62.309,62.309,0,0,0,40.35-3.692l.007.238c-1.126-.426-2.338-.851-3.575-1.242a59.177,59.177,0,0,0-18.611-2.632,56.9,56.9,0,0,0-8.2.745,3.422,3.422,0,0,0-1.677.712,1.369,1.369,0,0,0-.33,1.564,3.989,3.989,0,0,0,2.75,1.739,24,24,0,0,0,10.3-.184,25.592,25.592,0,0,0,2.709-.809C154.42,414.611,154.741,414.5,154.741,414.5Z" transform="translate(-126.733 -410.817)"/></g><g transform="translate(29.662 64.205)"><path class="b" d="M110.577,415.217a4.558,4.558,0,0,1,.669-.4,16.023,16.023,0,0,1,1.93-.9A21.3,21.3,0,0,1,127,413.267a16.213,16.213,0,0,1,2.006.719,4.533,4.533,0,0,1,.7.34,4.573,4.573,0,0,1-.742-.245c-.465-.18-1.156-.4-2.017-.637a22.547,22.547,0,0,0-13.707.638c-.836.312-1.5.6-1.95.822A4.352,4.352,0,0,1,110.577,415.217Z" transform="translate(-110.577 -412.415)"/></g><g transform="translate(14.377 26.386)"><path class="b" d="M104.156,448.468s-.282-.322-.78-.968a14.281,14.281,0,0,1-1.864-3.041,6.668,6.668,0,0,1-.56-2.52,4.746,4.746,0,0,1,1.019-2.878,3.505,3.505,0,0,1,3.106-1.486,3.147,3.147,0,0,1,1.736.877,4.974,4.974,0,0,1,1.086,1.736,14.585,14.585,0,0,1,.771,4.288,32.635,32.635,0,0,1-.04,4.722,31.949,31.949,0,0,1-.822,4.989c-.205.845-.458,1.692-.744,2.539a9.336,9.336,0,0,1-1.147,2.482,2.879,2.879,0,0,1-2.4,1.386,3.215,3.215,0,0,1-2.4-1.533,8.881,8.881,0,0,1-1.222-2.663c-.29-.937-.55-1.892-.761-2.869a35.681,35.681,0,0,1-.534-12.3,69.253,69.253,0,0,1,2.954-11.979c1.219-3.794,2.451-7.434,3.317-10.985A51.549,51.549,0,0,0,105.84,399a52.828,52.828,0,0,0-3.389-12.611c-.6-1.425-1.091-2.522-1.463-3.246s-.536-1.122-.536-1.122.208.374.584,1.1.895,1.809,1.509,3.231a51.956,51.956,0,0,1,3.478,12.624,51.418,51.418,0,0,1-.926,19.35c-.862,3.566-2.092,7.215-3.306,11.006a69.31,69.31,0,0,0-2.939,11.936,35.514,35.514,0,0,0,.524,12.212c.209.969.468,1.92.754,2.851a8.619,8.619,0,0,0,1.183,2.592,2.973,2.973,0,0,0,2.208,1.433,2.638,2.638,0,0,0,2.2-1.28,9.146,9.146,0,0,0,1.12-2.42c.286-.84.539-1.68.744-2.52a31.753,31.753,0,0,0,.83-4.952,32.6,32.6,0,0,0,.055-4.689,14.456,14.456,0,0,0-.743-4.234,3.586,3.586,0,0,0-2.674-2.517,3.352,3.352,0,0,0-2.969,1.412,4.625,4.625,0,0,0-1.01,2.788,6.591,6.591,0,0,0,.53,2.481,14.757,14.757,0,0,0,1.812,3.048Z" transform="translate(-98.292 -382.019)"/></g><g transform="translate(12.682 96.237)"><path class="b" d="M112,438.16a20.764,20.764,0,0,1-.06,4.591,28.339,28.339,0,0,1-3.281,10.553c-2.09,3.794-4.74,6.884-7.282,8.257a7.124,7.124,0,0,1-3.224.944,4.29,4.29,0,0,1-1.228-.129c0-.034.438.067,1.223.029a7.323,7.323,0,0,0,3.139-1c2.467-1.382,5.073-4.459,7.144-8.22a29.227,29.227,0,0,0,3.326-10.451,31.113,31.113,0,0,0,.225-3.339v-.912A1.467,1.467,0,0,1,112,438.16Z" transform="translate(-96.93 -438.16)"/></g><g transform="translate(11.834 15.713)"><path class="b" d="M97.7,373.441s-.067.194-.218.551a12.761,12.761,0,0,0-.554,1.6,16.228,16.228,0,0,0-.4,6.164,31.453,31.453,0,0,0,2.537,8.838c1.352,3.2,3.158,6.6,4.439,10.439a23.661,23.661,0,0,1,1.074,11.239,36.27,36.27,0,0,1-2.511,8.913,60.333,60.333,0,0,1-2.69,5.639c-.7,1.3-1.131,1.992-1.131,1.992s.082-.188.261-.533l.78-1.507c.668-1.311,1.627-3.219,2.609-5.661a36.688,36.688,0,0,0,2.444-8.876,23.6,23.6,0,0,0-1.082-11.126c-1.272-3.8-3.067-7.208-4.413-10.426a31.091,31.091,0,0,1-2.5-8.912,15.893,15.893,0,0,1,.483-6.211A10.243,10.243,0,0,1,97.7,373.441Z" transform="translate(-96.248 -373.441)"/></g><g transform="translate(18.41 13.521)"><path class="b" d="M109.819,408.775a2.165,2.165,0,0,1,.058-.388c.039-.254.138-.62.2-1.1a23.006,23.006,0,0,0,.274-4.1,40.973,40.973,0,0,0-2.887-13.208c-1.861-4.976-3.757-9.42-4.713-12.784a32.2,32.2,0,0,1-1.217-5.512,2.107,2.107,0,0,1,.095.381c.057.25.117.625.23,1.1.2.952.55,2.318,1.066,3.98,1,3.339,2.915,7.759,4.781,12.749a39.7,39.7,0,0,1,2.827,13.294,21.085,21.085,0,0,1-.357,4.12A14.014,14.014,0,0,1,109.819,408.775Z" transform="translate(-101.534 -371.679)"/></g></g><g transform="translate(17.321 298.078)"><g transform="translate(30.665)"><path class="j" d="M86.513,403.425l-7.178,56.1,24.558,3.952L119.121,406.5Z" transform="translate(-79.335 -403.425)"/></g><g transform="translate(0 48.677)"><path class="k" d="M86.094,442.548l-.321,1.6S56,450.313,54.689,455.421l54.919,9.166,2.689-18.1C103.421,448.841,94.8,447.835,86.094,442.548Z" transform="translate(-54.689 -442.548)"/><g class="l" transform="translate(47.88 8.56)"><path class="m" d="M96.24,449.623a2.188,2.188,0,0,1,1.07,2.777,2.245,2.245,0,0,1-2.817,1.112,2.136,2.136,0,1,1,1.937-3.787" transform="translate(-93.171 -449.428)"/></g><g class="l" transform="translate(0 10.494)"><path class="m" d="M109.608,462.527l.647-4.355-52.874-7.19s-2.645.638-2.692,2.379Z" transform="translate(-54.689 -450.982)"/></g><g transform="translate(30.862 1.581)"><path class="b" d="M79.494,443.96c-.041.265,1.277.608,2.434,1.677,1.187,1.038,1.649,2.294,1.915,2.231.258-.01.159-1.654-1.267-2.923S79.482,443.708,79.494,443.96Z" transform="translate(-79.493 -443.819)"/></g><g transform="translate(24.646 3.033)"><path class="b" d="M74.506,445.057c-.109.245.965.888,1.663,2.156.737,1.247.735,2.491,1,2.524.245.083.725-1.431-.173-2.99S74.56,444.807,74.506,445.057Z" transform="translate(-74.498 -444.986)"/></g><g transform="translate(18.785 4.448)"><path class="b" d="M71.088,451.015c.234.1.859-1.16.445-2.719s-1.557-2.344-1.712-2.142c-.193.192.473,1.1.791,2.389C70.963,449.82,70.827,450.944,71.088,451.015Z" transform="translate(-69.787 -446.123)"/></g></g></g><g transform="translate(84.06 296.303)"><g transform="translate(5.312)"><path class="j" d="M112.6,404.383l3.989,49,22.49-3.257L140.592,402Z" transform="translate(-112.598 -401.998)"/></g><g transform="translate(0 38.449)"><path class="k" d="M140.2,432.9s-15.1,12.182-23.505,3.231l-1.671,4.764-6.607,33.544a4.388,4.388,0,0,0,2.938,5.088,4.47,4.47,0,0,0,4.566-1.206c6.1-6.551,28.394-30.754,27.934-33.779l-.692-8.064A4.12,4.12,0,0,0,140.2,432.9Z" transform="translate(-108.329 -432.9)"/><g class="l" transform="translate(3.821 8.834)"><path class="m" d="M111.4,477.957,142.906,440l.123,1.763c.312,1.9-.488,2.717-1.329,4.011-2.491,3.832-9.534,12.514-26.4,30.8a4.468,4.468,0,0,1-3.9,1.379Z" transform="translate(-111.4 -440)"/></g><g class="l" transform="translate(28.993 3.452)"><path class="m" d="M132.574,436.177a2.543,2.543,0,0,0-.488,3.42,2.594,2.594,0,0,0,3.474.489,2.681,2.681,0,0,0,.5-3.624c-.883-.932-2.859-1.116-3.673-.118" transform="translate(-131.631 -435.674)"/></g><g transform="translate(3.353 23.585)"><path class="b" d="M119.985,456.19c-.233.132-1.35-1.981-3.974-2.975-2.593-1.07-4.912-.317-4.984-.57-.044-.1.474-.462,1.464-.669a7.01,7.01,0,0,1,3.877.391,6.776,6.776,0,0,1,3.052,2.352C119.979,455.538,120.088,456.148,119.985,456.19Z" transform="translate(-111.024 -451.856)"/></g><g transform="translate(1.534 31.119)"><path class="b" d="M117.689,460.5c-.192.194-1.657-1.063-3.911-1.524-2.243-.51-4.123.025-4.21-.23-.138-.2,1.856-1.231,4.417-.663C116.551,458.62,117.9,460.371,117.689,460.5Z" transform="translate(-109.562 -457.911)"/></g><g transform="translate(5.168 16.156)"><path class="b" d="M124.794,450.105c-.187.211-2.432-1.732-5.87-2.75-3.423-1.069-6.413-.717-6.44-.993-.086-.218,3.05-1.019,6.722.118C122.892,447.581,124.992,449.973,124.794,450.105Z" transform="translate(-112.483 -445.885)"/></g><g transform="translate(6.31 8.962)"><path class="b" d="M124.585,441.454c-.1.258-2.524-.538-5.6-.429-3.082.067-5.465,1-5.575.747-.132-.2,2.24-1.583,5.552-1.662C122.267,440,124.707,441.251,124.585,441.454Z" transform="translate(-113.401 -440.103)"/></g><g transform="translate(3.981 2.212)"><path class="b" d="M117.682,442.39a3.544,3.544,0,0,1,.124-1.575,10.877,10.877,0,0,1,1.758-3.973,4.982,4.982,0,0,1,2.4-2.082,1.788,1.788,0,0,1,1.932.591,2.728,2.728,0,0,1,.454,1.945,6.187,6.187,0,0,1-6.048,4.983,7.16,7.16,0,0,1-6.6-4.395,2.378,2.378,0,0,1,.117-2.024,1.758,1.758,0,0,1,1.9-.7,6.127,6.127,0,0,1,2.639,1.721,12.172,12.172,0,0,1,2.529,3.532,3.625,3.625,0,0,1,.486,1.5,19.386,19.386,0,0,0-3.478-4.567,5.713,5.713,0,0,0-2.338-1.443.936.936,0,0,0-1.039.372,1.635,1.635,0,0,0,0,1.335,6.4,6.4,0,0,0,5.767,3.745,5.377,5.377,0,0,0,5.2-4.158,1.975,1.975,0,0,0-.259-1.371.965.965,0,0,0-1.06-.34,4.506,4.506,0,0,0-2.062,1.724A16.07,16.07,0,0,0,117.682,442.39Z" transform="translate(-111.529 -434.678)"/></g></g></g><g transform="translate(48.182 194.674)"><path class="n" d="M216.619,321.107s12.112,43.083-20.916,50.561l-52.686.521-31.808,84.917-31.716-2.215,11.587-95.4A28.109,28.109,0,0,1,113,335.234l68.236-14.918Z" transform="translate(-79.493 -320.316)"/></g><g transform="translate(56.544 5.17)"><path class="o" d="M115.972,168.522c-24.016-4.122-26.248,17.6-26.087,23.83s2.289,11.755,4.485,17.589.8,13.8-1.046,19.75c-2.162,6.969-9.045,13.363-6.586,20.233,1.931,5.4,9.059,8.04,9.934,13.7.692,4.484-2.919,8.383-4.253,12.719-2.513,8.177,3.249,16.376,8.663,23,2.236,2.736,4.941,5.71,8.473,5.757,4.88.067,7.778-5.218,9.981-9.573a83.171,83.171,0,0,1,26.227-30.326" transform="translate(-86.214 -168.006)"/></g><g transform="translate(0 123.888)"><path class="b" d="M73.086,278.044,58.945,263.729a1.03,1.03,0,0,0-.989-.274l-16.415,4.234a1.029,1.029,0,0,0-.485,1.71L68.2,297.672s20.305-5.53,19.706-5.794S73.086,278.044,73.086,278.044Z" transform="translate(-40.768 -263.423)"/><g transform="translate(12.779 20.122)"><path class="j" d="M51.188,281.714l.306-.775a2.125,2.125,0,0,1,2.089-1.34c3.307.177,10.831.608,10.825.876a2.161,2.161,0,0,1-1.668,2.87c-2.36.616-6.642.047-6.642.047l3.515,4,1.138-1.508a1.6,1.6,0,0,1,1.326-.467l6.22.737s.552,2.429-1.294,2.814a16.824,16.824,0,0,1-4.143.187l-.719,4.57,6.559,5.05-2.4,3.669-8.677-4.387-1.394-4.442a2.125,2.125,0,0,1,.1-1.542l.468-.994-1.66-1.153a2.124,2.124,0,0,1-.882-2.1l.213-1.24-2.748-2.517A2.125,2.125,0,0,1,51.188,281.714Z" transform="translate(-51.039 -279.596)"/></g><g transform="translate(19.367 29.679)"><path class="j" d="M78.6,292.774h0l-4.312-3.67-12.719-1.827-.718,4.571-4.515,4.331,17.177,8.685Z" transform="translate(-56.334 -287.277)"/></g><g transform="translate(14.737 12.326)"><path class="j" d="M73.318,276.62a3.547,3.547,0,0,0,2.5-.821l.707-.59a4.765,4.765,0,0,1,4.836-1.763l9.781,3.79,10.55,8.55-5.251,13.22L78.3,294.286a7.381,7.381,0,0,1-4.572-3.517l-1.742-3.091s-6.177-2.408-5.661-5.847l-13.527-2.808a1.987,1.987,0,0,1,1.2-2.732C55.707,275.576,68.931,276.342,73.318,276.62Z" transform="translate(-52.613 -273.33)"/><g transform="translate(0.181 5.673)"><path class="p" d="M76.174,282.772c-.037.174-5.309-.771-11.774-2.114s-11.678-2.574-11.642-2.748,5.308.77,11.774,2.114S76.21,282.6,76.174,282.772Z" transform="translate(-52.758 -277.889)"/></g><g transform="translate(19.367 14.314)"><path class="p" d="M73.056,287.335c-.107.149-1.17-.443-2.5-1.1s-2.434-1.17-2.379-1.344,1.291.068,2.669.764S73.161,287.2,73.056,287.335Z" transform="translate(-68.178 -284.835)"/></g></g><g transform="translate(23.253 26.675)"><path class="p" d="M62.733,295.637a22.124,22.124,0,0,1-3.18-3.087l-.1-.1.026-.143c.21-1.167.383-2.444.738-3.94a1.378,1.378,0,0,1,.689-.827,2.6,2.6,0,0,1,.912-.205l1.586-.107a8.589,8.589,0,0,1,1.459-.031,1.374,1.374,0,0,0,1-.223,1.819,1.819,0,0,0,.475-1.473c-.02-.408-.137-.6-.1-.633s.244.152.347.593a1.963,1.963,0,0,1-.423,1.858,1.8,1.8,0,0,1-1.334.414,9.375,9.375,0,0,0-1.381.09l-1.553.142c-.581.058-.926.142-1.068.62-.3,1.3-.54,2.715-.788,3.828l-.07-.244A22.141,22.141,0,0,1,62.733,295.637Z" transform="translate(-59.457 -284.862)"/></g><g transform="translate(16.903 22.228)"><path class="j" d="M54.353,281.288c1.089,1.63,8.08,1.864,8.734,1.738a2.159,2.159,0,0,1,1.641.292.937.937,0,0,1-.169,1.634l-6.353,2.678Z" transform="translate(-54.353 -281.288)"/></g><g transform="translate(17.83 25.823)"><path class="p" d="M63.132,284.539c-.007.068-.347.078-.921.088-.286,0-.632.01-1.017.039a4.753,4.753,0,0,0-.592.078,1.753,1.753,0,0,0-.276.082.528.528,0,0,0-.095.052c-.019-.01-.022.086.019-.09l-.047.149c-.384.627-.84,1.325-1.345,2.044-1.824,2.6-3.621,4.46-3.751,4.345s1.418-2.144,3.221-4.718l1.384-1.991-.047.149c.067-.3.164-.284.24-.363a1.147,1.147,0,0,1,.22-.107,2.224,2.224,0,0,1,.386-.087,4.2,4.2,0,0,1,.669-.031,7.87,7.87,0,0,1,1.056.1C62.816,284.37,63.139,284.479,63.132,284.539Z" transform="translate(-55.098 -284.178)"/></g><g transform="translate(16.578 23.524)"><path class="p" d="M63.91,282.729c-.009.178-2.522.294-5.61.256a5.134,5.134,0,0,0-2.05.21,2.654,2.654,0,0,0-1.242,1c-.547.8-.8,1.407-.9,1.361a3,3,0,0,1,.511-1.608,2.913,2.913,0,0,1,1.4-1.309,5.058,5.058,0,0,1,2.258-.3C61.4,282.375,63.92,282.55,63.91,282.729Z" transform="translate(-54.092 -282.33)"/></g></g><g class="e" transform="translate(114.173 152.042)"><path d="M132.532,311.19c2.651.284,6.578-.773,8.337-2.777a30.2,30.2,0,0,0,4.886-6.482c2.42-5.069,6.755-11.715,8.94-15.88.137,1.209-3.509,13.241-3.837,19.059-.182,3.193.03,6.647,2,9.161,1.361,1.734,3.4,2.8,4.895,4.429a9.609,9.609,0,0,1,.677,11.761c-1.283,1.769-3.583,3.113-5.626,2.338a4.886,4.886,0,0,1-2.471-2.454A25.671,25.671,0,0,1,149.113,327a22.5,22.5,0,0,0-9.261-11.657c-2.155-1.348-4.6-3.282-6.918-4.353" transform="translate(-132.532 -286.051)"/></g><g transform="translate(35.654 68.634)"><g transform="translate(0 88.226)"><path class="q" d="M69.424,306.413l27.056,9.048a27.423,27.423,0,0,0,27.681-6.059l9.563-9.062L105.449,292.7l-15.158,1.711-14-4.489Z" transform="translate(-69.424 -289.924)"/></g><g transform="translate(25.694 97.892)"><g transform="translate(1.964 2.048)"><path class="c" d="M91.655,299.339c.037-.022.443.673,1.187,1.733a28.146,28.146,0,0,0,7.145,7.075c1.066.733,1.766,1.132,1.743,1.171a2.447,2.447,0,0,1-.514-.239c-.325-.164-.781-.429-1.331-.78a24.363,24.363,0,0,1-7.2-7.124c-.355-.546-.625-1-.793-1.323A2.319,2.319,0,0,1,91.655,299.339Z" transform="translate(-91.653 -299.339)"/></g><g transform="translate(7.576 4.498)"><path class="c" d="M96.4,301.308a8.4,8.4,0,0,0,1.6,5.92,6.015,6.015,0,0,1-1.6-5.92Z" transform="translate(-96.164 -301.308)"/></g><g transform="translate(4.986 2.474)"><path class="c" d="M94.138,299.681c.08,0,.109,1.229.478,2.688s.907,2.563.836,2.6a8.58,8.58,0,0,1-1.314-5.285Z" transform="translate(-94.082 -299.681)"/></g><g transform="translate(3.681 7.955)"><path class="c" d="M93.033,304.109a8.764,8.764,0,0,1,4.362,1.331c-.032.067-.968-.343-2.169-.707S93.023,304.184,93.033,304.109Z" transform="translate(-93.033 -304.087)"/></g><g transform="translate(1.099 4.795)"><path class="c" d="M90.958,301.555a9.709,9.709,0,0,1,5.005,2.838c-.051.06-1.03-.794-2.415-1.573S90.934,301.63,90.958,301.555Z" transform="translate(-90.958 -301.547)"/></g><g transform="translate(2.406 7.344)"><path class="c" d="M93.767,304.272a2.121,2.121,0,0,0-1.158-.662c-.152-.03-.345-.025-.417.111a.274.274,0,0,0,.107.333.8.8,0,0,0,.361.113,2.355,2.355,0,0,0-.53.3c-.073.057-.153.149-.109.233s.152.075.239.06q.308-.056.612-.127c-.05.1-.17.139-.265.2s-.168.2-.085.28c.067.061.173.024.253-.021a2.955,2.955,0,0,0,.919-.8" transform="translate(-92.008 -303.595)"/></g><g transform="translate(3.756 1.161)"><path class="c" d="M94.308,300.27a.119.119,0,0,0-.01.194.19.19,0,0,0,.218-.014.532.532,0,0,0,.141-.185,3.345,3.345,0,0,0,.428-1.257.279.279,0,0,0-.076-.266.265.265,0,0,0-.291.054,1.1,1.1,0,0,0-.443.875,1.591,1.591,0,0,0-.034-.84c-.032-.1-.107-.219-.212-.2s-.137.127-.153.223a2.186,2.186,0,0,0,.03.871.945.945,0,0,0-.509-.683.244.244,0,0,0-.233-.017.185.185,0,0,0-.066.2.52.52,0,0,0,.106.192,4.679,4.679,0,0,0,1.165,1.065" transform="translate(-93.094 -298.626)"/></g><path class="c" d="M92.068,299.727c-.066.068,0,.2.092.218a.237.237,0,0,0,.24-.124.621.621,0,0,0,.061-.274,3.949,3.949,0,0,0-.185-1.6c-.042-.111-.109-.234-.229-.254s-.24.092-.3.2a1.29,1.29,0,0,0-.035,1.183,1.906,1.906,0,0,0-.488-.907c-.091-.1-.236-.188-.348-.118s-.087.209-.054.321a2.627,2.627,0,0,0,.5.944,1.223,1.223,0,0,0-.943-.5.305.305,0,0,0-.274.1.219.219,0,0,0,.031.249.642.642,0,0,0,.223.158,6.068,6.068,0,0,0,1.891.592" transform="translate(-90.075 -297.693)"/></g><g transform="translate(7.072 90.374)"><g transform="translate(2.918 2.005)"><path class="c" d="M79.092,293.261c.042.014-.219.775-.534,2.032a28.1,28.1,0,0,0-.681,10.031c.142,1.288.3,2.077.254,2.085a2.369,2.369,0,0,1-.156-.545c-.088-.353-.185-.872-.281-1.517a24.393,24.393,0,0,1,.687-10.1c.18-.626.348-1.126.483-1.466A2.388,2.388,0,0,1,79.092,293.261Z" transform="translate(-77.453 -293.261)"/></g><g transform="translate(3.076 8.025)"><path class="c" d="M81.03,298.1a8.391,8.391,0,0,0-3.433,5.081A6.015,6.015,0,0,1,81.03,298.1Z" transform="translate(-77.58 -298.099)"/></g><g transform="translate(3.1 4.608)"><path class="c" d="M80.745,295.356c.053.06-.858.887-1.721,2.119s-1.346,2.361-1.418,2.332a8.577,8.577,0,0,1,3.139-4.451Z" transform="translate(-77.6 -295.353)"/></g><g transform="translate(1.187 7.178)"><path class="c" d="M76.067,297.42a8.777,8.777,0,0,1,1.845,4.171c-.073.02-.375-.957-.883-2.1S76,297.461,76.067,297.42Z" transform="translate(-76.062 -297.419)"/></g><g transform="translate(1.899 3.15)"><path class="c" d="M76.641,294.182a9.714,9.714,0,0,1,1.126,5.642c-.08,0-.073-1.3-.389-2.855S76.568,294.213,76.641,294.182Z" transform="translate(-76.634 -294.181)"/></g><g transform="translate(0 6.016)"><path class="c" d="M76.584,298.043a2.119,2.119,0,0,0-.256-1.31c-.076-.134-.205-.277-.357-.243a.274.274,0,0,0-.182.3.8.8,0,0,0,.151.347,2.351,2.351,0,0,0-.576-.2c-.091-.019-.213-.019-.248.068s.044.164.112.22c.162.131.328.258.5.381-.109.029-.218-.039-.326-.07s-.264.006-.266.119c0,.091.1.146.18.177a2.975,2.975,0,0,0,1.207.173" transform="translate(-75.108 -296.485)"/></g><g transform="translate(5.789 3.085)"><path class="c" d="M79.92,295.817c-.07-.035-.158.041-.152.118a.187.187,0,0,0,.153.157.541.541,0,0,0,.231-.015,3.342,3.342,0,0,0,1.231-.5c.08-.056.162-.136.152-.231s-.128-.163-.23-.187a1.108,1.108,0,0,0-.952.238,1.593,1.593,0,0,0,.613-.575c.056-.091.1-.224.015-.292s-.185-.02-.269.03a2.18,2.18,0,0,0-.64.591.944.944,0,0,0,.184-.831.24.24,0,0,0-.139-.187.184.184,0,0,0-.192.078.512.512,0,0,0-.076.205A4.7,4.7,0,0,0,79.807,296" transform="translate(-79.76 -294.129)"/></g><g transform="translate(3.735)"><path class="c" d="M78.96,293.666c-.095,0-.152.127-.1.213a.237.237,0,0,0,.251.1.619.619,0,0,0,.246-.133,3.943,3.943,0,0,0,1.087-1.186.35.35,0,0,0,.044-.338.326.326,0,0,0-.352-.1,1.286,1.286,0,0,0-.918.748,1.934,1.934,0,0,0,.368-.963c.012-.131-.014-.3-.139-.34s-.214.07-.279.168a2.652,2.652,0,0,0-.387,1,1.222,1.222,0,0,0-.24-1.039.305.305,0,0,0-.253-.143.216.216,0,0,0-.168.185.632.632,0,0,0,.026.271,6.1,6.1,0,0,0,.788,1.819" transform="translate(-78.11 -291.65)"/></g></g><g transform="translate(34.017)"><path class="q" d="M193.018,307.81a27.4,27.4,0,0,1-6.577-19.429q.045-.663.117-1.341c1.737-16.117,4.875-42.376-1.324-55.432-4.07-8.573-29.4-12.594-29.4-12.594l-29.3,6.032-13.456,11.8a12.208,12.208,0,0,0-4,7.245L96.764,320.863l24.935-1.782,1.931-22.29,2.781,29.439s23.676,18.418,31.349,21.828,21.1-6.1,31.457-1.876,23.784,0,23.784,0C213.559,333.946,200.334,316.486,193.018,307.81Z" transform="translate(-96.764 -219.014)"/></g><g transform="translate(22.328 8.973)"><path class="q" d="M172.664,226.226l-37.673,68.3-40.7.707L87.37,312.6l52.611,12.1c6.021,1.029,10.621.27,14.483-4.463l34.62-64.569S191.846,226.994,172.664,226.226Z" transform="translate(-87.37 -226.226)"/></g><g class="e" transform="translate(5.003 88.999)"><path d="M73.445,294.249c.006.014,6.664,1.761,10.859,2.86a3.739,3.739,0,0,1,2.731,4.281h0a3.742,3.742,0,0,0,3.17,4.371c9.258,1.277,32.007,4.366,32.435,3.976.539-.488,4.453-4.5,4.453-4.5L90.771,296.9l.585-2.094-16.367-4.256Z" transform="translate(-73.445 -290.545)"/></g><g transform="translate(51.436 36.924)"><path class="b" d="M121.35,289.175a5.058,5.058,0,0,1-.514-1.084c-.332-.83-.747-1.864-1.248-3.113l.058.083A17.6,17.6,0,0,1,115,279.27a20.752,20.752,0,0,1-1.993-9.536c0-3.011.29-5.846.375-8.418a30.471,30.471,0,0,0-.4-6.785,18.457,18.457,0,0,0-2.207-5.839c.017-.014.119.1.3.327a9.757,9.757,0,0,1,.714,1.05,15.007,15.007,0,0,1,1.641,4.37,28.856,28.856,0,0,1,.554,6.894c-.055,2.6-.33,5.435-.324,8.4a20.809,20.809,0,0,0,1.864,9.284,18.111,18.111,0,0,0,4.38,5.745l.044.037.015.045,1.076,3.177A5.128,5.128,0,0,1,121.35,289.175Z" transform="translate(-110.764 -248.691)"/></g><g transform="translate(102.83 89.994)"><path class="b" d="M169.772,291.345a4.924,4.924,0,0,1,.187,1.355,22.4,22.4,0,0,1-.085,3.728,25.671,25.671,0,0,1-13.092,19.856,22.424,22.424,0,0,1-3.393,1.545,4.943,4.943,0,0,1-1.318.362c-.045-.113,1.817-.7,4.48-2.3a26.8,26.8,0,0,0,12.868-19.514C169.841,293.293,169.65,291.35,169.772,291.345Z" transform="translate(-152.071 -291.345)"/></g><g transform="translate(97.609 29.761)"><g transform="translate(1.32 2.733)"><path class="c" d="M155.1,245.13a3.989,3.989,0,0,1-.371.633c-.256.394-.612.977-1.033,1.706a35.914,35.914,0,0,0-4.368,12.311c-.133.831-.224,1.507-.274,1.975a4.091,4.091,0,0,1-.111.725,3.853,3.853,0,0,1,.01-.734c.019-.473.082-1.155.193-1.992a32.127,32.127,0,0,1,4.393-12.379c.442-.72.822-1.29,1.1-1.67A4.028,4.028,0,0,1,155.1,245.13Z" transform="translate(-148.936 -245.13)"/></g><g transform="translate(1.764 10.948)"><path class="c" d="M155.367,251.738a10.4,10.4,0,0,0-6.072,5.151,3.615,3.615,0,0,1,.478-1.119,8.516,8.516,0,0,1,4.413-3.744A3.649,3.649,0,0,1,155.367,251.738Z" transform="translate(-149.293 -251.732)"/></g><g transform="translate(3.201 6.579)"><path class="c" d="M155.934,248.225c.037.073-1.4.775-2.918,2.016s-2.5,2.5-2.567,2.447a3.467,3.467,0,0,1,.6-.865,13.158,13.158,0,0,1,3.918-3.188A3.483,3.483,0,0,1,155.934,248.225Z" transform="translate(-150.447 -248.221)"/></g><g transform="translate(1.46 8.023)"><path class="c" d="M149.058,249.382a12.607,12.607,0,0,1,.845,5.86c-.077,0-.093-1.329-.33-2.943S148.983,249.406,149.058,249.382Z" transform="translate(-149.048 -249.382)"/></g><g transform="translate(3.194 3.237)"><path class="c" d="M151.021,245.535a3.8,3.8,0,0,1,.205,1.09,14.94,14.94,0,0,1-.406,5.314,3.837,3.837,0,0,1-.37,1.045c-.078-.022.4-1.642.552-3.7S150.94,245.545,151.021,245.535Z" transform="translate(-150.442 -245.535)"/></g><g transform="translate(0 6.46)"><path class="c" d="M149.561,250.281a2.747,2.747,0,0,0,.138-1.726c-.049-.2-.161-.419-.362-.429a.356.356,0,0,0-.331.31,1.042,1.042,0,0,0,.066.486,3.089,3.089,0,0,0-.648-.455c-.107-.056-.26-.1-.333,0s0,.22.062.314q.235.332.488.651c-.147,0-.259-.124-.383-.2s-.332-.083-.376.056c-.034.112.068.216.164.285a3.874,3.874,0,0,0,1.448.638" transform="translate(-147.875 -248.126)"/></g><g transform="translate(8.022 4.62)"><path class="c" d="M154.558,248.709a.152.152,0,0,0-.233.095.248.248,0,0,0,.137.249.684.684,0,0,0,.3.062,4.321,4.321,0,0,0,1.712-.19c.118-.042.25-.112.27-.236s-.1-.248-.223-.314a1.429,1.429,0,0,0-1.272-.036,2.075,2.075,0,0,0,.968-.5c.1-.095.2-.246.121-.361s-.225-.091-.346-.057a2.826,2.826,0,0,0-1.007.516,1.23,1.23,0,0,0,.521-.974.318.318,0,0,0-.108-.284.242.242,0,0,0-.268.031.657.657,0,0,0-.167.23,6.107,6.107,0,0,0-.608,1.956" transform="translate(-154.322 -246.647)"/></g><g transform="translate(7.039)"><path class="c" d="M154.012,245.691c-.117-.039-.233.1-.2.229a.305.305,0,0,0,.279.214.79.79,0,0,0,.355-.081,5.107,5.107,0,0,0,1.774-1.1.455.455,0,0,0,.172-.409c-.046-.165-.24-.231-.406-.244a1.672,1.672,0,0,0-1.41.613,2.5,2.5,0,0,0,.8-1.075c.062-.159.09-.382-.055-.474s-.292.012-.407.113a3.444,3.444,0,0,0-.834,1.109,1.588,1.588,0,0,0,.065-1.384c-.052-.122-.138-.249-.265-.267a.285.285,0,0,0-.276.173.843.843,0,0,0-.062.35,7.876,7.876,0,0,0,.348,2.549" transform="translate(-153.532 -242.933)"/></g></g><g transform="translate(62.972 51.002)"><g transform="translate(1.32 2.733)"><path class="c" d="M127.266,262.2a4.214,4.214,0,0,1-.372.633c-.256.394-.611.977-1.031,1.706a35.916,35.916,0,0,0-4.368,12.311c-.133.83-.224,1.507-.274,1.975a3.864,3.864,0,0,1-.112.725,4.086,4.086,0,0,1,.011-.734c.019-.473.082-1.155.193-1.993a32.117,32.117,0,0,1,4.392-12.379c.443-.72.824-1.289,1.106-1.668A4.032,4.032,0,0,1,127.266,262.2Z" transform="translate(-121.098 -262.202)"/></g><g transform="translate(1.764 10.948)"><path class="c" d="M127.529,268.81a10.393,10.393,0,0,0-6.072,5.151,3.588,3.588,0,0,1,.477-1.119,8.51,8.51,0,0,1,4.414-3.744A3.647,3.647,0,0,1,127.529,268.81Z" transform="translate(-121.454 -268.804)"/></g><g transform="translate(3.201 6.579)"><path class="c" d="M128.1,265.3c.036.072-1.4.774-2.918,2.016s-2.5,2.5-2.567,2.447a3.425,3.425,0,0,1,.6-.865,13.131,13.131,0,0,1,3.917-3.188A3.416,3.416,0,0,1,128.1,265.3Z" transform="translate(-122.609 -265.293)"/></g><g transform="translate(1.459 8.023)"><path class="c" d="M121.219,266.454a12.586,12.586,0,0,1,.846,5.86c-.077,0-.093-1.329-.331-2.944S121.145,266.476,121.219,266.454Z" transform="translate(-121.209 -266.454)"/></g><g transform="translate(3.195 3.237)"><path class="c" d="M123.183,262.607a3.8,3.8,0,0,1,.205,1.09,14.936,14.936,0,0,1-.406,5.313,3.835,3.835,0,0,1-.37,1.046c-.078-.022.4-1.642.552-3.7S123.1,262.617,123.183,262.607Z" transform="translate(-122.604 -262.607)"/></g><g transform="translate(0 6.459)"><path class="c" d="M121.723,267.353a2.758,2.758,0,0,0,.138-1.727c-.049-.194-.16-.418-.362-.429a.36.36,0,0,0-.332.311,1.038,1.038,0,0,0,.067.485,3.131,3.131,0,0,0-.648-.454c-.108-.056-.26-.1-.333,0s0,.22.062.314c.157.22.32.438.488.651-.147,0-.259-.124-.383-.2s-.332-.085-.376.056c-.035.112.068.215.164.284a3.854,3.854,0,0,0,1.448.638" transform="translate(-120.036 -265.197)"/></g><g transform="translate(8.022 4.62)"><path class="c" d="M126.72,265.78a.154.154,0,0,0-.233.1.247.247,0,0,0,.137.249.681.681,0,0,0,.295.062,4.348,4.348,0,0,0,1.713-.19c.118-.042.25-.112.27-.236s-.1-.249-.223-.314a1.435,1.435,0,0,0-1.273-.037,2.051,2.051,0,0,0,.969-.5c.1-.093.2-.245.121-.36s-.225-.091-.346-.057a2.827,2.827,0,0,0-1.007.516,1.234,1.234,0,0,0,.521-.975.317.317,0,0,0-.109-.282.239.239,0,0,0-.266.031.645.645,0,0,0-.167.23,6.046,6.046,0,0,0-.608,1.956" transform="translate(-126.484 -263.718)"/></g><g transform="translate(7.04)"><path class="c" d="M126.174,262.763c-.117-.039-.234.1-.205.229a.308.308,0,0,0,.279.214.8.8,0,0,0,.356-.081,5.117,5.117,0,0,0,1.774-1.1.455.455,0,0,0,.172-.409c-.046-.167-.24-.231-.406-.244a1.672,1.672,0,0,0-1.41.613,2.52,2.52,0,0,0,.8-1.075c.061-.161.09-.382-.055-.474s-.292.012-.407.113a3.427,3.427,0,0,0-.834,1.109,1.592,1.592,0,0,0,.065-1.384c-.053-.122-.138-.249-.265-.267a.284.284,0,0,0-.276.173.822.822,0,0,0-.062.348,7.913,7.913,0,0,0,.347,2.551" transform="translate(-125.694 -260.005)"/></g></g><g transform="translate(69.481 85.594)"><g transform="translate(2.643)"><path class="c" d="M127.392,293.214a4.121,4.121,0,0,1,.73-.08c.469-.03,1.148-.092,1.985-.189a35.875,35.875,0,0,0,12.488-3.835c.745-.388,1.342-.718,1.748-.958a4.008,4.008,0,0,1,.648-.343,3.989,3.989,0,0,1-.6.429c-.389.266-.975.622-1.715,1.034a32.118,32.118,0,0,1-12.555,3.856c-.842.075-1.527.108-2,.107A4,4,0,0,1,127.392,293.214Z" transform="translate(-127.392 -287.808)"/></g><g transform="translate(9.033 0.218)"><path class="c" d="M132.528,287.987a10.393,10.393,0,0,0,7.755,1.8,3.643,3.643,0,0,1-1.182.285,8.51,8.51,0,0,1-5.637-1.311A3.565,3.565,0,0,1,132.528,287.987Z" transform="translate(-132.527 -287.983)"/></g><g transform="translate(5.018 2.142)"><path class="c" d="M129.3,289.535c.036-.073,1.459.666,3.358,1.14,1.9.49,3.5.52,3.495.6a3.415,3.415,0,0,1-1.051.036,13.2,13.2,0,0,1-4.895-1.244A3.426,3.426,0,0,1,129.3,289.535Z" transform="translate(-129.301 -289.53)"/></g><g transform="translate(10.476 2.906)"><path class="c" d="M133.691,294.32a12.629,12.629,0,0,1,4.2-4.173c.046.062-1.012.868-2.166,2.021S133.753,294.366,133.691,294.32Z" transform="translate(-133.688 -290.144)"/></g><g transform="translate(5.262 4.098)"><path class="c" d="M129.5,295.091a3.88,3.88,0,0,1,.752-.814,14.972,14.972,0,0,1,4.508-2.843,3.774,3.774,0,0,1,1.06-.327c.029.076-1.558.657-3.3,1.766S129.554,295.151,129.5,295.091Z" transform="translate(-129.497 -291.102)"/></g><g transform="translate(9.183 6.556)"><path class="c" d="M134.29,293.077a2.744,2.744,0,0,0-1.468.918c-.127.156-.24.378-.128.546a.358.358,0,0,0,.447.082,1.056,1.056,0,0,0,.351-.345,3.072,3.072,0,0,0,.021.793c.019.119.077.266.2.269s.179-.128.215-.238q.125-.386.23-.779c.086.119.055.281.067.427s.131.317.269.269c.111-.04.133-.184.131-.3a3.871,3.871,0,0,0-.351-1.544" transform="translate(-132.648 -293.077)"/></g><g transform="translate(3.221 0.671)"><path class="c" d="M129.988,290.11c-.01.1.123.172.215.129a.246.246,0,0,0,.118-.259.677.677,0,0,0-.126-.274,4.342,4.342,0,0,0-1.175-1.262.365.365,0,0,0-.351-.076c-.122.063-.138.23-.118.366a1.428,1.428,0,0,0,.729,1.044,2.06,2.06,0,0,0-.982-.478c-.137-.025-.316-.012-.362.118s.062.235.16.311a2.822,2.822,0,0,0,1.015.5,1.227,1.227,0,0,0-1.094.163.318.318,0,0,0-.163.256.243.243,0,0,0,.184.2.688.688,0,0,0,.285,0,6.066,6.066,0,0,0,1.932-.678" transform="translate(-127.857 -288.347)"/></g><g transform="translate(0 4.028)"><path class="c" d="M127.912,292.384c.039.117.224.124.306.027a.3.3,0,0,0,0-.351.783.783,0,0,0-.276-.236,5.1,5.1,0,0,0-1.941-.769.456.456,0,0,0-.43.106.424.424,0,0,0,.046.472,1.671,1.671,0,0,0,1.333.766,2.491,2.491,0,0,0-1.338,0c-.165.046-.361.157-.348.327.011.153.184.226.333.259a3.443,3.443,0,0,0,1.386.009,1.586,1.586,0,0,0-1.148.771.4.4,0,0,0-.056.373.283.283,0,0,0,.3.118.827.827,0,0,0,.317-.158,7.917,7.917,0,0,0,1.839-1.8" transform="translate(-125.268 -291.045)"/></g></g><g transform="translate(107.861 114.318)"><g transform="translate(2.62 3.833)"><path class="c" d="M158.221,313.977a3.877,3.877,0,0,1,.705.2c.445.15,1.1.35,1.907.576a35.874,35.874,0,0,0,13.011,1.179c.837-.077,1.515-.157,1.981-.224a3.982,3.982,0,0,1,.73-.072,4.017,4.017,0,0,1-.714.172c-.462.1-1.138.207-1.977.307a32.155,32.155,0,0,1-13.082-1.186c-.808-.25-1.453-.478-1.891-.658A4.009,4.009,0,0,1,158.221,313.977Z" transform="translate(-158.221 -313.975)"/></g><g transform="translate(10.495 1.455)"><path class="c" d="M164.552,312.065a10.39,10.39,0,0,0,6.495,4.6,3.624,3.624,0,0,1-1.2-.184,8.515,8.515,0,0,1-4.722-3.348A3.583,3.583,0,0,1,164.552,312.065Z" transform="translate(-164.55 -312.064)"/></g><g transform="translate(6.05 1.717)"><path class="c" d="M160.979,312.276c.061-.055,1.1,1.167,2.676,2.327s3.041,1.805,3.007,1.879a3.393,3.393,0,0,1-.985-.365,13.165,13.165,0,0,1-4.06-3A3.464,3.464,0,0,1,160.979,312.276Z" transform="translate(-160.978 -312.275)"/></g><g transform="translate(9.237 6.071)"><path class="c" d="M163.54,318.057a12.607,12.607,0,0,1,5.467-2.273c.019.076-1.264.421-2.77,1.05S163.58,318.123,163.54,318.057Z" transform="translate(-163.539 -315.774)"/></g><g transform="translate(4.03 5.915)"><path class="c" d="M159.354,317.043a3.821,3.821,0,0,1,1-.469,14.949,14.949,0,0,1,5.248-.924,3.85,3.85,0,0,1,1.1.1c0,.081-1.691.019-3.725.383S159.383,317.119,159.354,317.043Z" transform="translate(-159.354 -315.648)"/></g><g transform="translate(7.72 7.966)"><path class="c" d="M164.357,317.328a2.751,2.751,0,0,0-1.706.294c-.178.1-.366.26-.326.457a.355.355,0,0,0,.382.245,1.036,1.036,0,0,0,.454-.185,3.1,3.1,0,0,0-.279.742c-.029.118-.031.275.081.323s.214-.051.289-.138c.174-.208.345-.419.509-.633.034.142-.056.28-.1.42s0,.342.148.35c.117.006.193-.121.235-.229a3.867,3.867,0,0,0,.259-1.561" transform="translate(-162.32 -317.297)"/></g><g transform="translate(4.068)"><path class="c" d="M161.571,313c-.047.09.049.207.149.2a.247.247,0,0,0,.208-.194.685.685,0,0,0-.014-.3,4.334,4.334,0,0,0-.608-1.612c-.071-.1-.172-.214-.3-.2s-.215.16-.249.294a1.432,1.432,0,0,0,.28,1.242,2.06,2.06,0,0,0-.728-.814c-.117-.075-.287-.131-.379-.027s-.031.24.031.348a2.81,2.81,0,0,0,.749.847,1.234,1.234,0,0,0-1.074-.263.317.317,0,0,0-.248.175.243.243,0,0,0,.1.251.651.651,0,0,0,.264.1,6.053,6.053,0,0,0,2.047.1" transform="translate(-159.384 -310.894)"/></g><g transform="translate(0 1.747)"><path class="c" d="M158.751,314.35c-.009.124.159.2.272.142a.3.3,0,0,0,.138-.322.794.794,0,0,0-.167-.325,5.1,5.1,0,0,0-1.505-1.446.454.454,0,0,0-.439-.065.422.422,0,0,0-.136.453,1.674,1.674,0,0,0,.944,1.214,2.5,2.5,0,0,0-1.239-.506c-.17-.02-.393.007-.445.17-.049.147.085.28.21.366a3.425,3.425,0,0,0,1.28.533,1.593,1.593,0,0,0-1.356.28.4.4,0,0,0-.193.324.285.285,0,0,0,.235.225.86.86,0,0,0,.355-.026,7.91,7.91,0,0,0,2.384-.969" transform="translate(-156.115 -312.298)"/></g></g><g transform="translate(91.022 59.147)"><g transform="translate(2.729 2.042)"><path class="c" d="M144.822,268.193c.044,0,.052.8.174,2.094a28.181,28.181,0,0,0,2.707,9.684c.564,1.166.973,1.858.936,1.88a2.33,2.33,0,0,1-.33-.462c-.2-.3-.465-.76-.77-1.336a24.376,24.376,0,0,1-2.726-9.752c-.037-.651-.047-1.178-.034-1.543A2.3,2.3,0,0,1,144.822,268.193Z" transform="translate(-144.774 -268.193)"/></g><g transform="translate(4.854 7.061)"><path class="c" d="M148.272,272.229a8.4,8.4,0,0,0-1.54,5.936,6.02,6.02,0,0,1,1.54-5.936Z" transform="translate(-146.482 -272.227)"/></g><g transform="translate(3.723 3.935)"><path class="c" d="M147.09,269.715c.07.037-.513,1.122-.915,2.571s-.48,2.675-.56,2.671a8.571,8.571,0,0,1,1.474-5.242Z" transform="translate(-145.574 -269.714)"/></g><g transform="translate(1.331 8.039)"><path class="c" d="M143.652,273.017a8.779,8.779,0,0,1,3.132,3.317c-.062.042-.672-.778-1.535-1.687S143.606,273.078,143.652,273.017Z" transform="translate(-143.65 -273.013)"/></g><g transform="translate(0.658 4.006)"><path class="c" d="M143.113,269.773a9.721,9.721,0,0,1,2.945,4.943c-.075.025-.5-1.2-1.321-2.563S143.054,269.827,143.113,269.773Z" transform="translate(-143.11 -269.772)"/></g><g transform="translate(0 7.029)"><path class="c" d="M144.313,273.492a2.121,2.121,0,0,0-.678-1.148c-.117-.1-.287-.193-.418-.111a.275.275,0,0,0-.072.343.8.8,0,0,0,.258.276,2.38,2.38,0,0,0-.61,0c-.093.012-.207.053-.212.147s.1.141.179.17c.2.068.4.133.595.193-.093.064-.218.036-.33.044s-.246.095-.212.2c.027.086.138.106.229.106a2.972,2.972,0,0,0,1.2-.24" transform="translate(-142.581 -272.201)"/></g><g transform="translate(4.47 2.536)"><path class="c" d="M146.717,270.241c-.077-.01-.134.092-.1.163a.188.188,0,0,0,.2.1.529.529,0,0,0,.213-.091,3.34,3.34,0,0,0,.994-.88.28.28,0,0,0,.066-.269c-.047-.095-.175-.111-.28-.1a1.1,1.1,0,0,0-.817.54,1.585,1.585,0,0,0,.387-.747c.021-.1.015-.241-.085-.28s-.182.042-.243.117a2.2,2.2,0,0,0-.406.771.947.947,0,0,0-.1-.845.243.243,0,0,0-.194-.129.184.184,0,0,0-.154.138.476.476,0,0,0,0,.218,4.659,4.659,0,0,0,.484,1.5" transform="translate(-146.174 -268.59)"/></g><g transform="translate(1.398)"><path class="c" d="M145.115,268.6c-.092.027-.1.169-.027.234a.233.233,0,0,0,.27.011.6.6,0,0,0,.188-.208,3.942,3.942,0,0,0,.63-1.479.351.351,0,0,0-.073-.335.328.328,0,0,0-.363.026,1.285,1.285,0,0,0-.616,1.012,1.929,1.929,0,0,0,.025-1.03c-.031-.128-.113-.28-.244-.275s-.179.138-.207.253a2.657,2.657,0,0,0-.034,1.068,1.222,1.222,0,0,0-.572-.9.308.308,0,0,0-.286-.051.219.219,0,0,0-.1.231.663.663,0,0,0,.116.248,6.108,6.108,0,0,0,1.35,1.451" transform="translate(-143.704 -266.552)"/></g></g><g transform="translate(73.967 60.449)"><g transform="translate(0 2.098)"><path class="c" d="M135.6,269.285c.031.03-.52.616-1.326,1.63a28.163,28.163,0,0,0-4.763,8.855c-.4,1.232-.586,2.014-.628,2a2.375,2.375,0,0,1,.082-.561c.067-.357.192-.871.372-1.5a24.354,24.354,0,0,1,4.8-8.917c.424-.5.783-.883,1.045-1.136A2.3,2.3,0,0,1,135.6,269.285Z" transform="translate(-128.873 -269.284)"/></g><g transform="translate(0.799 8.376)"><path class="c" d="M134.744,274.354a8.385,8.385,0,0,0-5.226,3.21,6.02,6.02,0,0,1,5.226-3.21Z" transform="translate(-129.515 -274.33)"/></g><g transform="translate(2.485 5.162)"><path class="c" d="M135.569,271.756c.025.075-1.147.453-2.441,1.218s-2.2,1.6-2.256,1.538a8.577,8.577,0,0,1,4.7-2.756Z" transform="translate(-130.87 -271.747)"/></g><g transform="translate(1.455 5.423)"><path class="c" d="M130.108,271.957a8.766,8.766,0,0,1-.041,4.56c-.076-.012.054-1.026.062-2.279S130.033,271.968,130.108,271.957Z" transform="translate(-130.043 -271.957)"/></g><g transform="translate(2.523 2.047)"><path class="c" d="M132.212,269.244a9.7,9.7,0,0,1-1.305,5.6c-.072-.032.47-1.213.825-2.761S132.133,269.243,132.212,269.244Z" transform="translate(-130.901 -269.244)"/></g><g transform="translate(6.65 3.709)"><path class="c" d="M134.415,272.066a.117.117,0,0,0-.188.045.188.188,0,0,0,.075.205.531.531,0,0,0,.218.082,3.335,3.335,0,0,0,1.326.056c.095-.019.2-.057.233-.149s-.049-.2-.133-.265a1.1,1.1,0,0,0-.964-.177,1.584,1.584,0,0,0,.8-.27c.088-.06.179-.163.134-.26s-.161-.095-.256-.083a2.169,2.169,0,0,0-.827.275.95.95,0,0,0,.511-.682.245.245,0,0,0-.05-.228.184.184,0,0,0-.207-.007.511.511,0,0,0-.154.156,4.681,4.681,0,0,0-.692,1.418" transform="translate(-134.218 -270.579)"/></g><g transform="translate(6.543)"><path class="c" d="M134.331,269.719c-.085-.044-.189.052-.182.151a.234.234,0,0,0,.187.2.6.6,0,0,0,.28-.02,3.928,3.928,0,0,0,1.479-.63.351.351,0,0,0,.179-.291c-.016-.132-.157-.2-.281-.234a1.287,1.287,0,0,0-1.145.3,1.934,1.934,0,0,0,.733-.725c.066-.114.113-.28.014-.367s-.224-.025-.324.039a2.645,2.645,0,0,0-.764.746,1.227,1.227,0,0,0,.211-1.045.308.308,0,0,0-.17-.235.217.217,0,0,0-.23.1.642.642,0,0,0-.088.258,6.1,6.1,0,0,0-.034,1.983" transform="translate(-134.132 -267.598)"/></g></g><g transform="translate(89.643 5.063)"><g transform="translate(0 2.098)"><path class="c" d="M148.194,224.77c.031.031-.52.616-1.325,1.63a28.165,28.165,0,0,0-4.763,8.855c-.4,1.232-.586,2.014-.63,2a2.423,2.423,0,0,1,.083-.56c.066-.358.192-.871.371-1.5a24.359,24.359,0,0,1,4.8-8.917c.423-.5.783-.883,1.045-1.136A2.441,2.441,0,0,1,148.194,224.77Z" transform="translate(-141.472 -224.769)"/></g><g transform="translate(0.798 8.376)"><path class="c" d="M147.343,229.839a8.385,8.385,0,0,0-5.226,3.21,6.02,6.02,0,0,1,5.226-3.21Z" transform="translate(-142.114 -229.815)"/></g><g transform="translate(2.486 5.162)"><path class="c" d="M148.169,227.241c.024.075-1.148.453-2.442,1.218s-2.2,1.6-2.255,1.538a8.577,8.577,0,0,1,4.7-2.756Z" transform="translate(-143.47 -227.232)"/></g><g transform="translate(1.456 5.423)"><path class="c" d="M142.708,227.442a8.783,8.783,0,0,1-.042,4.56c-.075-.012.055-1.026.063-2.279S142.632,227.453,142.708,227.442Z" transform="translate(-142.642 -227.442)"/></g><g transform="translate(2.524 2.047)"><path class="c" d="M144.811,224.729a9.72,9.72,0,0,1-1.3,5.605c-.072-.034.469-1.214.824-2.762S144.733,224.728,144.811,224.729Z" transform="translate(-143.501 -224.729)"/></g><g transform="translate(6.65 3.709)"><path class="c" d="M147.014,227.551a.117.117,0,0,0-.188.045.19.19,0,0,0,.075.205.521.521,0,0,0,.218.082,3.337,3.337,0,0,0,1.326.056c.1-.019.2-.057.233-.149s-.049-.2-.132-.264a1.1,1.1,0,0,0-.964-.177,1.582,1.582,0,0,0,.8-.271c.087-.06.179-.163.133-.26s-.16-.095-.256-.083a2.185,2.185,0,0,0-.826.275.948.948,0,0,0,.51-.682.242.242,0,0,0-.05-.228.184.184,0,0,0-.207-.007.494.494,0,0,0-.153.156,4.655,4.655,0,0,0-.693,1.418" transform="translate(-146.817 -226.064)"/></g><g transform="translate(6.542)"><path class="c" d="M146.931,225.205c-.085-.044-.19.052-.183.149a.234.234,0,0,0,.187.2.6.6,0,0,0,.28-.02,3.929,3.929,0,0,0,1.479-.63c.095-.071.194-.17.179-.291s-.156-.2-.28-.234a1.289,1.289,0,0,0-1.146.3,1.921,1.921,0,0,0,.734-.725c.065-.114.112-.28.014-.367s-.225-.025-.324.039a2.645,2.645,0,0,0-.764.747,1.221,1.221,0,0,0,.21-1.045.3.3,0,0,0-.17-.235.219.219,0,0,0-.23.1.641.641,0,0,0-.088.259,6.089,6.089,0,0,0-.034,1.982" transform="translate(-146.731 -223.083)"/></g></g><g transform="translate(45.229 81.871)"><g transform="translate(2.728 2.041)"><path class="c" d="M108.016,286.456c.044,0,.052.8.174,2.094a28.183,28.183,0,0,0,2.707,9.684c.564,1.166.973,1.858.936,1.88a2.372,2.372,0,0,1-.328-.46c-.2-.3-.467-.761-.771-1.338a24.346,24.346,0,0,1-2.725-9.752c-.039-.651-.049-1.178-.035-1.543A2.393,2.393,0,0,1,108.016,286.456Z" transform="translate(-107.968 -286.456)"/></g><g transform="translate(4.852 7.06)"><path class="c" d="M111.466,290.492a8.393,8.393,0,0,0-1.539,5.936,6.016,6.016,0,0,1,1.539-5.936Z" transform="translate(-109.676 -290.49)"/></g><g transform="translate(3.722 3.933)"><path class="c" d="M110.284,287.978c.07.037-.513,1.122-.914,2.571s-.48,2.675-.56,2.671a8.593,8.593,0,0,1,1.474-5.242Z" transform="translate(-108.768 -287.977)"/></g><g transform="translate(1.331 8.039)"><path class="c" d="M106.847,291.281a8.774,8.774,0,0,1,3.13,3.316c-.062.042-.672-.778-1.534-1.687S106.8,291.34,106.847,291.281Z" transform="translate(-106.845 -291.277)"/></g><g transform="translate(0.657 4.005)"><path class="c" d="M106.307,288.036a9.7,9.7,0,0,1,2.945,4.943c-.075.026-.5-1.2-1.32-2.563S106.249,288.09,106.307,288.036Z" transform="translate(-106.304 -288.035)"/></g><g transform="translate(0 7.028)"><path class="c" d="M107.507,291.755a2.113,2.113,0,0,0-.678-1.148c-.117-.1-.287-.193-.418-.111a.277.277,0,0,0-.072.343.807.807,0,0,0,.259.276,2.388,2.388,0,0,0-.611,0c-.092.012-.207.054-.21.147s.095.141.178.17c.2.07.4.133.6.193-.093.063-.218.036-.331.044s-.246.095-.212.2c.027.086.139.106.229.107a2.99,2.99,0,0,0,1.2-.241" transform="translate(-105.776 -290.464)"/></g><g transform="translate(4.47 2.534)"><path class="c" d="M109.912,288.5a.118.118,0,0,0-.1.163.189.189,0,0,0,.2.1.548.548,0,0,0,.213-.092,3.361,3.361,0,0,0,1-.88.283.283,0,0,0,.065-.269c-.046-.095-.174-.111-.28-.1a1.1,1.1,0,0,0-.817.54,1.58,1.58,0,0,0,.387-.747c.021-.1.016-.241-.083-.28s-.183.042-.244.117a2.2,2.2,0,0,0-.4.771.951.951,0,0,0-.1-.845.241.241,0,0,0-.194-.129.184.184,0,0,0-.154.138.514.514,0,0,0,0,.218,4.659,4.659,0,0,0,.484,1.5" transform="translate(-109.369 -286.853)"/></g><g transform="translate(1.398)"><path class="c" d="M108.309,286.859c-.091.027-.1.169-.027.234a.234.234,0,0,0,.27.011.593.593,0,0,0,.188-.208,3.922,3.922,0,0,0,.63-1.479.351.351,0,0,0-.073-.335.328.328,0,0,0-.363.026,1.29,1.29,0,0,0-.616,1.012,1.93,1.93,0,0,0,.026-1.03c-.032-.128-.114-.28-.245-.274s-.179.137-.207.251a2.657,2.657,0,0,0-.034,1.068,1.222,1.222,0,0,0-.572-.9.308.308,0,0,0-.286-.051.219.219,0,0,0-.1.231.642.642,0,0,0,.114.248,6.113,6.113,0,0,0,1.35,1.452" transform="translate(-106.899 -284.816)"/></g></g><g transform="translate(105.589 88.24)"><g transform="translate(2.728 2.042)"><path class="c" d="M156.529,291.576c.044,0,.052.8.175,2.093a28.141,28.141,0,0,0,2.706,9.685c.564,1.165.974,1.858.936,1.88a2.471,2.471,0,0,1-.328-.462c-.2-.3-.467-.76-.771-1.336a24.348,24.348,0,0,1-2.725-9.752c-.039-.651-.049-1.178-.035-1.543A2.381,2.381,0,0,1,156.529,291.576Z" transform="translate(-156.481 -291.576)"/></g><g transform="translate(4.852 7.061)"><path class="c" d="M159.979,295.612a8.388,8.388,0,0,0-1.539,5.936,6.016,6.016,0,0,1,1.539-5.936Z" transform="translate(-158.189 -295.61)"/></g><g transform="translate(3.722 3.933)"><path class="c" d="M158.8,293.1c.068.039-.514,1.122-.916,2.572s-.48,2.675-.56,2.671A8.584,8.584,0,0,1,158.8,293.1Z" transform="translate(-157.281 -293.096)"/></g><g transform="translate(1.331 8.039)"><path class="c" d="M155.36,296.4a8.8,8.8,0,0,1,3.13,3.316c-.062.044-.672-.776-1.534-1.686S155.313,296.461,155.36,296.4Z" transform="translate(-155.358 -296.396)"/></g><g transform="translate(0.657 4.005)"><path class="c" d="M154.82,293.155a9.708,9.708,0,0,1,2.945,4.944c-.075.025-.5-1.2-1.32-2.563S154.762,293.209,154.82,293.155Z" transform="translate(-154.817 -293.154)"/></g><g transform="translate(0 7.029)"><path class="c" d="M156.02,296.875a2.113,2.113,0,0,0-.678-1.148c-.117-.1-.287-.193-.418-.111a.275.275,0,0,0-.072.342.81.81,0,0,0,.259.277,2.337,2.337,0,0,0-.611,0c-.092.012-.207.053-.21.147s.095.141.178.17q.295.1.6.193c-.093.063-.218.036-.331.042s-.246.095-.212.2c.029.086.139.106.229.106a2.968,2.968,0,0,0,1.2-.24" transform="translate(-154.289 -295.584)"/></g><g transform="translate(4.47 2.534)"><path class="c" d="M158.425,293.624c-.078-.01-.136.091-.1.163a.188.188,0,0,0,.2.1.541.541,0,0,0,.214-.091,3.371,3.371,0,0,0,.994-.88.283.283,0,0,0,.065-.269c-.046-.1-.174-.111-.28-.1a1.106,1.106,0,0,0-.817.541,1.585,1.585,0,0,0,.387-.747c.022-.1.016-.243-.083-.28s-.182.042-.243.117a2.168,2.168,0,0,0-.406.771.951.951,0,0,0-.1-.845.246.246,0,0,0-.194-.131.188.188,0,0,0-.154.138.519.519,0,0,0,0,.219,4.659,4.659,0,0,0,.484,1.5" transform="translate(-157.882 -291.972)"/></g><g transform="translate(1.398)"><path class="c" d="M156.822,291.978c-.091.027-.1.169-.027.235a.234.234,0,0,0,.27.011.593.593,0,0,0,.188-.208,3.919,3.919,0,0,0,.63-1.481.349.349,0,0,0-.073-.333.325.325,0,0,0-.363.026,1.288,1.288,0,0,0-.616,1.012,1.929,1.929,0,0,0,.026-1.03c-.032-.128-.114-.281-.245-.275s-.179.138-.207.253a2.657,2.657,0,0,0-.034,1.068,1.22,1.22,0,0,0-.572-.9.306.306,0,0,0-.285-.051.217.217,0,0,0-.1.231.642.642,0,0,0,.114.248,6.107,6.107,0,0,0,1.35,1.451" transform="translate(-155.412 -289.935)"/></g></g><g transform="translate(112.495 38.692)"><g transform="translate(0 1.801)"><path class="c" d="M171.48,251.563c.015.042-.742.315-1.919.855a28.134,28.134,0,0,0-8.253,5.743c-.914.917-1.433,1.532-1.468,1.5a2.394,2.394,0,0,1,.327-.463c.221-.289.565-.689,1.009-1.167a24.341,24.341,0,0,1,8.311-5.784c.6-.25,1.1-.433,1.445-.54A2.453,2.453,0,0,1,171.48,251.563Z" transform="translate(-159.839 -251.56)"/></g><g transform="translate(2.059 6.499)"><path class="c" d="M167.608,255.946a8.39,8.39,0,0,0-6.113.5,6.017,6.017,0,0,1,6.113-.5Z" transform="translate(-161.494 -255.335)"/></g><g transform="translate(5.229 4.458)"><path class="c" d="M169.478,253.99c-.014.078-1.229-.114-2.73-.017s-2.684.427-2.706.351a8.576,8.576,0,0,1,5.436-.333Z" transform="translate(-164.042 -253.694)"/></g><g transform="translate(3.395 2.417)"><path class="c" d="M164.672,252.055a8.776,8.776,0,0,1-2.1,4.047c-.061-.045.513-.89,1.087-2S164.6,252.03,164.672,252.055Z" transform="translate(-162.567 -252.055)"/></g><g transform="translate(5.389 0.452)"><path class="c" d="M167.87,250.476a9.714,9.714,0,0,1-3.7,4.408c-.05-.062.967-.87,1.985-2.09S167.8,250.439,167.87,250.476Z" transform="translate(-164.171 -250.475)"/></g><g transform="translate(4.715 1.083)"><path class="c" d="M164.282,252.783a2.115,2.115,0,0,0,.862-1.018c.057-.144.087-.335-.035-.432a.273.273,0,0,0-.346.045.8.8,0,0,0-.177.335,2.358,2.358,0,0,0-.2-.575c-.041-.083-.118-.178-.208-.152s-.1.137-.1.225c0,.209,0,.417.014.626-.091-.067-.106-.194-.149-.3s-.17-.2-.26-.134c-.072.055-.053.167-.025.251a2.963,2.963,0,0,0,.62,1.05" transform="translate(-163.629 -250.982)"/></g><g transform="translate(10.116 3.624)"><path class="c" d="M168.205,254.023a.118.118,0,0,0-.188-.045.191.191,0,0,0-.026.218.542.542,0,0,0,.157.172,3.355,3.355,0,0,0,1.158.649.281.281,0,0,0,.275-.027.264.264,0,0,0,0-.3,1.1,1.1,0,0,0-.78-.595,1.579,1.579,0,0,0,.832.119c.106-.014.234-.065.238-.172s-.1-.157-.192-.19a2.187,2.187,0,0,0-.862-.128.949.949,0,0,0,.764-.377.247.247,0,0,0,.06-.226.189.189,0,0,0-.182-.1.508.508,0,0,0-.208.07,4.656,4.656,0,0,0-1.258.952" transform="translate(-167.969 -253.025)"/></g><g transform="translate(11.405)"><path class="c" d="M169.25,251.946c-.056-.077-.193-.039-.23.052a.237.237,0,0,0,.078.259.615.615,0,0,0,.258.108,3.931,3.931,0,0,0,1.605.107.348.348,0,0,0,.291-.179.325.325,0,0,0-.144-.335,1.286,1.286,0,0,0-1.158-.248,1.928,1.928,0,0,0,.982-.316c.111-.072.228-.2.179-.321s-.189-.123-.306-.112a2.643,2.643,0,0,0-1.019.32,1.216,1.216,0,0,0,.661-.836.306.306,0,0,0-.046-.287.22.22,0,0,0-.25-.015.661.661,0,0,0-.2.19,6.139,6.139,0,0,0-.927,1.753" transform="translate(-169.006 -250.112)"/></g></g><g transform="translate(42.488 58.738)"><g transform="translate(3.213 2.034)"><path class="c" d="M106.9,267.858c.044.01-.121.8-.279,2.083a28.123,28.123,0,0,0,.566,10.038c.3,1.26.552,2.024.51,2.038a2.407,2.407,0,0,1-.221-.521c-.131-.34-.292-.842-.467-1.471a24.351,24.351,0,0,1-.57-10.109c.1-.645.207-1.162.3-1.514A2.451,2.451,0,0,1,106.9,267.858Z" transform="translate(-106.155 -267.858)"/></g><g transform="translate(3.833 7.765)"><path class="c" d="M109.477,272.468a8.4,8.4,0,0,0-2.778,5.468,6.022,6.022,0,0,1,2.778-5.468Z" transform="translate(-106.654 -272.464)"/></g><g transform="translate(3.38 4.41)"><path class="c" d="M108.866,269.769c.06.051-.742.987-1.446,2.315s-1.043,2.51-1.12,2.488a8.584,8.584,0,0,1,2.566-4.8Z" transform="translate(-106.29 -269.768)"/></g><g transform="translate(1.256 7.584)"><path class="c" d="M104.586,272.32a8.8,8.8,0,0,1,2.347,3.911c-.071.029-.49-.9-1.137-1.977S104.527,272.37,104.586,272.32Z" transform="translate(-104.582 -272.318)"/></g><g transform="translate(1.463 3.499)"><path class="c" d="M104.754,269.036a9.713,9.713,0,0,1,1.815,5.461c-.078.009-.234-1.28-.739-2.787S104.686,269.076,104.754,269.036Z" transform="translate(-104.749 -269.035)"/></g><g transform="translate(0 6.465)"><path class="c" d="M105.162,272.9a2.119,2.119,0,0,0-.416-1.267c-.093-.124-.239-.25-.386-.2a.276.276,0,0,0-.143.32.79.79,0,0,0,.193.325,2.4,2.4,0,0,0-.6-.129c-.093-.007-.214.009-.238.1s.062.158.138.2q.265.166.54.317a.652.652,0,0,1-.332-.029c-.112-.019-.261.039-.25.152.009.09.113.132.2.153a2.975,2.975,0,0,0,1.218.021" transform="translate(-103.573 -271.419)"/></g><g transform="translate(5.427 2.914)"><path class="c" d="M108.189,270.261c-.073-.026-.152.06-.137.137a.187.187,0,0,0,.172.136.52.52,0,0,0,.228-.044,3.323,3.323,0,0,0,1.16-.646c.072-.066.144-.154.122-.248s-.147-.147-.251-.157a1.1,1.1,0,0,0-.914.353,1.59,1.59,0,0,0,.537-.647c.044-.1.067-.233-.022-.292s-.187,0-.263.063a2.188,2.188,0,0,0-.561.666.945.945,0,0,0,.08-.847c-.03-.076-.081-.156-.162-.168a.185.185,0,0,0-.18.1.5.5,0,0,0-.049.214,4.644,4.644,0,0,0,.151,1.57" transform="translate(-107.934 -268.565)"/></g><g transform="translate(2.922)"><path class="c" d="M106.986,268.266c-.095.008-.134.144-.077.224a.235.235,0,0,0,.261.068.592.592,0,0,0,.229-.163,3.93,3.93,0,0,0,.932-1.31.349.349,0,0,0,0-.342.328.328,0,0,0-.361-.052,1.291,1.291,0,0,0-.819.856,1.925,1.925,0,0,0,.246-1c0-.132-.05-.3-.179-.32s-.205.1-.256.2a2.645,2.645,0,0,0-.261,1.035,1.229,1.229,0,0,0-.366-1,.309.309,0,0,0-.269-.111.218.218,0,0,0-.144.205.648.648,0,0,0,.06.266,6.09,6.09,0,0,0,1.007,1.707" transform="translate(-105.922 -266.223)"/></g></g><g transform="translate(128.009 96.452)"><g transform="translate(1.92 1.998)"><path class="c" d="M173.86,298.141c.042-.006.165.789.469,2.047a28.2,28.2,0,0,0,4.055,9.2c.724,1.074,1.228,1.7,1.193,1.728a2.427,2.427,0,0,1-.391-.411c-.241-.272-.57-.686-.953-1.213a24.363,24.363,0,0,1-4.082-9.266c-.131-.64-.215-1.16-.254-1.523A2.3,2.3,0,0,1,173.86,298.141Z" transform="translate(-173.852 -298.141)"/></g><g transform="translate(5.251 6.417)"><path class="c" d="M177.746,301.694a8.394,8.394,0,0,0-.681,6.1,6.021,6.021,0,0,1,.681-6.1Z" transform="translate(-176.529 -301.693)"/></g><g transform="translate(3.751 3.522)"><path class="c" d="M176.206,299.366c.075.027-.348,1.183-.541,2.675s-.1,2.716-.174,2.724a8.575,8.575,0,0,1,.715-5.4Z" transform="translate(-175.323 -299.366)"/></g><g transform="translate(1.349 8.138)"><path class="c" d="M173.394,303.081a8.8,8.8,0,0,1,3.571,2.838c-.056.051-.776-.674-1.759-1.452S173.357,303.147,173.394,303.081Z" transform="translate(-173.393 -303.076)"/></g><g transform="translate(0.109 4.241)"><path class="c" d="M172.4,299.947a9.707,9.707,0,0,1,3.617,4.475c-.07.036-.668-1.117-1.671-2.349S172.349,300.007,172.4,299.947Z" transform="translate(-172.397 -299.944)"/></g><g transform="translate(0 7.22)"><path class="c" d="M174.093,303.479a2.119,2.119,0,0,0-.835-1.041c-.131-.083-.312-.149-.429-.049a.273.273,0,0,0-.022.348.808.808,0,0,0,.294.238,2.368,2.368,0,0,0-.6.088c-.09.025-.2.082-.188.175s.114.126.2.142c.2.041.409.077.616.107-.083.076-.21.067-.321.09s-.23.128-.18.23c.04.081.153.085.243.072a2.983,2.983,0,0,0,1.148-.407" transform="translate(-172.309 -302.338)"/></g><g transform="translate(3.704 2.169)"><path class="c" d="M176.028,299.913c-.078,0-.121.109-.081.177a.191.191,0,0,0,.209.067.545.545,0,0,0,.2-.121,3.355,3.355,0,0,0,.86-1.013.282.282,0,0,0,.026-.275.268.268,0,0,0-.291-.058,1.1,1.1,0,0,0-.732.652,1.594,1.594,0,0,0,.276-.794c.006-.107-.019-.243-.123-.266s-.173.068-.223.152a2.175,2.175,0,0,0-.292.821.952.952,0,0,0-.223-.822.243.243,0,0,0-.21-.1.185.185,0,0,0-.133.158.513.513,0,0,0,.027.217,4.713,4.713,0,0,0,.693,1.418" transform="translate(-175.285 -298.279)"/></g><g transform="translate(0.349)"><path class="c" d="M174.2,298.531c-.086.04-.075.182.006.236a.24.24,0,0,0,.27-.027.609.609,0,0,0,.156-.233,3.928,3.928,0,0,0,.413-1.554.35.35,0,0,0-.119-.321.325.325,0,0,0-.356.078,1.286,1.286,0,0,0-.467,1.089,1.94,1.94,0,0,0-.121-1.024c-.05-.122-.152-.261-.281-.238s-.158.162-.169.279a2.656,2.656,0,0,0,.119,1.061,1.225,1.225,0,0,0-.694-.809.311.311,0,0,0-.291-.01.219.219,0,0,0-.062.243.623.623,0,0,0,.149.229,6.068,6.068,0,0,0,1.543,1.245" transform="translate(-172.589 -296.535)"/></g></g><g transform="translate(114.131 62.213)"><g transform="translate(3.057)"><path class="c" d="M163.616,283.184c-.041-.014.2-.781.486-2.044a28.135,28.135,0,0,0,.439-10.044c-.173-1.284-.347-2.069-.3-2.079a2.428,2.428,0,0,1,.169.541c.1.351.205.867.316,1.51a24.363,24.363,0,0,1-.443,10.115c-.167.631-.321,1.135-.448,1.477A2.311,2.311,0,0,1,163.616,283.184Z" transform="translate(-163.611 -269.016)"/></g><g transform="translate(0.948 3.029)"><path class="c" d="M161.917,276.613a8.387,8.387,0,0,0,3.311-5.162,6.022,6.022,0,0,1-3.311,5.162Z" transform="translate(-161.916 -271.451)"/></g><g transform="translate(1.309 7.079)"><path class="c" d="M162.208,279.229c-.055-.057.836-.907,1.668-2.159s1.289-2.393,1.364-2.364a8.589,8.589,0,0,1-3.032,4.523Z" transform="translate(-162.206 -274.706)"/></g><g transform="translate(4.346 4.787)"><path class="c" d="M166.6,276.99a8.8,8.8,0,0,1-1.945-4.126c.073-.021.4.948.934,2.082S166.665,276.948,166.6,276.99Z" transform="translate(-164.647 -272.864)"/></g><g transform="translate(4.365 7.345)"><path class="c" d="M165.982,280.533a9.718,9.718,0,0,1-1.26-5.614c.078,0,.1,1.3.458,2.845S166.054,280.5,165.982,280.533Z" transform="translate(-164.662 -274.919)"/></g><g transform="translate(5.997 8.527)"><path class="c" d="M165.985,275.869a2.122,2.122,0,0,0,.287,1.3c.08.133.214.273.363.234a.275.275,0,0,0,.175-.3.812.812,0,0,0-.159-.343,2.431,2.431,0,0,0,.58.189c.092.016.214.012.246-.075s-.046-.163-.117-.216c-.165-.128-.333-.25-.505-.37.108-.031.218.034.327.062s.264-.014.264-.126c0-.091-.1-.144-.184-.173a2.966,2.966,0,0,0-1.212-.143" transform="translate(-165.974 -275.869)"/></g><g transform="translate(0 11.152)"><path class="c" d="M162.759,278.26c.07.034.157-.045.149-.122a.191.191,0,0,0-.157-.153.543.543,0,0,0-.231.021,3.368,3.368,0,0,0-1.219.526c-.077.058-.158.139-.146.235s.132.161.235.18a1.1,1.1,0,0,0,.946-.26,1.6,1.6,0,0,0-.6.59c-.053.092-.091.225-.007.292s.185.016.267-.036a2.151,2.151,0,0,0,.625-.607.951.951,0,0,0-.164.836.245.245,0,0,0,.144.184.187.187,0,0,0,.189-.083.5.5,0,0,0,.071-.207,4.671,4.671,0,0,0,.007-1.579" transform="translate(-161.154 -277.979)"/></g><g transform="translate(1.511 13.841)"><path class="c" d="M163.891,280.456c.1,0,.149-.129.1-.215a.237.237,0,0,0-.254-.095.634.634,0,0,0-.243.139,3.949,3.949,0,0,0-1.059,1.211.352.352,0,0,0-.035.341.328.328,0,0,0,.355.088,1.291,1.291,0,0,0,.9-.77,1.926,1.926,0,0,0-.345.972c-.01.132.02.3.147.336s.213-.075.275-.174a2.655,2.655,0,0,0,.363-1.005,1.226,1.226,0,0,0,.264,1.034.311.311,0,0,0,.256.137.218.218,0,0,0,.164-.189.654.654,0,0,0-.032-.271,6.124,6.124,0,0,0-.832-1.8" transform="translate(-162.368 -280.14)"/></g></g><g transform="translate(68.946 27.533)"><g transform="translate(0 1.802)"><path class="c" d="M136.479,242.595c.014.041-.743.315-1.92.855a28.132,28.132,0,0,0-8.253,5.743c-.914.917-1.433,1.532-1.467,1.5a2.325,2.325,0,0,1,.327-.463c.22-.289.565-.691,1.008-1.167a24.341,24.341,0,0,1,8.311-5.784c.6-.25,1.1-.433,1.445-.54A2.352,2.352,0,0,1,136.479,242.595Z" transform="translate(-124.838 -242.591)"/></g><g transform="translate(2.058 6.499)"><path class="c" d="M132.606,246.978a8.391,8.391,0,0,0-6.113.5,6.017,6.017,0,0,1,6.113-.5Z" transform="translate(-126.492 -246.367)"/></g><g transform="translate(5.228 4.458)"><path class="c" d="M134.476,245.022c-.012.078-1.229-.116-2.73-.017s-2.684.427-2.706.351a8.577,8.577,0,0,1,5.436-.333Z" transform="translate(-129.04 -244.726)"/></g><g transform="translate(3.393 2.417)"><path class="c" d="M129.67,243.086a8.771,8.771,0,0,1-2.1,4.049c-.061-.045.513-.891,1.087-2S129.6,243.062,129.67,243.086Z" transform="translate(-127.565 -243.086)"/></g><g transform="translate(5.388 0.453)"><path class="c" d="M132.868,241.508a9.714,9.714,0,0,1-3.7,4.408c-.05-.062.968-.87,1.984-2.09S132.8,241.471,132.868,241.508Z" transform="translate(-129.169 -241.507)"/></g><g transform="translate(4.714 1.084)"><path class="c" d="M129.282,243.815a2.128,2.128,0,0,0,.861-1.019c.057-.143.087-.335-.034-.431a.275.275,0,0,0-.347.045.8.8,0,0,0-.177.335,2.385,2.385,0,0,0-.2-.576c-.041-.083-.118-.177-.208-.151s-.1.137-.1.225c0,.208,0,.417.014.626-.09-.067-.106-.194-.149-.3s-.17-.2-.26-.133c-.072.055-.054.167-.025.251a2.985,2.985,0,0,0,.621,1.05" transform="translate(-128.627 -242.014)"/></g><g transform="translate(10.115 3.625)"><path class="c" d="M133.2,245.055a.118.118,0,0,0-.188-.045.191.191,0,0,0-.026.218.525.525,0,0,0,.157.17,3.328,3.328,0,0,0,1.158.649.281.281,0,0,0,.275-.026.266.266,0,0,0,0-.3,1.1,1.1,0,0,0-.78-.594,1.578,1.578,0,0,0,.832.119c.106-.014.234-.065.238-.172s-.1-.158-.192-.19a2.184,2.184,0,0,0-.861-.129.947.947,0,0,0,.763-.376.248.248,0,0,0,.06-.226.184.184,0,0,0-.182-.1.507.507,0,0,0-.208.068,4.686,4.686,0,0,0-1.258.953" transform="translate(-132.967 -244.057)"/></g><g transform="translate(11.404)"><path class="c" d="M134.248,242.978c-.056-.077-.193-.04-.23.051a.236.236,0,0,0,.078.259.6.6,0,0,0,.259.109,3.924,3.924,0,0,0,1.6.107c.117-.021.25-.065.291-.179a.324.324,0,0,0-.144-.335,1.288,1.288,0,0,0-1.157-.249,1.913,1.913,0,0,0,.98-.315c.111-.072.228-.2.179-.321s-.189-.123-.306-.112a2.643,2.643,0,0,0-1.019.32,1.219,1.219,0,0,0,.661-.836.3.3,0,0,0-.046-.287.218.218,0,0,0-.25-.015.646.646,0,0,0-.2.19,6.09,6.09,0,0,0-.926,1.753" transform="translate(-134.004 -241.143)"/></g></g><g transform="translate(109.549 10.65)"><g transform="translate(1.908 2.044)"><path class="c" d="M159.007,229.217c.039-.019.394.7,1.061,1.813a28.111,28.111,0,0,0,6.627,7.562c1.013.808,1.681,1.255,1.657,1.292a2.369,2.369,0,0,1-.5-.274c-.312-.188-.749-.484-1.273-.872a24.37,24.37,0,0,1-6.673-7.616c-.316-.57-.552-1.043-.7-1.376A2.336,2.336,0,0,1,159.007,229.217Z" transform="translate(-159.005 -229.217)"/></g><g transform="translate(7.21 4.902)"><path class="c" d="M163.624,231.514a8.386,8.386,0,0,0,1.177,6.018,6.02,6.02,0,0,1-1.177-6.018Z" transform="translate(-163.267 -231.513)"/></g><g transform="translate(4.834 2.688)"><path class="c" d="M161.472,229.734c.08,0,.022,1.234.286,2.714s.723,2.62.649,2.651a8.585,8.585,0,0,1-.936-5.365Z" transform="translate(-161.357 -229.734)"/></g><g transform="translate(3.202 8.066)"><path class="c" d="M160.045,234.072a8.767,8.767,0,0,1,4.256,1.636c-.037.066-.942-.411-2.113-.857S160.029,234.146,160.045,234.072Z" transform="translate(-160.045 -234.056)"/></g><g transform="translate(0.85 4.726)"><path class="c" d="M158.155,231.378a9.709,9.709,0,0,1,4.793,3.185c-.056.055-.972-.865-2.3-1.741S158.126,231.452,158.155,231.378Z" transform="translate(-158.155 -231.372)"/></g><g transform="translate(1.899 7.389)"><path class="c" d="M160.78,234.282a2.116,2.116,0,0,0-1.109-.743c-.149-.041-.342-.05-.424.081a.275.275,0,0,0,.083.34.784.784,0,0,0,.352.138,2.461,2.461,0,0,0-.55.265c-.078.051-.163.138-.126.224s.146.086.234.076c.208-.022.414-.05.621-.083-.057.1-.182.127-.28.182s-.182.192-.1.274c.062.066.17.036.253,0a2.984,2.984,0,0,0,.974-.734" transform="translate(-158.998 -233.512)"/></g><g transform="translate(3.719 1.354)"><path class="c" d="M161.6,230.321a.118.118,0,0,0-.024.193.191.191,0,0,0,.219,0,.531.531,0,0,0,.153-.174,3.377,3.377,0,0,0,.516-1.224.283.283,0,0,0-.058-.27.261.261,0,0,0-.294.032,1.1,1.1,0,0,0-.5.841,1.583,1.583,0,0,0,.026-.841c-.026-.1-.091-.225-.2-.216s-.146.117-.168.212a2.162,2.162,0,0,0-.032.871.95.95,0,0,0-.459-.718.245.245,0,0,0-.231-.034.187.187,0,0,0-.08.192.505.505,0,0,0,.092.2,4.663,4.663,0,0,0,1.086,1.146" transform="translate(-160.461 -228.662)"/></g><path class="c" d="M159.411,229.607c-.071.065-.019.2.076.224a.236.236,0,0,0,.249-.107.625.625,0,0,0,.08-.269,3.927,3.927,0,0,0-.072-1.606c-.034-.113-.092-.241-.21-.27s-.245.075-.316.18a1.285,1.285,0,0,0-.118,1.178,1.934,1.934,0,0,0-.423-.939c-.083-.1-.223-.2-.338-.142s-.1.2-.077.316a2.634,2.634,0,0,0,.431.977,1.222,1.222,0,0,0-.9-.564.306.306,0,0,0-.28.078.218.218,0,0,0,.012.25.64.64,0,0,0,.212.173,6.085,6.085,0,0,0,1.844.725" transform="translate(-157.472 -227.574)"/></g><g transform="translate(53.545 16.84)"><g transform="translate(1.907 2.046)"><path class="c" d="M113.994,234.193c.04-.019.4.7,1.063,1.813a28.162,28.162,0,0,0,6.627,7.562c1.013.807,1.681,1.254,1.656,1.292a2.421,2.421,0,0,1-.5-.274c-.312-.188-.749-.485-1.273-.872A24.407,24.407,0,0,1,114.9,236.1c-.316-.571-.552-1.043-.7-1.377A2.4,2.4,0,0,1,113.994,234.193Z" transform="translate(-113.992 -234.193)"/></g><g transform="translate(7.21 4.902)"><path class="c" d="M118.612,236.489a8.391,8.391,0,0,0,1.177,6.019,6.016,6.016,0,0,1-1.177-6.019Z" transform="translate(-118.254 -236.488)"/></g><g transform="translate(4.834 2.688)"><path class="c" d="M116.46,234.709c.078,0,.022,1.234.286,2.715s.723,2.62.649,2.65a8.581,8.581,0,0,1-.936-5.365Z" transform="translate(-116.345 -234.709)"/></g><g transform="translate(3.202 8.066)"><path class="c" d="M115.033,239.047a8.785,8.785,0,0,1,4.256,1.637c-.039.065-.942-.411-2.114-.858S115.017,239.122,115.033,239.047Z" transform="translate(-115.033 -239.032)"/></g><g transform="translate(0.85 4.726)"><path class="c" d="M113.143,236.353a9.708,9.708,0,0,1,4.793,3.185c-.056.056-.973-.865-2.3-1.739S113.114,236.427,113.143,236.353Z" transform="translate(-113.143 -236.347)"/></g><g transform="translate(1.899 7.389)"><path class="c" d="M115.768,239.257a2.121,2.121,0,0,0-1.109-.743c-.149-.041-.342-.049-.424.082a.274.274,0,0,0,.083.34.815.815,0,0,0,.352.138,2.359,2.359,0,0,0-.55.265c-.078.051-.163.138-.127.224s.147.086.235.076c.207-.022.414-.051.62-.083-.056.1-.18.127-.279.182s-.182.192-.1.274c.062.065.17.035.253,0a2.963,2.963,0,0,0,.974-.733" transform="translate(-113.985 -238.488)"/></g><g transform="translate(3.72 1.355)"><path class="c" d="M116.582,235.3a.117.117,0,0,0-.022.192.187.187,0,0,0,.218,0,.5.5,0,0,0,.153-.174,3.337,3.337,0,0,0,.516-1.223.278.278,0,0,0-.057-.27c-.082-.066-.205-.025-.295.031a1.1,1.1,0,0,0-.5.841,1.591,1.591,0,0,0,.026-.84c-.026-.1-.091-.225-.2-.216s-.144.117-.168.21a2.185,2.185,0,0,0-.031.871.951.951,0,0,0-.459-.717.246.246,0,0,0-.231-.034.184.184,0,0,0-.08.19.5.5,0,0,0,.092.2,4.656,4.656,0,0,0,1.086,1.145" transform="translate(-115.449 -233.638)"/></g><path class="c" d="M114.4,234.583c-.07.063-.017.2.077.223a.236.236,0,0,0,.249-.106.631.631,0,0,0,.08-.27,3.949,3.949,0,0,0-.072-1.606c-.034-.113-.092-.24-.21-.27s-.246.075-.317.182a1.288,1.288,0,0,0-.118,1.178,1.925,1.925,0,0,0-.422-.941c-.085-.1-.224-.2-.34-.142s-.1.2-.077.316a2.663,2.663,0,0,0,.432.978,1.225,1.225,0,0,0-.9-.564.306.306,0,0,0-.28.077.216.216,0,0,0,.012.25.636.636,0,0,0,.21.174,6.105,6.105,0,0,0,1.845.725" transform="translate(-112.459 -232.549)"/></g><g transform="translate(21.888 10.115)"><path class="b" d="M178.248,227.165a2.768,2.768,0,0,1-.433.034l-1.272.047A13.821,13.821,0,0,0,171.8,228.5c-3.944,1.762-8.622,6.613-11.673,14.013l0,.012v0l-24.781,51.9-.078.164-.184,0-40.7.733.294-.2L89.4,308.376c-.551,1.385-1.1,2.765-1.641,4.122l-.229-.434,58.1,13.384-.116,0a15.561,15.561,0,0,0,7.021-3.5,11.9,11.9,0,0,0,2.355-3.007q.982-1.661,1.938-3.283,3.755-6.545,7.116-12.406c4.434-7.811,8.31-14.639,11.513-20.279,3.189-5.615,5.706-10.044,7.438-13.093q1.286-2.24,1.981-3.449l.519-.88a1.9,1.9,0,0,1,.189-.29,2,2,0,0,1-.149.312l-.479.9-1.9,3.491c-1.7,3.067-4.169,7.522-7.3,13.172-3.169,5.657-7.006,12.509-11.4,20.345q-3.331,5.864-7.07,12.437l-1.935,3.3a12.445,12.445,0,0,1-2.444,3.132,16.077,16.077,0,0,1-7.29,3.657l-.052.011-.063-.014L87.384,312.694l-.368-.085.139-.351,1.641-4.122c1.808-4.539,3.595-9.022,5.278-13.248l.08-.2.215,0,40.7-.682-.263.168c10.118-20.98,18.761-38.907,24.979-51.8l-.006.014c3.137-7.473,7.906-12.325,11.938-14.062a13.47,13.47,0,0,1,4.818-1.178l1.28,0A3.034,3.034,0,0,1,178.248,227.165Z" transform="translate(-87.016 -227.144)"/></g></g><g transform="translate(69.278 175.464)"><path class="n" d="M155.229,316.8c-5.911-7.077-14.767-12.389-23.976-11.891-6.87.371-15.7,3.636-21.409,6.873-16.191,9.179-13.174,30.06-13.174,30.06l17.6,110.645,32.563-4.207-3.567-106.356,18.078-13.787Z" transform="translate(-96.448 -304.876)"/><g transform="translate(46.599 22.968)"><path class="i" d="M152.708,323.337a1.921,1.921,0,0,1-.307.3l-.947.83-3.672,3.125c-3.241,2.715-7.842,6.571-13.461,11.276l.092-.207c.508,10.551,1.031,24.124,1.5,38.885.526,17.364,1,33.081,1.35,44.518.178,5.657.321,10.252.423,13.491.04,1.553.071,2.778.095,3.668,0,.388,0,.7.007.956a1.218,1.218,0,0,1-.019.326,1.192,1.192,0,0,1-.047-.323c-.019-.251-.044-.565-.072-.952-.052-.888-.124-2.113-.216-3.664-.151-3.236-.365-7.83-.628-13.483-.48-11.388-.994-27.129-1.54-44.515-.465-14.759-.936-28.331-1.356-38.883l0-.128.1-.08,13.6-11.106,3.757-3.018.994-.775A1.841,1.841,0,0,1,152.708,323.337Z" transform="translate(-133.901 -323.336)"/></g><g transform="translate(0.185 19.276)"><path class="i" d="M146.794,439.348a1.394,1.394,0,0,1,.029.331l.029.979q.019,1.357.054,3.837v.1l-.1.014-32.542,4.366-.261.035-.041-.261c-2.088-13.028-4.592-28.663-7.285-45.464-3.606-22.91-6.869-43.645-9.238-58.7a48.83,48.83,0,0,1-.031-17.966,24.99,24.99,0,0,1,1.336-4.722,8.636,8.636,0,0,1,.779-1.523,2.167,2.167,0,0,1-.172.4c-.119.26-.289.65-.485,1.172a27.174,27.174,0,0,0-1.209,4.719,49.728,49.728,0,0,0,.234,17.849c2.417,15.046,5.748,35.772,9.427,58.67,2.653,16.807,5.121,32.446,7.179,45.481l-.3-.226,32.584-4.049-.1.111q.035-2.482.053-3.837c.012-.407.021-.729.029-.979A1.482,1.482,0,0,1,146.794,439.348Z" transform="translate(-96.597 -320.369)"/></g><g transform="translate(40.432 20.066)"><path class="i" d="M128.954,321.005a8.552,8.552,0,0,1,1.6,2.169,28.274,28.274,0,0,1,3.912,12.316,8.548,8.548,0,0,1-.051,2.692c-.208.014-.269-4.108-1.809-8.881C131.105,324.516,128.776,321.114,128.954,321.005Z" transform="translate(-128.944 -321.004)"/></g></g><g transform="translate(68.937)"><g transform="translate(0 6.189)"><path class="j" d="M154.022,237.342c2.445-2.477,1.019-3.9.1-6.345l-17.482-52.223c-7.588-17.12-29.883-6.95-29.883-6.95-10.514,3.862-12,15.687-9.574,23.754,2.7,8.962,6.344,19.8,9.807,25.948,6.961,12.366,17.653,10.3,17.653,10.3l4.423,11.922a6.945,6.945,0,0,0,10.377,3.354Z" transform="translate(-96.174 -168.825)"/><g transform="translate(5.556 29.942)"><g transform="translate(1.555 3.317)"><path class="b" d="M101.973,197.808a1.8,1.8,0,0,0,2.256,1.1,1.719,1.719,0,0,0,1.173-2.164,1.8,1.8,0,0,0-2.254-1.1A1.721,1.721,0,0,0,101.973,197.808Z" transform="translate(-101.89 -195.557)"/></g><path class="b" d="M100.712,196.2c.291.142,1.217-1.277,3.032-1.945,1.8-.693,3.481-.254,3.595-.549.061-.134-.3-.452-1.035-.659a4.944,4.944,0,0,0-2.979.168,4.745,4.745,0,0,0-2.312,1.822C100.615,195.669,100.573,196.137,100.712,196.2Z" transform="translate(-100.64 -192.891)"/></g><g transform="translate(23.387 23.327)"><g transform="translate(0.699 4.492)"><path class="b" d="M115.616,193.435a1.8,1.8,0,0,0,2.256,1.1,1.718,1.718,0,0,0,1.173-2.164,1.8,1.8,0,0,0-2.255-1.1A1.72,1.72,0,0,0,115.616,193.435Z" transform="translate(-115.533 -191.184)"/></g><path class="b" d="M115.043,190.881c.291.142,1.218-1.277,3.032-1.945,1.8-.693,3.48-.254,3.594-.549.06-.134-.3-.453-1.035-.658a4.932,4.932,0,0,0-2.979.167,4.739,4.739,0,0,0-2.312,1.823C114.946,190.352,114.9,190.821,115.043,190.881Z" transform="translate(-114.971 -187.574)"/></g><g transform="translate(17.05 27.155)"><path class="b" d="M115.142,206.066a12.824,12.824,0,0,0-3.143.561c-.48.124-.953.2-1.148-.092a2.523,2.523,0,0,1-.2-1.487q.03-1.924.062-4.035c.039-5.725-.116-10.364-.347-10.363s-.449,4.641-.488,10.367q0,2.113,0,4.034a2.86,2.86,0,0,0,.434,1.907,1.239,1.239,0,0,0,1.013.394,3.381,3.381,0,0,0,.826-.183A12.543,12.543,0,0,0,115.142,206.066Z" transform="translate(-109.878 -190.65)"/></g><g transform="translate(28.469 51.78)"><path class="p" d="M119.056,221.665a35.656,35.656,0,0,0,15.856-11.223s-.921,10.611-14.527,14.26Z" transform="translate(-119.056 -210.442)"/></g><g transform="translate(24.741 43.23)"><path class="p" d="M116.721,208.849a1.7,1.7,0,0,1,.88-3.046,1.51,1.51,0,0,1,.426-1.8,2.162,2.162,0,0,1,1.9-.348,2.968,2.968,0,0,1,2.119,2.906,3.248,3.248,0,0,1-2.232,2.882,3.59,3.59,0,0,1-3.57-.931" transform="translate(-116.06 -203.571)"/></g><g transform="translate(24.117 41.839)"><path class="b" d="M119.557,202.458c-.3.092.426,2.062-.742,4.085s-3.342,2.583-3.255,2.863c.019.134.61.209,1.5-.095a5.23,5.23,0,0,0,2.758-2.279,4.55,4.55,0,0,0,.5-3.378C120.088,202.8,119.688,202.4,119.557,202.458Z" transform="translate(-115.558 -202.452)"/></g><g transform="translate(20.648 20.891)"><path class="b" d="M112.819,188.773c.362.427,2.085-.479,4.307-1.012,2.212-.579,4.159-.592,4.278-1.138.047-.259-.423-.611-1.294-.831a7.687,7.687,0,0,0-6.541,1.637C112.9,188.034,112.654,188.566,112.819,188.773Z" transform="translate(-112.77 -185.616)"/></g><g transform="translate(2.998 24.158)"><path class="b" d="M98.723,191.6c.472.292,1.563-.6,3.057-1.176,1.474-.63,2.878-.751,3.011-1.291.05-.256-.3-.595-1-.779a4.743,4.743,0,0,0-4.888,1.988C98.525,190.961,98.508,191.45,98.723,191.6Z" transform="translate(-98.584 -188.242)"/></g></g><g transform="translate(30.38 37.014)"><path class="b" d="M121.4,194.024a.4.4,0,1,1-.394-.424A.41.41,0,0,1,121.4,194.024Z" transform="translate(-120.592 -193.6)"/></g><g transform="translate(0.689)"><path class="o" d="M162.269,234.224l8.539,1.911-.429-3.071a36.98,36.98,0,0,0-11.625-22.989c-10.744-9.6,3.813-13.308-5.523-25.971a40.052,40.052,0,0,0-10.925-10.71,16.408,16.408,0,0,1-2.2-1.66,68.566,68.566,0,0,0-5.39-4.9,9.314,9.314,0,0,0-5.083-1.855h0a14.787,14.787,0,0,0-3.419-.963c-5.238-.788-10.433,1.316-15.314,3.377-4.723,1.993-17.416,1.512-13.4,14.494h0c.836-2.16,4.081-3.948,6.63-1.825a7.793,7.793,0,0,1,3.1,5.064c.566,3.025,1.456,6.375,5.119,7.152a6.4,6.4,0,0,0,2.714-.039c3.058-.687,5.516-5.313,11.35-4.212,0,0,5.681,1.763,6.017,5.335s-1.647,10.207,1.854,13.365,4.088,3.073,3.99,5.8c-.022.623-.026,1.058-.058,1.369-.445,4.32.394,25.273,17.618,18.585l6.429,1.739" transform="translate(-96.728 -163.851)"/></g></g><g transform="translate(101.822 70.373)"><path class="b" d="M148.58,220.412c.021-.007.077.1.165.322a3.823,3.823,0,0,1,.223,1.012,3.314,3.314,0,0,1-.272,1.641,5.446,5.446,0,0,1-1.325,1.747,38.45,38.45,0,0,1-4.362,3.469l-5.671,3.718a27.726,27.726,0,0,1-3.041,1.836,19.682,19.682,0,0,1-3.106,1.171,18.323,18.323,0,0,1-2.944.595,4.194,4.194,0,0,1-2.6-.687,7.5,7.5,0,0,1-2.578-2.775,2.961,2.961,0,0,1-.453-1.309c.054-.017.2.45.671,1.182a7.89,7.89,0,0,0,2.593,2.507,3.782,3.782,0,0,0,2.308.547,18.776,18.776,0,0,0,2.839-.635,19.987,19.987,0,0,0,3-1.168,28.6,28.6,0,0,0,2.959-1.8l5.7-3.675a44.486,44.486,0,0,0,4.387-3.311,3.915,3.915,0,0,0,1.652-3.04C148.71,220.9,148.515,220.428,148.58,220.412Z" transform="translate(-122.605 -220.412)"/></g></g></g><g transform="translate(412.256 254.466)"><g transform="translate(0)"><g transform="translate(91.801 105.707)"><path class="r" d="M424.873,390.827c1.294-4.484,4.065-8.819,8.351-10.667,4.458-1.921,9.623-.827,14.185.83s9.043,3.876,13.888,4.176,10.314-2,11.765-6.632c1.364-4.356-1.262-9-4.55-12.165a28.711,28.711,0,0,0-47.042,11.294" transform="translate(-421.47 -358.381)"/></g><path class="s" d="M18.191,58.087a33.6,33.6,0,0,1-12.52-2.413,17.06,17.06,0,0,1-4-5.884,22.6,22.6,0,0,1-1.6-7.046A34.784,34.784,0,0,1,2.464,28.024a35.284,35.284,0,0,1,8.053-12.086,49.909,49.909,0,0,1,11.878-8.7A62.44,62.44,0,0,1,51.778,0,63.622,63.622,0,0,1,64.885,1.36,60.465,60.465,0,0,1,77.4,5.453a26.234,26.234,0,0,0-21.11,12.4c-2.2,3.651-3.454,7.816-4.668,11.844A67.529,67.529,0,0,1,48.313,39a33.625,33.625,0,0,1-18,16.825A33.142,33.142,0,0,1,18.191,58.087Z" transform="translate(51.145 101.941)"/><g transform="translate(42.592)"><path class="r" d="M392.727,390.465c-7.871-9.292-8.918-24.2-7.76-36.325s3.969-24.319,2.058-36.344c-1.133-7.124-3.9-13.926-4.831-21.079s.389-15.242,5.932-19.857c6.37-5.307,16.4-4.055,23.028.927S421.62,290.6,424.426,298.4c6.164,17.14,8.427,36.147,3.363,53.644s-16.946,33.141-34.379,38.422" transform="translate(-381.92 -273.422)"/></g><g transform="translate(49.592 108.085)"><path class="b" d="M387.576,445.476a6.555,6.555,0,0,1-.03-1.071c.009-.7,0-1.737.059-3.069.1-2.664.357-6.518.953-11.253a150.166,150.166,0,0,1,3.025-16.476,75.978,75.978,0,0,1,7.519-19.079A79.577,79.577,0,0,1,411.389,378.1a78.192,78.192,0,0,1,12.881-10.711c1.966-1.36,3.868-2.391,5.5-3.348,1.678-.881,3.144-1.6,4.345-2.184l2.832-1.191a6.5,6.5,0,0,1,1-.373,6.735,6.735,0,0,1-.952.494l-2.775,1.3c-1.18.612-2.622,1.366-4.275,2.273-1.612.982-3.488,2.036-5.426,3.412a80.957,80.957,0,0,0-24.857,27.074c-7.236,12.659-9.218,25.969-10.655,35.3-.653,4.712-.979,8.55-1.157,11.205q-.114,1.924-.18,3.06A6.712,6.712,0,0,1,387.576,445.476Z" transform="translate(-387.546 -360.293)"/></g><g transform="translate(0 71.898)"><g transform="translate(0 0)"><path class="b" d="M385.206,440.917a1.218,1.218,0,0,1-.039-.32c-.014-.25-.03-.559-.05-.939q-.045-1.318-.126-3.614c-.091-3.193-.221-7.72-.381-13.292-.177-5.61-.406-12.29-.81-19.7s-.966-15.551-2.089-24.028a77.432,77.432,0,0,0-2.412-12.2,63.348,63.348,0,0,0-4.462-10.677,61.663,61.663,0,0,0-5.63-8.838,57.778,57.778,0,0,0-6.148-6.75,45.216,45.216,0,0,0-10.9-7.43c-.712-.325-1.331-.645-1.889-.871l-1.423-.552-.871-.352a.162.162,0,1,1,.021-.063l.895.292c.408.139.89.3,1.451.5.569.209,1.2.513,1.924.822a43.615,43.615,0,0,1,11.1,7.32,56.847,56.847,0,0,1,6.265,6.758,61.238,61.238,0,0,1,5.733,8.887,63.236,63.236,0,0,1,4.541,10.769,77,77,0,0,1,2.449,12.305c1.128,8.509,1.658,16.667,2.042,24.083s.554,14.1.672,19.718.158,10.16.174,13.3c0,1.53,0,2.738,0,3.617-.006.382-.011.691-.016.941A1.157,1.157,0,0,1,385.206,440.917Z" transform="translate(-347.687 -331.208)"/></g></g><g transform="translate(40.206 27.509)"><path class="b" d="M382.555,456.21a41.772,41.772,0,0,1-1.6-6.255,65.652,65.652,0,0,1-.668-17.568,116.826,116.826,0,0,1,5.549-25.49c2.989-9.369,7.046-19.387,10.511-30.156a138.459,138.459,0,0,0,4.182-15.954,141.945,141.945,0,0,0,2.065-15.224,222.531,222.531,0,0,0,.464-26.034c-.251-7.417-.646-13.412-.892-17.557-.119-2.04-.214-3.641-.281-4.773-.024-.518-.044-.928-.057-1.243a2.192,2.192,0,0,1,0-.424,1.9,1.9,0,0,1,.065.42c.031.312.071.722.122,1.237.1,1.131.231,2.729.4,4.765.323,4.14.788,10.134,1.1,17.557a214.935,214.935,0,0,1-.326,26.1,140.367,140.367,0,0,1-2.038,15.3,137.123,137.123,0,0,1-4.187,16.032c-3.478,10.8-7.55,20.811-10.561,30.142a118.606,118.606,0,0,0-5.661,25.348,67.808,67.808,0,0,0,.458,17.484c.358,2.039.686,3.617.973,4.671.122.5.219.9.294,1.208A2.108,2.108,0,0,1,382.555,456.21Z" transform="translate(-380.001 -295.532)"/></g><g transform="translate(8.926 181.606)"><path class="i" d="M424.8,432.544H356.422l-1.561-13.16H424.8Z" transform="translate(-354.861 -419.384)"/></g><g transform="translate(17.824 193.268)"><path class="i" d="M362.013,428.757l8.549,39.48h37.153l8-39.48Z" transform="translate(-362.013 -428.757)"/></g><g transform="translate(11.714 194.333)"><path class="i" d="M424.248,430.046c0,.18-15.034.284-33.572.233s-33.575-.24-33.574-.421,15.03-.284,33.575-.231S424.248,429.867,424.248,430.046Z" transform="translate(-357.102 -429.613)"/></g><g transform="translate(21.779 208.716)"><path class="b" d="M410.537,446.71a28.209,28.209,0,0,0-6.021-3.451,21.306,21.306,0,0,0-7.323-1.469,25.761,25.761,0,0,0-9,1.651c-3.117,1.055-6.027,2.281-8.861,2.956a21.1,21.1,0,0,1-7.658.23,15.777,15.777,0,0,1-4.922-1.558,9.457,9.457,0,0,1-1.187-.754c-.258-.194-.384-.3-.371-.321.036-.052.584.338,1.67.847a17.206,17.206,0,0,0,4.875,1.33,21.488,21.488,0,0,0,7.46-.36c2.736-.684,5.646-1.925,8.787-2.989a25.616,25.616,0,0,1,9.226-1.635,20.973,20.973,0,0,1,7.48,1.644,19.41,19.41,0,0,1,4.457,2.6,11.341,11.341,0,0,1,1.061.916C410.439,446.569,410.552,446.694,410.537,446.71Z" transform="translate(-365.191 -441.173)"/></g><g transform="translate(22.823 211.417)"><path class="m" d="M409.813,448.816a29.881,29.881,0,0,0-5.783-3.405,19.61,19.61,0,0,0-7.061-1.454,25.416,25.416,0,0,0-8.708,1.566c-3.012,1.007-5.839,2.175-8.539,2.9a21.936,21.936,0,0,1-7.359.826,12.483,12.483,0,0,1-4.824-1.29,8.749,8.749,0,0,1-1.15-.728c-.249-.188-.371-.295-.358-.312.037-.054.565.328,1.617.811a13.263,13.263,0,0,0,4.743,1.06,22.461,22.461,0,0,0,7.17-.946c2.643-.743,5.448-1.922,8.494-2.941a25.214,25.214,0,0,1,8.928-1.548,19.323,19.323,0,0,1,7.225,1.631,19.1,19.1,0,0,1,4.269,2.582,12.269,12.269,0,0,1,1.019.893C409.719,448.679,409.828,448.8,409.813,448.816Z" transform="translate(-366.03 -443.343)"/></g><g transform="translate(21.041 205.542)"><path class="m" d="M411.36,444.716a32.417,32.417,0,0,0-6.184-3.644,22.731,22.731,0,0,0-7.505-1.8,24.251,24.251,0,0,0-9.289,1.636,83.685,83.685,0,0,1-9.175,3,23.364,23.364,0,0,1-7.909.012,17.774,17.774,0,0,1-5.08-1.608,9.483,9.483,0,0,1-1.233-.765c-.266-.2-.4-.311-.386-.33.037-.052.6.352,1.729.866a19.551,19.551,0,0,0,5.04,1.382,23.9,23.9,0,0,0,7.724-.148,93.329,93.329,0,0,0,9.08-3.023,24.208,24.208,0,0,1,9.534-1.62,23.017,23.017,0,0,1,12.216,4.728,12.846,12.846,0,0,1,1.095.946C411.257,444.571,411.375,444.7,411.36,444.716Z" transform="translate(-364.598 -438.622)"/></g><g transform="translate(10.762 194.497)"><path class="b" d="M425.039,430.071c0,.179-15.381.326-34.35.326s-34.352-.147-34.352-.326,15.377-.326,34.352-.326S425.039,429.891,425.039,430.071Z" transform="translate(-356.337 -429.745)"/></g></g></g></g><g transform="translate(1113.821 501.257)"><path class="t" d="M170.867,532.645l-9.782-9.2a3.152,3.152,0,0,0-1.062-.737,2.775,2.775,0,0,0-.919-.162,3,3,0,0,0-1.014.175,2.268,2.268,0,0,0-.859.55,2.745,2.745,0,0,0-.6.974,4.021,4.021,0,0,0-.227,1.424v13.869h4.486v-9.821l9.782,9.2a2.934,2.934,0,0,0,1.038.737,2.845,2.845,0,0,0,.942.163,3.087,3.087,0,0,0,1.026-.175,2.187,2.187,0,0,0,.871-.562,2.9,2.9,0,0,0,.6-.988,4.03,4.03,0,0,0,.226-1.424V522.825h-4.509Zm-29.067-3.9H131.333v-5.922h-4.962v16.717h4.962v-6.447H141.8v6.447h4.915V522.825H141.8Zm6.855,10.8h4.938V522.825h-4.938Zm47.037-14.431a9.189,9.189,0,0,0-3.042-1.687,11.95,11.95,0,0,0-3.865-.6h-7.539l-3.149,4.348h10.688a5.416,5.416,0,0,1,1.861.312,5,5,0,0,1,1.5.85,3.781,3.781,0,0,1,1,1.287,3.892,3.892,0,0,1,0,3.261,3.815,3.815,0,0,1-.978,1.261,4.418,4.418,0,0,1-1.491.812,6.024,6.024,0,0,1-1.9.288h-5.726v-6.122H178.1v10.42h10.688a11.037,11.037,0,0,0,3.841-.65,9.4,9.4,0,0,0,3.043-1.787,8.233,8.233,0,0,0,2-2.7,7.922,7.922,0,0,0,.728-3.386,7.616,7.616,0,0,0-2.708-5.91Zm11,2.311a2.554,2.554,0,0,1,1.276-.249H224.83l-3.9-4.348H208.346a11.333,11.333,0,0,0-3.114.375,5.88,5.88,0,0,0-2.123,1.049,4.1,4.1,0,0,0-1.217,1.637,5.59,5.59,0,0,0-.394,2.136,5.188,5.188,0,0,0,.358,1.961,3.82,3.82,0,0,0,1.1,1.512,5.3,5.3,0,0,0,1.861.974,9.035,9.035,0,0,0,2.672.349h8.684a2.344,2.344,0,0,1,1.288.275,1.034,1.034,0,0,1,.406.924,1.067,1.067,0,0,1-.406.937,2.263,2.263,0,0,1-1.288.288H204.1l-3.173,4.3h14.864a11.349,11.349,0,0,0,3.114-.375,5.768,5.768,0,0,0,2.135-1.075,4.061,4.061,0,0,0,1.217-1.724,6.545,6.545,0,0,0,.382-2.3,4.009,4.009,0,0,0-1.527-3.436,7.394,7.394,0,0,0-4.461-1.137h-8.685a2.448,2.448,0,0,1-1.276-.262.991.991,0,0,1-.418-.912A.961.961,0,0,1,206.687,527.422Zm28.641-.38c-.08-.117-8.351-8.36-8.351-8.36h-6.347l12.517,12.963Zm48.055-4.218v3.757h8.165v12.96h4.938v-12.96h5.7l3.2-3.757Zm-9.88,0H254.7a12.113,12.113,0,0,0-3.841.587,9.022,9.022,0,0,0-3.042,1.675,7.847,7.847,0,0,0-2,2.6,7.6,7.6,0,0,0-.727,3.335,7.921,7.921,0,0,0,.727,3.386,8.227,8.227,0,0,0,2,2.7,9.384,9.384,0,0,0,3.042,1.787,11.036,11.036,0,0,0,3.841.65h11.92V529.1H256.4l-2.958,3.723H261.7v2.424H254.7a5.905,5.905,0,0,1-1.884-.288,4.568,4.568,0,0,1-1.492-.812,3.62,3.62,0,0,1-.978-1.261,3.808,3.808,0,0,1-.346-1.637,3.7,3.7,0,0,1,.358-1.636,4.026,4.026,0,0,1,.99-1.287,4.524,4.524,0,0,1,1.491-.85,5.609,5.609,0,0,1,1.861-.3h14.123v12.369H273.5v-6.7h10.9v6.648h4.685V528.92H273.5Z" transform="translate(-126.371 -504.457)"/><path class="d" d="M385.7,492.669s-46.553-12.822-57.3,41.616h4.34S340.828,487.047,385.7,492.669Z" transform="translate(-223.235 -491.354)"/></g></g></svg>