<svg xmlns="http://www.w3.org/2000/svg" width="320.184" height="296.859" viewBox="0 0 320.184 296.859"><defs><style>.a{fill:#062640;}.b{fill:#fff;}.c{fill:#00213f;}.d{fill:#0081d7;}.e{fill:#2a84b3;}.f{fill:#d2ebfc;}.g{fill:#2ab39e;}.h{fill:#044ca4;}.i{fill:#b32a83;}.j{fill:#003e61;}</style></defs><g transform="translate(-3396.217 -641.948)"><g transform="translate(3396.217 641.948)"><rect class="a" width="173.229" height="295.983" rx="17" transform="translate(0 0)"/><path class="b" d="M3522.987,711.121a1.2,1.2,0,0,0-1.191,1.216v.012c0,4.566-3.151,8.268-7.039,8.268s-7.039-3.7-7.039-8.268v-.012a1.2,1.2,0,0,0-1.191-1.216H3441.4v243.52h148.345V711.121Z" transform="translate(-3428.959 -692.074)"/><path class="c" d="M3589.072,953.968H3439.9V709.622h65.54a1.584,1.584,0,0,1,1.127.467,1.629,1.629,0,0,1,.477,1.163c0,4.343,2.973,7.867,6.626,7.867s6.625-3.523,6.625-7.855a1.639,1.639,0,0,1,.477-1.175,1.582,1.582,0,0,1,1.126-.467h67.172Zm-148.345-.826h147.519V710.448H3521.9a.759.759,0,0,0-.542.225.81.81,0,0,0-.236.578c0,4.8-3.343,8.694-7.451,8.694s-7.452-3.894-7.452-8.681a.816.816,0,0,0-.236-.591.758.758,0,0,0-.542-.225h-64.714Z" transform="translate(-3427.872 -690.987)"/><path class="b" d="M3682.128,1631.512a9.4,9.4,0,1,1-9.4-9.4A9.4,9.4,0,0,1,3682.128,1631.512Z" transform="translate(-3589.774 -1352.214)"/><path class="c" d="M3671.639,1640.24a9.816,9.816,0,1,1,9.815-9.815A9.827,9.827,0,0,1,3671.639,1640.24Zm0-18.805a8.99,8.99,0,1,0,8.989,8.99A9,9,0,0,0,3671.639,1621.435Z" transform="translate(-3588.687 -1351.127)"/><path class="c" d="M3722.073,923.225H3697.58a.413.413,0,1,1,0-.826h24.493a.413.413,0,1,1,0,.826Z" transform="translate(-3614.298 -845.174)"/><path class="c" d="M6.685,0H99.854a6.685,6.685,0,0,1,6.685,6.685v0a6.685,6.685,0,0,1-6.685,6.685H6.686A6.686,6.686,0,0,1,0,6.685v0A6.685,6.685,0,0,1,6.685,0Z" transform="translate(32.764 73.347)"/><rect class="b" width="29.251" height="9.562" transform="translate(102.645 217.898)"/><path class="c" d="M3797.563,1442.163h-30.077v-10.388h30.077Zm-29.251-.826h28.425V1432.6h-28.425Z" transform="translate(-3665.254 -1214.29)"/><rect class="d" width="60.702" height="13.978" transform="translate(43.897 215.508)"/><path class="e" d="M3565.5,1041.7V936.3a6.189,6.189,0,0,0-6.188-6.189h70.554a6.039,6.039,0,0,1,6.189,6.036V1041.7Z" transform="translate(-3514.404 -850.765)"/><path class="b" d="M3763.218,1281.828c0-10.977,9.621-20.336,20.6-20.336v20.336Z" transform="translate(-3662.161 -1090.895)"/><path class="b" d="M3581.79,1260.508c10.977,0,20.359,9.63,20.359,20.607H3581.79Z" transform="translate(-3530.691 -1090.182)"/><path class="c" d="M3634.525,930.447a6.4,6.4,0,0,0-4.655-1.831h-70.554v.826a5.783,5.783,0,0,1,5.775,5.776v105.806h71.381V935.065A6.4,6.4,0,0,0,3634.525,930.447ZM3565.916,1040.2v-19.776c10.317.238,19.3,9.331,19.529,19.776Zm20.349,0a21.269,21.269,0,0,0-6.171-14.3,20.748,20.748,0,0,0-14.178-6.3V935.218a6.607,6.607,0,0,0-3.406-5.776h67.37a5.625,5.625,0,0,1,5.766,5.623v84.807a21.269,21.269,0,0,0-14.292,6.159,20.719,20.719,0,0,0-6.294,14.166Zm49.38,0h-19.766c.237-10.3,9.326-19.274,19.766-19.506Z" transform="translate(-3514.405 -849.678)"/><path class="c" d="M3687.824,1298.581h-23.807a.413.413,0,0,1,0-.826h23.807a.413.413,0,0,1,0,.826Z" transform="translate(-3589.977 -1117.173)"/><path class="c" d="M3809.422,1029.677a.413.413,0,0,1-.413-.413V950.7a.413.413,0,0,1,.826,0v78.562A.413.413,0,0,1,3809.422,1029.677Z" transform="translate(-3695.343 -865.384)"/><path class="c" d="M3610.047,1030.855a.413.413,0,0,1-.414-.413V951.88a.413.413,0,0,1,.826,0v78.562A.413.413,0,0,1,3610.047,1030.855Z" transform="translate(-3550.867 -866.238)"/><ellipse class="b" cx="18.035" cy="14.717" rx="18.035" ry="14.717" transform="translate(66.682 112.01)"/><path class="c" d="M3655.33,1077.486c-10.172,0-18.448-6.787-18.448-15.13s8.276-15.13,18.448-15.13,18.448,6.787,18.448,15.13S3665.5,1077.486,3655.33,1077.486Zm0-29.433c-9.717,0-17.622,6.416-17.622,14.3s7.9,14.3,17.622,14.3,17.622-6.417,17.622-14.3S3665.046,1048.052,3655.33,1048.052Z" transform="translate(-3570.613 -935.629)"/><path class="c" d="M3678.67,1082.122h-2.027c-.329-3.966-2.8-5.753-5.43-5.753-2.925,0-4.4,1.748-5.515,5.753h-9.541a5.251,5.251,0,0,1,3.876-4.792.862.862,0,0,0-.49-1.653c-2.33.663-4.539,2.495-4.877,6.445H3651.8a.826.826,0,1,0,0,1.652h2.834c.207,4.575,2.848,6.7,5.886,6.7,2.545,0,4.941-.871,6.451-6.7h8.137a4.582,4.582,0,0,1-3.309,4.388.866.866,0,0,0,.48,1.665c2.122-.625,4.138-2.465,4.38-6.053h2.012a.826.826,0,1,0,0-1.652Zm-7.365-3.971c2.174,0,3.561,1.4,3.8,3.971h-7.692C3668.279,1079.225,3669.244,1078.151,3671.3,1078.151Zm-10.91,10.541c-2.229,0-4.117-1.376-4.286-4.918h9.151C3664.125,1087.753,3662.662,1088.692,3660.4,1088.692Z" transform="translate(-3580.823 -956.222)"/></g><g transform="translate(3606.01 779.975)"><rect class="b" width="94.075" height="50.276" transform="translate(88.634 23.803) rotate(117.54)"/><path class="c" d="M4247.3,1166.842l-32.021-16.7h0l-13.291-6.93-7.049,13.518h0l-36.83,70.63,45.312,23.627,36.829-70.63h0Zm-7.4,12.4a14.5,14.5,0,0,1-6.566-8.107,13.764,13.764,0,0,1,.572-10.341l12.275,6.4Zm-37.565-34.911,11.82,6.164a14.048,14.048,0,0,1-7.934,6.511,13.51,13.51,0,0,1-10.167-.627Zm.732,105.547-43.847-22.864,36.453-69.908a14.145,14.145,0,0,0,6.194,1.431,14.993,14.993,0,0,0,13.017-7.662l18.293,9.539a14.575,14.575,0,0,0-.628,10.979,15.329,15.329,0,0,0,6.971,8.579Z" transform="translate(-4158.111 -1143.214)"/><path class="c" d="M4373.244,1200.374a.416.416,0,0,1-.191-.047l-15.042-7.844a.413.413,0,0,1,.382-.733l15.042,7.844a.413.413,0,0,1-.191.779Z" transform="translate(-4302.806 -1178.352)"/><path class="c" d="M4335.617,1329.31a.413.413,0,0,1-.366-.6l25.884-49.639a.413.413,0,1,1,.733.382l-25.884,49.639A.413.413,0,0,1,4335.617,1329.31Z" transform="translate(-4286.44 -1241.498)"/><path class="c" d="M4282.135,1321.538a15.34,15.34,0,0,1-7.065-1.779h0c-6.486-3.381-9.5-10.469-6.722-15.8a9.961,9.961,0,0,1,7.049-5.048,15.391,15.391,0,0,1,16.579,8.645,9.962,9.962,0,0,1-.1,8.67C4290.081,1319.659,4286.32,1321.538,4282.135,1321.538Zm-6.684-2.511c6.083,3.172,13.119,1.744,15.687-3.181a9.152,9.152,0,0,0,.078-7.962,14.567,14.567,0,0,0-15.653-8.162,9.148,9.148,0,0,0-6.483,4.621c-2.569,4.925.289,11.512,6.371,14.684Z" transform="translate(-4237.244 -1255.844)"/><path class="c" d="M4298.333,1326.618l-1.271-.663c1.207-2.695.232-4.7-1.465-5.585-1.884-.983-3.418-.318-5.5,1.952l-6-3.129a3.774,3.774,0,0,1,4.123-1.9.614.614,0,0,0,.235-1.206c-1.726-.356-3.775.095-5.3,2.614l-1.8-.937a.413.413,0,0,0-.382.732l1.789.933c-1.484,3.036-.521,5.311,1.432,6.329,1.632.851,3.459,1.087,6.405-2.241h0l5.114,2.667a3.307,3.307,0,0,1-3.631,1.832.617.617,0,0,0-.245,1.21c1.581.311,3.508-.221,4.848-2.534l1.266.66a.417.417,0,0,0,.19.047.413.413,0,0,0,.192-.779Zm-13.63-2.025c-1.44-.751-2.181-2.295-1.011-4.678l5.828,3.039C4287.42,1325.219,4286.164,1325.355,4284.7,1324.593Zm10.366-3.066c1.418.739,1.82,2.14,1.026,3.924l-4.918-2.565C4292.749,1321.232,4293.731,1320.83,4295.068,1321.527Z" transform="translate(-4246.98 -1268.409)"/><path class="c" d="M4209.253,1264.366a.413.413,0,0,1-.366-.6l25.884-49.639a.413.413,0,1,1,.732.382l-25.884,49.639A.412.412,0,0,1,4209.253,1264.366Z" transform="translate(-4194.872 -1194.437)"/></g><g transform="translate(3569.445 770.447)"><rect class="f" width="53.977" height="167.534" transform="translate(0.413 0.413)"/><path class="c" d="M4025.32,1108.611v168.36h54.8v-168.36Zm53.977.826v54.738h-53.151v-12.98H4077.6l.179-.826h-51.636v-12.98h51.636v-.826h-51.636v-12.981h51.636v-.826h-51.636v-13.318Zm-53.151,139.853H4079.3v12.98h-53.151Zm0-.826v-12.98H4079.3v12.98Zm53.151-13.806h-53.151v-12.98H4079.3Zm0-13.806h-53.151v-12.98H4079.3Zm0-13.806h-53.151v-14.431H4079.3Zm-53.151-15.257v-12.98H4079.3v12.98Zm0-13.806V1165H4079.3v12.98Zm0,98.164V1263.1H4079.3v13.048Z" transform="translate(-4025.32 -1108.611)"/></g><g transform="translate(3623.422 853.624)"><rect class="f" width="53.977" height="84.357" transform="translate(0.413 0.413)"/><path class="c" d="M4221.343,1410.678v85.183h54.8v-85.183Zm.826,16.015h53.151v13.049h-53.151Zm53.151-15.189v14.363h-53.151V1411.5Zm-53.151,83.531v-54.467h53.151v54.467Z" transform="translate(-4221.343 -1410.678)"/></g><path class="c" d="M4251.754,1376.622a.413.413,0,0,1-.174-.789l4.518-2.077a.413.413,0,1,1,.345.751l-4.518,2.077A.411.411,0,0,1,4251.754,1376.622Z" transform="translate(-619.658 -530.272)"/><path class="c" d="M4247.68,1364.866a.413.413,0,0,1-.173-.788l4.518-2.077a.413.413,0,1,1,.345.751l-4.517,2.077A.421.421,0,0,1,4247.68,1364.866Z" transform="translate(-616.707 -521.753)"/><rect class="g" width="94.075" height="50.276" transform="translate(3607.489 888.118)"/><g transform="translate(3607.075 887.705)"><path class="b" d="M4177.9,1535.948c0,7.822-6.6,14.677-14.42,14.677v-14.677Z" transform="translate(-4163.065 -1535.535)"/><path class="b" d="M4466.989,1550.625a14.893,14.893,0,0,1-14.491-14.677h14.491Z" transform="translate(-4372.501 -1535.535)"/><path class="b" d="M4177.9,1681.261a14.385,14.385,0,0,0-14.42-14.163v14.163Z" transform="translate(-4163.065 -1630.572)"/><path class="b" d="M4451.8,1680.355a14.914,14.914,0,0,1,14.685-14.508v14.508Z" transform="translate(-4371.992 -1629.665)"/><path class="c" d="M4161.979,1534.448v51.1h94.9v-51.1Zm94.074.826v13.845a14.581,14.581,0,0,1-13.657-13.845Zm-93.248,0h13.586c-.228,7.286-6.435,13.609-13.586,13.845Zm0,49.45v-13.331a13.9,13.9,0,0,1,13.586,13.331Zm14.409,0a14.331,14.331,0,0,0-4.391-9.9,14.868,14.868,0,0,0-10.018-4.256v-20.63a14.576,14.576,0,0,0,10.024-4.519,15.325,15.325,0,0,0,4.384-10.148h64.36a15.285,15.285,0,0,0,4.419,10.148,14.9,14.9,0,0,0,10.06,4.518v20.287a15.292,15.292,0,0,0-10.151,4.428,14.915,14.915,0,0,0-4.521,10.068Zm78.839,0H4242.2a14.592,14.592,0,0,1,13.851-13.675Z" transform="translate(-4161.979 -1534.448)"/><path class="c" d="M4186.475,1613.847a.413.413,0,0,1-.412-.413V1596.47a.413.413,0,0,1,.826,0v16.964A.414.414,0,0,1,4186.475,1613.847Z" transform="translate(-4179.431 -1579.093)"/><path class="c" d="M4478.321,1613.847a.412.412,0,0,1-.413-.413V1596.47a.413.413,0,1,1,.826,0v16.964A.413.413,0,0,1,4478.321,1613.847Z" transform="translate(-4390.916 -1579.093)"/><path class="c" d="M4286.7,1554.877h-55.983a.413.413,0,0,1,0-.826H4286.7a.413.413,0,0,1,0,.826Z" transform="translate(-4211.494 -1548.653)"/><path class="c" d="M4287.543,1696.95h-55.982a.413.413,0,0,1,0-.826h55.982a.413.413,0,0,1,0,.826Z" transform="translate(-4212.102 -1651.605)"/><path class="b" d="M4321.858,1597.713c0,7.1-4.7,12.852-10.488,12.852s-10.486-5.754-10.486-12.852,4.694-12.852,10.486-12.852S4321.858,1590.615,4321.858,1597.713Z" transform="translate(-4262.636 -1570.979)"/><path class="c" d="M4310.283,1609.892c-6.01,0-10.9-5.951-10.9-13.265s4.89-13.265,10.9-13.265,10.9,5.951,10.9,13.265S4316.294,1609.892,4310.283,1609.892Zm0-25.7c-5.555,0-10.074,5.58-10.074,12.438s4.519,12.439,10.074,12.439,10.074-5.58,10.074-12.439S4315.839,1584.188,4310.283,1584.188Z" transform="translate(-4261.549 -1569.893)"/><path class="c" d="M4330.634,1609.405c0-1.839-.636-3.57-4.949-4.643h0v-5.768a3.308,3.308,0,0,1,3.3,2.374.619.619,0,0,0,.589.438h0a.616.616,0,0,0,.6-.781c-.456-1.546-1.819-3.009-4.489-3.127v-1.428a.413.413,0,0,0-.826,0v1.434c-2.948.175-4.275,1.966-4.275,3.88,0,2.125,1.3,3.178,4.275,3.977v6.768a3.777,3.777,0,0,1-3.591-2.778.614.614,0,0,0-1.178.349c.482,1.7,1.83,3.3,4.769,3.491v2.028a.413.413,0,0,0,.826,0V1613.6C4329.062,1613.513,4330.634,1611.608,4330.634,1609.405Zm-8.782-7.687c0-1.6,1.055-2.6,3-2.724v5.548C4322.664,1603.912,4321.853,1603.227,4321.853,1601.718Zm3.831,10.834v-6.574c2.98.815,3.68,1.867,3.68,3.514C4329.363,1611.117,4328.337,1612.487,4325.684,1612.552Z" transform="translate(-4276.535 -1579.093)"/></g><g transform="translate(3577.485 665.262)"><path class="d" d="M4225.1,1336.589c3.346,12.179,9.1,16.012,12.107,14.891a3.088,3.088,0,0,0,1.887-2.54c.93-5.361-3.009-12.614-5.933-16.512C4231.8,1330.614,4224.23,1333.422,4225.1,1336.589Z" transform="translate(-4178.078 -1165.199)"/><path class="c" d="M4225.021,1341.832c3.353,12.177,9.1,16.012,12.106,14.891-9.374-5.219-10.888-17.632-10.888-17.632a4.437,4.437,0,0,0-1.1,1.254A1.76,1.76,0,0,0,4225.021,1341.832Z" transform="translate(-4177.999 -1170.441)"/><path class="b" d="M4227.819,1290.478s.7,12.01,1.4,14.182,3.458,4.939,4.509,5.111c1.9.309,3.226-1.114,1.414-6.516l1.935-13.224Z" transform="translate(-4180.1 -1134.89)"/><path class="c" d="M4233.053,1309.074a3.273,3.273,0,0,1-.534-.045c-1.29-.21-4.108-3.138-4.836-5.391-.711-2.2-1.4-13.792-1.425-14.285l-.024-.417,10.18-.492-1.992,13.623c1.043,3.149,1.123,5.276.236,6.32A2.015,2.015,0,0,1,4233.053,1309.074Zm-5.946-19.353c.132,2.134.755,11.79,1.361,13.662.676,2.089,3.359,4.7,4.183,4.83a1.4,1.4,0,0,0,1.376-.36c.391-.461.858-1.8-.422-5.617l-.031-.094,1.876-12.825Z" transform="translate(-4178.95 -1133.741)"/><path class="d" d="M4360.518,1291.908c9.059,8.8,15.962,9.188,17.985,6.7a3.088,3.088,0,0,0,.338-3.146c-1.916-5.092-8.989-9.347-13.484-11.225C4363.264,1283.361,4358.162,1289.62,4360.518,1291.908Z" transform="translate(-4275.816 -1130.63)"/><path class="c" d="M4360.384,1304.479c9.063,8.8,15.962,9.188,17.984,6.7-10.726.254-18.324-9.677-18.324-9.677a4.416,4.416,0,0,0-.308,1.636A1.758,1.758,0,0,0,4360.384,1304.479Z" transform="translate(-4275.684 -1143.201)"/><path class="c" d="M4401.881,1316a.407.407,0,0,1-.235-.074.413.413,0,0,1-.1-.575l2.842-4.081a.413.413,0,0,1,.678.472l-2.841,4.082A.414.414,0,0,1,4401.881,1316Z" transform="translate(-4305.932 -1150.151)"/><path class="c" d="M4392.407,1307.931a.413.413,0,0,1-.338-.649l2.841-4.081a.413.413,0,1,1,.678.472l-2.84,4.081A.415.415,0,0,1,4392.407,1307.931Z" transform="translate(-4299.067 -1144.306)"/><path class="b" d="M4335.208,1248.2s7.4,9.176,9.1,10.692,5.174,2.613,6.167,2.228c1.791-.694,1.823-1.885-2.479-5.622l-5.037-12.379Z" transform="translate(-4257.917 -1100.892)"/><path class="c" d="M4348.337,1259.971a11.081,11.081,0,0,1-5.9-2.409c-1.712-1.521-8.848-10.366-9.15-10.741l-.287-.355,8.559-5.607,5.188,12.753c2.788,2.432,3.852,3.862,3.666,4.928a2.186,2.186,0,0,1-2.075,1.431Zm-14.121-13.314c1.377,1.7,7.3,8.979,8.771,10.287,1.708,1.518,5.017,2.433,5.745,2.152s.838-.532.868-.7c.122-.7-1.045-2.122-3.468-4.228l-.075-.064-.037-.092-4.847-11.914Z" transform="translate(-4256.317 -1099.259)"/><path class="g" d="M4152.837,1048.917s39.339,6.573,41.8,11.545,23.213,43.029,23.213,43.029l-23.213,15.108-12.5-43.985Z" transform="translate(-4125.763 -960.169)"/><path class="g" d="M4056.451,1047.517c1.234,4.318-9.562,16.964,9.562,19.432s27.452,2.159,27.452,2.159l3.672,51.51h32.107s-16.688-57.51-18.2-60.866c-.663-1.473-6.452-4.012-12.739-6.4-8.031-3.046-16.871-5.839-16.871-5.839Z" transform="translate(-4054.516 -959.155)"/><path class="c" d="M4128.561,772.739s7.412-6.691,1.483-14.909c-7.24-10.037-32.63,1.042-17.387,18.808C4120.721,786.036,4128.561,772.739,4128.561,772.739Z" transform="translate(-4093.178 -746.481)"/><path class="b" d="M4096.306,829.136s-3.431,9.414-2.992,10.609,2.19,5.724,2.19,5.724l-11.277,15.984-14.435-5.617,4.219-12.61s10.592-7.483,11.32-8.5c1.007-1.409,2.315-6.432,2.315-6.432Z" transform="translate(-4065.585 -800.295)"/><path class="h" d="M4083.017,860.868l-15.1-5.877,4.387-13.111.11-.078c4.074-2.878,10.722-7.7,11.223-8.4.952-1.331,2.239-6.247,2.252-6.3a.412.412,0,1,1,.8.208c-.053.208-1.338,5.114-2.378,6.568-.727,1.015-9.8,7.455-11.308,8.521l-4.052,12.108,13.768,5.357,10.964-15.539c-.348-.9-1.732-4.486-2.113-5.524-.455-1.241,2.175-8.651,2.992-10.892a.413.413,0,1,1,.776.283c-1.652,4.534-3.223,9.635-2.992,10.325.432,1.177,2.171,5.671,2.188,5.716l.08.206Z" transform="translate(-4064.225 -799.208)"/><path class="b" d="M4179.794,942.712s10.825,3.051,12.081,2.61,1.361-3.972,2.421-3.207c.506.365.1,3.282.1,3.282l5.141.518s-.373,4.469-3.529,5.428c-2.628.8-24.074-2.686-24.088-2.741-.019-.073-15.337-3.33-.573-11.207C4172.932,936.552,4179.794,942.712,4179.794,942.712Z" transform="translate(-4134.525 -879.299)"/><path class="c" d="M4193.478,950.828c-5.588,0-21.713-2.684-22.788-2.9l0,.01c-.027-.009-.087-.025-.175-.049-4.391-1.191-6.834-2.9-7.066-4.954-.245-2.171,1.921-4.444,6.622-6.952,1.678-.9,7.1,3.751,8.844,5.309,5.232,1.472,11.031,2.839,11.739,2.592.413-.145.729-.995.984-1.677.295-.788.549-1.47,1.074-1.629a.823.823,0,0,1,.742.154c.529.382.485,1.9.324,3.249l5.123.516-.034.4c-.016.194-.435,4.76-3.819,5.789A6.117,6.117,0,0,1,4193.478,950.828Zm-22.531-3.672c.957.228,21.414,3.483,23.854,2.742,2.324-.706,3.007-3.593,3.183-4.665l-5.142-.518.059-.425a8.308,8.308,0,0,0,.044-2.9l-.012-.007a4.116,4.116,0,0,0-.525,1.115c-.331.888-.707,1.895-1.485,2.168-1.311.461-10.5-2.086-12.33-2.6l-.092-.026-.071-.064c-3.2-2.87-7.157-5.7-7.976-5.26-4.246,2.265-6.387,4.385-6.189,6.13.188,1.662,2.483,3.171,6.461,4.251C4170.811,947.114,4170.884,947.134,4170.947,947.156Z" transform="translate(-4133.438 -878.249)"/><path class="c" d="M4272.437,942.033l-3.845,11.193,5.183,2.12,4.34-11.556Z" transform="translate(-4209.645 -882.717)"/><path class="b" d="M4275.15,947.025l-3.431,9.537,3.526.965,3.478-9.363Z" transform="translate(-4211.911 -886.334)"/><path class="c" d="M4274.08,956.671l-4.323-1.182,3.718-10.332,4.365,1.391Zm-3.243-1.743,2.731.747,3.2-8.6-2.781-.886Z" transform="translate(-4210.488 -884.98)"/><path class="i" d="M4072.679,851.707c2.017.4,5.994,8.911,9.982,9.566,1.208.2.853-2.2,1.776-3.188,4.148-4.423,6.008,8.07,8.75,10.208,0,0,5.167,2.207,5.259,4.833.067,1.9-1.52,3.458-2.918,4.753-5.706,5.286-7.572,4.089-7.572,4.089-4.263,2.906,1,21.006-1.691,24.692-.342.468-28.479,1.742-28.531,1.165C4054.517,872.531,4063.472,849.879,4072.679,851.707Z" transform="translate(-4056.364 -817.188)"/><path class="b" d="M4147.9,973.389s18.842-2.128,20.395-1.561,5.246-.477,6.208-3.869-.744-3.845-.744-3.845-.832,1.9-1.054,2.229a8.96,8.96,0,0,1-2.493,1.32s.477-3.242-.4-3.8-2.146,3.778-2.146,3.778L4147.9,965.37l-9.922-3.5L4127.3,970.51Z" transform="translate(-4107.257 -897.094)"/><path class="c" d="M4145.264,972.579l-21.6-3.018,11.6-9.38,10.1,3.557,19.372,2.226c.341-1.1,1.148-3.416,2.01-3.741a.718.718,0,0,1,.652.064c.819.52.786,2.364.677,3.507a5.9,5.9,0,0,0,1.659-.911c.146-.214.7-1.439,1.017-2.162l.142-.325.342.091a1.739,1.739,0,0,1,.987.847,4.63,4.63,0,0,1,.049,3.51,5.868,5.868,0,0,1-3.031,3.643,5.025,5.025,0,0,1-3.717.5c-1.065-.39-12.959.765-20.206,1.584Zm-19.6-3.573,19.606,2.74c2.171-.245,18.947-2.111,20.531-1.533a4.261,4.261,0,0,0,3.058-.461,5.049,5.049,0,0,0,2.611-3.133c.561-1.979.165-2.8-.16-3.132-.271.611-.724,1.605-.9,1.861a7.946,7.946,0,0,1-2.69,1.475l-.655.246.1-.692c.2-1.357.17-3.021-.176-3.36a9.724,9.724,0,0,0-1.568,3.512l-.1.335-20.2-2.331-9.7-3.419Z" transform="translate(-4104.627 -895.867)"/><path class="i" d="M4082.2,879.974c5.681-2.122,3.253,3.906,13.6,12.665,9.479,8.027,10.59,7.271-1.954,18.728-5.2,4.747-8.616-4.518-14.122-11.751C4076.6,895.51,4076.768,882.006,4082.2,879.974Z" transform="translate(-4071.299 -837.436)"/><path class="c" d="M4095.361,927.169a3.524,3.524,0,0,1-.444-.028c-2.695-.346-4.968-3.849-7.6-7.9-1.139-1.754-2.314-3.567-3.619-5.28a.413.413,0,1,1,.657-.5c1.324,1.738,2.509,3.564,3.655,5.33,2.521,3.884,4.7,7.239,7.013,7.535a3.562,3.562,0,0,0,2.848-1.169c6.346-5.8,9.149-8.447,9.1-10.526-.037-1.656-1.885-3.195-5.238-5.989-.59-.491-1.223-1.02-1.9-1.593a35.745,35.745,0,0,1-6.72-7.41.413.413,0,1,1,.687-.46,34.894,34.894,0,0,0,6.568,7.24c.675.572,1.307,1.1,1.9,1.589,3.539,2.949,5.489,4.573,5.534,6.6.056,2.445-2.664,5.029-9.372,11.155A4.566,4.566,0,0,1,4095.361,927.169Z" transform="translate(-4075.602 -851.527)"/><path class="b" d="M4122.983,790.665c-1.006-1.261-3.934-6.812-3.453-8.507s2.328-.882,2.827-.43c.331.3,2.808-9.3,2.808-9.3l13.249,3.207s-.632,9.2-2.588,13.674c-1.964,4.5-4.481,5.011-7.911,4.071Z" transform="translate(-4101.59 -759.814)"/><path class="c" d="M4129.341,792.868a9.967,9.967,0,0,1-2.613-.4.413.413,0,0,1,.219-.8c3.167.868,5.515.529,7.423-3.838,1.693-3.873,2.388-11.478,2.527-13.19l-12.512-3.029c-2.335,9.015-2.7,9.124-2.963,9.2l-.223.067-.2-.163a2.041,2.041,0,0,0-1.568-.453.881.881,0,0,0-.582.69c-.4,1.414,2.3,6.783,3.378,8.137a.413.413,0,0,1-.646.515c-.863-1.082-4.087-6.9-3.527-8.877a1.667,1.667,0,0,1,1.149-1.259,2.692,2.692,0,0,1,1.959.356c.463-1.17,1.587-5.19,2.523-8.816l.1-.394,13.984,3.385-.024.348c-.026.378-.659,9.321-2.621,13.811C4133.721,791.386,4131.958,792.868,4129.341,792.868Z" transform="translate(-4100.512 -758.505)"/><path class="c" d="M4171.882,815.106a.557.557,0,0,1-.1-.009.551.551,0,0,1-.443-.641l.081-.439a.551.551,0,0,1,1.084.2l-.081.44A.552.552,0,0,1,4171.882,815.106Z" transform="translate(-4139.165 -789.623)"/><path class="c" d="M4150.655,809.269a.57.57,0,0,1-.1-.009.552.552,0,0,1-.443-.641l.08-.439a.551.551,0,0,1,1.084.2l-.081.439A.551.551,0,0,1,4150.655,809.269Z" transform="translate(-4123.783 -785.393)"/><path class="c" d="M4148.792,801.474a.409.409,0,0,1-.219-.063,3.125,3.125,0,0,0-2.184-.33.413.413,0,1,1-.2-.8,3.909,3.909,0,0,1,2.823.433.413.413,0,0,1-.222.762Z" transform="translate(-4120.721 -779.92)"/><path class="c" d="M4146.225,778.661s.41-5.32-4.132-6.732c-2.4-.745-5.462-1.156-7.216-.378-1.69.749-4.412,5.435-4.412,5.435l1.058-10.233,15.426,2.7Z" transform="translate(-4109.551 -755.701)"/><path class="c" d="M4143.85,734.809s4.347-1.981,2.411-6.049-16.432-2.584-8.381,6.5S4143.85,734.809,4143.85,734.809Z" transform="translate(-4113.175 -726.617)"/><path class="c" d="M4157.613,828.773c.151.294-1.211.962-2.118.722-2.278-.6-2.554-2.408-2.108-2.018a5.629,5.629,0,0,0,2.33,1.183C4157.189,828.938,4157.441,828.439,4157.613,828.773Z" transform="translate(-4126.033 -799.665)"/><path class="c" d="M4162.421,810.489a8.171,8.171,0,0,1-1.154-.1.413.413,0,0,1,.119-.817,6.554,6.554,0,0,0,1.386.071c-.021-.06-.047-.13-.07-.193a8.021,8.021,0,0,1-.544-2.607c-.069-1.2.03-1.825.343-2.166a1.089,1.089,0,0,1,.847-.305l.111,0a8.239,8.239,0,0,1,2.8.8.413.413,0,0,1-.344.751,7.649,7.649,0,0,0-2.41-.728l-.129,0a.589.589,0,0,0-.264.038c-.048.052-.2.319-.127,1.561a7.226,7.226,0,0,0,.493,2.364c.134.358.24.64.083.935C4163.493,810.217,4163.347,810.489,4162.421,810.489Z" transform="translate(-4131.616 -782.958)"/><path class="c" d="M4152.342,903.835h0a.413.413,0,0,1-.412-.414,52.6,52.6,0,0,0-1.491-12.9.413.413,0,0,1,.795-.223,53.451,53.451,0,0,1,1.522,13.13A.414.414,0,0,1,4152.342,903.835Z" transform="translate(-4124.014 -845.005)"/><path class="j" d="M4223.515,1123.844a.412.412,0,0,1-.394-.289l-16.141-51.374-17.986-5.9a.413.413,0,1,1,.257-.785l18.391,6.029.064.2,16.2,51.577a.413.413,0,0,1-.271.517A.392.392,0,0,1,4223.515,1123.844Z" transform="translate(-4151.757 -972.169)"/><path class="d" d="M4134.87,759.621c.054-.066.106-.135.158-.207,1.265-1.749,1.694-1.963,1.83-1.961-.481-.208-3.827-1.524-5.415,1.32a3.741,3.741,0,0,0-1.958-1.674c-2-.8-2.318-1.163-2.348-1.3-.071.433-.405,3,1.333,4.325-4.489,2.518-6.638,9.513-6.638,9.513a.924.924,0,0,1,.606-.231,1.669,1.669,0,0,1,.682.1s2.221-5.832,5.787-7.09c5.25-1.851,8.892.284,10.34,2.226s-.175,8.018-.175,8.018C4142.869,765.9,4139.484,761.018,4134.87,759.621Z" transform="translate(-4103.296 -747.767)"/></g><path class="c" d="M4365.981,850.06c0-1.655-.57-3.212-4.43-4.182v-5.215a2.977,2.977,0,0,1,2.942,2.139.557.557,0,0,0,1.07-.309,4.044,4.044,0,0,0-4.013-2.822v-1.29a.413.413,0,0,0-.826,0v1.3c-2.634.172-3.82,1.783-3.82,3.5,0,1.909,1.162,2.86,3.82,3.579v6.118a3.4,3.4,0,0,1-3.2-2.5.555.555,0,0,0-1.063.315,4.325,4.325,0,0,0,4.266,3.15v1.834a.413.413,0,0,0,.826,0v-1.823C4364.574,853.754,4365.981,852.04,4365.981,850.06Zm-7.929-6.94c0-1.432.939-2.335,2.673-2.456v4.994C4358.774,845.092,4358.053,844.473,4358.053,843.12Zm3.5,9.781v-5.924c2.657.734,3.283,1.682,3.283,3.162C4364.835,851.6,4363.918,852.828,4361.552,852.9Z" transform="translate(-695.817 -142.044)"/><path class="c" d="M4338.835,848.393a13.175,13.175,0,1,1,13.175-13.175A13.19,13.19,0,0,1,4338.835,848.393Zm0-25.524a12.349,12.349,0,1,0,12.349,12.349A12.364,12.364,0,0,0,4338.835,822.869Z" transform="translate(-673.514 -130.504)"/><path class="c" d="M4308.668,920.881a3.072,3.072,0,1,1,3.072-3.072A3.076,3.076,0,0,1,4308.668,920.881Zm0-5.318a2.246,2.246,0,1,0,2.246,2.246A2.248,2.248,0,0,0,4308.668,915.563Z" transform="translate(-658.975 -197.674)"/><g transform="translate(3692.921 846.807)"><path class="b" d="M4496.365,1416.048a10.675,10.675,0,1,1,3.276-14.736A10.675,10.675,0,0,1,4496.365,1416.048Z" transform="translate(-4478.247 -1393.49)"/><path class="c" d="M4507.471,1417.906a.346.346,0,0,0-.477-.106l-.915.581c-1.3-1.782-2.972-1.9-4.187-1.123-1.347.857-1.5,2.1-.811,4.3l-4.318,2.747a2.846,2.846,0,0,1,.331-3.384.464.464,0,0,0-.7-.609,3.618,3.618,0,0,0-.307,4.424l-1.295.823a.346.346,0,0,0,.372.583l1.287-.818c1.423,2.091,3.264,2.314,4.661,1.426,1.168-.744,2.01-1.846.962-5l3.681-2.342a2.49,2.49,0,0,1-.189,3.037.466.466,0,0,0,.7.617,3.382,3.382,0,0,0,.191-4.1l.911-.58A.346.346,0,0,0,4507.471,1417.906Zm-5.021.135c1.011-.643,2.069-.385,2.934.784l-3.524,2.242C4501.382,1419.436,4501.5,1418.648,4502.45,1418.041Zm-1.909,7.937c-1.028.655-2.309.56-3.422-1.077l4.18-2.66C4501.974,1424.447,4501.586,1425.314,4500.541,1425.978Z" transform="translate(-4488.879 -1408.301)"/><path class="c" d="M4495.482,1393.523a11.283,11.283,0,0,0-.683-.958c-2.358-3.591-4.975-5.751-7.793-6.417-2.565-.606-5.32.013-8.188,1.837a10.611,10.611,0,0,0-4.883,6.8c-.6,3,.2,6.336,2.309,9.709.161.316.336.627.53.931a11.094,11.094,0,0,0,15.306,3.4h0a11.086,11.086,0,0,0,3.4-15.306Zm-20.87,1.4a9.793,9.793,0,0,1,4.577-6.354c2.705-1.721,5.281-2.308,7.658-1.747a10.464,10.464,0,0,1,5.14,3.242,11.082,11.082,0,0,0-16.889,10.5A10.782,10.782,0,0,1,4474.612,1394.922Zm21.533,6.78a10.258,10.258,0,1,1-10.038-12.493,10.353,10.353,0,0,1,2.248.249,10.263,10.263,0,0,1,7.79,12.244Z" transform="translate(-4473.739 -1385.923)"/></g></g></svg>