<svg xmlns="http://www.w3.org/2000/svg" width="138.297" height="391.023" viewBox="0 0 138.297 391.023"><defs><style>.a,.u{fill:#062640;}.b{fill:#eabfa5;}.c{fill:#d84744;}.d{fill:#822a2a;}.e{fill:#eef9f9;}.f{fill:#ffabab;}.g{fill:#d8a98f;}.h{fill:#f7cab2;}.i{fill:#e5a920;}.j{fill:#c68d1a;}.k{fill:#efb135;}.l{fill:#fcc34f;}.m{fill:#846c5d;}.n{fill:#b32a83;}.o{fill:#4addc7;}.p{fill:#1b75b3;}.q{fill:#db7631;}.r{fill:#b64e00;}.s{fill:#2ab39e;}.t{fill:#2a70b3;}.u{opacity:0.2;}.v{opacity:0.3;}</style></defs><g transform="translate(-1039.215 -335.5)"><path class="a" d="M1121.864,447.437s4.816-8.6,10.833-4.917c9.792,6,6.667,19.5,6.667,19.5l-2.25-6s3,9.5-1.75,16l.5-6.25s-3.75,9-10.5,10-7.75,1-8.5,5,4.739,6.659,3,6.375c-6.125-1-5.5-8.75-5.5-8.75l-1,5.625s-7.75-15-7.25-22a25.852,25.852,0,0,1,3.75-11.75l-4,1.5S1117.864,432.687,1121.864,447.437Z"/><path class="b" d="M1127.772,468.293c3.21-5.8,8.092-12.273-3.325-18.273-1.839-.966-6.19-.219-7.916-.291-1.2-.051-1.345,1.221-2.424,1.385a20.223,20.223,0,0,0-12.332,7.361S1109,469.52,1087.52,483.54c-2.509,1.638,15.413,29.7,17.177,19.314C1110.7,467.52,1125.845,471.775,1127.772,468.293Z"/><path class="c" d="M1109.114,453.479s3.5-.959,7.393,4.146a.9.9,0,0,1-.429,1.429,13.262,13.262,0,0,1-7.631.133C1103.375,457.427,1109.114,453.479,1109.114,453.479Z"/><path class="d" d="M1116.078,459.054c.024-.007.036-.026.059-.035a4.294,4.294,0,0,0-2.523-.811,4.173,4.173,0,0,0-3.183,1.414A15.049,15.049,0,0,0,1116.078,459.054Z"/><path class="e" d="M1115.781,458.437s-3.417-3.333-7.084-3.667c0,0,3.334.959-.166,1.084,0,0-1-.5-.5-1.334a8.387,8.387,0,0,1,1-.832,1.088,1.088,0,0,1,.775-.224A6.751,6.751,0,0,1,1115.781,458.437Z"/><path class="e" d="M1106.8,458.208c-.009.007-.017.021-.026.029a4.3,4.3,0,0,0,1.671.95,9.216,9.216,0,0,0,1.962.431l.018-.035s.562-.5-.125-1.125A3.764,3.764,0,0,0,1106.8,458.208Z"/><path class="f" d="M1108.447,459.187a11,11,0,0,0,4.723.43,6.738,6.738,0,0,0-3.118-.722,7.466,7.466,0,0,0-1.8.218C1108.32,459.138,1108.379,459.163,1108.447,459.187Z"/><path class="g" d="M1101.31,469.759c.847,8.2-3.777,26.255-4.879,30.395.146.174.291.348.436.516l9.262-4.845c4.218-17.5,11.019-22.592,15.914-24.777-1.862-.853-3.772-1.755-5.679-2.694-11.5-5.667-14.589-9.879-14.589-9.879S1104.673,462.926,1101.31,469.759Z"/><path class="b" d="M1127.864,466.6s2.417.583.583,3.083-7.5,2.583-6.083-.583S1127.864,466.6,1127.864,466.6Z"/><path class="d" d="M1120.364,454.27s4.75-2.25,6.125,3.75A5.77,5.77,0,0,0,1120.364,454.27Z"/><path class="a" d="M1122.364,452.77s6.667-1.75,6,4.417A5.8,5.8,0,0,0,1122.364,452.77Z"/><path class="a" d="M1115.822,449.645s3.75.167,3.971,2.25C1119.793,451.895,1120.364,447.52,1115.822,449.645Z"/><path class="d" d="M1118.018,452.538s.513-2.726-4.237-1.059C1113.781,451.479,1116.822,450.937,1118.018,452.538Z"/><path class="h" d="M1115.177,452.645l-.788-.731s.35-.894,2.475-.081a5.577,5.577,0,0,0,3.563.312l-3.875,2.813Z"/><path class="g" d="M1113.177,452.958l1.212-1.044a.876.876,0,0,1,1.414.423l.749,2.621A6.257,6.257,0,0,0,1113.177,452.958Z"/><path class="g" d="M1127.364,467.708s.375,2.312-2.875,2.312c0,0,1.563-.687,1.25-1.312s-1.187-.563-1.187-.563,1.625-.125,1.75.25a2.355,2.355,0,0,1,.062.875Z"/><path class="a" d="M1123.239,466.02s5-.625,5.5-4.125a9.6,9.6,0,0,0,3.542-2.125c1.55-1.472-2.667,8.125-2.667,8.125s-1-1.75-5.5.25Z"/><path class="i" d="M1131.051,349.527c1.265,2.467,4.849,1.955,7.261.185a7.071,7.071,0,0,0,2.578-7.029c-1.026-6.29-8.387-9.051-15.247-5.83-8.768,4.117-10.933,12.538-11.175,20.018-.12,3.674,1.472,10.393-4.136,12.094-3.542,1.073-5.324-1.84-6.089-4.188-.514-1.576-.443-3.952,2.057-4.6,2.41-.626,4.133,2.14,1.118,2.077q.222,1.3.442,2.61l.525-.27c1.957-1,.207-3.326-1.744-2.325l-.525.269a1.367,1.367,0,0,0,.442,2.61c2.351.05,5.466-.57,6.181-3,.673-2.286-1.577-4.446-3.9-4.909a7.477,7.477,0,0,0-7.311,3.078c-1.872,2.751-.735,5.9.768,8.261a6.972,6.972,0,0,0,7.5,3.436,9.431,9.431,0,0,0,7.232-5.316c1.42-3.273.727-6.87.831-10.162.14-4.47.7-9.494,4.154-13.388,3.186-3.592,9.4-6.73,13.517-3.42a5.927,5.927,0,0,1,2.1,4.593,4.34,4.34,0,0,1-.591,2.443c-.234.344-2.536,2.038-2.726,1.667-.832-1.622-4.1-.549-3.262,1.094Z"/><path class="i" d="M1159.58,384.051l-5.667-16.906-1.81-5.4-5.668-16.9a2.332,2.332,0,0,0-4.349,1.458l.068.2h0a19.243,19.243,0,0,0-9.938,7.333,20.8,20.8,0,0,0-3.318,8.156c-.691,4.333-4.131,8.223-8.965,9.844l-.311.1a13.965,13.965,0,0,1-9.4-.078l-3.238-1.257a6.834,6.834,0,0,0-4.6-.039l2.366,7.059,1.811,5.4,2.366,7.058a6.834,6.834,0,0,0,3.648-2.8l1.826-2.955a13.962,13.962,0,0,1,7.455-5.729l.312-.105c4.834-1.62,9.923-.589,13.087,2.452a20.789,20.789,0,0,0,7.562,4.509,19.248,19.248,0,0,0,12.35-.14h0l.067.2a2.332,2.332,0,0,0,4.349-1.457Z"/><path class="j" d="M1128.992,369.668c1.653-1.681,4.472-5.526,6.066-7.359a22.984,22.984,0,0,1,8.908-5.974c.436-.171,10.856,29.436,11.3,29.286l-9.979-29.767-.051-.152c-.253-.755.516-1.694,1.717-2.1s2.379-.117,2.632.638l-3.153-9.4a2.332,2.332,0,0,0-4.349,1.458l.068.2h0a19.243,19.243,0,0,0-9.938,7.333,20.8,20.8,0,0,0-3.318,8.156c-.691,4.333-4.131,8.223-8.965,9.844l-.311.1a13.965,13.965,0,0,1-9.4-.078l-3.238-1.257a6.834,6.834,0,0,0-4.6-.039l2.348,7a58.48,58.48,0,0,1,7.246-1.234S1126.254,372.45,1128.992,369.668Z"/><path class="i" d="M1144.479,389.582c-.478-2.731,2.691-4.483,5.682-4.524a7.07,7.07,0,0,1,6.293,4.055c2.973,5.638-1.237,12.277-8.652,13.842-9.477,2-16.281-3.416-20.983-9.238-2.309-2.86-5.089-9.181-10.589-7.158-3.473,1.278-3.139,4.677-2.335,7.012.54,1.568,2.028,3.42,4.415,2.431,2.3-.953,2.008-4.2-.359-2.331l-1.221-2.348.581-.1c2.167-.378,2.17,2.53.01,2.907l-.581.1a1.367,1.367,0,0,1-1.221-2.348c1.846-1.457,4.706-2.84,6.739-1.335,1.915,1.419,1.422,4.5-.153,6.268a7.478,7.478,0,0,1-7.689,1.951c-3.152-1.068-4.144-4.268-4.366-7.056a6.97,6.97,0,0,1,3.911-7.259,9.426,9.426,0,0,1,8.974-.117c3.106,1.756,4.721,5.044,6.788,7.609,2.8,3.481,6.28,7.154,11.384,8.179,4.707.945,11.558-.3,12.847-5.418a5.926,5.926,0,0,0-1.09-4.934,4.327,4.327,0,0,0-1.943-1.593c-.394-.134-3.252-.1-3.18.312.314,1.8-2.944,2.912-3.262,1.094Z"/><path class="j" d="M1144.288,364.636a1.709,1.709,0,0,0,1.239-.744,1.767,1.767,0,0,0,.356-.862.778.778,0,0,0-.077-.4.336.336,0,0,0-.021-.036l-.012-.019h0c-.268-.379-1.811-1.991-3.153-2.021a.778.778,0,0,0-.188-.458.524.524,0,0,0-.039-.042,4.381,4.381,0,0,0-3.237-.746.754.754,0,0,0-.225-.262.769.769,0,0,0-.109-.068,3.794,3.794,0,0,0-3.1.488.776.776,0,0,0-.323-.146.46.46,0,0,0-.069-.007l-.033,0h0a3.757,3.757,0,0,0-2.648,1.687.762.762,0,0,0-.239-.02.465.465,0,0,0-.085.015.7.7,0,0,0-.125.034l0,.008a4.253,4.253,0,0,0-1.925,2.785.633.633,0,0,0-.134.03.5.5,0,0,0-.1.042.719.719,0,0,0-.183.121l.011.012a5.372,5.372,0,0,0-.918,3.849,3.137,3.137,0,0,0,.084.3,2.132,2.132,0,0,0,1.76,1.521,2.339,2.339,0,0,0,.409.21,1.818,1.818,0,0,0,1.987-.261,4.811,4.811,0,0,0,1.084-1.96l.02-.058a.761.761,0,0,0,.061-.447.789.789,0,0,0-.018-.082,4.665,4.665,0,0,0,1.148-1.074.766.766,0,0,0,.212-.411,4.178,4.178,0,0,0,1.331-.5.765.765,0,0,0,.337-.273,4.469,4.469,0,0,0,1.42.066.756.756,0,0,0,.435-.124,5.725,5.725,0,0,0,1.432.657.763.763,0,0,0,.508.046,7.554,7.554,0,0,0,1.3,1.265l.07.056a.764.764,0,0,0,1.137-.054A2.265,2.265,0,0,0,1144.288,364.636Zm-5.627,14.99a.746.746,0,0,0,.179-.16,3.761,3.761,0,0,0,3.13-.25h0l.026-.022c.019-.017.036-.033.049-.047a.764.764,0,0,0,.17-.313,3.8,3.8,0,0,0,2.766-1.476.79.79,0,0,0,.068-.466,4.309,4.309,0,0,0,2.133-2.54c0-.015,0-.031.005-.046a.745.745,0,0,0-.125-.5c1.046-.847,1.312-3.048,1.3-3.506h0l0-.018a.432.432,0,0,0,0-.044.786.786,0,0,0-.191-.383,1.781,1.781,0,0,0-.79-.462,1.708,1.708,0,0,0-1.442.153,2.273,2.273,0,0,0-1.771-1.323.765.765,0,0,0-.941.643l-.022.087a7.608,7.608,0,0,0-.272,1.79.762.762,0,0,0-.4.387l-.006,0a5.524,5.524,0,0,0-.72,1.347.765.765,0,0,0-.675.528.72.72,0,0,1,.231-.351,4.365,4.365,0,0,0-1.07.894.77.77,0,0,0-.484,0c.007,0,.017-.009.024-.01a4.057,4.057,0,0,0-1.334.4.761.761,0,0,0-.453-.2v-.005a4.564,4.564,0,0,0-1.528-.157.747.747,0,0,0-.035-.077.761.761,0,0,0-.318-.32l-.051-.034a4.835,4.835,0,0,0-2.051-.911,1.82,1.82,0,0,0-1.739.991,2.305,2.305,0,0,0-.2.413,2.129,2.129,0,0,0-.489,2.273c.033.1.071.194.115.292a5.377,5.377,0,0,0,3.054,2.521v.016a.725.725,0,0,0,.218-.013.487.487,0,0,0,.1-.025.677.677,0,0,0,.125-.056,4.257,4.257,0,0,0,3.214,1.061l0,.008a.706.706,0,0,0,.121-.047A.449.449,0,0,0,1138.661,379.626Zm2.435-6.463a.789.789,0,0,1,.014-.086.61.61,0,0,0-.012.086Zm-1.762.839a.764.764,0,0,1,.061-.126.641.641,0,0,0-.058.128Z"/><path class="k" d="M1136.093,362.115c.02,0-.678-1.067-.064-1.869.635-.853,2.462-.629,2.448-.585A7.41,7.41,0,0,0,1136.093,362.115Z"/><path class="l" d="M1138.131,361.418a5.519,5.519,0,0,1-2.038.7,7.41,7.41,0,0,1,2.384-2.454A1.785,1.785,0,0,1,1138.131,361.418Z"/><path class="l" d="M1136.15,362.289a2.482,2.482,0,0,0,.915,1.625,3.278,3.278,0,0,0,1.745.235A8.161,8.161,0,0,0,1136.15,362.289Z"/><path class="k" d="M1138.242,362.355a2.17,2.17,0,0,0-2.092-.066,8.161,8.161,0,0,1,2.66,1.86A2.227,2.227,0,0,0,1138.242,362.355Z"/><path class="k" d="M1138.769,361.826c.02.01-.4-1.227.435-1.7.866-.521,2.673.437,2.65.477A6.275,6.275,0,0,0,1138.769,361.826Z"/><path class="l" d="M1141.023,362.023a6.647,6.647,0,0,1-2.254-.2,6.275,6.275,0,0,1,3.085-1.228C1141.873,360.615,1141.89,361.8,1141.023,362.023Z"/><path class="l" d="M1138.78,362.005a2.49,2.49,0,0,0,.487,1.822,4.416,4.416,0,0,0,1.712.923A10.14,10.14,0,0,0,1138.78,362.005Z"/><path class="k" d="M1140.883,362.908a2.669,2.669,0,0,0-2.1-.9,10.14,10.14,0,0,1,2.2,2.745A2,2,0,0,0,1140.883,362.908Z"/><path class="k" d="M1141.567,362.657c.019.019-.077-1.268.912-1.335,1.031-.1,2.674,1.617,2.643,1.65A6.679,6.679,0,0,0,1141.567,362.657Z"/><path class="l" d="M1143.861,363.85a10.433,10.433,0,0,1-2.294-1.193,6.679,6.679,0,0,1,3.555.315A1.088,1.088,0,0,1,1143.861,363.85Z"/><path class="l" d="M1141.53,362.822a2.192,2.192,0,0,0,.007,1.838,6.68,6.68,0,0,0,1.541,1.616A11.959,11.959,0,0,0,1141.53,362.822Z"/><path class="k" d="M1143.474,364.576a3.653,3.653,0,0,0-1.944-1.754,11.959,11.959,0,0,1,1.548,3.454A1.57,1.57,0,0,0,1143.474,364.576Z"/><path class="k" d="M1131.022,368.956a1.421,1.421,0,0,1-1.319-1.251,5.027,5.027,0,0,1,.677-3.127A14.765,14.765,0,0,0,1131.022,368.956Z"/><path class="l" d="M1131.433,366.157a13.036,13.036,0,0,1-.411,2.8,14.765,14.765,0,0,1-.642-4.378A1.886,1.886,0,0,1,1131.433,366.157Z"/><path class="l" d="M1131.166,369.012c0,.03.906.628,1.514.073a5.136,5.136,0,0,0,.929-1.778A5.016,5.016,0,0,0,1131.166,369.012Z"/><path class="k" d="M1132.125,366.683c-.8.375-1,2.327-.959,2.329a5.016,5.016,0,0,1,2.443-1.7C1133.6,367.332,1132.879,366.311,1132.125,366.683Z"/><path class="k" d="M1132,365.755a1.761,1.761,0,0,1-.979-1.63,3.666,3.666,0,0,1,1.454-2.384A12.046,12.046,0,0,0,1132,365.755Z"/><path class="l" d="M1133.1,363.562a8.327,8.327,0,0,1-1.109,2.193,12.046,12.046,0,0,1,.475-4.014A2.1,2.1,0,0,1,1133.1,363.562Z"/><path class="l" d="M1132.124,365.866c-.006.024.731.927,1.467.738.705-.185,1.336-1.126,1.361-1.119A5.1,5.1,0,0,0,1132.124,365.866Z"/><path class="k" d="M1133.652,364.313c-.881,0-1.565,1.542-1.528,1.553a5.1,5.1,0,0,1,2.828-.381C1134.941,365.5,1134.487,364.309,1133.652,364.313Z"/><path class="k" d="M1133.761,363.45a1.911,1.911,0,0,1-.548-1.84c.353-1.1,2.049-1.587,2.046-1.538A9.509,9.509,0,0,0,1133.761,363.45Z"/><path class="l" d="M1135.415,361.956a6.065,6.065,0,0,1-1.654,1.494,9.509,9.509,0,0,1,1.5-3.378A2.052,2.052,0,0,1,1135.415,361.956Z"/><path class="l" d="M1133.858,363.6c-.012.018.483,1.12,1.255,1.259a2.948,2.948,0,0,0,1.63-.447A6.329,6.329,0,0,0,1133.858,363.6Z"/><path class="k" d="M1135.761,362.847c-.87-.349-1.937.734-1.9.754a6.329,6.329,0,0,1,2.885.812C1136.728,364.425,1136.588,363.175,1135.761,362.847Z"/><path class="k" d="M1140.914,376.5c.015-.014.1,1.259,1.076,1.529,1.021.3,2.344-.981,2.306-1.008A7.447,7.447,0,0,1,1140.914,376.5Z"/><path class="l" d="M1142.961,375.827a5.512,5.512,0,0,0-2.047.672,7.447,7.447,0,0,0,3.382.521C1144.307,377,1143.859,375.863,1142.961,375.827Z"/><path class="l" d="M1140.855,376.325a2.478,2.478,0,0,1-.249-1.848,3.271,3.271,0,0,1,1.251-1.239A8.178,8.178,0,0,1,1140.855,376.325Z"/><path class="k" d="M1142.485,375.012c-.23.992-1.636,1.355-1.63,1.313a8.178,8.178,0,0,0,1-3.087A2.225,2.225,0,0,1,1142.485,375.012Z"/><path class="k" d="M1143.224,375.116c.01-.02.422,1.219,1.375,1.1,1.005-.106,1.869-1.96,1.827-1.977A6.285,6.285,0,0,1,1143.224,375.116Z"/><path class="l" d="M1144.9,373.6a6.664,6.664,0,0,0-1.68,1.516,6.285,6.285,0,0,0,3.2-.879C1146.431,374.212,1145.728,373.253,1144.9,373.6Z"/><path class="l" d="M1143.125,374.967a2.494,2.494,0,0,1-.71-1.748,4.441,4.441,0,0,1,.81-1.768A10.131,10.131,0,0,1,1143.125,374.967Z"/><path class="k" d="M1144.259,372.979a2.67,2.67,0,0,1-1.134,1.988,10.131,10.131,0,0,0,.1-3.516A2,2,0,0,1,1144.259,372.979Z"/><path class="k" d="M1144.956,372.766c0-.026.7,1.059,1.533.516.883-.541,1.159-2.9,1.114-2.91A6.661,6.661,0,0,1,1144.956,372.766Z"/><path class="l" d="M1146.067,370.432a10.388,10.388,0,0,0-1.111,2.334,6.661,6.661,0,0,0,2.647-2.394A1.089,1.089,0,0,0,1146.067,370.432Z"/><path class="l" d="M1144.827,372.657a2.19,2.19,0,0,1-1.1-1.471,6.64,6.64,0,0,1,.256-2.218A12,12,0,0,1,1144.827,372.657Z"/><path class="k" d="M1145.321,370.086a3.653,3.653,0,0,1-.494,2.571,12,12,0,0,0-.846-3.689A1.572,1.572,0,0,1,1145.321,370.086Z"/><path class="k" d="M1132.745,374.1a1.42,1.42,0,0,0-.3,1.793,5.031,5.031,0,0,0,2.424,2.088A14.833,14.833,0,0,1,1132.745,374.1Z"/><path class="l" d="M1134.759,376.082a12.983,12.983,0,0,0-2.014-1.986,14.833,14.833,0,0,0,2.126,3.881A1.884,1.884,0,0,0,1134.759,376.082Z"/><path class="l" d="M1132.826,373.964c-.016-.024.345-1.046,1.164-.97a5.121,5.121,0,0,1,1.814.859A5.017,5.017,0,0,1,1132.826,373.964Z"/><path class="k" d="M1135,375.245c-.865.182-2.2-1.256-2.17-1.281a5.017,5.017,0,0,0,2.978-.111C1135.785,373.835,1135.821,375.087,1135,375.245Z"/><path class="k" d="M1135.452,376.063a1.759,1.759,0,0,0,.2,1.89,3.665,3.665,0,0,0,2.6,1.027A12.032,12.032,0,0,1,1135.452,376.063Z"/><path class="l" d="M1137.658,377.145a8.333,8.333,0,0,0-2.206-1.082,12.032,12.032,0,0,0,2.8,2.917A2.1,2.1,0,0,0,1137.658,377.145Z"/><path class="l" d="M1135.487,375.9c-.019-.015.024-1.18.725-1.472a3.434,3.434,0,0,1,1.761.072A5.092,5.092,0,0,1,1135.487,375.9Z"/><path class="k" d="M1137.642,376.215c-.7.535-2.178-.287-2.155-.318a5.092,5.092,0,0,0,2.486-1.4C1137.953,374.488,1138.311,375.715,1137.642,376.215Z"/><path class="k" d="M1138.249,376.839a1.913,1.913,0,0,0,.672,1.8,3,3,0,0,0,2.56-.006A9.489,9.489,0,0,1,1138.249,376.839Z"/><path class="l" d="M1140.469,377.034a6.051,6.051,0,0,0-2.22-.2,9.489,9.489,0,0,0,3.232,1.792A2.052,2.052,0,0,0,1140.469,377.034Z"/><path class="l" d="M1138.236,376.66a2.182,2.182,0,0,1,.242-1.761,2.948,2.948,0,0,1,1.571-.626A6.337,6.337,0,0,1,1138.236,376.66Z"/><path class="k" d="M1140.209,376.114c-.484.8-1.988.582-1.973.546a6.337,6.337,0,0,0,1.813-2.387C1140.029,374.272,1140.671,375.355,1140.209,376.114Z"/><rect class="m" width="40.76" height="6.76" transform="translate(1100.334 360.608) rotate(71.468)"/><rect class="m" width="50.958" height="14.958" transform="translate(1097.322 409.985) rotate(-108.532)"/><rect class="l" width="33.985" height="8.151" transform="translate(1098.436 400.66) rotate(-108.532)"/><path class="n" d="M1148.168,523.852a13.079,13.079,0,0,1-7.646-4.8l-6.491,9.138-6-25.333c-1.787-7.146-9.6-12.809-17.145-16.742-16.9,5.033-16.339-10.329-16.022-13.342-3.278-19.763,11.2-36.573,23.863-52.382l-14.2-4.868c-53.9,49.2-58.884,130.967-58.884,130.967l65.377,9.7c-10.159-12.165,1.341-18.831-4.479-19.509-1.234-.143,1.766-2.544,1.987-3.656.209-1.053-1.047-1.919-.746-2.858a24.99,24.99,0,0,1,7.246-11.308c.376,31.606,20.333,38.666,20.333,38.666Z"/><path class="o" d="M1099.168,494.642a1.2,1.2,0,0,0-1.568.565c-.162.528.277,1.131.981,1.347a1.2,1.2,0,0,0,1.568-.564C1100.312,495.462,1099.872,494.859,1099.168,494.642Zm-3.081,8.348c.162-.528-.277-1.131-.981-1.348a1.2,1.2,0,0,0-1.568.565c-.162.528.277,1.131.981,1.347A1.2,1.2,0,0,0,1096.087,502.99Zm-.65,8.733c-.736,0-1.333.448-1.333,1s.6,1,1.333,1,1.334-.447,1.334-1S1096.174,511.723,1095.437,511.723Zm-.971,8.053a1.389,1.389,0,1,0,1.421.869A1.2,1.2,0,0,0,1094.466,519.776Zm-6.133,6.623a1.042,1.042,0,1,0,.655,1.533A1.2,1.2,0,0,0,1088.333,526.4Z"/><path class="p" d="M1087.579,536l-.242-.97c2.122-.531,2.252-5.036,2.123-6.727l-.015-.191,2.692-3.5.113-.052c.059-.027,5.981-2.744,7.431-3.711.33-.381-.593-2.956-1.267-4.836-1.155-3.221-2.593-7.229-2.455-10.519a12.045,12.045,0,0,1,5.115-9.159l-1.547-3.354.51-.186a18.212,18.212,0,0,0,3.859-1.921.4.4,0,0,0,.19-.344c0-.527-.8-1.319-1.185-1.621l.614-.789c.16.125,1.563,1.249,1.571,2.4a1.41,1.41,0,0,1-.565,1.134,16.514,16.514,0,0,1-3.635,1.885l1.464,3.171-.384.231a11.292,11.292,0,0,0-5.008,8.593c-.129,3.094,1.272,7,2.4,10.14,1.19,3.317,1.908,5.32.88,6.005-1.418.946-6.6,3.342-7.456,3.737l-2.31,3C1090.53,529.571,1090.671,535.227,1087.579,536Z"/><path class="p" d="M1141.864,523.52l-13,24.5c-13.5-18.25-12.75-35.5-12.75-35.5-6,29.25,18.75,43.75,18.75,43.75l10.75-29.5Z"/><path class="p" d="M1050.7,544.187c.334,4,4.334-1.667,4.334-1.667s.666-16.333.333-18.333S1050.7,544.187,1050.7,544.187Z"/><path class="p" d="M1105.7,536.187c-.4-3.581-68.333-36.167,1.5-101.5,0,0-16.122,5.188-15.833,1.333a23.061,23.061,0,0,1,3.783-11.1c-11.324,12.434-33.254,48.09-27.033,77.845,6.917,33.084,27.083,33.584,27.083,33.584a28.6,28.6,0,0,1-17.833-23.5S1084.031,528.854,1105.7,536.187Z"/><path class="p" d="M1099.489,490.77c1,.338-3.314-3.437-3.875-5.375a5.936,5.936,0,0,1,.271-4.1,18.391,18.391,0,0,1-1.109-7.14c-2.38,2.621-9.912,11.493-9.912,18.86,0,0,4.375-12.375,8.875-13.375C1093.739,479.645,1091.739,488.145,1099.489,490.77Z"/><path class="p" d="M1113.114,512.52c-7.5,10.5-18.75,3-18.75,3l12.25,14.5s3.25-9.75,8.25-14.25l3.75-10S1114.686,510.32,1113.114,512.52Z"/><path class="p" d="M1126.364,529.27l7-3.25-9.5,2.25,2,9.25Z"/><path class="p" d="M1103.489,485.645l.625-1.25,3.375-1.5,4.188,1.563,2.687,4s-7.562.187-9.625-.813S1103.489,485.645,1103.489,485.645Z"/><path class="o" d="M1101.364,486.354l5.667-3,2.083,7.917,7.375-2.25-.375-5.75-8.917-1.083Z"/><path class="q" d="M1105.489,486.27s16.5,19.375,35.125,8.125c0,0-7.625,10.125-16.5,8.25s-18-10.5-19.375-15.25Z"/><path class="r" d="M1103.531,484.854s12.333,37.333,45.333,7c0,0,2.319-3.557,1.9-14.094a.739.739,0,0,0-1.115-.61l-10.113,6.037s-4.185,23.174-20.334,17C1107.864,495.854,1103.531,484.854,1103.531,484.854Z"/><path class="r" d="M1099.614,485.1s3-2.334,4.667-1.334a10.731,10.731,0,0,1,2.916,2.917l-2,1.917A7.5,7.5,0,0,1,1099.614,485.1Z"/><path class="q" d="M1098.031,480.354a6.462,6.462,0,0,0,3.333,5.25s2.583,1.416,1.167,1.666-3.667-1.416-4.667-4.083S1098.031,480.354,1098.031,480.354Z"/><path class="o" d="M1099.447,485.77l3.084-5.666-6.667-8.084-1,.5S1093.947,483.1,1099.447,485.77Z"/><path class="b" d="M1104.53,415.52l14.2,4.868,0,0a208.824,208.824,0,0,1,14.667-16.431l6.1-.94,2.333-2.708,1.709.042s1.023-.8.791-1.5c-.75-2.25-2.282-1.441-2.875-2.625-1.109-2.219-2.33-4.7-2.75-5.709-.649-1.558-.608-3.761-2.833-3.5-12.75,1.5-7.5,10-10.638,12.922a135.519,135.519,0,0,0-23.165,17.887Q1103.279,416.663,1104.53,415.52Z"/><path class="b" d="M1152.614,498.52h-13.75l-3.5,4.5s.25,2.75,2.5,3.25c1.01.225,1.564-.458,1.871-1.278.446,3.058,3.852,6.91,5,8.13l-4.211,5.927a13.079,13.079,0,0,0,7.646,4.8l3.7-9.719C1154.364,508.246,1152.614,498.52,1152.614,498.52Z"/><path class="s" d="M1045.364,542.187s19-18.667,64.935-1.807l-1.935,5.14s43.683,20.047,54.837,54.3l-61.752,25.068,5.842,17.944s-2.466,3.51-7.312-1.678-13.393-24.508-13.393-24.508l47.118-27.069s-24.868-22.35-52.24-16.369c0,0-29.334,44.283-17.535,102.688,0,0,1.158,28.491-6.97,27.078s-3.339-26.879-3.339-26.879S1027.734,619.647,1045.364,542.187Z"/><path class="t" d="M1107.7,409.854s7.667-9.334,15,7.333l-6.333,9.333s-7-11.666-17.333-8.333Z"/><path class="t" d="M1139.065,517.687s5.431,6.167,11.466,5.5l-5.13,14s-8.75.167-12.37-12.5Z"/><path class="u" d="M1082.875,726.523a248.419,248.419,0,0,1-8.581-26.128c-2.413-8.853-4.341-17.836-5.923-26.877l-1.049-6.806-.815-6.837c-.3-2.276-.47-4.566-.637-6.856-.15-2.29-.41-4.574-.432-6.871a168.976,168.976,0,0,1,1.067-27.474l-.415,6.86c-.055,1.143-.184,2.282-.177,3.427l-.011,3.434-.03,3.431c-.011,1.143-.038,2.286.037,3.429l.3,6.855a251.272,251.272,0,0,0,3.15,27.243c1.494,9.024,3.43,17.974,5.678,26.847,1.132,4.434,2.336,8.851,3.654,13.236C1079.954,717.838,1081.375,722.192,1082.875,726.523Z"/><path class="u" d="M1085.731,708.679c-1.615-3.481-2.98-7.071-4.242-10.7s-2.332-7.314-3.35-11.015c-.95-3.72-1.81-7.466-2.469-11.249a105.5,105.5,0,0,1-1.409-11.42c.38,1.883.614,3.781,1.03,5.652l.529,2.818.605,2.8c.812,3.733,1.659,7.459,2.68,11.142.933,3.7,2.007,7.373,3.112,11.033q.823,2.746,1.716,5.475C1084.5,705.051,1085.119,706.861,1085.731,708.679Z"/><g class="v"><path class="a" d="M1165.519,585.289c2.076,3.3,4.016,6.673,5.94,10.053q2.85,5.09,5.578,10.239l.475.9-.94.423c-2.66,1.2-5.308,2.42-7.988,3.572-2.668,1.18-5.354,2.318-8.046,3.444-5.394,2.227-10.809,4.409-16.343,6.321,5.128-2.827,10.375-5.384,15.643-7.9,2.64-1.243,5.284-2.475,7.948-3.664,2.651-1.217,5.334-2.363,8.005-3.536l-.465,1.319q-2.6-5.215-5.084-10.493C1168.612,592.437,1167,588.9,1165.519,585.289Z"/></g></g></svg>