<svg xmlns="http://www.w3.org/2000/svg" width="412.553" height="315.339" viewBox="0 0 412.553 315.339"><defs><style>.a{fill:#00213f;}.b{fill:#2a84b3;}.c{fill:#d2ebfc;}.d{fill:#fff;}.e{fill:#0081d7;}.f{fill:#2ab39e;}.g{fill:#b32a83;}.h{fill:#003e61;}</style></defs><g transform="translate(-3306.107 -2048.69)"><path class="a" d="M3436.556,2526.132a.537.537,0,0,1-.339-.12l-9.158-7.365a.542.542,0,0,1,.679-.845l9.158,7.365a.542.542,0,0,1-.34.965Z" transform="translate(-77.098 -299.449)"/><path class="a" d="M3480.065,2469.6a.542.542,0,0,1-.536-.63l3.622-22.172a.543.543,0,0,1,1.071.175l-3.623,22.172A.542.542,0,0,1,3480.065,2469.6Z" transform="translate(-110.725 -253.903)"/><g transform="translate(3356.95 2237.695)"><rect class="b" width="201.65" height="126.335" rx="11" transform="translate(0.025 0)"/><rect class="a" width="201.65" height="21.258" transform="translate(0 28.193)"/><rect class="c" width="117.432" height="14.578" transform="translate(14.865 68.118)"/><path class="a" d="M3604.886,2774.11H3486.37v-15.662h118.516Zm-117.432-1.084H3603.8v-13.493H3487.454Z" transform="translate(-3472.048 -2690.872)"/><rect class="c" width="33.205" height="14.578" transform="translate(147.415 68.118)"/><path class="a" d="M3887.323,2774.11h-34.29v-15.662h34.29Zm-33.205-1.084h32.121v-13.493h-32.121Z" transform="translate(-3706.161 -2690.872)"/><path class="a" d="M3652.667,2837.942H3486.912a.542.542,0,0,1,0-1.085h165.755a.542.542,0,0,1,0,1.085Z" transform="translate(-3472.048 -2740.936)"/><path class="a" d="M3588.417,2869.64h-101.5a.542.542,0,0,1,0-1.084h101.5a.542.542,0,1,1,0,1.084Z" transform="translate(-3472.048 -2761.176)"/></g><g transform="translate(3391.615 2078.62)"><path class="d" d="M3710.887,2754.075l6.569,7.42,10.3-9.082-5.361-7.81Z" transform="translate(-3650.066 -2522.958)"/><path class="a" d="M3716.033,2760.856l-7.3-8.247,12.4-10.2,5.969,8.693Zm-5.743-8.124,5.838,6.595,9.531-8.407-4.755-6.926Z" transform="translate(-3648.691 -2521.554)"/><path class="e" d="M3711.742,2773.877s-10.715,17.85-7.8,22.2l26.685-23.538-7.6-8.616Z" transform="translate(-3645.313 -2535.291)"/><path class="a" d="M3726.645,2781.219l2.1,2.386-28.353,25.009-2.257-2.559Z" transform="translate(-3641.927 -2546.337)"/><path class="a" d="M3712.291,2801.03a.542.542,0,0,1-.228-1.035l6.5-3a.542.542,0,0,1,.454.985l-6.5,3A.528.528,0,0,1,3712.291,2801.03Z" transform="translate(-3650.615 -2556.379)"/><path class="a" d="M3708.931,2811.565a.543.543,0,0,1-.227-1.035l6.5-3a.542.542,0,0,1,.454.985l-6.5,3A.538.538,0,0,1,3708.931,2811.565Z" transform="translate(-3648.471 -2563.105)"/><path class="a" d="M3702.827,2824.522a.542.542,0,0,1-.228-1.035l6.5-3a.542.542,0,1,1,.454.985l-6.5,3A.535.535,0,0,1,3702.827,2824.522Z" transform="translate(-3644.573 -2571.379)"/><path class="f" d="M3615.441,2457.831s-69.228,25.106-63.39,40.494,53.211,72.349,53.211,72.349l22.606-12.418s-41.938-53.857-43.557-60.741c0,0,58.273.344,66.005-5.67,10.933-8.5,8.1-39.279,8.1-39.279Z" transform="translate(-3548.427 -2336.494)"/><path class="d" d="M3707.589,2217.951s5.2,14.263,4.534,16.073-3.32,8.673-3.32,8.673l17.088,24.218,21.873-8.511-5.03-23.428s-12.62-5.468-13.723-7.01c-1.526-2.135-5.106-14.828-5.106-14.828Z" transform="translate(-3647.96 -2183.619)"/><path class="a" d="M3724.735,2266.617l-17.5-24.8.1-.271c.026-.069,2.661-6.878,3.316-8.664.373-1.017-2.012-8.782-4.535-15.7a.542.542,0,1,1,1.019-.371c.879,2.413,5.231,14.545,4.533,16.446-.583,1.589-2.719,7.118-3.218,8.41l16.676,23.635,21.047-8.19-4.875-22.7c-2.615-1.138-12.6-5.552-13.692-7.081-1.563-2.187-5.041-14.475-5.187-15a.542.542,0,1,1,1.043-.294c.989,3.5,3.82,12.972,5.027,14.66.74,1.034,8.671,4.737,13.5,6.827l.255.111,5.186,24.152Z" transform="translate(-3647.002 -2182.662)"/><path class="d" d="M3572.242,2357.858s-2.936.864-4.758,0-1.421-6.2-3.138-5.218c-.822.47-.675,4.93-.675,4.93l-7.829-.037s-.148,6.793,4.454,8.74c3.834,1.621,12.556-1.535,12.587-1.614C3572.95,2364.486,3572.242,2357.858,3572.242,2357.858Z" transform="translate(-3551.07 -2272.615)"/><path class="a" d="M3562.207,2366.328a8.043,8.043,0,0,1-3.08-.511c-4.885-2.066-4.792-8.959-4.785-9.252l.011-.533,7.8.037c-.034-2.063.125-4.376.961-4.855a1.166,1.166,0,0,1,1.068-.109c.728.307,1,1.355,1.311,2.568.28,1.086.627,2.438,1.261,2.739,1.613.764,4.346-.022,4.374-.031l.623-.182.07.645c.722,6.759.666,6.9.607,7.056a.6.6,0,0,1-.361.337C3572,2364.264,3566.536,2366.328,3562.207,2366.328Zm-6.767-9.206c.083,1.581.624,6.222,4.109,7.7,3.182,1.346,10.221-.875,11.824-1.471-.065-.945-.345-3.709-.563-5.771a7.746,7.746,0,0,1-4.516-.184c-1.094-.519-1.494-2.075-1.848-3.448-.165-.642-.442-1.715-.679-1.839a.841.841,0,0,0-.11.051c-.269.288-.469,2.372-.4,4.441l.018.562Zm15.947,6.527h0Z" transform="translate(-3550.112 -2271.658)"/><path class="a" d="M3552.706,2336.939l4.016,17.477-8.146,2.372-4.7-18.1Z" transform="translate(-3543.428 -2262.666)"/><path class="d" d="M3556.011,2342.472l3.656,14.915-5.468.893-3.753-14.66Z" transform="translate(-3547.625 -2266.199)"/><path class="a" d="M3552.621,2357.771l-4.017-15.692,6.633-1.368,3.92,15.992Zm-2.684-14.86,3.488,13.629,4.4-.719-3.391-13.838Z" transform="translate(-3546.449 -2265.074)"/><path class="d" d="M3566.641,2380.515s-11.135-1.215-13.565-.607-7.829-1.552-8.74-6.816,1.732-5.676,1.732-5.676.951,3,1.234,3.526c.45.836,3.546,2.386,3.546,2.386s-.2-4.96,1.215-5.662,2.633,6.034,2.633,6.034l11.945-2.194Z" transform="translate(-3543.602 -2282.125)"/><path class="a" d="M3566.224,2380.047l-.6-.066c-3.071-.335-11.459-1.1-13.375-.62a7.642,7.642,0,0,1-5.456-1.335,8.808,8.808,0,0,1-3.95-5.915c-.4-2.33-.2-4.085.617-5.219a2.552,2.552,0,0,1,1.566-1.085l.46-.071.141.443c.362,1.142,1.006,3.083,1.195,3.433a9.247,9.247,0,0,0,2.513,1.74c.01-1.629.216-4.594,1.53-5.245a1,1,0,0,1,.917.008c1.212.609,2.05,4.171,2.388,5.881l12.055-2.213Zm-11.744-1.921c3.445,0,8.847.526,10.66.714v-7.756l-11.841,2.174-.1-.535c-.5-2.767-1.37-5.357-1.885-5.629-.641.385-.976,2.945-.887,5.139l.038.918-.822-.411c-.763-.382-3.288-1.7-3.781-2.614-.229-.426-.785-2.1-1.091-3.048-.564.4-1.433,1.557-.864,4.848a7.737,7.737,0,0,0,3.474,5.191,6.545,6.545,0,0,0,4.6,1.192A11.879,11.879,0,0,1,3554.48,2378.126Z" transform="translate(-3542.643 -2281.052)"/><path class="g" d="M3657.141,2250.007c-3.057.607-9.081,13.5-15.125,14.495-1.829.3-1.293-3.339-2.691-4.83-6.285-6.7-6.091,27.458-10.245,30.7h-33.944l-.742,11.949,37.323-2.732c6.461,4.4.756,28.1,4.84,33.683.518.709,50.114,5.169,50.366,4.329C3702.1,2287.06,3671.091,2247.238,3657.141,2250.007Z" transform="translate(-3575.686 -2207.073)"/><path class="g" d="M3662.6,2283.514c-8.607-3.216-14.3,34.508-34.784,33.082-21.413-1.489-37.564-.55-37.71.194,0,0,1.2,15.1,1.329,15.446,0,0,17.669,2.265,43.1,5,10.6,1.14,23.476-13,31.818-23.963C3671.092,2307.052,3670.837,2286.592,3662.6,2283.514Z" transform="translate(-3572.948 -2228.43)"/><path class="a" d="M3710.066,2373.04a.542.542,0,0,1-.076-1.079c4.445-.635,7.107-1.026,12.377-1.807,10.07-1.494,18.795-17.614,24.342-30.873a.542.542,0,0,1,1,.418c-5.654,13.517-14.613,29.959-25.183,31.528-5.272.782-7.936,1.173-12.384,1.809A.685.685,0,0,1,3710.066,2373.04Z" transform="translate(-3649.196 -2263.948)"/><path class="a" d="M3649.246,2323.4a.541.541,0,0,0-.741.2c-4.844,8.385-10.366,16.152-17.985,17.915h0l3.148-17.548a.542.542,0,0,0-1.068-.191l-3.24,17.961a13.518,13.518,0,0,1-3.438.1c-12.539-1.082-22.207-1.206-26.863-1.189-11.18.049-11.332.759-11.422,1.182l-.018.084,1.688,15.93a.542.542,0,0,0,.538.485.512.512,0,0,0,.058,0,.542.542,0,0,0,.482-.6l-1.639-15.471c2.244-.542,16.827-1.089,37.082.658,10.691.931,17.667-8.475,23.614-18.771A.542.542,0,0,0,3649.246,2323.4Z" transform="translate(-3571.36 -2253.974)"/><path class="a" d="M3670.2,2138.619c-2.785,1.587-9.6,5.356-7.316,10.582a147.7,147.7,0,0,0,9.32,16.955,3.54,3.54,0,0,0,4.418,1.368l17.994-7.863a3.542,3.542,0,0,0,1.964-4.288c-1.783-5.8-5.661-18.037-7.087-19.514C3684.639,2130.832,3674.6,2136.107,3670.2,2138.619Z" transform="translate(-3619.12 -2132.939)"/><path class="d" d="M3696.545,2171.366c.531-1.434-.825-5.6-2.705-10.2a.415.415,0,0,1,.045-.4,5.787,5.787,0,0,0,.888-5.711c-.9-1.939-2.134-.91-2.971.206a.327.327,0,0,1-.561-.076c-2.489-5.456-4.9-10.14-4.9-10.14l-21.383,9.343s2.183,4.881,4.788,10.285c.117.242,6.741,12.954,7.773,13.916a3.987,3.987,0,0,0,2.243.948s1.863.523,9.634-2.873Z" transform="translate(-3620.745 -2140.142)"/><path class="a" d="M3678.853,2178.869a2.351,2.351,0,0,1-.447-.035,4.5,4.5,0,0,1-2.52-1.086c-1.131-1.055-7.833-13.955-7.891-14.077-2.58-5.349-4.773-10.25-4.8-10.3l-.223-.5,22.351-9.767.233.453c.023.046,2.349,4.58,4.764,9.854a2.58,2.58,0,0,1,2.116-1.217,2.057,2.057,0,0,1,1.556,1.394c1.231,2.656-.182,5.177-.9,6.2,3.091,7.583,3.013,9.642,2.684,10.53a.542.542,0,1,1-1.017-.375c.232-.628.19-2.736-2.7-9.81a.948.948,0,0,1,.108-.917c.59-.824,1.852-2.976.836-5.168-.219-.473-.462-.747-.686-.771-.321-.028-.829.368-1.358,1.074a.849.849,0,0,1-.78.339.879.879,0,0,1-.709-.515c-2.013-4.413-3.992-8.36-4.653-9.664l-20.412,8.919c.622,1.38,2.463,5.427,4.558,9.772.436.887,6.777,12.938,7.655,13.755a3.463,3.463,0,0,0,1.945.807l.075.016h0c.006,0,1.989.333,9.27-2.849a.542.542,0,0,1,.434.994C3682.432,2178.51,3679.837,2178.869,3678.853,2178.869Z" transform="translate(-3619.476 -2138.904)"/><path class="a" d="M3714.9,2186.273a.723.723,0,0,1-.648-.4l-.215-.432a.723.723,0,0,1,1.295-.644l.215.433a.723.723,0,0,1-.647,1.045Z" transform="translate(-3652.032 -2165.267)"/><path class="a" d="M3689.336,2198.223a.724.724,0,0,1-.66-.427l-.233-.519a.723.723,0,0,1,1.319-.592l.233.519a.723.723,0,0,1-.659,1.019Z" transform="translate(-3635.695 -2172.842)"/><path class="a" d="M3707.544,2176.977a.542.542,0,0,1-.4-.9,6.114,6.114,0,0,1,4.068-1.853.542.542,0,0,1,.034,1.084,5.038,5.038,0,0,0-3.295,1.493A.541.541,0,0,1,3707.544,2176.977Z" transform="translate(-3647.586 -2158.77)"/><path class="a" d="M3687.942,2194.944a1.942,1.942,0,0,1-1.655-.627c-.442-.655-.451-.869-.557-3.5-.022-.559-.05-1.233-.086-2.052a6.364,6.364,0,0,0-.7-2.279,1.6,1.6,0,0,0-.882-.057,6.089,6.089,0,0,0-3.821,2,.542.542,0,0,1-.882-.632,7.057,7.057,0,0,1,5.1-2.471,1.58,1.58,0,0,1,1.373.541,7.372,7.372,0,0,1,.895,2.79l0,.042c.037.831.065,1.514.087,2.079.1,2.532.118,2.555.373,2.932a2.7,2.7,0,0,0,1.68.051.542.542,0,1,1,.216,1.063A5.956,5.956,0,0,1,3687.942,2194.944Z" transform="translate(-3629.867 -2165.862)"/><path class="a" d="M3671.476,2137.683s-18.532,12.752-28.193,11.434c-5.513-.752-3.414-7.355-.254-9.834,2.377-1.865,6.316-.285,9.209-1.59,2.225-1,6.712-4.495,9.722-5.56C3668.062,2129.971,3672.832,2133.557,3671.476,2137.683Z" transform="translate(-3604.721 -2131.483)"/><path class="a" d="M3708.454,2212.715c.5.529-.2,3.437-1.906,4.084-2.786,1.056-4.6-1.51-3.874-1.6a6.03,6.03,0,0,0,3.218-.283C3707.673,2214.178,3708.12,2212.36,3708.454,2212.715Z" transform="translate(-3644.719 -2183.32)"/></g><path class="a" d="M3486.5,2224.493c0-2.173-.749-4.218-5.815-5.49v-6.846a3.906,3.906,0,0,1,3.862,2.809.732.732,0,0,0,1.406-.406c-.537-1.823-2.138-3.548-5.269-3.706v-1.694a.542.542,0,1,0-1.084,0v1.7c-3.458.225-5.015,2.34-5.015,4.6,0,2.507,1.524,3.755,5.015,4.7v8.032a4.465,4.465,0,0,1-4.2-3.289.729.729,0,0,0-1.4.414c.569,2,2.153,3.9,5.6,4.135v2.408a.542.542,0,1,0,1.084,0v-2.393C3484.654,2229.342,3486.5,2227.092,3486.5,2224.493Zm-10.409-9.112c0-1.881,1.233-3.066,3.51-3.225v6.556C3477.04,2217.97,3476.092,2217.158,3476.092,2215.381Zm4.594,12.84v-7.777c3.489.964,4.31,2.208,4.31,4.152C3485,2226.511,3483.793,2228.127,3480.686,2228.221Z" transform="translate(-107.182 -102.113)"/><path class="a" d="M3460.492,2227.286a17.3,17.3,0,1,1,17.3-17.3A17.316,17.316,0,0,1,3460.492,2227.286Zm0-33.509a16.212,16.212,0,1,0,16.212,16.212A16.231,16.231,0,0,0,3460.492,2193.778Z" transform="translate(-87.531 -91.945)"/><path class="a" d="M3511.162,2312.948a4.034,4.034,0,1,1,4.033-4.034A4.038,4.038,0,0,1,3511.162,2312.948Zm0-6.982a2.949,2.949,0,1,0,2.949,2.948A2.952,2.952,0,0,0,3511.162,2305.966Z" transform="translate(-128.352 -163.576)"/><g transform="translate(3306.107 2232.671)"><path class="d" d="M3343.933,2567.8a14.014,14.014,0,1,1-18.3-7.606A14.014,14.014,0,0,1,3343.933,2567.8Z" transform="translate(-3313.038 -2558.588)"/><path class="a" d="M3351.28,2583.413c-.694-1.68-1.926-3.021-6.248-2.388l-2.185-5.294a3.267,3.267,0,0,1,3.882.939.614.614,0,0,0,.706.178h0a.61.61,0,0,0,.252-.941,4.44,4.44,0,0,0-5.255-1.183l-.541-1.309a.453.453,0,1,0-.838.346l.543,1.315c-2.6,1.278-3.131,3.41-2.41,5.156.8,1.938,2.377,2.417,5.377,2.032l2.564,6.21a3.735,3.735,0,0,1-4.3-1.2.609.609,0,0,0-.947.766c1.078,1.364,2.908,2.324,5.649,1.409l.769,1.862a.453.453,0,0,0,.419.281.449.449,0,0,0,.173-.034.455.455,0,0,0,.246-.593l-.764-1.85C3351.4,2587.752,3352.109,2585.423,3351.28,2583.413Zm-10.956-3.722c-.6-1.454-.024-2.764,1.684-3.614l2.093,5.069C3341.882,2581.39,3340.89,2581.064,3340.323,2579.691Zm7.65,8.461-2.482-6.012c3-.368,4.036.332,4.657,1.834C3350.759,2585.454,3350.345,2587.087,3347.973,2588.152Z" transform="translate(-3327.039 -2567.527)"/><path class="a" d="M3337.5,2566.632a14.556,14.556,0,0,0-19.009-7.9,14.814,14.814,0,0,0-1.4.666c-5.18,2.225-8.571,5.115-10.076,8.606-1.37,3.177-1.2,6.88.5,11.005a13.409,13.409,0,0,0,12.822,8.8,21.316,21.316,0,0,0,7.939-1.7c.444-.136.884-.292,1.317-.472A14.572,14.572,0,0,0,3337.5,2566.632Zm-21.973,19.4a12.856,12.856,0,0,1-7.167-7.37c-1.606-3.89-1.777-7.355-.508-10.3a13.746,13.746,0,0,1,5.367-5.9,14.562,14.562,0,0,0,9.675,24.241A14.145,14.145,0,0,1,3315.53,2586.032Zm13.66-1.394a13.472,13.472,0,1,1,7.311-17.593A13.389,13.389,0,0,1,3329.19,2584.639Z" transform="translate(-3306.107 -2557.623)"/></g><path class="a" d="M3783.355,2067.992a.568.568,0,0,1-.064,0,.543.543,0,0,1-.476-.6l2.141-18.217a.542.542,0,0,1,1.077.126l-2.14,18.217A.543.543,0,0,1,3783.355,2067.992Z" transform="translate(-304.374)"/><path class="a" d="M3796.081,2091.508a.543.543,0,0,1-.3-1l34.811-22.839a.542.542,0,0,1,.594.906l-34.81,22.84A.541.541,0,0,1,3796.081,2091.508Z" transform="translate(-312.5 -12.064)"/><g transform="translate(3514.628 2238.942)"><path class="d" d="M4356.834,2887.477l22.591-.249-1.4,9.564-23.624-.3Z" transform="translate(-4183.961 -2774.345)"/><path class="a" d="M4377.249,2896.37l-24.8-.313,2.72-10.088,23.637-.26Zm-23.386-1.379,22.451.283,1.237-8.466-21.545.237Z" transform="translate(-4182.715 -2773.375)"/><path class="g" d="M4414.807,2860.167s-.558-14.654,5.728-14.168,5.832.826,5.832.826l-3.531,24.918-7.586-.576S4418.68,2862.091,4414.807,2860.167Z" transform="translate(-4222.521 -2748.013)"/><rect class="a" width="26.145" height="1.45" transform="matrix(0.14, -0.99, 0.99, 0.14, 198.928, 124.032)"/><path class="a" d="M3996.152,2849.742s-5.939,22.605,0,23.991,136.6,0,136.6,0l1.35-13.191-105.015-10.8Z" transform="translate(-3953.534 -2750.41)"/><path class="a" d="M4092.667,2817.358s42.114-20.449,51.022-20.449c5.265,0,41.035,30.168,41.035,30.168l-19.707,6.209-23.31-15.788-28.12,10.813Z" transform="translate(-4016.844 -2716.677)"/><path class="d" d="M3907.568,2872.239s-4.859,10.427-6.783,11.034-14.921-1.545-16.046,4.315l17.91-.021c4.657-.673,12-10.571,12-10.571Z" transform="translate(-3884.083 -2764.775)"/><path class="a" d="M3882.924,2886.712l.123-.645c.932-4.855,8.777-4.726,13.464-4.648a16.214,16.214,0,0,0,2.952-.082c1.061-.335,4.115-5.727,6.454-10.747l.268-.574,8.084,5.428-.339.456c-.306.412-7.538,10.087-12.363,10.784l-.076.006Zm11.54-4.231c-3.988,0-8.975.348-10.156,3.145l17.142-.02c3.833-.6,9.778-7.981,11.265-9.9l-6.083-4.084c-1.239,2.609-4.962,10.156-6.842,10.749a14.02,14.02,0,0,1-3.3.132C3895.868,2882.492,3895.181,2882.481,3894.463,2882.481Z" transform="translate(-3882.924 -2763.356)"/><path class="a" d="M3994.28,2646.377s-4.717-.48-4.758,5.053c0,0-5.1-2.681-5.149,3.346,0,0-6.492-3.172-8.36,4.973,0,0-3.256.2-3.8,4.638,0,0-6.555,1.128-4.323,6.931,0,0-4.217,8.159,1.536,11.349,2.685,1.488,9.43.84,11.946-2.835a6.944,6.944,0,0,0,6.524-1.526c3.307-2.72.648-4.351.648-4.351s3.758,1.867,4.191-1.021-1.3-3.781-1.3-3.781a17.241,17.241,0,0,0,5.74.177c2.242-.519,2.786-4.994,2.786-4.994s5.108,1.286,5.082-.978-1.664-5.88-1.664-5.88.772.457.812-2.387-3.372-3.841-3.372-3.841Z" transform="translate(-3936.221 -2620.557)"/><path class="a" d="M4051.111,2575.1a19.2,19.2,0,0,1,14.159,7.179c5.752,7.272.425,13.948-1.9,19.088-9.178,20.332-26.086,5.5-27.14,2.709-2.081-5.524-3.443-7.856-4.283-13.074C4031.5,2588.2,4033.062,2573.454,4051.111,2575.1Z" transform="translate(-3978.038 -2574.969)"/><path class="d" d="M4011.708,2641s-2.08,15.708-2.579,16.619c-3.209,5.861-9.747,11.8-10.832,12.783-5.5,4.972-14.351,17.212-11.4,17.847,6.369,1.372,33.054-13.22,33.054-13.22l12.515-3.861-3.84-4.746a26.26,26.26,0,0,1-4.851-4.457c-1.385-1.969.342-18.152.342-18.152Z" transform="translate(-3948.935 -2617.132)"/><path class="a" d="M3986.881,2687.715a5,5,0,0,1-1.046-.1,1.215,1.215,0,0,1-.956-.91c-.8-3,7.629-13.823,12.107-17.87,1.763-1.593,7.748-7.214,10.719-12.641.352-.781,1.731-10.493,2.518-16.429l.078-.589,13.457,3.05-.051.479c-.66,6.178-1.361,16.47-.438,17.783a25.89,25.89,0,0,0,4.724,4.328l.059.042,4.392,5.426-13.229,4.082C4017.648,2675.224,3994.619,2687.714,3986.881,2687.715Zm24.339-47.216c-.568,4.26-2.079,15.335-2.563,16.219-2.97,5.425-8.643,10.846-10.944,12.925-5.268,4.76-12.317,14.8-11.786,16.784.023.089.047.112.136.13a4.382,4.382,0,0,0,.915.085c7.44,0,31.511-13.113,31.765-13.252l.1-.042,11.75-3.625-3.292-4.068a25.811,25.811,0,0,1-4.918-4.541c-1.359-1.934-.174-14.464.2-18.042Z" transform="translate(-3947.988 -2615.966)"/><path class="d" d="M4050.912,2615.744c-1.406-1.76-3.771-5.167-3.1-7.536s3.251-1.236,3.947-.6c.464.421,3.673-11.467,3.673-11.467l18.431,4.854s-.551,10.93-3.277,17.186c-2.738,6.282-6.254,7.005-11.045,5.7a11.6,11.6,0,0,1-5.264-2.955Z" transform="translate(-3988.127 -2588.484)"/><path class="a" d="M4062.1,2623.8a14.032,14.032,0,0,1-3.66-.575,12.238,12.238,0,0,1-5.5-3.094.542.542,0,0,1,.765-.769,11.167,11.167,0,0,0,5.026,2.816c4.444,1.212,7.735.734,10.4-5.392,2.351-5.394,3.068-14.467,3.206-16.558l-17.479-4.6c-3.008,11.083-3.543,11.241-3.865,11.335a.576.576,0,0,1-.556-.128,2.893,2.893,0,0,0-2.226-.638,1.261,1.261,0,0,0-.835.988c-.436,1.544.659,4.113,3,7.049a.542.542,0,1,1-.847.677c-1.842-2.306-3.893-5.57-3.2-8.021a2.3,2.3,0,0,1,1.579-1.736,3.752,3.752,0,0,1,2.764.522c.6-1.432,2.058-6.34,3.275-10.851l.141-.521,19.376,5.1-.022.44c-.022.45-.587,11.1-3.321,17.375C4067.887,2622.352,4065.056,2623.8,4062.1,2623.8Z" transform="translate(-3987.17 -2587.315)"/><path class="a" d="M4103.1,2639.388a.75.75,0,0,1-.131-.012.723.723,0,0,1-.582-.841l.112-.614a.723.723,0,1,1,1.422.26l-.111.614A.724.724,0,0,1,4103.1,2639.388Z" transform="translate(-4023.045 -2614.785)"/><path class="a" d="M4080.509,2633.2a.725.725,0,0,1-.712-.853l.111-.614a.723.723,0,1,1,1.423.26l-.111.613A.723.723,0,0,1,4080.509,2633.2Z" transform="translate(-4008.619 -2610.835)"/><path class="a" d="M4077.811,2625.993a.538.538,0,0,1-.39-.166c-.036-.034-1.277-1.185-4.5-.349a.543.543,0,0,1-.273-1.05c3.933-1.021,5.491.583,5.555.652a.542.542,0,0,1-.4.913Z" transform="translate(-4003.805 -2606.332)"/><path class="a" d="M4089.35,2641.3a.542.542,0,0,1-.051-1.082,2.9,2.9,0,0,0,1.2-.328,7,7,0,0,0-.015-1.946c-.031-.523-.07-1.171-.108-1.98a.542.542,0,0,1,.516-.568.536.536,0,0,1,.567.516c.038.8.077,1.448.108,1.968.094,1.56.125,2.086-.133,2.556-.35.636-1.534.815-2.027.862A.477.477,0,0,1,4089.35,2641.3Z" transform="translate(-4014.381 -2613.553)"/><path class="a" d="M4105.157,2631.525a.542.542,0,0,1-.444-.231c-.046-.062-.931-1.212-3.369-.693a.542.542,0,1,1-.227-1.06c3.2-.683,4.437,1.062,4.488,1.136a.543.543,0,0,1-.144.753A.532.532,0,0,1,4105.157,2631.525Z" transform="translate(-4021.965 -2609.712)"/><path class="a" d="M4076.829,2601.2a68.537,68.537,0,0,1-6.867-7.209c-.287-.358-14.205,3.5-16.233,6.829a4.808,4.808,0,0,0-1.762-.716,2.308,2.308,0,0,0-1.4.192l3.362-13.727,22.848,5.041Z" transform="translate(-3989.963 -2582.374)"/><path class="d" d="M4211.776,2740.938s3.482-2.953,5.07-4.2.023-6.361,1.915-5.779c.905.278,1.742,4.66,1.742,4.66l5.412-3.476s3.947,7.947,1,10.061c-3.383,2.426-13.991,3.993-13.842,2.356C4213.091,2744.379,4211.776,2740.938,4211.776,2740.938Z" transform="translate(-4092.895 -2674.542)"/><path class="a" d="M4214.016,2744.8a4.729,4.729,0,0,1-2.1-.33.955.955,0,0,1-.527-.829c-.087-.337-.7-2-1.259-3.469l-.137-.358.293-.249c.035-.03,3.508-2.973,5.086-4.209.553-.433.595-1.828.63-2.949.038-1.252.071-2.333.714-2.793a1.163,1.163,0,0,1,1.065-.127c.886.272,1.534,2.339,1.956,4.294l5.255-3.376.27.542c.425.856,4.06,8.426.831,10.743C4223.634,2743.458,4217.458,2744.8,4214.016,2744.8Zm-1.542-1.255c1.078.7,9.8-.449,12.989-2.735,1.945-1.4.19-6.417-.91-8.831l-5.569,3.577-.151-.788c-.388-2.033-1.042-4.022-1.4-4.258a.236.236,0,0,0-.1-.008,5.22,5.22,0,0,0-.25,1.939c-.043,1.418-.092,3.024-1.045,3.77-1.293,1.013-3.888,3.2-4.761,3.935A26.617,26.617,0,0,1,4212.475,2743.546Zm-1.073.129h0Z" transform="translate(-4091.758 -2673.585)"/><path class="a" d="M4233.584,2714.17l-.076,17.933,8.466.524.612-18.695Z" transform="translate(-4106.771 -2663.696)"/><path class="d" d="M4236.836,2719.263l-.29,15.354,5.531-.33.439-15.127Z" transform="translate(-4108.71 -2667.034)"/><path class="a" d="M4235.016,2734.217l.31-16.463,6.772-.123-.47,16.191Zm1.374-15.4-.268,14.245,4.45-.266.408-14.063Z" transform="translate(-4107.733 -2666.058)"/><path class="g" d="M3959.6,2715.81c30.8-2.7,31.064-9.525,35.33-6.185,3.132,2.453,18.425,22.271,18.425,22.271l19.437-8.908,6.074,8.908s-20.286,18.74-26.442,18.987-18.3-16.76-18.3-16.76l-1.526,25.614-38.63.505,2.7-10.664-15.793,29.291-11.743-6.864S3947.361,2716.883,3959.6,2715.81Z" transform="translate(-3912.423 -2660.371)"/><path class="d" d="M4249.52,2737.06a5.68,5.68,0,0,0-2.43,2.5c-1.39,2.277-2.146,5.823-1.321,6.243C4249.52,2747.707,4251.26,2748.568,4249.52,2737.06Z" transform="translate(-4114.381 -2678.464)"/><path class="a" d="M4247.817,2746.192a8.392,8.392,0,0,1-3.247-1.2,1.113,1.113,0,0,1-.548-.734c-.362-1.275.426-4.265,1.652-6.274a6.088,6.088,0,0,1,2.71-2.726l.62-.22.1.65c1.132,7.493.722,9.459-.305,10.2A1.629,1.629,0,0,1,4247.817,2746.192Zm-2.724-2.151c1.336.679,2.593,1.312,3.07.968,1-.725.364-5.778-.009-8.337a7.342,7.342,0,0,0-1.553,1.876C4245.284,2740.7,4244.784,2743.552,4245.093,2744.041Z" transform="translate(-4113.427 -2677.172)"/><path class="a" d="M4085.967,2652.529c.271.446-1.8,1.646-3.247,1.371-3.646-.691-4.28-3.5-3.537-2.934a8.853,8.853,0,0,0,3.792,1.6C4085.32,2652.835,4085.658,2652.023,4085.967,2652.529Z" transform="translate(-4008.059 -2623.445)"/><path class="h" d="M4190.872,2861.207a.514.514,0,0,1-.056,0l-73.509-7.592a.542.542,0,1,1,.112-1.078l73.508,7.592a.542.542,0,0,1-.055,1.082Z" transform="translate(-4032.266 -2752.191)"/><path class="a" d="M4006.508,2794.7a.534.534,0,0,1-.246-.059.543.543,0,0,1-.237-.729l5.668-11.135a.543.543,0,0,1,.967.493l-5.669,11.135A.543.543,0,0,1,4006.508,2794.7Z" transform="translate(-3961.486 -2707.466)"/></g><path class="a" d="M4327.154,2620.662c0-2.173-.749-4.217-5.815-5.49v-6.847a3.907,3.907,0,0,1,3.862,2.809.731.731,0,0,0,1.405-.406c-.536-1.822-2.137-3.548-5.268-3.706v-1.693a.542.542,0,1,0-1.084,0v1.7c-3.458.226-5.015,2.341-5.015,4.6,0,2.507,1.525,3.755,5.015,4.7v8.032a4.465,4.465,0,0,1-4.2-3.288.728.728,0,0,0-1.4.413c.569,2,2.154,3.9,5.6,4.135v2.408a.542.542,0,1,0,1.084,0v-2.393C4325.306,2625.511,4327.154,2623.262,4327.154,2620.662Zm-10.41-9.112c0-1.881,1.234-3.065,3.51-3.225v6.556C4317.692,2614.14,4316.744,2613.327,4316.744,2611.551Zm4.594,12.84v-7.777c3.489.965,4.31,2.208,4.31,4.152C4325.648,2622.68,4324.445,2624.3,4321.338,2624.391Z" transform="translate(-643.935 -355.066)"/><path class="a" d="M4301.144,2623.455a17.3,17.3,0,1,1,17.3-17.3A17.315,17.315,0,0,1,4301.144,2623.455Zm0-33.508a16.212,16.212,0,1,0,16.213,16.212A16.23,16.23,0,0,0,4301.144,2589.947Z" transform="translate(-624.284 -344.897)"/><path class="a" d="M4267.816,2689.623a4.033,4.033,0,1,1,4.034-4.034A4.038,4.038,0,0,1,4267.816,2689.623Zm0-6.982a2.949,2.949,0,1,0,2.949,2.949A2.952,2.952,0,0,0,4267.816,2682.64Z" transform="translate(-611.473 -404.082)"/><g transform="translate(3538.353 2138.075)"><path class="d" d="M3987.057,2308.177a14.014,14.014,0,1,1-16.917-10.324A14.014,14.014,0,0,1,3987.057,2308.177Z" transform="translate(-3955.49 -2296.911)"/><path class="a" d="M3994.405,2321.911c-.427-1.767-1.439-3.28-5.807-3.319l-1.347-5.566a3.267,3.267,0,0,1,3.692,1.524.612.612,0,0,0,1.063-.606,4.44,4.44,0,0,0-5.011-1.976l-.333-1.377a.453.453,0,0,0-.881.213l.334,1.383c-2.767.864-3.617,2.889-3.172,4.725.493,2.038,1.978,2.753,5,2.833l1.58,6.53a3.734,3.734,0,0,1-4.064-1.846.609.609,0,0,0-1.054.61c.855,1.514,2.517,2.744,5.367,2.261l.473,1.957a.454.454,0,0,0,.441.347.438.438,0,0,0,.106-.013.453.453,0,0,0,.334-.548l-.471-1.946C3993.858,2326.217,3994.918,2324.024,3994.405,2321.911Zm-10.254-5.36c-.371-1.529.4-2.734,2.218-3.312l1.29,5.33C3985.431,2318.47,3984.5,2318,3984.151,2316.551Zm6.26,9.535-1.53-6.323c3.026.1,3.938.947,4.32,2.528C3993.579,2323.847,3992.918,2325.4,3990.412,2326.086Z" transform="translate(-3970.438 -2305.075)"/><path class="a" d="M3980.645,2307.086h0a14.557,14.557,0,0,0-17.572-10.724,14.807,14.807,0,0,0-1.483.444c-5.46,1.4-9.253,3.738-11.276,6.957-1.841,2.93-2.242,6.614-1.192,10.951a13.928,13.928,0,0,0,6.375,8.954,15.061,15.061,0,0,0,7.676,1.916,23.671,23.671,0,0,0,5.417-.674c.444-.066.888-.146,1.33-.252a14.556,14.556,0,0,0,10.725-17.572Zm-24.691,15.8A12.86,12.86,0,0,1,3950,2314.5c-.99-4.09-.626-7.541,1.08-10.255a13.727,13.727,0,0,1,6.185-5,14.559,14.559,0,0,0,5.88,25.427A14.167,14.167,0,0,1,3955.954,2322.885Zm22.043-5.356a13.473,13.473,0,1,1,1.594-10.187h0A13.387,13.387,0,0,1,3978,2317.529Z" transform="translate(-3948.552 -2295.949)"/></g></g></svg>