<svg xmlns="http://www.w3.org/2000/svg" width="191.058" height="326.446" viewBox="0 0 191.058 326.446"><defs><style>.a{fill:#062640;}.b{fill:#fff;}.c{fill:#00213f;}.d{fill:#231f20;}.e{fill:#2a84b3;}.f{fill:#aaa;}</style></defs><g transform="translate(-7422.501 -1756.082)"><rect class="a" width="191.058" height="326.446" rx="17" transform="translate(7422.501 1756.083)"/><path class="b" d="M3531.384,711.121a1.323,1.323,0,0,0-1.314,1.342v.014c0,5.036-3.475,9.119-7.763,9.119s-7.763-4.083-7.763-9.119v-.014a1.323,1.323,0,0,0-1.313-1.342H3441.4V979.7h163.613V711.121Z" transform="translate(3994.885 1065.969)"/><path class="c" d="M3604.425,979.116H3439.9V709.622h72.285a1.747,1.747,0,0,1,1.243.515,1.8,1.8,0,0,1,.526,1.283c0,4.79,3.279,8.676,7.308,8.676s7.307-3.886,7.307-8.663a1.808,1.808,0,0,1,.526-1.3,1.744,1.744,0,0,1,1.242-.515h74.085Zm-163.613-.911h162.7V710.533h-73.174a.837.837,0,0,0-.6.248.894.894,0,0,0-.26.638c0,5.294-3.687,9.589-8.218,9.589s-8.219-4.295-8.219-9.574a.9.9,0,0,0-.26-.652.836.836,0,0,0-.6-.248h-71.375Z" transform="translate(3995.867 1067.013)"/><path class="b" d="M3684.063,1632.479a10.37,10.37,0,1,1-10.37-10.37A10.371,10.371,0,0,1,3684.063,1632.479Z" transform="translate(3840.297 431.647)"/><path class="c" d="M3672.649,1642.261a10.826,10.826,0,1,1,10.826-10.826A10.838,10.838,0,0,1,3672.649,1642.261Zm0-20.741a9.915,9.915,0,1,0,9.914,9.915A9.926,9.926,0,0,0,3672.649,1621.52Z" transform="translate(3841.342 432.692)"/><g transform="translate(7458.345 1814.928)"><path class="d" d="M156.286,528.069l-6.576-6.182a2.117,2.117,0,0,0-.714-.5,1.867,1.867,0,0,0-.618-.109,2.017,2.017,0,0,0-.681.118,1.522,1.522,0,0,0-.577.37,1.844,1.844,0,0,0-.4.655,2.7,2.7,0,0,0-.153.958v9.324h3.016v-6.6l6.576,6.182a1.973,1.973,0,0,0,.7.5,1.91,1.91,0,0,0,.633.11,2.079,2.079,0,0,0,.69-.118,1.468,1.468,0,0,0,.585-.378,1.949,1.949,0,0,0,.4-.664,2.709,2.709,0,0,0,.152-.957v-9.307h-3.031Zm-19.542-2.621h-7.037v-3.981h-3.336v11.239h3.336v-4.334h7.037v4.334h3.3V521.467h-3.3Zm4.609,7.258h3.32V521.467h-3.32Zm31.623-9.7a6.179,6.179,0,0,0-2.045-1.134,8.035,8.035,0,0,0-2.6-.4h-5.069l-2.117,2.923h7.186a3.638,3.638,0,0,1,1.251.21,3.363,3.363,0,0,1,1.011.571,2.541,2.541,0,0,1,.674.865,2.616,2.616,0,0,1,0,2.193,2.561,2.561,0,0,1-.658.848,2.967,2.967,0,0,1-1,.546,4.048,4.048,0,0,1-1.275.193h-3.85V525.7h-3.336v7.006h7.186a7.424,7.424,0,0,0,2.582-.437,6.321,6.321,0,0,0,2.046-1.2,5.536,5.536,0,0,0,1.347-1.815,5.326,5.326,0,0,0,.489-2.276A5.12,5.12,0,0,0,172.975,523Zm7.392,1.554a1.719,1.719,0,0,1,.858-.168h11.339l-2.619-2.923h-8.463a7.621,7.621,0,0,0-2.093.252,3.953,3.953,0,0,0-1.427.706,2.757,2.757,0,0,0-.818,1.1,3.76,3.76,0,0,0-.265,1.436,3.488,3.488,0,0,0,.241,1.319,2.567,2.567,0,0,0,.738,1.017,3.564,3.564,0,0,0,1.251.655,6.072,6.072,0,0,0,1.8.235h5.838a1.576,1.576,0,0,1,.866.185.7.7,0,0,1,.273.621.717.717,0,0,1-.273.63,1.521,1.521,0,0,1-.866.193h-8.116l-2.133,2.89h9.993a7.636,7.636,0,0,0,2.093-.252,3.879,3.879,0,0,0,1.436-.723,2.73,2.73,0,0,0,.818-1.159,4.4,4.4,0,0,0,.257-1.545,2.7,2.7,0,0,0-1.027-2.31,4.973,4.973,0,0,0-3-.764h-5.839a1.644,1.644,0,0,1-.858-.176.666.666,0,0,1-.281-.613A.646.646,0,0,1,180.367,524.558Zm19.255-.255c-.054-.078-5.614-5.621-5.614-5.621h-4.267l8.415,8.715Zm32.307-2.836v2.526h5.489v8.713h3.32v-8.713h3.834l2.149-2.526Zm-6.642,0H212.643a8.143,8.143,0,0,0-2.582.395,6.063,6.063,0,0,0-2.045,1.126,5.278,5.278,0,0,0-1.348,1.747,5.108,5.108,0,0,0-.489,2.242,5.326,5.326,0,0,0,.489,2.276,5.532,5.532,0,0,0,1.348,1.815,6.312,6.312,0,0,0,2.045,1.2,7.422,7.422,0,0,0,2.582.437h8.014v-7.022h-6.865l-1.988,2.5h5.55v1.63h-4.71a3.968,3.968,0,0,1-1.267-.193,3.069,3.069,0,0,1-1-.546,2.432,2.432,0,0,1-.658-.848,2.559,2.559,0,0,1-.233-1.1,2.487,2.487,0,0,1,.241-1.1,2.7,2.7,0,0,1,.666-.866,3.04,3.04,0,0,1,1-.571,3.771,3.771,0,0,1,1.251-.2h9.495v8.316h3.15v-4.5h7.327v4.469h3.15v-7.108H225.288Z" transform="translate(-126.371 -509.118)"/><path class="e" d="M366.925,492.238s-31.3-8.62-38.525,27.978h2.918S336.755,488.458,366.925,492.238Z" transform="translate(-257.698 -491.354)"/></g><path d="M9.69.563a9.69,9.69,0,1,0,9.69,9.69A9.689,9.689,0,0,0,9.69.563Zm0,3.751A3.439,3.439,0,1,1,6.252,7.752,3.439,3.439,0,0,1,9.69,4.314Zm0,13.442A7.488,7.488,0,0,1,3.966,15.09a4.357,4.357,0,0,1,3.849-2.337.956.956,0,0,1,.277.043,5.174,5.174,0,0,0,1.6.27,5.154,5.154,0,0,0,1.6-.27.956.956,0,0,1,.277-.043,4.357,4.357,0,0,1,3.849,2.337A7.488,7.488,0,0,1,9.69,17.755Z" transform="translate(7455.036 1863.849)"/><path d="M9.69.563a9.69,9.69,0,1,0,9.69,9.69A9.689,9.689,0,0,0,9.69.563Zm0,3.751A3.439,3.439,0,1,1,6.252,7.752,3.439,3.439,0,0,1,9.69,4.314Zm0,13.442A7.488,7.488,0,0,1,3.966,15.09a4.357,4.357,0,0,1,3.849-2.337.956.956,0,0,1,.277.043,5.174,5.174,0,0,0,1.6.27,5.154,5.154,0,0,0,1.6-.27.956.956,0,0,1,.277-.043,4.357,4.357,0,0,1,3.849,2.337A7.488,7.488,0,0,1,9.69,17.755Z" transform="translate(7455.036 1938.848)"/><path d="M9.69.563a9.69,9.69,0,1,0,9.69,9.69A9.689,9.689,0,0,0,9.69.563Zm0,3.751A3.439,3.439,0,1,1,6.252,7.752,3.439,3.439,0,0,1,9.69,4.314Zm0,13.442A7.488,7.488,0,0,1,3.966,15.09a4.357,4.357,0,0,1,3.849-2.337.956.956,0,0,1,.277.043,5.174,5.174,0,0,0,1.6.27,5.154,5.154,0,0,0,1.6-.27.956.956,0,0,1,.277-.043,4.357,4.357,0,0,1,3.849,2.337A7.488,7.488,0,0,1,9.69,17.755Z" transform="translate(7455.036 1899.143)"/><path d="M9.69.563a9.69,9.69,0,1,0,9.69,9.69A9.689,9.689,0,0,0,9.69.563Zm0,3.751A3.439,3.439,0,1,1,6.252,7.752,3.439,3.439,0,0,1,9.69,4.314Zm0,13.442A7.488,7.488,0,0,1,3.966,15.09a4.357,4.357,0,0,1,3.849-2.337.956.956,0,0,1,.277.043,5.174,5.174,0,0,0,1.6.27,5.154,5.154,0,0,0,1.6-.27.956.956,0,0,1,.277-.043,4.357,4.357,0,0,1,3.849,2.337A7.488,7.488,0,0,1,9.69,17.755Z" transform="translate(7455.036 1974.141)"/><rect class="f" width="91" height="11" rx="2" transform="translate(7480 1864.463)"/><rect class="e" width="91" height="11" rx="2" transform="translate(7480 1939.463)"/><rect class="e" width="91" height="11" rx="2" transform="translate(7480 1899.463)"/><rect class="e" width="91" height="11" rx="2" transform="translate(7480 1974.463)"/><rect width="91" height="5" rx="2" transform="translate(7480 1878.463)"/><rect width="91" height="5" rx="2" transform="translate(7480 1953.463)"/><rect width="91" height="6" rx="2" transform="translate(7480 1913.463)"/><rect width="91" height="6" rx="2" transform="translate(7480 1988.463)"/></g></svg>