<svg xmlns="http://www.w3.org/2000/svg" width="602.741" height="673.746" viewBox="0 0 602.741 673.746"><defs><style>.a{fill:#f2f2f2;}.b{fill:#2a84b3;}.c{fill:#3f3d56;}.d{fill:#a0616a;}.e{fill:#2f2e41;}.f{fill:#2ab39e;}.g{fill:#b32a83;}.h{opacity:0.1;}.i{fill:#ffb8b8;}</style></defs><g transform="translate(0)"><path class="a" d="M766.8,80.924V596.548A22.93,22.93,0,0,1,744.134,619.7H539.387a22.376,22.376,0,0,1-16.033-6.769,23.4,23.4,0,0,1-6.632-16.387V80.924a22.921,22.921,0,0,1,22.667-23.172h30.638v4.017a18.876,18.876,0,0,0,18.66,19.083H692.821a18.241,18.241,0,0,0,11.064-3.723,17.435,17.435,0,0,0,1.836-1.575,19.233,19.233,0,0,0,5.758-13.785V57.752h32.655A22.916,22.916,0,0,1,766.8,80.924Z" transform="translate(-280.147 -32.901)"/><path class="b" d="M44.35,0C68.843,0,88.7,20.3,88.7,45.342S68.843,90.684,44.35,90.684,0,70.383,0,45.342,19.856,0,44.35,0Z" transform="translate(323.052 301.822)"/><path class="c" d="M752.834,643.8H515.859a27.6,27.6,0,0,1-15.078-4.439,26.017,26.017,0,0,1-11.933-21.727V52.7c0-14.438,12.117-26.184,27.01-26.184h55.693v5.2c0,11.09,9.338,20.113,20.817,20.113H670.88a21.062,21.062,0,0,0,12.359-3.935A20.154,20.154,0,0,0,691.7,31.708v-5.2h61.137c14.893,0,27.01,11.746,27.01,26.184V617.631a25.788,25.788,0,0,1-9.511,19.923A27.453,27.453,0,0,1,752.834,643.8ZM515.859,28.1c-14.035,0-25.454,11.032-25.454,24.593V617.631a24.423,24.423,0,0,0,11.214,20.386,26.069,26.069,0,0,0,14.24,4.189H752.834a25.913,25.913,0,0,0,16.521-5.888,24.193,24.193,0,0,0,8.933-18.687V52.7c0-13.56-11.419-24.593-25.454-24.593H693.253v3.606a21.755,21.755,0,0,1-9.128,17.486,22.579,22.579,0,0,1-13.245,4.218H592.368c-12.337,0-22.373-9.736-22.373-21.7V28.1Z" transform="translate(-273.961 -26.511)"/><path class="c" d="M732.786,519.568H595.943V368.936H732.786ZM597.7,517.774H731.032V370.73H597.7Z" transform="translate(-297.729 -96.547)"/><rect class="c" width="89.84" height="1.794" transform="translate(315.383 142.706)"/><rect class="c" width="89.84" height="1.794" transform="translate(315.383 167.122)"/><rect class="c" width="89.84" height="1.794" transform="translate(315.383 191.538)"/><path class="c" d="M274.751,785.2l-.835-.32c-.183-.071-18.447-7.224-27-23.445s-4.366-35.753-4.323-35.948l.2-.889.835.32c.184.071,18.446,7.224,27,23.445s4.366,35.753,4.323,35.948Zm-26.467-24.521c7.233,13.715,21.665,20.745,25.322,22.35.7-4.007,2.876-20.21-4.351-33.912s-21.664-20.741-25.322-22.35C243.237,730.773,241.057,746.975,248.284,760.676Z" transform="translate(-219.071 -169.289)"/><path class="b" d="M247.046,762.047c15.375,9.457,21.3,28.241,21.3,28.241s-19.006,3.451-34.381-6.006-21.3-28.241-21.3-28.241S231.671,752.59,247.046,762.047Z" transform="translate(-212.665 -175.596)"/><path class="d" d="M707.75,771.115l1.425,24.036,7.837,8.741L733.4,791.51l-10.687-24.765Z" transform="translate(-157.077 -156.822)"/><path class="e" d="M937.822,823.346s.317-4.855.871-14.081c0,0,24.064-4.856,22.639,11.9S947.8,843.741,947.8,843.741s-5.7-.728-4.987,5.1-20.66,18.209-30.634,6.555l6.133-36.783s6.691,4.734,8.828,2.549S937.822,823.346,937.822,823.346Z" transform="translate(-367.913 -186.473)"/><path class="d" d="M674.22,201.334l19.948,42.974L658.3,254.315l-6.882-39.142Z" transform="translate(-144.575 -41.179)"/><ellipse class="d" cx="27.785" cy="28.406" rx="27.785" ry="28.406" transform="translate(481.199 127.379)"/><path class="e" d="M874.151,223.41c-2.523-.154-4.986.718-7.492,1.058-8.964,1.217-18.289-5.433-20.268-14.454a11.271,11.271,0,0,0-1.037-3.453c-1.38-2.3-4.521-2.742-7.112-2.212s-5.045,1.769-7.683,1.91c-4.073.218-7.982-2.345-10.153-5.875a20.29,20.29,0,0,1-2.492-12.032l1.952,2.095a10.339,10.339,0,0,0,.884-5.51,6.158,6.158,0,0,1,5.924,1.55c1.721.187.422-3.265,1.7-4.458a2.9,2.9,0,0,1,2.082-.4c3.662.036,6.625-2.828,9.511-5.133a40.01,40.01,0,0,1,17.07-7.96c4.135-.825,8.533-.957,12.455.617a26.62,26.62,0,0,1,8.411,6.1c6.14,6.036,11.578,13.129,14.132,21.437a36.861,36.861,0,0,1,.169,20.926c-1.029,3.552-4.131,15.716-8.673,16C877.828,233.972,881.254,223.843,874.151,223.41Z" transform="translate(-346.978 -55.437)"/><path class="d" d="M625.335,771.115l-1.425,24.036-7.837,8.741L599.688,791.51l10.687-24.765Z" transform="translate(-133.093 -156.822)"/><path class="f" d="M849.587,271.244s3.562-26.95,37.759-18.209S925.1,269.787,925.1,269.787s.712,7.284,2.85,8.012,7.837,4.37,4.987,6.555,12.824,24.036,12.824,24.036,9.262,5.827,3.562,33.5-12.111,67.738-12.111,67.738,2.137,13.111-.712,20.394,2.85,12.382,2.85,15.3-1.425,17.481-1.425,17.481-96.89-3.642-110.426,0S849.587,271.244,849.587,271.244Z" transform="translate(-348.44 -72.485)"/><path class="g" d="M932.037,508.491s5.7,13.839,0,36.419-7.124,79.392-7.124,79.392,0,109.984-4.987,115.811-3.562,15.3-3.562,15.3H894.991s.712-11.654-2.137-18.209-2.137-77.207-2.137-77.207L878.6,560.933l-24.223,93.96s-9.261,69.923-12.824,72.837,0,14.567,0,14.567a34.419,34.419,0,0,1-21.373-3.642V727s-10.686-4.37-7.124-20.394,2.137-190.1,12.824-198.116S932.037,508.491,932.037,508.491Z" transform="translate(-345.754 -124.362)"/><path class="e" d="M813.871,823.346s-.317-4.855-.871-14.081c0,0-24.064-4.856-22.639,11.9S803.9,843.741,803.9,843.741s5.7-.728,4.987,5.1,20.661,18.209,30.635,6.555l-6.133-36.783s-6.691,4.734-8.828,2.549S813.871,823.346,813.871,823.346Z" transform="translate(-340.864 -186.473)"/><path class="d" d="M803.978,512.611l-2.137,10.2s-25.647,41.517-4.275,45.887,19.948-40.06,19.948-40.06l2.137-9.469Z" transform="translate(-340.589 -125.933)"/><path class="f" d="M832.813,283.142s14.961-10.2,22.085,2.185,14.249,40.789,14.249,40.789l-9.262,69.2-34.2,80.121-20.66-8.012s3.562-10.2,2.137-14.567,5.7-15.3,5.7-15.3l7.124-56.813S822.839,283.871,832.813,283.142Z" transform="translate(-344.133 -78.192)"/><path class="h" d="M652.656,396.366l-23.51,86.676-10.687-4.37Z" transform="translate(-137.26 -81.068)"/><path class="h" d="M926.056,302.646a68.428,68.428,0,0,0,17.2-2.118l-.349-1.412c-13.306,3.442-28.352,2.6-44.719-2.52-14.562-4.552-28.319-11.842-41.623-18.891L855.906,279c13.36,7.08,27.175,14.4,41.862,18.992A95.057,95.057,0,0,0,926.056,302.646Z" transform="translate(-355.425 -77.887)"/><rect class="b" width="135.383" height="148.753" transform="translate(207.899 398.869)"/><path class="e" d="M420.133,220.63c-9.122-22-32.342-26.16-32.342-26.16s-22.357-6.1-41.029,22.943c-17.4,27.069-39.846,52.43-11.384,63.234L342.9,264.5l.9,18.577a113.532,113.532,0,0,0,12.53,1.944c31.569,3.279,61.328,8.731,61.879-2.934C418.94,266.586,428.91,241.8,420.133,220.63Z" transform="translate(-236.886 -60.755)"/><path class="i" d="M320.731,449.015,318.7,501.975s-21.33,42.575-4.063,41.537,15.235-41.537,15.235-41.537l6.094-49.844Z" transform="translate(-233.799 -112.926)"/><path class="i" d="M469.012,437.267l6.094,52.959s18.283,28.037,4.063,37.383-14.22-33.229-14.22-33.229l-15.235-54Z" transform="translate(-265.275 -110.523)"/><path class="i" d="M430.589,558.611,412.306,631.3s-8.126,29.076-19.3,43.614l-4.063,8.307-16.251-2.077,11.173-46.729,7.11-86.189Z" transform="translate(-248.182 -133.217)"/><path class="h" d="M430.589,558.611,412.306,631.3s-8.126,29.076-19.3,43.614l-4.063,8.307-16.251-2.077,11.173-46.729,7.11-86.189Z" transform="translate(-248.182 -133.217)"/><path class="e" d="M358.242,700.746l27.777,6.575-11.448,27.591s4.653,16.517.221,25.265S371,784.8,371,784.8l-6.02-.969s-14.616,28.132-31.886,20.095,1.1-27.155,1.1-27.155,14.932-30.183,16.828-42.493S358.242,700.746,358.242,700.746Z" transform="translate(-237.75 -164.412)"/><path class="h" d="M358.242,700.746l27.777,6.575-11.448,27.591s4.653,16.517.221,25.265S371,784.8,371,784.8l-6.02-.969s-14.616,28.132-31.886,20.095,1.1-27.155,1.1-27.155,14.932-30.183,16.828-42.493S358.242,700.746,358.242,700.746Z" transform="translate(-237.75 -164.412)"/><path class="i" d="M337.448,541.7l15.235,77.881S347.6,658,353.7,681.886l6.094,22.845h20.314V620.62s1.016-68.536-2.031-73.728S337.448,541.7,337.448,541.7Z" transform="translate(-240.359 -131.882)"/><path class="e" d="M389.385,736.207l-28.439,2.077,7.11,29.076s-7.11,15.576-4.063,24.922,0,24.922,0,24.922h6.094s10.157,30.114,28.439,24.922,3.047-27,3.047-27-10.157-32.191-10.157-44.652S389.385,736.207,389.385,736.207Z" transform="translate(-245.574 -171.665)"/><ellipse class="i" cx="27.424" cy="28.037" rx="27.424" ry="28.037" transform="translate(123.497 149.174)"/><path class="i" d="M381.135,262.994s2.031,35.306-4.063,37.383,31.487,0,31.487,0-5.078-21.807,0-28.037S381.135,262.994,381.135,262.994Z" transform="translate(-249.005 -74.879)"/><path class="g" d="M403.9,302.572s-26.408-2.077-31.487,0-19.3,12.461-19.3,12.461l7.11,65.42,57.895,12.461,9.141-13.5,9.141-19.73-4.063-24.922-1.016-14.538Z" transform="translate(-243.836 -82.785)"/><path class="g" d="M341.081,323.7s-13.2,3.115-14.22,13.5-1.016,36.345,0,40.5,0,6.231-1.016,7.269-3.047-1.038-1.016,2.077,2.031,3.115,1.016,6.23-4.063-1.038-2.031,4.154,3.047,6.231,2.031,7.269-4.063,24.922-4.063,24.922l17.267,3.115,17.267-61.267Z" transform="translate(-236.883 -87.294)"/><path class="g" d="M446.38,323.7a10.822,10.822,0,0,1,9.141,6.23c3.047,6.231,11.173,46.729,10.157,49.844s-3.047-1.038-1.016,5.192,0,5.192,1.016,9.346-4.063,0,0,4.154,6.094,5.192,4.063,7.269-5.078-2.077-2.031,2.077,3.047,10.384,3.047,10.384l-24.377,5.192-7.11-58.151Z" transform="translate(-262.957 -87.294)"/><path class="f" d="M336.453,320.846l4.99-2.551a4.186,4.186,0,0,1,3.279-.231,4.3,4.3,0,0,1,2.468,2.218l22.914,47.9L395.5,384.8l18.282-8.307s13.2-20.768,9.141-31.153c-2.755-7.041-5.982-17.873-7.774-24.119a1.888,1.888,0,0,1,.673-2.027,1.792,1.792,0,0,1,2.094-.045l3.462,2.36a5.183,5.183,0,0,1,2.15,3.26l7.521,37.187-10.157,21.807v20.768L428,516.681s-26.408-4.154-52.816-9.346-59.926-9.346-59.926-9.346,17.267-91.381,31.487-106.957c0,0,0-11.423,2.031-12.461s4.063-8.307,4.063-8.307l-18.4-43.789a4.41,4.41,0,0,1,2.014-5.629Z" transform="translate(-235.434 -86.095)"/><path class="e" d="M211.187,187.728l-23.27-12.462-32.136,5.1-6.649,30.022,16.55-.651,4.624-11.03v10.849l7.637-.3,4.433-17.56,2.77,18.693,27.15-.566Z" transform="translate(-33.098 -35.847)"/><ellipse class="i" cx="3.047" cy="5.452" rx="3.047" ry="5.452" transform="translate(119.942 171.76)"/><path class="e" d="M487.329,431.059H465.19V408.425h-.851v22.634H442.2v.871h22.138v22.633h.851V431.93h22.138Z" transform="translate(-98.141 -83.535)"/><rect class="a" width="89.84" height="1.794" transform="translate(230.574 443.394)"/><rect class="a" width="89.84" height="1.794" transform="translate(230.574 467.81)"/><rect class="a" width="89.84" height="1.794" transform="translate(230.574 492.226)"/></g></svg>