<svg xmlns="http://www.w3.org/2000/svg" width="89.756" height="21.525" viewBox="0 0 89.756 21.525"><defs><style>.a{fill:#231f20;}.b{fill:#fff;}</style></defs><g transform="translate(-126.371 -491.354)"><path class="a" d="M148.681,525.683l-4.9-4.611a1.579,1.579,0,0,0-.532-.37,1.393,1.393,0,0,0-.461-.081,1.5,1.5,0,0,0-.508.088,1.135,1.135,0,0,0-.431.276,1.375,1.375,0,0,0-.3.489,2.015,2.015,0,0,0-.114.714v6.954h2.249v-4.924l4.9,4.61a1.472,1.472,0,0,0,.52.37,1.424,1.424,0,0,0,.472.082,1.549,1.549,0,0,0,.514-.088,1.1,1.1,0,0,0,.437-.282,1.453,1.453,0,0,0,.3-.5,2.021,2.021,0,0,0,.114-.714v-6.941h-2.261Zm-14.574-1.955h-5.248v-2.969h-2.488v8.382h2.488v-3.232h5.248v3.232h2.464v-8.382h-2.464Zm3.437,5.413h2.476v-8.382h-2.476Zm23.583-7.236a4.609,4.609,0,0,0-1.525-.846,5.992,5.992,0,0,0-1.938-.3h-3.78l-1.579,2.18h5.359a2.715,2.715,0,0,1,.933.156,2.511,2.511,0,0,1,.754.426,1.9,1.9,0,0,1,.5.645,1.951,1.951,0,0,1,0,1.635,1.911,1.911,0,0,1-.49.632,2.214,2.214,0,0,1-.748.407,3.019,3.019,0,0,1-.951.144h-2.871v-3.069h-2.488v5.225h5.359a5.536,5.536,0,0,0,1.926-.326,4.713,4.713,0,0,0,1.526-.9,4.127,4.127,0,0,0,1-1.353,3.972,3.972,0,0,0,.365-1.7,3.819,3.819,0,0,0-1.358-2.963Zm5.513,1.159a1.281,1.281,0,0,1,.64-.125h8.456l-1.953-2.18h-6.312a5.684,5.684,0,0,0-1.561.188,2.948,2.948,0,0,0-1.065.526,2.056,2.056,0,0,0-.61.821,2.8,2.8,0,0,0-.2,1.071,2.6,2.6,0,0,0,.18.983,1.914,1.914,0,0,0,.55.758,2.656,2.656,0,0,0,.933.489,4.526,4.526,0,0,0,1.34.175H171.4a1.176,1.176,0,0,1,.646.138.519.519,0,0,1,.2.464.535.535,0,0,1-.2.47,1.134,1.134,0,0,1-.646.144h-6.053l-1.591,2.155H171.2a5.7,5.7,0,0,0,1.561-.188,2.894,2.894,0,0,0,1.071-.539,2.037,2.037,0,0,0,.61-.864,3.281,3.281,0,0,0,.192-1.153,2.011,2.011,0,0,0-.766-1.723,3.709,3.709,0,0,0-2.237-.57H167.28a1.227,1.227,0,0,1-.64-.132.5.5,0,0,1-.209-.457A.482.482,0,0,1,166.64,523.064Zm14.36-.19c-.04-.058-4.187-4.192-4.187-4.192h-3.182l6.276,6.5Zm24.094-2.115v1.884h4.094v6.5h2.476v-6.5h2.859l1.6-1.884Zm-4.953,0h-9.43a6.075,6.075,0,0,0-1.926.294,4.523,4.523,0,0,0-1.525.84,3.938,3.938,0,0,0-1.005,1.3,3.809,3.809,0,0,0-.365,1.672,3.971,3.971,0,0,0,.365,1.7,4.125,4.125,0,0,0,1.005,1.353,4.707,4.707,0,0,0,1.525.9,5.535,5.535,0,0,0,1.926.326h5.977V523.9h-5.12l-1.483,1.867h4.139v1.215h-3.512a2.96,2.96,0,0,1-.945-.144,2.289,2.289,0,0,1-.748-.407,1.814,1.814,0,0,1-.49-.632,1.909,1.909,0,0,1-.174-.821,1.855,1.855,0,0,1,.18-.82,2.016,2.016,0,0,1,.5-.645,2.266,2.266,0,0,1,.748-.426,2.812,2.812,0,0,1,.933-.15h7.081v6.2h2.349v-3.358h5.464v3.333h2.349v-5.3h-7.813Z" transform="translate(0 -20.195)"/><path class="b" d="M357.131,492.013s-23.341-6.429-28.731,20.866h2.176S334.631,489.194,357.131,492.013Z" transform="translate(-149.301 0)"/></g></svg>