<svg xmlns="http://www.w3.org/2000/svg" xmlns:xlink="http://www.w3.org/1999/xlink" width="635.023" height="463.915" viewBox="0 0 635.023 463.915"><defs><style>.a,.k{fill:#6c63ff;}.a,.b,.e,.h,.m{opacity:0.1;}.b{fill:#916cc6;}.c{fill:url(#a);}.d{fill:#efb7b9;}.f{fill:#dce6f2;}.g{fill:#965d7b;}.i{fill:#444053;}.j{fill:#a36468;}.l{opacity:0.05;}.m{fill:#fff;}.n{fill:#a8a8a8;}.o{opacity:0.2;}</style><linearGradient id="a" y1="0.5" x2="1" y2="0.5" gradientUnits="objectBoundingBox"><stop offset="0" stop-color="gray" stop-opacity="0.251"/><stop offset="0.54" stop-color="gray" stop-opacity="0.122"/><stop offset="1" stop-color="gray" stop-opacity="0.102"/></linearGradient></defs><g transform="translate(0.004 -0.003)"><ellipse class="a" cx="110.77" cy="19.592" rx="110.77" ry="19.592" transform="translate(111.983 415.749)"/><path class="b" d="M464.18,120.455c-40.71-1.316-79.483-13.59-116.507-27.015s-73.7-28.3-113.431-35.408c-25.557-4.575-54.788-5.227-75.375,7.553-19.82,12.333-26.224,33.564-29.665,53.279-2.592,14.835-4.114,30.451,2.982,44.34,4.932,9.643,13.675,17.748,19.726,26.986,21.053,32.136,6.171,71.767-16.638,103.145-10.693,14.717-23.116,28.777-31.375,44.428s-12.077,33.646-4.85,49.655c7.158,15.857,24.224,27.743,42.71,36.112,37.546,17,81.773,21.865,124.93,24.625,95.5,6.1,191.511,3.459,287.267.81,35.439-.975,71.029-1.967,105.889-7.083,19.361-2.842,39.345-7.353,53.4-18.241,17.839-13.819,22.261-37.216,10.3-54.542-20.053-29.071-75.482-36.289-89.516-67.479-7.712-17.172.208-36.294,11.423-52.216,24.054-34.163,64.368-64.132,66.487-103.175,1.459-26.816-17.921-53.672-47.887-66.364C632.65,66.566,589.09,68.24,565.93,90.257,542.059,112.9,500.128,121.624,464.18,120.455Z" transform="translate(-95.23 -55.03)"/><path class="c" d="M514.507,307.143,495.24,295.016h0l9.718-13.508-50.888-3.788-18.286,13.2L412.9,278.942,393.8,281.085l-.226-4.7A124.093,124.093,0,0,0,392,261.764c.082-1.468.138-3.154.132-4.986,0-7.723-1.12-17.959-6.039-24.784l1.132-9.5-9.184-10.131a64.04,64.04,0,0,1,5.032-7.9c.314-.423.629-.834.969-1.233,11.92-.8,21.324-9.955,21.324-21.142a12.638,12.638,0,0,0-.063-1.545,5.237,5.237,0,0,0-.069-.623c1.164.587,2.34,1.175,3.516,1.762.22.294.472.587.749.934h0l.057.065.352.405.113.123c.126.141.258.276.39.417l.088.094c.333.346.686.7,1.063,1.045a1.1,1.1,0,0,1,.126.112l.472.411.132.112c.4.335.83.658,1.258.963l.138.094.541.346.176.106c.208.117.421.241.629.352l.075.041c.245.123.5.241.749.352l.126.047q.321.129.629.247l.195.065c.22.07.434.135.66.194l.138.035c.277.065.554.117.837.159h.031a7.316,7.316,0,0,0,.805.076h.182q.361.018.723,0h.157a7.962,7.962,0,0,0,.9-.1,10.387,10.387,0,0,0,3.963-1.327,3.379,3.379,0,0,0,.805-.7,2.627,2.627,0,0,0-.126-3.224h0c-.491-1.092-3.673-1.862-3.673-1.862s-10.064-3.923-10.064-7.047-2.516-19.334-28.488-23.039c0,0-16.9-.887-21.645,7.558l-.1.987c-1.4.816-2.554,2.455-3.931,2.936a6.717,6.717,0,0,0-1.7.587v-.112h0a1.533,1.533,0,0,0-.384.464,4.461,4.461,0,0,0-.522,1.762,6.358,6.358,0,0,1-.824,2.132,4.726,4.726,0,0,1-.377.54h0l-.107.159a4.885,4.885,0,0,0,2.139-.323,9.409,9.409,0,0,1-.629,2.349,2.113,2.113,0,0,0,1.937-1.081v-.047l.082-.106a4.786,4.786,0,0,0,.39-.852l-.069.07c.126-.382.239-.769.377-1.145a1.751,1.751,0,0,1,.308-.587,1.59,1.59,0,0,1,1.3-.405l-.258,5.092h.113a6.764,6.764,0,0,1-.554,1.069c-.893,1.351-2.516,2.273-3.114,3.753a5.178,5.178,0,0,0-.289,2.22c0,.44.057.887.094,1.327v-.035a4.67,4.67,0,0,1-.566,3.236c-.465.646-1.214,1.133-1.472,1.868a1.708,1.708,0,0,0-.094.634,6.718,6.718,0,0,0,.428,1.885.077.077,0,0,0,0-.035,2.684,2.684,0,0,1,.107,1.386c-.283,1.175-1.812,2.155-1.736,3.277a1.186,1.186,0,0,0,.069.435,2.5,2.5,0,0,0,1.422,1.175,5.861,5.861,0,0,0,3.2.658,4.408,4.408,0,0,0,1.2-.382c-.44.946-.893,1.879-1.352,2.766-.069.141-.145.282-.22.423,0,0-3.887-2.426-6.1,2.519a10.543,10.543,0,0,0-1.365,3.312,7.512,7.512,0,0,1-.465,1.363,9.2,9.2,0,0,1-4.2,3.524c-4.5,1.926-22.7,23.11-23.016,28.6a30.074,30.074,0,0,1-1.157,6.331,35.261,35.261,0,0,0-1.082,14.97A27.016,27.016,0,0,0,320.6,262.2c1.931,5.479,3.221,15.7,3.221,15.7l2.088,17.748a47.181,47.181,0,0,0,.34,7.335c-2.132,2.273-10.693,11.746-7.422,14.324,2.516,2.032,6.919,1.7,9.391,1.28-2.082,4.81-5.359,13.173-5.793,18.917-.629,8.5,1.076,19.756,3.774,24.079S337.891,377,337.891,377s-.421,15.211,2.793,20.737,4.51,16.99,4.51,16.99,3,9.679,1.5,13.237,2.787,6.519-1.717,8.886-10.266,55.71-10.266,55.71-2.321,34.961,0,36.741a2.406,2.406,0,0,0,.4.217V541.26s-1.61,2.467,4.938,2.966c4.485.335,17.2,1.092,24.739,1.533l5.844.341s13.838,2.572,19.952,0,16.952-2.514,15.342-9.309a18.369,18.369,0,0,0-.855-2.719c-1.768-4.217-4.768-4.7-10.3-5.873-.321-.065-.629-.123-.912-.17-5.825-.945-7.737,1.586-11-1.709-2.837-2.848-11.87-6.037-14.945-7.047.075-.211.17-.417.245-.634a4.742,4.742,0,0,1-2.334-1.063l8.335.493,4.963.288s11.763,2.191,16.984,0,14.4-2.132,13.033-7.9a15.737,15.737,0,0,0-.723-2.314c-1.5-3.582-4.057-3.976-8.756-4.968-.27-.053-.522-.106-.774-.147-4.95-.8-6.573,1.345-9.347-1.451-2.378-2.384-9.882-5.057-12.58-5.967,0-1.3-1.887-3.16-3.076-5.021-1.4-2.173,1.183-9.778,1.183-9.778l1.472-31.555a6.887,6.887,0,0,1,1.761-.47s6.655-5.932,5.152-12.251a37.967,37.967,0,0,1-.478-5.773c2.189-1.9,5.2-4.7,6.057-6.425,1.4-2.813,0-16.444,0-16.444V355.765l11.134,1.051,10.1.969,3.076.294,10.1.951,23.217,2.191,20.921-3.7,9.052-1.6,18.613-3.289v-42.52Zm-153.235-140.9-1.3-.129C360.4,166.135,360.857,166.212,361.272,166.247Z" transform="translate(-177.908 -94.696)"/><path class="d" d="M529.787,448.827c-6.29,8.4-28.9,3.952-28.9,3.952l-17.524-15.311L481,435.4l3.957-7.846s1.258.323,3.416.9C499.7,431.52,535.1,441.762,529.787,448.827Z" transform="translate(-238.345 -208.772)"/><path class="e" d="M488.359,428.449a33.676,33.676,0,0,1-5,9.021L481,435.4l3.957-7.846S486.227,427.873,488.359,428.449Z" transform="translate(-238.345 -208.772)"/><path class="f" d="M388.074,278.247s-16.153,6.689-15.361,23.116a253.549,253.549,0,0,0,3.7,31.573s-3.3,24.719,10.448,31.091,26.475,11.611,26.475,11.611,21.512,2.161,24.186,3.054,11.027-12.756,9.486-14.882-21.286-6.584-23.8-10.131-8.335-5.738-8.335-5.738-6.007-3.395-6.416-6.46,1.176-5.35,1.579-6.7,1.422-14.33,1.422-14.33S418.235,274.235,388.074,278.247Z" transform="translate(-198.162 -147.051)"/><path class="e" d="M402.209,370.39s-22.16,3.465-20.015,10.706A47.631,47.631,0,0,1,402.209,370.39Z" transform="translate(-201.635 -185.181)"/><path class="e" d="M408.408,375.38s-12.184,9.285-9.8,9.761S408.408,375.38,408.408,375.38Z" transform="translate(-207.664 -187.241)"/><path class="e" d="M422.553,380.89s-3.265,6.243-1.258,5.82S422.553,380.89,422.553,380.89Z" transform="translate(-215.954 -189.515)"/><path class="e" d="M449.473,367.853l-1.346-.358c.384-1.175.491-2.126.176-2.566-1.541-2.126-21.273-6.578-23.783-10.131s-8.335-5.738-8.335-5.738-6.007-3.395-6.416-6.46,1.176-5.35,1.579-6.7,1.422-14.336,1.422-14.336,6.762-46.214-23.4-42.2c0,0-16.153,6.7-15.367,23.122a252.848,252.848,0,0,0,3.7,31.573s-3.3,24.719,10.448,31.091,26.475,11.611,26.475,11.611,21.506,2.155,24.186,3.054c1.013.341,2.843-1.415,4.636-3.829l1.019.887L462,392.179s22.613,4.458,28.9-3.947C496.216,381.161,460.827,370.919,449.473,367.853Z" transform="translate(-198.641 -147.513)"/><path class="g" d="M380.137,171.066a5.58,5.58,0,0,0-1.742.628c-.629.487-.629,1.321-.786,2.05a6.512,6.512,0,0,1-1.258,2.807,4.811,4.811,0,0,0,2.095-.323,9.525,9.525,0,0,1-.629,2.349A2.059,2.059,0,0,0,379.7,177.5a10.825,10.825,0,0,0,.786-2.061,1.652,1.652,0,0,1,.3-.587c.579-.64,1.654-.352,2.547-.27a4.294,4.294,0,0,0,3.824-1.715c.95-1.345,1.006-4.786-1.258-5.151C383.54,167.355,382.068,170.4,380.137,171.066Z" transform="translate(-199.522 -101.524)"/><g class="h" transform="translate(176.923 70.018)"><path d="M378.914,175.125c.057-.288.094-.587.164-.875h0c-.6.487-.629,1.316-.786,2.05a6.131,6.131,0,0,1-.371,1.239A6.469,6.469,0,0,0,378.914,175.125Z" transform="translate(-377.027 -174.25)"/><path d="M378.588,182.349a9.242,9.242,0,0,0,.629-2.349,4.789,4.789,0,0,1-1.994.323,6.7,6.7,0,0,1-.723,1.175,4.765,4.765,0,0,0,2.088-.317,9.242,9.242,0,0,1-.629,2.349,2.065,2.065,0,0,0,1.887-1.075,4.229,4.229,0,0,0,.377-.84,1.938,1.938,0,0,1-1.635.734Z" transform="translate(-376.5 -176.623)"/><path d="M386.827,176.189c-.893-.082-1.975-.37-2.554.27a1.766,1.766,0,0,0-.3.587c-.057.153-.107.311-.151.47.6-.44,1.566-.206,2.378-.129a4.313,4.313,0,0,0,3.824-1.715,3.143,3.143,0,0,0,.421-.922,4.331,4.331,0,0,1-3.617,1.439Z" transform="translate(-379.216 -174.456)"/></g><path class="f" d="M315.322,201l9.593,10.771-1.252,10.871L312.07,205.7Z" transform="translate(-115.773 -82.954)"/><path class="e" d="M324.908,211.771,323.732,222l-.075.646L313.2,207.349l-1.126-1.65.327-.476L315.316,201l.648.728Z" transform="translate(-115.773 -82.954)"/><path class="d" d="M412.195,220.077c-3.246.869-6.347,3.853-9.045,7.476a62.936,62.936,0,0,0-4.881,7.834c-.887,1.656-1.667,3.248-2.315,4.634l-.453.987c-1.094,2.414-1.7,4.029-1.7,4.029s-24.846-17.442-20.915-18.617c1.321-.393,3.057-3.036,4.774-6.366l.214-.423c1.088-2.138,2.158-4.522,3.107-6.766,1.944-4.61,3.384-8.616,3.384-8.616S422.1,217.435,412.195,220.077Z" transform="translate(-198.078 -116.613)"/><path class="i" d="M459.26,202.58s5.737,9.69,13.442,8.369,4.535-5.2,4.535-5.2Z" transform="translate(-230.28 -115.924)"/><path class="j" d="M414.338,757.659c-5.082,2.167-16.575,0-16.575,0l-4.843-.282c-6.29-.376-16.82-1.01-20.544-1.292-5.435-.417-4.1-2.5-4.1-2.5V741.027l26.368-6.237s10.423,3.33,13.279,6.237c2.711,2.772,4.3.64,9.133,1.439.239.041.491.088.755.147,4.592.981,7.083,1.368,8.555,4.922a15.684,15.684,0,0,1,.711,2.29C428.434,755.545,419.414,755.5,414.338,757.659Z" transform="translate(-196.472 -335.573)"/><path class="e" d="M426.365,752.928a20.268,20.268,0,0,1-2.969,1.421c-3.46,1.474-6.749,3.271-10.247,4.663a25.426,25.426,0,0,1-11.052,2.12c-1.981-.135-4.007-.587-5.9-.059a13.932,13.932,0,0,0-3.277,1.7c-6.29-.376-16.82-1.01-20.544-1.292-5.435-.417-4.1-2.5-4.1-2.5v-1.468c.195,0,.415-.053.667-.07a12.653,12.653,0,0,1,3.837.534c2.73.693,5.447,1.374,8.177,2.056a6.117,6.117,0,0,1,3.145-3.747,10.614,10.614,0,0,1,5.07-1.086c4.233.053,8.24,1.926,12.467,2.114a7.3,7.3,0,0,0,3.453-.54c.579-.27,1.088-.664,1.654-.963a12.672,12.672,0,0,1,2.849-.9,66,66,0,0,0,8.146-2.455c.755-.276,1.635-.775,1.535-1.527-.132-1-1.812-1.116-2.252-2.032a1.106,1.106,0,0,1,.05-1.04c.239.041.491.088.755.147C422.4,748.988,424.893,749.375,426.365,752.928Z" transform="translate(-196.472 -340.967)"/><path class="j" d="M400.989,801.615c-5.976,2.549-19.5,0-19.5,0L375.8,801.3c-7.372-.44-19.789-1.175-24.173-1.521-6.4-.493-4.825-2.936-4.825-2.936V782.041l31.029-7.341s12.266,3.917,15.625,7.341c3.189,3.259,5.032.752,10.75,1.691.283.047.579.106.887.17,5.4,1.175,8.335,1.615,10.064,5.8a17.908,17.908,0,0,1,.837,2.7C417.551,799.125,406.965,799.073,400.989,801.615Z" transform="translate(-188.495 -352.045)"/><path class="e" d="M415.142,796.068a24.079,24.079,0,0,1-3.491,1.674c-4.07,1.733-7.945,3.847-12.058,5.485a29.99,29.99,0,0,1-13.008,2.5c-2.327-.159-4.711-.7-6.919-.07a16.391,16.391,0,0,0-3.868,2.02c-7.372-.44-19.789-1.175-24.173-1.521-6.4-.493-4.825-2.936-4.825-2.936v-1.727q.391-.06.786-.082a14.706,14.706,0,0,1,4.516.628l9.618,2.42a7.212,7.212,0,0,1,3.73-4.411,12.426,12.426,0,0,1,5.969-1.28c4.982.065,9.693,2.267,14.669,2.49a8.636,8.636,0,0,0,4.051-.628c.686-.323,1.258-.787,1.95-1.133a14.358,14.358,0,0,1,3.353-1.057,79.168,79.168,0,0,0,9.536-2.89c.887-.329,1.925-.916,1.805-1.8-.157-1.175-2.132-1.315-2.654-2.4a1.331,1.331,0,0,1,.063-1.222c.283.047.579.106.887.17C410.481,791.428,413.412,791.886,415.142,796.068Z" transform="translate(-188.495 -358.413)"/><path class="i" d="M399.393,647.54l-1.68,36.9s-2.516,7.535-1.151,9.69,3.667,4.3,2.831,5.579-10.9,15.052-14.153,9.767-6.46-28.19-6.46-28.19l3-28.29Z" transform="translate(-200.423 -299.564)"/><path class="i" d="M417.565,491l4.667,5.826V547.5s1.365,13.508,0,16.3-8.284,8.369-8.284,8.369l-5.818-27.9,1.258-29.511Z" transform="translate(-211.311 -234.958)"/><path class="e" d="M399.393,647.54l-1.68,36.9s-2.516,7.535-1.151,9.69,3.667,4.3,2.831,5.579-10.9,15.052-14.153,9.767-6.46-28.19-6.46-28.19l3-28.29Z" transform="translate(-200.423 -299.564)"/><path class="e" d="M417.565,491l4.667,5.826V547.5s1.365,13.508,0,16.3-8.284,8.369-8.284,8.369l-5.818-27.9,1.258-29.511Z" transform="translate(-211.311 -234.958)"/><path class="i" d="M392.135,444.295V471.7L386.9,493.04s-1.679,51.488-.214,57.748-5.032,12.139-5.032,12.139-3.774.393-3.774,3.13-6.29,10.571-6.29,10.571l.208,15.269s2.73,28.583-1.466,34.063,1.466,6.266,1.466,6.266c-5.24,16.051-30.4,12.333-32.671,10.571s0-36.412,0-36.412,5.623-52.856,10.027-55.205.214-5.286,1.679-8.809-1.466-13.114-1.466-13.114-1.258-11.358-4.4-16.838-2.73-20.555-2.73-20.555S333.422,480.9,330.806,476.6s-4.3-15.463-3.673-23.885c.428-5.691,3.629-13.977,5.661-18.746.975-2.285,1.68-3.765,1.68-3.765l.6.147,34.357,8.4Z" transform="translate(-181.214 -209.866)"/><path class="e" d="M417.214,220.049c-3.246.869-6.347,3.853-9.045,7.476h-.7a22.8,22.8,0,0,1-19.5-10.53,19.989,19.989,0,0,1-1.975-4.2c1.944-4.61,3.384-8.616,3.384-8.616S427.122,217.406,417.214,220.049Z" transform="translate(-203.098 -116.585)"/><path class="d" d="M429.355,191.434c.015,8.806-5.857,16.685-14.706,19.733a23.543,23.543,0,0,1-24.907-6.092,19.9,19.9,0,0,1-2.455-23.93,20.544,20.544,0,0,1,2.378-3.207,22.358,22.358,0,0,1,5.171-4.24A23.873,23.873,0,0,1,417,172.662,21.015,21.015,0,0,1,429.323,189.9C429.336,190.413,429.355,190.923,429.355,191.434Z" transform="translate(-202.5 -102.653)"/><path class="e" d="M406.037,266.464l-.075.646L395.5,251.841c-1.094,2.414-1.7,4.029-1.7,4.029S368.95,238.4,372.881,237.229c1.321-.393,3.057-3.036,4.774-6.366l.214-.423c1.824,5.074,12.423,15.217,16.833,19.281.509.47.931.857,1.258,1.139l.673.587.352.329C398.589,253.321,405.358,260.133,406.037,266.464Z" transform="translate(-198.078 -127.422)"/><path class="f" d="M394.575,318.155l-1.145,34.4-.2,6.125s-13.562-1.175-26.218-2.467c-10.19-1.039-19.8-2.161-21.273-2.819-1.887-.828-5.932-1.468-9.121-1.873-2.466-.311-4.4-.476-4.4-.476s-.723.2-1.837.388c-2.428.411-6.693.746-9.177-1.269-3.177-2.578,5.171-11.945,7.253-14.195l.459-.487-.786-6.783-2.044-17.589s-1.258-10.131-3.145-15.563a27.068,27.068,0,0,1-1.088-4.728,35.44,35.44,0,0,1,1.057-14.835,30.4,30.4,0,0,0,1.132-6.278c.315-5.432,18.084-26.428,22.487-28.337a9.052,9.052,0,0,0,4.5-4.193,7.664,7.664,0,0,0,.686-1.826c1.887-7.635,6.661-4.6,6.661-4.6,1.151,5.973,18.971,21.783,18.971,21.783l.352.329c1.768,1.691,9.643,9.632,9.083,16.409a18.685,18.685,0,0,0,1.189,7.423,118.054,118.054,0,0,1,6.2,32.888Z" transform="translate(-178.797 -127.302)"/><path class="e" d="M393.258,310.45s-4.4,9.984-7.706,11.6S394.831,325.455,393.258,310.45Z" transform="translate(-202.73 -160.443)"/><path class="e" d="M397.444,342.2s-10.064,1.175-10.064,2.936S397.444,342.2,397.444,342.2Z" transform="translate(-203.614 -173.547)"/><path class="e" d="M408.8,361.7s-14.625,29.071-18.713,29.952S408.8,361.7,408.8,361.7Z" transform="translate(-204.437 -181.595)"/><path class="e" d="M394.7,254.8l-12.1,4.91L368,239.124a7.664,7.664,0,0,0,.686-1.826c1.887-7.635,6.661-4.6,6.661-4.6,1.151,5.973,18.971,21.783,18.971,21.783Z" transform="translate(-196.424 -128.107)"/><path class="f" d="M395.7,252.8l-12.1,4.91L369,237.124a7.664,7.664,0,0,0,.686-1.826c1.887-7.635,6.661-4.6,6.661-4.6,1.151,5.973,18.971,21.783,18.971,21.783Z" transform="translate(-196.795 -127.282)"/><path class="e" d="M397.083,384.135s-13.562-1.175-26.218-2.467l22.708,5.55v6.46c-.994.84-1.856,1.274-2.415,1.051-2.617-1.028-23.972-4.258-23.972-4.258s-12.4-5.873-25.79-12.92a10.467,10.467,0,0,1-.944-.552,14.415,14.415,0,0,1-3.963-3.706c-2.472-3.342-3.68-7.635-4.2-11.846a47.848,47.848,0,0,1-.327-7.271,55.77,55.77,0,0,1,.805-8.216,252.463,252.463,0,0,1-1.887-31.714c.157-16.444,16.669-22.317,16.669-22.317,30.35-2.5,20.94,43.313,20.94,43.313s-1.755,12.92-2.233,14.242-2.2,3.524-1.963,6.607,6.032,6.771,6.032,6.771,5.661,2.478,7.995,6.149c1.7,2.707,12.731,6.378,18.965,9Z" transform="translate(-182.652 -152.76)"/><path class="e" d="M427.07,176.476a6.274,6.274,0,0,1-.629,2.807,16.925,16.925,0,0,1-1.12,2.091,9.787,9.787,0,0,1-2.755,3.195,14.769,14.769,0,0,1-5.032,1.633c-1.742.393-3.554,1.022-4.548,2.408a8.055,8.055,0,0,0-1.063,2.878,5.982,5.982,0,0,1-1.258,2.784,2.588,2.588,0,0,1-2.944.658,2.814,2.814,0,0,1-1.139-1.368,18.538,18.538,0,0,1-1.189-4.81,9.811,9.811,0,0,0-1.768-4.61,4.581,4.581,0,0,0-4.642-1.662,4.348,4.348,0,0,0-2.516,2.279,12.39,12.39,0,0,0-.95,3.242q-1.17,5.979-2.761,11.887a1.057,1.057,0,0,1-.208.446.939.939,0,0,1-.629.247c-1.409.176-2.761-.746-4.183-.646a2.559,2.559,0,0,0-.434.065,19.881,19.881,0,0,1,2.271-23.961l.113-.029a6.864,6.864,0,0,0,2.516-1.48,25.371,25.371,0,0,0,2.516-2.719l.5-.587a27.963,27.963,0,0,1,4.906-4.352,5.152,5.152,0,0,1,1.673-.846,5.3,5.3,0,0,1,1.585-.047,42.8,42.8,0,0,0,6.548.229,44.9,44.9,0,0,1,4.6-.435c3.982.106,7.378,2.731,9.895,5.609C425.781,172.853,426.989,174.55,427.07,176.476Z" transform="translate(-202.474 -100.732)"/><path class="g" d="M380.5,179.382c-.874,1.339-2.453,2.249-3.044,3.718-.868,2.132.6,4.786-.749,6.689-.447.64-1.183,1.116-1.434,1.85-.428,1.239.742,2.561.44,3.835s-2.1,2.349-1.623,3.594a2.462,2.462,0,0,0,1.384,1.175,5.726,5.726,0,0,0,3.145.652c1.717-.264,2.994-1.838,4.737-1.956,1.415-.094,2.768.822,4.177.652a.8.8,0,0,0,.837-.7q1.585-5.9,2.768-11.887a12.143,12.143,0,0,1,.944-3.242,4.385,4.385,0,0,1,2.516-2.279,4.6,4.6,0,0,1,4.642,1.662,9.754,9.754,0,0,1,1.774,4.61,18.785,18.785,0,0,0,1.183,4.81,2.844,2.844,0,0,0,1.145,1.374,2.58,2.58,0,0,0,2.938-.658,5.918,5.918,0,0,0,1.258-2.79,8.023,8.023,0,0,1,1.063-2.872c.994-1.386,2.812-2.014,4.548-2.408a14.911,14.911,0,0,0,5.032-1.639,9.823,9.823,0,0,0,2.755-3.189,8.972,8.972,0,0,0,1.724-4.9c-.082-1.9-1.289-3.6-2.579-5.08-2.516-2.878-5.919-5.5-9.9-5.6a41.819,41.819,0,0,0-4.6.435,42.135,42.135,0,0,1-6.548-.235,5.506,5.506,0,0,0-1.585.053,4.855,4.855,0,0,0-1.667.846,27.984,27.984,0,0,0-4.913,4.346,34.426,34.426,0,0,1-3.032,3.289,6.906,6.906,0,0,1-2.516,1.486c-.629.164-1.258.047-1.856.229C381.609,175.794,381.364,178.055,380.5,179.382Z" transform="translate(-198.654 -100.332)"/><path class="e" d="M472.7,210.943c-5.032.863-9.2-2.936-11.511-5.708a23.021,23.021,0,0,1-1.931-2.655l17.273,3.042.7.123S480.408,209.627,472.7,210.943Z" transform="translate(-230.28 -115.924)"/><g class="h" transform="translate(175.327 74.569)"><path d="M376.4,212.585a4.6,4.6,0,0,0-.365-2.255c0,.059-.057.117-.075.176a4.106,4.106,0,0,0,.327,2.42A1.678,1.678,0,0,0,376.4,212.585Z" transform="translate(-374.67 -193.692)"/><path d="M379.077,197.8a12.191,12.191,0,0,0,.05,2.437A12.22,12.22,0,0,0,379.077,197.8Z" transform="translate(-375.846 -188.521)"/><path d="M420.88,185.788a9.787,9.787,0,0,1-2.755,3.195,14.723,14.723,0,0,1-5.032,1.633c-1.749.393-3.554,1.022-4.548,2.408a8.094,8.094,0,0,0-1.063,2.878,5.941,5.941,0,0,1-1.258,2.79,2.571,2.571,0,0,1-2.938.658,2.844,2.844,0,0,1-1.145-1.374,18.469,18.469,0,0,1-1.183-4.81,9.73,9.73,0,0,0-1.774-4.61,4.581,4.581,0,0,0-4.642-1.662,4.366,4.366,0,0,0-2.516,2.279,12.139,12.139,0,0,0-.944,3.242q-1.176,5.984-2.768,11.887a.8.8,0,0,1-.837.7c-1.409.17-2.761-.746-4.177-.652-1.742.117-3.019,1.691-4.737,1.95a5.626,5.626,0,0,1-3.145-.652,3.373,3.373,0,0,1-1.151-.763,1.5,1.5,0,0,0-.233,1.368,2.4,2.4,0,0,0,1.384,1.175,5.626,5.626,0,0,0,3.145.652c1.717-.258,2.994-1.832,4.737-1.95,1.415-.094,2.768.822,4.177.652a.8.8,0,0,0,.837-.7q1.585-5.873,2.768-11.887a12.141,12.141,0,0,1,.944-3.242,4.366,4.366,0,0,1,2.516-2.279,4.585,4.585,0,0,1,4.642,1.662,9.754,9.754,0,0,1,1.774,4.61,18.784,18.784,0,0,0,1.183,4.81,2.844,2.844,0,0,0,1.145,1.374,2.58,2.58,0,0,0,2.938-.658,5.942,5.942,0,0,0,1.258-2.79,8.094,8.094,0,0,1,1.063-2.878c.994-1.386,2.812-2.009,4.548-2.408a15.035,15.035,0,0,0,5.032-1.633,9.786,9.786,0,0,0,2.755-3.195,8.938,8.938,0,0,0,1.724-4.9,5.908,5.908,0,0,0-.075-.67,11.122,11.122,0,0,1-1.648,3.788Z" transform="translate(-373.964 -182)"/></g><path class="e" d="M428.2,181.19a19.755,19.755,0,0,1,2.8,8.721c-5.6-2.936-10.876-6.161-13.537-7.282-4.636-1.956-21.972-1.662-28.488-1.48a20.544,20.544,0,0,1,2.378-3.207,22.366,22.366,0,0,1,5.189-4.24,23.862,23.862,0,0,1,17.569-2.63,22.363,22.363,0,0,1,14.121,10.107Z" transform="translate(-204.203 -102.656)"/><path class="e" d="M474.275,208.453c-3.026.869-7.963-.81-13.084-3.218a23.021,23.021,0,0,1-1.931-2.655l17.273,3.042C477.678,206.35,477.967,207.39,474.275,208.453Z" transform="translate(-230.28 -115.924)"/><path class="i" d="M408.452,154.061s-16.512-.881-21.154,7.488l-.749,7.417-1.258-.129-.252,5.045s25.236-1.028,30.979,1.392,23.588,14.612,30.74,12.556-.629-3.964-.629-3.964-9.844-3.894-9.844-6.948S433.846,157.732,408.452,154.061Z" transform="translate(-202.745 -95.889)"/><path class="e" d="M371.63,622.28s10.536,9.543,15.1,8.809C386.726,631.089,373.832,630.062,371.63,622.28Z" transform="translate(-197.771 -289.139)"/><path class="e" d="M368.13,629.81s.944,4.91,3.46,4.428S368.13,629.81,368.13,629.81Z" transform="translate(-196.472 -292.247)"/><path class="e" d="M386.877,769.53s-14.958,10.865-12.436,11.158S386.877,769.53,386.877,769.53Z" transform="translate(-198.707 -349.911)"/><path class="k" d="M330.96,342.159l48.435-7.359v42.813l-46.019-2.249Z" transform="translate(-122.781 -138.174)"/><path class="l" d="M330.96,342.159l48.435-7.359v42.813l-46.019-2.249Z" transform="translate(-122.781 -138.174)"/><path class="k" d="M407.96,334.8l58.084,4.058-3.214,37.258-54.869,1.5Z" transform="translate(-151.347 -138.174)"/><path class="e" d="M407.96,334.8l58.084,4.058-3.214,37.258-54.869,1.5Z" transform="translate(-151.347 -138.174)"/><path class="k" d="M425.818,312.55,407.96,325.617l58.084,4.058,9.492-13.373Z" transform="translate(-151.347 -128.992)"/><path class="k" d="M303.08,319.547l43.6-4.957,22.368,11.869-48.434,7.359Z" transform="translate(-112.438 -129.833)"/><path class="k" d="M390.012,351.089v58.535l-22.689-2.173-9.869-.94-3.007-.294-9.863-.946-13.625-1.3V347.33l48.428,3.077Z" transform="translate(-122.781 -143.346)"/><path class="k" d="M472.306,341.71v57.084l-18.185,3.259-8.844,1.586L424.84,407.3V348.769Z" transform="translate(-157.609 -141.026)"/><path class="l" d="M472.306,341.71v57.084l-18.185,3.259-8.844,1.586L424.84,407.3V348.769Z" transform="translate(-157.609 -141.026)"/><path class="k" d="M303.08,359.651l17.537-12.321,59.052,3.759-8.693,13.672Z" transform="translate(-112.438 -143.346)"/><path class="m" d="M303.08,359.651l17.537-12.321,59.052,3.759-8.693,13.672Z" transform="translate(-112.438 -143.346)"/><path class="k" d="M472.306,341.71l-47.466,7.059,15.449,12.92,50.844-7.964Z" transform="translate(-157.609 -141.026)"/><path class="m" d="M472.306,341.71l-47.466,7.059,15.449,12.92,50.844-7.964Z" transform="translate(-157.609 -141.026)"/><path class="m" d="M466.174,435.632l-8.844,1.586v-12.2l8.284-1.95Z" transform="translate(-169.662 -174.604)"/><path class="m" d="M382.949,435.96v8.069l-9.869-.94v-7.13Z" transform="translate(-138.407 -179.924)"/><path class="m" d="M362.483,440.29v4.293l-9.863-.946V440.29Z" transform="translate(-130.817 -181.711)"/><path class="e" d="M482.358,467.192c-6.762,8.075-29.092,2.5-29.092,2.5l-16.594-16.162-2.252-2.191,4.4-7.635s1.258.388,3.359,1.069C453.3,448.4,488.05,460.4,482.358,467.192Z" transform="translate(-221.064 -215.437)"/><path class="d" d="M481.358,465.192c-6.762,8.075-29.092,2.5-29.092,2.5l-16.594-16.162-2.252-2.191,4.4-7.635s1.258.388,3.359,1.069C452.3,446.4,487.05,458.4,481.358,465.192Z" transform="translate(-220.693 -214.612)"/><path class="e" d="M441.142,442.769a34.266,34.266,0,0,1-5.51,8.756l-2.252-2.191,4.4-7.635S439.047,442.088,441.142,442.769Z" transform="translate(-220.679 -214.612)"/><path class="f" d="M348.548,287.929s-16.512,5.873-16.669,22.317a252.478,252.478,0,0,0,1.887,31.714s-4.718,24.519,8.649,31.567,25.79,12.92,25.79,12.92,21.355,3.23,23.978,4.258,11.737-12.186,10.322-14.389-20.858-7.635-23.167-11.305-7.995-6.143-7.995-6.143-5.8-3.694-6.032-6.777,1.478-5.286,1.963-6.607,2.239-14.242,2.239-14.242S378.9,285.4,348.548,287.929Z" transform="translate(-183.023 -151.107)"/><path class="e" d="M358.174,380.7s-22.33,2.349-20.6,9.69A48.062,48.062,0,0,1,358.174,380.7Z" transform="translate(-185.101 -189.436)"/><path class="e" d="M364.109,385.7s-12.675,8.663-10.347,9.25S364.109,385.7,364.109,385.7Z" transform="translate(-191.036 -191.5)"/><path class="e" d="M378.083,391.7s-3.617,6.073-1.573,5.755S378.083,391.7,378.083,391.7Z" transform="translate(-199.349 -193.976)"/><path class="k" d="M736.416,167.4s-23.9-1.345-21.11,14.312a3.716,3.716,0,0,0,2.126,4.023s.044-1.175,2.453-.769a11.785,11.785,0,0,0,2.6.117,5.6,5.6,0,0,0,3.183-1.227h0s6.724-2.59,9.341-12.856c0,0,1.937-2.243,1.887-2.819l-4.038,1.615s1.378,2.719.289,4.98c0,0-.126-4.88-.906-4.769-.157,0-2.095.946-2.095.946s2.371,4.734.579,8.181c0,0,.679-5.838-1.321-7.84l-2.843,1.55s2.774,4.892.893,8.886c0,0,.484-6.125-1.491-8.51l-2.579,1.873s2.61,4.827,1.019,8.14c0,0-.208-7.13-1.579-7.67a14.987,14.987,0,0,0-2.592,2.619s1.78,3.524.673,5.35c0,0-.679-4.751-1.258-4.775,0,0-2.246,3.148-2.478,5.286a10.913,10.913,0,0,1,1.931-5.6,6.912,6.912,0,0,0-3.434,1.662s.346-2.226,3.988-2.42a16.431,16.431,0,0,1,2.352-2.537,15.749,15.749,0,0,0-5.818.628s1.931-2.1,6.485-1.175l2.516-1.938s-4.768-.587-6.793.065c0,0,2.327-1.856,7.479-.505l2.768-1.545a26.551,26.551,0,0,0-6.485-.523s2.554-1.286,7.3.106l1.981-.828s-2.982-.546-3.85-.634-.918-.311-.918-.311a10.969,10.969,0,0,1,5.592.587S736.5,167.646,736.416,167.4Z" transform="translate(-325.184 -101.393)"/><path class="a" d="M851.876,300.74s-23.9-1.345-21.11,14.312a3.716,3.716,0,0,0,2.126,4.023s.044-1.175,2.459-.769a11.784,11.784,0,0,0,2.6.117,5.59,5.59,0,0,0,3.145-1.222h0s6.731-2.6,9.347-12.862c0,0,1.931-2.238,1.856-2.813l-4.038,1.609s1.378,2.719.3,4.98c0,0-.132-4.88-.906-4.769-.157,0-2.1.945-2.1.945s2.378,4.739.585,8.181c0,0,.679-5.838-1.327-7.84l-2.812,1.533s2.774,4.892.893,8.886c0,0,.484-6.125-1.491-8.51l-2.573,1.879s2.6,4.822,1.019,8.134c0,0-.208-7.13-1.579-7.67a15.2,15.2,0,0,0-2.6,2.619s1.786,3.524.679,5.35c0,0-.679-4.751-1.258-4.775,0,0-2.246,3.148-2.478,5.286a10.948,10.948,0,0,1,1.937-5.6,6.945,6.945,0,0,0-3.441,1.662s.352-2.226,3.994-2.42a14.994,14.994,0,0,1,2.353-2.537,15.749,15.749,0,0,0-5.818.628s1.931-2.1,6.479-1.145l2.516-1.938s-4.774-.587-6.793.065c0,0,2.327-1.856,7.479-.505l2.768-1.545a26.933,26.933,0,0,0-6.492-.523s2.56-1.286,7.3.106l1.981-.828s-2.982-.546-3.856-.634-.918-.311-.918-.311a10.99,10.99,0,0,1,5.6.587S851.951,300.986,851.876,300.74Z" transform="translate(-368.017 -156.424)"/><path class="a" d="M623.988,261.578s5.5-21.783-11.5-21.859a4.286,4.286,0,0,0-4.6,1.269s1.214.241.39,2.39a9.867,9.867,0,0,0-.566,2.349,4.775,4.775,0,0,0,.748,3.13h0s1.591,6.636,11.951,10.794c0,0,2.038,2.161,2.654,2.185l-1.006-3.988s-3.107.8-5.309-.587c0,0,5.177.711,5.183,0,0-.147-.629-2.091-.629-2.091s-5.4,1.374-8.737-.863c0,0,6.045,1.621,8.5.123l-1.132-2.889s-5.661,1.721-9.536-.693c0,0,6.385,1.492,9.24.082l-1.541-2.69s-5.535,1.574-8.762-.452c0,0,7.548,1.022,8.366-.141a14.729,14.729,0,0,0-2.321-2.837s-4,1.045-5.762-.288c0,0,5.127.182,5.246-.323,0,0-2.937-2.6-5.177-3.189a12.643,12.643,0,0,1,5.592,2.737,6.05,6.05,0,0,0-1.17-3.447s2.29.7,1.887,4.111c0,0,2.2,2.114,2.271,2.6,0,0,.912-3.283.327-5.462,0,0,1.887,2.138.107,6.161l1.61,2.672s1.459-4.287,1.088-6.26c0,0,1.566,2.455-.742,6.965l1.164,2.813a22.314,22.314,0,0,0,1.654-5.873s.925,2.572-1.359,6.7l.541,1.962s1.082-2.649,1.321-3.436.484-.793.484-.793a9.157,9.157,0,0,1-1.566,5.051S623.718,261.607,623.988,261.578Z" transform="translate(-285.338 -131.163)"/><path class="a" d="M534.351,285.765s-19.2-13.408-26.06,1.116a3.645,3.645,0,0,0-.591,4.452s.717-.946,2.516.622a11.015,11.015,0,0,0,2.1,1.433,5.725,5.725,0,0,0,3.378.587h0s7.146,1.286,15.373-5.943c0,0,2.938-.881,3.214-1.4l-4.334-.711a6.662,6.662,0,0,1-2.686,4.311s2.761-4.146,2.044-4.446c-.145-.065-2.308-.294-2.308-.294s-.805,5.18-4.328,7.136c0,0,4.007-4.528,3.51-7.23l-3.29-.164s-.56,5.515-4.485,7.887c0,0,4.007-4.869,3.774-7.876l-3.258.247s-.66,5.362-3.938,7.312c0,0,4.019-6.061,3.2-7.212a16.753,16.753,0,0,0-3.711.852s-.572,3.841-2.585,4.816c0,0,2.233-4.317,1.78-4.616,0,0-3.73,1.474-5.2,3.154a12.17,12.17,0,0,1,4.919-3.688,7.222,7.222,0,0,0-3.85-.376s1.6-1.68,4.755.029a16.757,16.757,0,0,1,3.46-.91,15.1,15.1,0,0,0-5.233-2.461s2.856-.763,6.1,2.349l3.265-.311s-3.629-2.936-5.711-3.43c0,0,3.038-.358,6.542,3.412l3.221.135a24.865,24.865,0,0,0-5.108-3.77s2.887.235,6.032,3.835l2.145.323s-2.17-1.985-2.849-2.5-.585-.734-.585-.734a10.205,10.205,0,0,1,4.334,3.359S534.269,286.006,534.351,285.765Z" transform="translate(-248.048 -147.927)"/><path class="a" d="M635.961,73.654s-19.2-13.414-26.06,1.116a3.645,3.645,0,0,0-.591,4.452s.717-.946,2.516.623a11.2,11.2,0,0,0,2.107,1.427,5.718,5.718,0,0,0,3.378.587h0s7.146,1.286,15.373-5.949c0,0,2.938-.875,3.208-1.4l-4.334-.7a6.633,6.633,0,0,1-2.686,4.311s2.768-4.146,2.051-4.446c-.145-.065-2.309-.294-2.309-.294s-.83,5.192-4.353,7.136c0,0,4-4.528,3.51-7.23l-3.29-.164s-.566,5.515-4.485,7.881c0,0,4.007-4.869,3.774-7.876l-3.252.247s-.667,5.368-3.944,7.318c0,0,4.026-6.061,3.2-7.212a16.753,16.753,0,0,0-3.711.852s-.572,3.841-2.585,4.816c0,0,2.233-4.317,1.78-4.622,0,0-3.73,1.48-5.2,3.16A12.113,12.113,0,0,1,614.984,74a7.175,7.175,0,0,0-3.856-.376s1.6-1.68,4.762.029a16.392,16.392,0,0,1,3.46-.91,15.179,15.179,0,0,0-5.233-2.467s2.849-.758,6.089,2.349l3.265-.311s-3.623-2.936-5.712-3.436c0,0,3.038-.352,6.548,3.418l3.221.129a24.615,24.615,0,0,0-5.114-3.765s2.893.235,6.039,3.835l2.139.323s-2.176-1.962-2.856-2.467-.585-.728-.585-.728a10.186,10.186,0,0,1,4.334,3.359S635.854,73.877,635.961,73.654Z" transform="translate(-285.744 -60.385)"/><path class="a" d="M753.677,96.14S746,74.933,731.529,83.266c0,0-2.956.587-3.189,3.353,0,0,1.164-.4,1.679,1.832a10.115,10.115,0,0,0,.862,2.3,5.274,5.274,0,0,0,2.415,2.285h0s5.108,4.845,16.279,3.242c0,0,2.95.834,3.491.546l-3.145-2.884a7.411,7.411,0,0,1-4.831,2.126s4.8-1.95,4.4-2.578c-.082-.123-1.724-1.456-1.724-1.456s-3.812,3.835-7.9,3.582c0,0,6.045-1.609,7.278-4.111l-2.6-1.873s-3.812,4.24-8.485,4.111c0,0,6.29-1.885,7.882-4.493l-2.831-1.521s-3.774,4.07-7.687,3.941c0,0,6.995-2.86,7.014-4.246a16.418,16.418,0,0,0-3.573-1.263s-2.805,2.86-5.032,2.6c0,0,4.453-2.379,4.265-2.866,0,0-3.963-.758-6.2-.147a13.089,13.089,0,0,1,6.29-.44,6.684,6.684,0,0,0-2.95-2.349s2.34-.534,3.906,2.543a16.629,16.629,0,0,1,3.4,1.081,13.512,13.512,0,0,0-2.812-4.8s2.812.887,3.579,5.18l2.881,1.468s-1.189-4.352-2.623-5.873c0,0,2.724,1.316,3.315,6.278l2.579,1.815a22.2,22.2,0,0,0-1.925-5.814s2.239,1.727,2.642,6.36l1.566,1.4s-.579-2.784-.818-3.571-.044-.84-.044-.84a9.211,9.211,0,0,1,1.528,5.062S753.457,96.292,753.677,96.14Z" transform="translate(-330.103 -65.881)"/><path class="a" d="M676.033,108.231s-23.84-2.478-21.871,13.314a3.685,3.685,0,0,0,1.887,4.111s.107-1.175,2.516-.646a12.368,12.368,0,0,0,2.592.241,5.654,5.654,0,0,0,3.239-1.075h0s6.863-2.273,10.064-12.4c0,0,2.051-2.144,2.007-2.725l-4.12,1.421s1.258,2.778,0,4.986c0,0,.132-4.88-.629-4.8-.157,0-2.145.846-2.145.846s2.113,4.845.138,8.222c0,0,.994-5.8-.9-7.893l-2.925,1.41s2.516,5.021.409,8.921c0,0,.818-6.1-1.025-8.569l-2.673,1.762s2.34,4.939.572,8.175c0,0,.182-7.13-1.157-7.735a15.928,15.928,0,0,0-2.736,2.49s1.591,3.582.39,5.374c0,0-.421-4.775-.975-4.822,0,0-2.415,3.036-2.768,5.18a10.993,10.993,0,0,1,2.239-5.509,7,7,0,0,0-3.522,1.5s.465-2.2,4.114-2.226c0,0,1.981-2.3,2.516-2.42a15.813,15.813,0,0,0-5.85.352s2.044-2.009,6.536-.84l2.648-1.815s-4.787-.9-6.812-.317c0,0,2.428-1.762,7.5-.147l2.849-1.415a26.7,26.7,0,0,0-6.454-.828s2.623-1.175,7.284.452l2.025-.734s-2.95-.687-3.818-.816-.9-.352-.9-.352a11,11,0,0,1,5.561.846S676.077,108.477,676.033,108.231Z" transform="translate(-302.542 -76.927)"/><path class="a" d="M1007.64,402.4s-23.827-2.478-21.858,13.3a3.685,3.685,0,0,0,1.887,4.111s.107-1.175,2.516-.652a11.63,11.63,0,0,0,2.592.241,5.608,5.608,0,0,0,3.24-1.075h0s6.863-2.273,10.033-12.4c0,0,2.051-2.149,2.007-2.725l-4.12,1.415s1.258,2.784,0,4.992c0,0,.132-4.886-.629-4.8-.157,0-2.145.84-2.145.84s2.114,4.845.138,8.222c0,0,.994-5.8-.9-7.893l-2.925,1.415s2.516,5.021.415,8.921c0,0,.811-6.1-1.032-8.574l-2.673,1.762s2.34,4.939.572,8.169c0,0,.182-7.13-1.157-7.729a16.168,16.168,0,0,0-2.736,2.49s1.6,3.582.39,5.374c0,0-.421-4.775-.975-4.822,0,0-2.415,3.036-2.768,5.18a10.993,10.993,0,0,1,2.239-5.509,6.939,6.939,0,0,0-3.523,1.5s.465-2.208,4.114-2.232c0,0,1.988-2.3,2.516-2.414a15.758,15.758,0,0,0-5.85.346s2.044-2,6.542-.834l2.642-1.815s-4.73-.834-6.787-.258c0,0,2.428-1.762,7.5-.153l2.849-1.409a26.7,26.7,0,0,0-6.454-.828s2.623-1.175,7.284.452l2.026-.74s-2.95-.687-3.818-.81-.9-.352-.9-.352a10.962,10.962,0,0,1,5.561.84S1007.7,402.653,1007.64,402.4Z" transform="translate(-425.566 -198.334)"/><path class="a" d="M1065.55,437.781s-23.827-2.472-21.858,13.3a3.7,3.7,0,0,0,1.887,4.111s.107-1.175,2.516-.646a11.864,11.864,0,0,0,2.585.235,5.681,5.681,0,0,0,3.227-1.069h0s6.856-2.273,10.026-12.4c0,0,2.057-2.144,2.006-2.725L1061.82,440s1.258,2.784,0,4.992c0,0,.132-4.88-.629-4.8-.157,0-2.145.84-2.145.84s2.114,4.845.138,8.222c0,0,.994-5.8-.9-7.887l-2.925,1.409s2.516,5.021.415,8.921c0,0,.812-6.1-1.031-8.569l-2.673,1.762s2.34,4.939.579,8.175c0,0,.176-7.136-1.164-7.735a16.164,16.164,0,0,0-2.736,2.49s1.6,3.582.39,5.374c0,0-.421-4.775-.975-4.822,0,0-2.415,3.036-2.761,5.18a11.019,11.019,0,0,1,2.233-5.509,7,7,0,0,0-3.522,1.5s.472-2.208,4.12-2.226c0,0,1.981-2.3,2.516-2.42a15.813,15.813,0,0,0-5.85.352s2.044-2.009,6.542-.84l2.642-1.815s-4.73-.834-6.787-.258c0,0,2.428-1.762,7.5-.147l2.849-1.415a26.7,26.7,0,0,0-6.454-.828s2.623-1.175,7.284.452l2.025-.734s-2.95-.687-3.812-.816-.906-.352-.906-.352a11,11,0,0,1,5.561.846S1065.613,438.034,1065.55,437.781Z" transform="translate(-447.05 -212.936)"/><path class="a" d="M933.9,135.905s-19.2-13.408-26.06,1.116a3.645,3.645,0,0,0-.591,4.452s.717-.946,2.516.623a11.013,11.013,0,0,0,2.1,1.433,5.732,5.732,0,0,0,3.378.587h0s7.146,1.286,15.38-5.943c0,0,2.931-.881,3.208-1.4l-4.321-.728a6.662,6.662,0,0,1-2.686,4.311s2.761-4.146,2.044-4.446c-.145-.065-2.3-.294-2.3-.294s-.811,5.18-4.334,7.136c0,0,4.007-4.528,3.51-7.23l-3.29-.164s-.56,5.515-4.485,7.887c0,0,4.013-4.869,3.774-7.876l-3.258.247s-.629,5.362-3.938,7.312c0,0,4.026-6.061,3.2-7.212a16.753,16.753,0,0,0-3.711.852s-.566,3.841-2.579,4.816c0,0,2.227-4.317,1.774-4.616,0,0-3.73,1.474-5.2,3.154a12.171,12.171,0,0,1,4.919-3.688,7.222,7.222,0,0,0-3.85-.376s1.6-1.68,4.762.029a16.686,16.686,0,0,1,3.453-.91,15.1,15.1,0,0,0-5.233-2.461s2.856-.763,6.1,2.349l3.265-.311s-3.623-2.936-5.711-3.43c0,0,3.038-.358,6.542,3.412l3.227.135a24.976,24.976,0,0,0-5.114-3.77s2.893.235,6.032,3.835l2.145.323s-2.17-1.985-2.849-2.5-.579-.687-.579-.687a10.21,10.21,0,0,1,4.328,3.359S933.819,136.146,933.9,135.905Z" transform="translate(-396.274 -86.078)"/><path class="a" d="M958.863,293.824s-6.617-21.512-21.5-13.79c0,0-2.982.429-3.353,3.212,0,0,1.183-.346,1.591,1.9a9.9,9.9,0,0,0,.755,2.349,5.182,5.182,0,0,0,2.3,2.4h0s4.869,5.051,16.1,3.923c0,0,2.906.951,3.46.693l-2.975-3.019a7.458,7.458,0,0,1-4.925,1.926s4.881-1.762,4.5-2.39c-.076-.129-1.648-1.533-1.648-1.533s-3.988,3.676-8.064,3.248c0,0,6.12-1.351,7.466-3.782l-2.516-1.985s-4.013,4.076-8.674,3.759c0,0,6.341-1.627,8.089-4.158l-2.755-1.639s-3.994,3.905-7.869,3.612c0,0,7.127-2.566,7.215-3.947a16.3,16.3,0,0,0-3.516-1.41s-2.937,2.737-5.171,2.384c0,0,4.567-2.191,4.4-2.684,0,0-3.925-.922-6.183-.411a13.114,13.114,0,0,1,6.29-.17,6.589,6.589,0,0,0-2.831-2.467s2.365-.44,3.774,2.7a16.384,16.384,0,0,1,3.34,1.222,13.345,13.345,0,0,0-2.579-4.91s2.768,1,3.328,5.321l2.805,1.592s-.981-4.4-2.34-5.955c0,0,2.654,1.427,3.013,6.407l2.516,1.92a22.04,22.04,0,0,0-1.642-5.873s2.158,1.821,2.334,6.46l1.5,1.468s-.44-2.807-.629-3.606,0-.91,0-.91a9.114,9.114,0,0,1,1.289,5.121S958.636,293.964,958.863,293.824Z" transform="translate(-406.403 -147.2)"/><path class="a" d="M723.122,379.362s-12.851-18.9-24.783-7.588a3.788,3.788,0,0,0-2.252,3.964s1.038-.646,2.107,1.409a10.016,10.016,0,0,0,1.422,2.032,5.44,5.44,0,0,0,2.925,1.691h0s6.2,3.571,16.638-.47c0,0,3.076.153,3.529-.241l-3.774-2.114a7.1,7.1,0,0,1-4.151,3.142s4.164-2.936,3.6-3.477c-.107-.106-2.044-1.034-2.044-1.034s-2.724,4.569-6.762,5.233c0,0,5.466-2.907,6.032-5.6l-3.013-1.239s-2.623,4.963-7.19,5.873c0,0,5.6-3.224,6.51-6.114l-3.145-.846s-2.654,4.8-6.46,5.532c0,0,6.064-4.334,5.73-5.685a16.676,16.676,0,0,0-3.774-.429s-1.994,3.4-4.246,3.647c0,0,3.724-3.3,3.416-3.735,0,0-4.045.147-6.057,1.233a12.847,12.847,0,0,1,6-1.821,6.937,6.937,0,0,0-3.453-1.627s2.132-1.039,4.4,1.6a16.613,16.613,0,0,1,3.579.294,13.86,13.86,0,0,0-3.957-4.035s2.956.235,4.793,4.234l3.177.787s-2.271-3.964-4.038-5.1c0,0,2.975.669,4.818,5.362l2.969,1.175a23.1,23.1,0,0,0-3.353-5.215s2.617,1.175,4.183,5.585l1.887,1.016s-1.258-2.578-1.7-3.289-.271-.875-.271-.875a9.49,9.49,0,0,1,2.774,4.575S722.952,379.562,723.122,379.362Z" transform="translate(-318.117 -184.264)"/><path class="k" d="M857.477,214.608s-12.222-19.257-24.532-8.3c0,0-2.768,1.116-2.378,3.9,0,0,1.05-.623,2.057,1.462a10.049,10.049,0,0,0,1.352,2.079,5.382,5.382,0,0,0,2.868,1.762h0s6.07,3.747,16.644,0c0,0,3.07.241,3.535-.141l-3.692-2.22a7.141,7.141,0,0,1-4.252,3.019s4.258-2.837,3.724-3.371c-.113-.112-2.013-1.1-2.013-1.1s-2.875,4.493-6.919,5.039c0,0,5.561-2.749,6.208-5.415l-2.969-1.3s-2.787,4.892-7.385,5.673c0,0,5.705-3.06,6.712-5.92l-3.107-.94s-2.818,4.7-6.642,5.344c0,0,6.2-4.158,5.913-5.515a16.552,16.552,0,0,0-3.774-.54s-2.107,3.342-4.365,3.524c0,0,3.831-3.183,3.541-3.629,0,0-4.051.029-6.1,1.057a12.93,12.93,0,0,1,6.057-1.644,6.916,6.916,0,0,0-3.4-1.727s2.17-.981,4.4,1.727a17.016,17.016,0,0,1,3.567.4,14.312,14.312,0,0,0-3.818-4.146s2.944.317,4.648,4.369l3.145.881s-2.132-4.029-3.868-5.215c0,0,2.956.758,4.642,5.5l2.925,1.274a23.146,23.146,0,0,0-3.145-5.286s2.573,1.251,4,5.7l1.843,1.069s-1.183-2.613-1.6-3.336-.239-.881-.239-.881a9.458,9.458,0,0,1,2.623,4.651S857.295,214.8,857.477,214.608Z" transform="translate(-368.014 -116.072)"/><path class="k" d="M738.491,278.038s.629-22.376-16.021-19.222a4.21,4.21,0,0,0-4.24,2.12s1.258,0,.906,2.261a9.632,9.632,0,0,0-.038,2.431,4.875,4.875,0,0,0,1.415,2.936h0s3,6.19,14.077,8.293c0,0,2.459,1.733,3.076,1.639l-1.887-3.712s-2.862,1.374-5.322.44c0,0,5.221-.288,5.076-1,0-.147-1.082-1.932-1.082-1.932s-4.994,2.379-8.737.816c0,0,6.29.44,8.347-1.492l-1.755-2.6s-5.145,2.749-9.486,1.128c0,0,6.573.247,9.064-1.674l-2.095-2.349s-5.076,2.6-8.674,1.222c0,0,7.624-.429,8.177-1.727a16.023,16.023,0,0,0-2.893-2.349s-3.686,1.762-5.7.81c0,0,5.032-.787,5.064-1.31,0,0-3.441-1.991-5.762-2.138a12.9,12.9,0,0,1,6.07,1.621,6.215,6.215,0,0,0-1.887-3.154s2.4.253,2.724,3.641c0,0,2.623,1.656,2.793,2.114,0,0,.182-3.389-.868-5.409,0,0,2.315,1.733,1.447,6.008l2.158,2.314s.491-4.475-.3-6.337c0,0,2.063,2.108.793,6.959l1.742,2.531a21.894,21.894,0,0,0,.346-6.073s1.459,2.349.126,6.818l.956,1.821s.484-2.8.547-3.618.3-.869.3-.869a9.039,9.039,0,0,1-.434,5.244S738.214,278.114,738.491,278.038Z" transform="translate(-326.352 -139.008)"/><ellipse class="a" cx="16.939" cy="2.672" rx="16.939" ry="2.672" transform="translate(422.725 418.004)"/><ellipse class="a" cx="16.939" cy="2.672" rx="16.939" ry="2.672" transform="translate(360.974 458.574)"/><ellipse class="a" cx="16.939" cy="2.672" rx="16.939" ry="2.672" transform="translate(41.646 437.79)"/><ellipse class="a" cx="16.939" cy="2.672" rx="16.939" ry="2.672" transform="translate(489.457 455.902)"/><ellipse class="k" cx="25.293" cy="3.994" rx="25.293" ry="3.994" transform="translate(498.742 420.676)"/><path class="k" d="M931.2,759.357a6.807,6.807,0,0,0,2.409-3.395,2.954,2.954,0,0,0-1.679-3.459c-1.547-.552-3.2.446-4.46,1.456s-2.686,2.167-4.328,1.956a5.926,5.926,0,0,0,2.038-5.761,2.342,2.342,0,0,0-.566-1.175c-.862-.857-2.415-.487-3.447.188-3.271,2.149-4.183,6.3-4.2,10.031a17.616,17.616,0,0,1-.057-4.111,4.1,4.1,0,0,0-1.667-3.653,5.259,5.259,0,0,0-2.516-.587c-1.472-.047-3.114.088-4.114,1.092-1.258,1.245-.925,3.342.157,4.7a16.125,16.125,0,0,0,4.258,3.183,9.272,9.272,0,0,1,3.045,2.707,2.66,2.66,0,0,1,.22.482h9.221a25.572,25.572,0,0,0,5.686-3.653Z" transform="translate(-396.681 -341.223)"/><path class="n" d="M170.29,780.445s9.655-.276,12.58-2.214,14.864-4.246,15.587-1.139,14.518,15.44,3.611,15.522-25.343-1.586-28.249-3.242S170.29,780.445,170.29,780.445Z" transform="translate(-123.077 -352.404)"/><path class="o" d="M202.25,794.95c-10.907.082-25.343-1.586-28.249-3.242-2.214-1.257-3.095-5.773-3.39-7.858h-.321s.629,7.276,3.516,8.927,17.342,3.324,28.249,3.242c3.145,0,4.233-1.069,4.177-2.619C205.792,794.345,204.59,794.932,202.25,794.95Z" transform="translate(-123.077 -355.821)"/></g></svg>