<svg xmlns="http://www.w3.org/2000/svg" width="40.597" height="40.597" viewBox="0 0 40.597 40.597"><defs><style>.a{fill:#2a84b3;}</style></defs><g transform="translate(-2 -2)"><path class="a" d="M6,19H7.353v1.353H6Z" transform="translate(-1.294 -5.497)"/><path class="a" d="M10,19h1.353v1.353H10Z" transform="translate(-2.587 -5.497)"/><path class="a" d="M14,19h1.353v1.353H14Z" transform="translate(-3.881 -5.497)"/><path class="a" d="M6,31H7.353v1.353H6Z" transform="translate(-1.294 -9.378)"/><path class="a" d="M10,31h1.353v1.353H10Z" transform="translate(-2.587 -9.378)"/><path class="a" d="M14,31h1.353v1.353H14Z" transform="translate(-3.881 -9.378)"/><path class="a" d="M6,43H7.353v1.353H6Z" transform="translate(-1.294 -13.258)"/><path class="a" d="M10,43h1.353v1.353H10Z" transform="translate(-2.587 -13.258)"/><path class="a" d="M14,43h1.353v1.353H14Z" transform="translate(-3.881 -13.258)"/><path class="a" d="M52.706,8.03V6H51.353V7.353H50V8.706h2.03A.677.677,0,0,0,52.706,8.03Z" transform="translate(-15.522 -1.294)"/><path class="a" d="M41.921,18.239H29.742a.677.677,0,0,0-.677.677v2.706h-4.06V6.736h1.353V9.443a.677.677,0,0,0,.677.677h3.383v1.353H29.065v1.353h8.119V11.473H35.831V10.119h3.383a.677.677,0,0,0,.677-.677V2.677A.677.677,0,0,0,39.214,2H27.035a.677.677,0,0,0-.677.677V5.383h-2.03a.677.677,0,0,0-.677.677V21.622H20.945V18.916H19.592V17.562h1.353V10.8H2v6.766H3.353v1.353H2v6.766H3.353v1.353H2V33.8H20.945V27.035H19.592V25.682h1.353V22.975h2.706V35.831a.677.677,0,0,0,.677.677h2.03v2.706a.677.677,0,0,0,.677.677h3.383v1.353H29.065V42.6h8.119V41.244H35.831V39.891h3.383a.677.677,0,0,0,.677-.677V32.448a.677.677,0,0,0-.677-.677H27.035a.677.677,0,0,0-.677.677v2.706H25.005V22.975h4.06v2.706a.677.677,0,0,0,.677.677h3.383v1.353H31.771v1.353h8.119V27.712H38.538V26.358h3.383a.677.677,0,0,0,.677-.677V18.916A.677.677,0,0,0,41.921,18.239Zm-7.443-6.766H31.771V10.119h2.706ZM27.712,3.353H38.538V8.766H27.712Zm-24.358,8.8H19.592v4.06H3.353Zm14.886,5.413v1.353H4.706V17.562Zm1.353,14.886H3.353v-4.06H19.592ZM4.706,27.035V25.682H18.239v1.353Zm14.886-2.706H3.353v-4.06H19.592ZM34.478,41.244H31.771V39.891h2.706Zm-6.766-8.119H38.538v5.413H27.712Zm9.473-5.413H34.478V26.358h2.706Zm4.06-2.706H30.418V19.592H41.244Z"/><path class="a" d="M56.706,32.03V30H55.353v1.353H54v1.353h2.03A.677.677,0,0,0,56.706,32.03Z" transform="translate(-16.816 -9.055)"/><path class="a" d="M52.706,52.03V50H51.353v1.353H50v1.353h2.03A.677.677,0,0,0,52.706,52.03Z" transform="translate(-15.522 -15.522)"/></g></svg>