<svg xmlns="http://www.w3.org/2000/svg" xmlns:xlink="http://www.w3.org/1999/xlink" width="206" height="196" viewBox="0 0 206 196">
  <defs>
    <clipPath id="clip-image4">
      <rect width="206" height="196"/>
    </clipPath>
  </defs>
  <g id="image4" clip-path="url(#clip-image4)">
    <g id="Group_338" data-name="Group 338" transform="translate(-36.417 -54.953)">
      <g id="Background_Complete" data-name="Background Complete" transform="translate(0 54.953)">
        <g id="Group_307" data-name="Group 307" transform="translate(0 0)">
          <g id="Group_298" data-name="Group 298">
            <rect id="Rectangle_40" data-name="Rectangle 40" width="18.471" height="0.139" transform="translate(232.425 191.583)" fill="#ebebeb"/>
            <rect id="Rectangle_41" data-name="Rectangle 41" width="4.848" height="0.139" transform="translate(179.864 193.096)" fill="#ebebeb"/>
            <rect id="Rectangle_42" data-name="Rectangle 42" width="10.703" height="0.139" transform="translate(221.164 186.404)" fill="#ebebeb"/>
            <rect id="Rectangle_43" data-name="Rectangle 43" width="24.088" height="0.139" transform="translate(29.255 187.341)" fill="#ebebeb"/>
            <rect id="Rectangle_44" data-name="Rectangle 44" width="3.532" height="0.139" transform="translate(58.308 187.341)" fill="#ebebeb"/>
            <rect id="Rectangle_45" data-name="Rectangle 45" width="52.24" height="0.139" transform="translate(73.318 189.696)" fill="#ebebeb"/>
            <path id="Path_7605" data-name="Path 7605" d="M149.076,212.688H41.39a3.187,3.187,0,0,1-3.183-3.183V58.136a3.187,3.187,0,0,1,3.183-3.183H149.076a3.186,3.186,0,0,1,3.183,3.183V209.505A3.187,3.187,0,0,1,149.076,212.688ZM41.39,55.092a3.047,3.047,0,0,0-3.044,3.043V209.505a3.047,3.047,0,0,0,3.044,3.044H149.076a3.047,3.047,0,0,0,3.043-3.044V58.136a3.047,3.047,0,0,0-3.043-3.043Z" transform="translate(-16.9 -54.953)" fill="#ebebeb"/>
            <path id="Path_7606" data-name="Path 7606" d="M365.373,212.688H257.688a3.187,3.187,0,0,1-3.183-3.183V58.136a3.186,3.186,0,0,1,3.183-3.183H365.373a3.187,3.187,0,0,1,3.183,3.183V209.505A3.187,3.187,0,0,1,365.373,212.688ZM257.688,55.092a3.047,3.047,0,0,0-3.043,3.043V209.505a3.047,3.047,0,0,0,3.043,3.044H365.373a3.047,3.047,0,0,0,3.044-3.044V58.136a3.047,3.047,0,0,0-3.044-3.043Z" transform="translate(-112.575 -54.953)" fill="#ebebeb"/>
            <rect id="Rectangle_46" data-name="Rectangle 46" width="278.835" height="0.139" transform="translate(0 182.606)" fill="#ebebeb"/>
          </g>
          <g id="Group_304" data-name="Group 304" transform="translate(37.334 118.486)">
            <g id="Group_299" data-name="Group 299" transform="translate(171.274)">
              <path id="Path_7607" data-name="Path 7607" d="M374.07,280.121V337.5h29.314v-57.38Z" transform="translate(-374.07 -273.037)" fill="#ebebeb"/>
              <path id="Path_7608" data-name="Path 7608" d="M384.164,267.419v12.713h18.055V267.419Z" transform="translate(-378.535 -267.419)" fill="#ebebeb"/>
              <rect id="Rectangle_47" data-name="Rectangle 47" width="3.753" height="3.753" transform="translate(1.877 8.96)" fill="#fafafa"/>
              <rect id="Rectangle_48" data-name="Rectangle 48" width="3.753" height="3.753" transform="translate(9.146 8.96)" fill="#fafafa"/>
              <rect id="Rectangle_49" data-name="Rectangle 49" width="3.753" height="3.753" transform="translate(16.415 8.96)" fill="#fafafa"/>
              <rect id="Rectangle_50" data-name="Rectangle 50" width="3.753" height="3.753" transform="translate(23.684 8.96)" fill="#f0f0f0"/>
              <rect id="Rectangle_51" data-name="Rectangle 51" width="3.753" height="3.753" transform="translate(1.877 15.779)" fill="#f0f0f0"/>
              <rect id="Rectangle_52" data-name="Rectangle 52" width="3.753" height="3.753" transform="translate(9.146 15.779)" fill="#f0f0f0"/>
              <rect id="Rectangle_53" data-name="Rectangle 53" width="3.753" height="3.753" transform="translate(16.415 15.779)" fill="#fafafa"/>
              <rect id="Rectangle_54" data-name="Rectangle 54" width="3.753" height="3.753" transform="translate(23.684 15.779)" fill="#fafafa"/>
              <rect id="Rectangle_55" data-name="Rectangle 55" width="3.753" height="3.753" transform="translate(1.877 22.598)" fill="#f0f0f0"/>
              <rect id="Rectangle_56" data-name="Rectangle 56" width="3.753" height="3.753" transform="translate(9.146 22.598)" fill="#fafafa"/>
              <rect id="Rectangle_57" data-name="Rectangle 57" width="3.753" height="3.753" transform="translate(16.415 22.598)" fill="#fafafa"/>
              <rect id="Rectangle_58" data-name="Rectangle 58" width="3.753" height="3.753" transform="translate(9.146 3.066)" fill="#fafafa"/>
              <rect id="Rectangle_59" data-name="Rectangle 59" width="3.753" height="3.753" transform="translate(16.415 3.066)" fill="#f0f0f0"/>
              <rect id="Rectangle_60" data-name="Rectangle 60" width="3.753" height="3.753" transform="translate(23.684 22.598)" fill="#f0f0f0"/>
              <rect id="Rectangle_61" data-name="Rectangle 61" width="3.753" height="3.753" transform="translate(1.877 29.417)" fill="#fafafa"/>
              <rect id="Rectangle_62" data-name="Rectangle 62" width="3.753" height="3.753" transform="translate(9.146 29.417)" fill="#f0f0f0"/>
              <rect id="Rectangle_63" data-name="Rectangle 63" width="3.753" height="3.753" transform="translate(16.415 29.417)" fill="#f0f0f0"/>
              <rect id="Rectangle_64" data-name="Rectangle 64" width="3.753" height="3.753" transform="translate(23.684 29.417)" fill="#fafafa"/>
              <rect id="Rectangle_65" data-name="Rectangle 65" width="3.753" height="3.753" transform="translate(1.877 36.236)" fill="#f0f0f0"/>
              <rect id="Rectangle_66" data-name="Rectangle 66" width="3.753" height="3.753" transform="translate(9.146 36.236)" fill="#fafafa"/>
              <rect id="Rectangle_67" data-name="Rectangle 67" width="3.753" height="3.753" transform="translate(16.415 36.236)" fill="#fafafa"/>
              <rect id="Rectangle_68" data-name="Rectangle 68" width="3.753" height="3.753" transform="translate(23.684 36.236)" fill="#f0f0f0"/>
              <rect id="Rectangle_69" data-name="Rectangle 69" width="3.753" height="3.753" transform="translate(1.877 43.055)" fill="#f0f0f0"/>
              <rect id="Rectangle_70" data-name="Rectangle 70" width="3.753" height="3.753" transform="translate(9.146 43.055)" fill="#fafafa"/>
              <rect id="Rectangle_71" data-name="Rectangle 71" width="3.753" height="3.753" transform="translate(16.415 43.055)" fill="#f0f0f0"/>
              <rect id="Rectangle_72" data-name="Rectangle 72" width="3.753" height="3.753" transform="translate(23.684 43.055)" fill="#fafafa"/>
              <rect id="Rectangle_73" data-name="Rectangle 73" width="3.753" height="3.753" transform="translate(1.877 49.874)" fill="#fafafa"/>
              <rect id="Rectangle_74" data-name="Rectangle 74" width="3.753" height="3.753" transform="translate(9.146 49.874)" fill="#fafafa"/>
              <rect id="Rectangle_75" data-name="Rectangle 75" width="3.753" height="3.753" transform="translate(16.415 49.874)" fill="#f0f0f0"/>
              <rect id="Rectangle_76" data-name="Rectangle 76" width="3.753" height="3.753" transform="translate(23.684 49.874)" fill="#f0f0f0"/>
              <rect id="Rectangle_77" data-name="Rectangle 77" width="3.753" height="3.753" transform="translate(1.877 56.693)" fill="#f0f0f0"/>
              <rect id="Rectangle_78" data-name="Rectangle 78" width="3.753" height="3.753" transform="translate(23.684 56.693)" fill="#fafafa"/>
              <path id="Path_7609" data-name="Path 7609" d="M401.492,369.08H390.47v1.076h.446v6.694h1.076v-6.694h7.978v6.694h1.076v-6.694h.446Z" transform="translate(-381.324 -312.387)" fill="#f5f5f5"/>
              <rect id="Rectangle_79" data-name="Rectangle 79" width="3.989" height="6.694" transform="translate(10.668 57.769)" fill="#e6e6e6"/>
              <rect id="Rectangle_80" data-name="Rectangle 80" width="3.989" height="6.694" transform="translate(14.657 57.769)" fill="#ebebeb"/>
            </g>
            <g id="Group_302" data-name="Group 302" transform="translate(0 7.083)">
              <g id="Group_300" data-name="Group 300">
                <path id="Path_7610" data-name="Path 7610" d="M66.946,280.121V337.5H96.26v-57.38Z" transform="translate(-66.946 -280.121)" fill="#f5f5f5"/>
                <path id="Path_7611" data-name="Path 7611" d="M70.311,283.486v10.572h3.753V283.486Z" transform="translate(-68.434 -281.609)" fill="#e6e6e6"/>
                <path id="Path_7612" data-name="Path 7612" d="M83.346,283.486v10.572H87.1V283.486Z" transform="translate(-74.2 -281.609)" fill="#f0f0f0"/>
                <path id="Path_7613" data-name="Path 7613" d="M96.381,283.486v10.572h3.753V283.486Z" transform="translate(-79.966 -281.609)" fill="#e6e6e6"/>
                <path id="Path_7614" data-name="Path 7614" d="M109.416,283.486v10.572h3.753V283.486Z" transform="translate(-85.732 -281.609)" fill="#f0f0f0"/>
                <path id="Path_7615" data-name="Path 7615" d="M70.311,307.941v10.572h3.753V307.941Z" transform="translate(-68.434 -292.427)" fill="#f0f0f0"/>
                <path id="Path_7616" data-name="Path 7616" d="M83.346,307.941v10.572H87.1V307.941Z" transform="translate(-74.2 -292.427)" fill="#f0f0f0"/>
                <path id="Path_7617" data-name="Path 7617" d="M96.381,307.941v10.572h3.753V307.941Z" transform="translate(-79.966 -292.427)" fill="#e6e6e6"/>
                <path id="Path_7618" data-name="Path 7618" d="M109.416,307.941v10.572h3.753V307.941Z" transform="translate(-85.732 -292.427)" fill="#f0f0f0"/>
                <path id="Path_7619" data-name="Path 7619" d="M70.311,332.4v10.572h3.753V332.4Z" transform="translate(-68.434 -303.244)" fill="#e6e6e6"/>
                <path id="Path_7620" data-name="Path 7620" d="M83.346,332.4v10.572H87.1V332.4Z" transform="translate(-74.2 -303.244)" fill="#f0f0f0"/>
                <path id="Path_7621" data-name="Path 7621" d="M96.381,332.4v10.572h3.753V332.4Z" transform="translate(-79.966 -303.244)" fill="#f0f0f0"/>
                <path id="Path_7622" data-name="Path 7622" d="M109.416,332.4v10.572h3.753V332.4Z" transform="translate(-85.732 -303.244)" fill="#e6e6e6"/>
                <path id="Path_7623" data-name="Path 7623" d="M93.995,356.852H70.311v3.753H95.872v-3.753Z" transform="translate(-68.434 -314.061)" fill="#f0f0f0"/>
                <path id="Path_7624" data-name="Path 7624" d="M94.368,369.08H83.346v1.076h.446v6.694h1.076v-6.694h7.978v6.694h1.076v-6.694h.446Z" transform="translate(-74.2 -319.47)" fill="#ebebeb"/>
                <rect id="Rectangle_81" data-name="Rectangle 81" width="3.989" height="6.694" transform="translate(10.668 50.686)" fill="#fafafa"/>
                <rect id="Rectangle_82" data-name="Rectangle 82" width="3.989" height="6.694" transform="translate(14.657 50.686)" fill="#f5f5f5"/>
              </g>
              <g id="Group_301" data-name="Group 301" transform="translate(29.314 26.087)">
                <path id="Path_7625" data-name="Path 7625" d="M119.511,326.9v31.294h29.314V326.9Z" transform="translate(-119.511 -326.899)" fill="#e6e6e6"/>
                <rect id="Rectangle_83" data-name="Rectangle 83" width="3.753" height="3.753" transform="translate(1.876 3.066)" fill="#f0f0f0"/>
                <rect id="Rectangle_84" data-name="Rectangle 84" width="3.753" height="3.753" transform="translate(9.146 3.066)" fill="#f0f0f0"/>
                <rect id="Rectangle_85" data-name="Rectangle 85" width="3.753" height="3.753" transform="translate(16.415 3.066)" fill="#f0f0f0"/>
                <rect id="Rectangle_86" data-name="Rectangle 86" width="3.753" height="3.753" transform="translate(23.684 3.066)" fill="#f0f0f0"/>
                <rect id="Rectangle_87" data-name="Rectangle 87" width="3.753" height="3.753" transform="translate(1.876 9.885)" fill="#f0f0f0"/>
                <rect id="Rectangle_88" data-name="Rectangle 88" width="3.753" height="3.753" transform="translate(9.146 9.885)" fill="#f0f0f0"/>
                <rect id="Rectangle_89" data-name="Rectangle 89" width="3.753" height="3.753" transform="translate(16.415 9.885)" fill="#f0f0f0"/>
                <rect id="Rectangle_90" data-name="Rectangle 90" width="3.753" height="3.753" transform="translate(23.684 9.885)" fill="#f0f0f0"/>
                <rect id="Rectangle_91" data-name="Rectangle 91" width="3.753" height="3.753" transform="translate(1.876 16.704)" fill="#f0f0f0"/>
                <rect id="Rectangle_92" data-name="Rectangle 92" width="3.753" height="3.753" transform="translate(9.146 16.704)" fill="#f0f0f0"/>
                <rect id="Rectangle_93" data-name="Rectangle 93" width="3.753" height="3.753" transform="translate(16.415 16.704)" fill="#f0f0f0"/>
                <rect id="Rectangle_94" data-name="Rectangle 94" width="3.753" height="3.753" transform="translate(23.684 16.704)" fill="#f0f0f0"/>
                <rect id="Rectangle_95" data-name="Rectangle 95" width="3.753" height="3.753" transform="translate(1.876 23.523)" fill="#f0f0f0"/>
                <rect id="Rectangle_96" data-name="Rectangle 96" width="3.753" height="3.753" transform="translate(23.684 23.523)" fill="#f0f0f0"/>
                <path id="Path_7626" data-name="Path 7626" d="M146.933,369.08H135.911v1.076h.446v6.694h1.076v-6.694h7.978v6.694h1.076v-6.694h.446Z" transform="translate(-126.765 -345.557)" fill="#f5f5f5"/>
                <rect id="Rectangle_97" data-name="Rectangle 97" width="3.989" height="6.694" transform="translate(10.668 24.599)" fill="#e6e6e6"/>
                <rect id="Rectangle_98" data-name="Rectangle 98" width="3.989" height="6.694" transform="translate(14.657 24.599)" fill="#ebebeb"/>
              </g>
            </g>
            <g id="Group_303" data-name="Group 303" transform="translate(136.794 7.083)">
              <path id="Path_7627" data-name="Path 7627" d="M312.242,280.121V337.5h29.314v-57.38Z" transform="translate(-312.242 -280.121)" fill="#fafafa"/>
              <path id="Path_7628" data-name="Path 7628" d="M324.4,356.852h-8.792v10.572h3.753v-6.819h7.269v-3.753Z" transform="translate(-313.73 -314.061)" fill="#f0f0f0"/>
              <path id="Path_7629" data-name="Path 7629" d="M350.138,356.852h-8.461v3.753h7.269v6.819H352.7V356.852Z" transform="translate(-325.262 -314.061)" fill="#f0f0f0"/>
              <path id="Path_7630" data-name="Path 7630" d="M339.664,369.08H328.642v1.076h.446v6.694h1.076v-6.694h7.978v6.694h1.076v-6.694h.446Z" transform="translate(-319.496 -319.47)" fill="#f5f5f5"/>
              <rect id="Rectangle_99" data-name="Rectangle 99" width="3.989" height="6.694" transform="translate(10.668 50.686)" fill="#ebebeb"/>
              <rect id="Rectangle_100" data-name="Rectangle 100" width="3.989" height="6.694" transform="translate(14.657 50.686)" fill="#e0e0e0"/>
              <rect id="Rectangle_101" data-name="Rectangle 101" width="11.022" height="10.572" transform="translate(1.876 1.877)" fill="#f0f0f0"/>
              <rect id="Rectangle_102" data-name="Rectangle 102" width="11.022" height="10.572" transform="translate(16.415 1.877)" fill="#f0f0f0"/>
              <rect id="Rectangle_103" data-name="Rectangle 103" width="11.022" height="10.572" transform="translate(1.876 15.515)" fill="#f0f0f0"/>
              <rect id="Rectangle_104" data-name="Rectangle 104" width="11.022" height="10.572" transform="translate(16.415 15.515)" fill="#f0f0f0"/>
              <rect id="Rectangle_105" data-name="Rectangle 105" width="11.022" height="10.572" transform="translate(1.876 29.153)" fill="#f0f0f0"/>
              <rect id="Rectangle_106" data-name="Rectangle 106" width="11.022" height="10.572" transform="translate(16.415 29.153)" fill="#f0f0f0"/>
            </g>
          </g>
          <g id="Group_306" data-name="Group 306" transform="translate(69.636 9.269)">
            <g id="Group_305" data-name="Group 305" transform="translate(0 97.56)">
              <path id="Path_7631" data-name="Path 7631" d="M125.371,251.632a1.463,1.463,0,0,0,.8,2.558c9.1.983,27.479,2.339,32.455-2.041,6.4-5.632-11.82-.306-13.228-1.586s3.587-4.116-.337-4.045c-2.754.05-7.036,4.924-11.432,4.279-3.583-.525,1.195-3.127-2.133-3.127C128.617,247.67,127.3,249.912,125.371,251.632Z" transform="translate(-124.87 -246.516)" fill="#f0f0f0"/>
              <path id="Path_7632" data-name="Path 7632" d="M156.873,250.178a1.048,1.048,0,0,0,.572,1.831c6.512.7,19.672,1.674,23.234-1.462,4.581-4.031-8.462-.219-9.47-1.135s2.568-2.947-.241-2.9c-1.971.036-5.037,3.525-8.184,3.064-2.565-.376.855-2.239-1.527-2.239C159.2,247.342,158.252,248.947,156.873,250.178Z" transform="translate(-138.867 -246.516)" fill="#f5f5f5"/>
            </g>
            <circle id="Ellipse_53" data-name="Ellipse 53" cx="23.422" cy="23.422" r="23.422" transform="translate(59.897 10.106)" fill="#f0f0f0"/>
            <path id="Path_7633" data-name="Path 7633" d="M266.674,136.176a1.359,1.359,0,0,0,.549,2.506c14.222,1.659,49.427,4.825,58.522-3.18,10.975-9.66-20.273-.525-22.688-2.72s6.153-7.06-.578-6.938c-4.722.086-12.069,8.446-19.608,7.34-6.146-.9,2.049-5.364-3.658-5.364C273.331,127.82,271.243,133.277,266.674,136.176Z" transform="translate(-187.308 -95.578)" fill="#fafafa"/>
            <path id="Path_7634" data-name="Path 7634" d="M331.579,76.825a1.262,1.262,0,0,0,.671,2.222c8.765.965,27.234,2.4,32.18-1.956,6.268-5.517-11.578-.3-12.957-1.554s3.514-4.032-.33-3.962c-2.7.049-6.892,4.823-11.2,4.192-3.509-.515,1.17-3.064-2.089-3.064C334.9,72.7,333.621,75.118,331.579,76.825Z" transform="translate(-216.103 -71.574)" fill="#f5f5f5"/>
          </g>
        </g>
      </g>
      <g id="Shadow" transform="translate(28.602 247.971)">
        <ellipse id="_Path_" data-name="&lt;Path&gt;" cx="108.126" cy="6.315" rx="108.126" ry="6.315" fill="#f5f5f5"/>
      </g>
      <g id="Stairs" transform="translate(51.577 82.624)">
        <g id="Group_308" data-name="Group 308" transform="translate(8.309 159.968)">
          <rect id="Rectangle_107" data-name="Rectangle 107" width="18.25" height="9.125" fill="#407bff"/>
          <rect id="Rectangle_108" data-name="Rectangle 108" width="18.25" height="9.125" fill="#fff" opacity="0.3"/>
          <rect id="Rectangle_109" data-name="Rectangle 109" width="9.125" height="4.562" transform="translate(18.25 0) rotate(90)" opacity="0.2"/>
        </g>
        <g id="Group_309" data-name="Group 309" transform="translate(44.809 141.718)">
          <rect id="Rectangle_110" data-name="Rectangle 110" width="18.25" height="27.375" transform="translate(0 0)" fill="#407bff"/>
          <rect id="Rectangle_111" data-name="Rectangle 111" width="18.25" height="27.375" transform="translate(0 0)" fill="#fff" opacity="0.4"/>
          <rect id="Rectangle_112" data-name="Rectangle 112" width="27.375" height="4.562" transform="translate(18.25 0) rotate(90)" opacity="0.2"/>
        </g>
        <g id="Group_311" data-name="Group 311" transform="translate(81.308 123.468)">
          <g id="Group_310" data-name="Group 310">
            <rect id="Rectangle_113" data-name="Rectangle 113" width="18.25" height="45.624" fill="#407bff"/>
            <rect id="Rectangle_114" data-name="Rectangle 114" width="18.25" height="45.624" fill="#fff" opacity="0.3"/>
          </g>
          <rect id="Rectangle_115" data-name="Rectangle 115" width="45.624" height="4.562" transform="translate(18.25 0) rotate(90)" opacity="0.2"/>
        </g>
        <g id="Group_312" data-name="Group 312" transform="translate(117.808 96.094)">
          <rect id="Rectangle_116" data-name="Rectangle 116" width="18.25" height="72.999" transform="translate(0 0)" fill="#407bff"/>
          <rect id="Rectangle_117" data-name="Rectangle 117" width="18.25" height="72.999" transform="translate(0 0)" fill="#fff" opacity="0.2"/>
          <rect id="Rectangle_118" data-name="Rectangle 118" width="72.999" height="4.562" transform="translate(18.25 0) rotate(90)" opacity="0.2"/>
        </g>
        <g id="Group_313" data-name="Group 313" transform="translate(154.307 59.594)">
          <rect id="Rectangle_119" data-name="Rectangle 119" width="18.25" height="109.498" transform="translate(0 0)" fill="#407bff"/>
          <rect id="Rectangle_120" data-name="Rectangle 120" width="109.498" height="4.562" transform="translate(18.25 0) rotate(90)" opacity="0.2"/>
        </g>
        <g id="Group_318" data-name="Group 318" transform="translate(0 0)">
          <g id="Group_316" data-name="Group 316" transform="translate(0 10.581)">
            <g id="Group_314" data-name="Group 314">
              <path id="Path_7635" data-name="Path 7635" d="M124.889,259.375H101.075l-8.588-3.65H115.5v-18.25H152v-18.25h36.5V191.851H225v-36.5h30.787V123.545h9.386V159H234.388v36.5h-36.5v27.375h-36.5v18.25h-36.5Z" transform="translate(-92.487 -123.545)" fill="#407bff"/>
            </g>
            <g id="Group_315" data-name="Group 315" opacity="0.4">
              <path id="Path_7636" data-name="Path 7636" d="M124.889,259.375H101.075l-8.588-3.65H115.5v-18.25H152v-18.25h36.5V191.851H225v-36.5h30.787V123.545h9.386V159H234.388v36.5h-36.5v27.375h-36.5v18.25h-36.5Z" transform="translate(-92.487 -123.545)" fill="#fff"/>
            </g>
          </g>
          <g id="Group_317" data-name="Group 317" transform="translate(23.016 10.581)">
            <path id="Path_7637" data-name="Path 7637" d="M385.316,155.351V123.545H394.7V159Z" transform="translate(-245.03 -123.545)" fill="#407bff"/>
            <path id="Path_7638" data-name="Path 7638" d="M330.109,217.079v-36.5l9.386,3.65v36.5Z" transform="translate(-220.611 -148.773)" fill="#407bff"/>
            <path id="Path_7639" data-name="Path 7639" d="M264.659,273.4V246.03l9.386,3.65v27.375Z" transform="translate(-191.661 -177.723)" fill="#407bff"/>
            <path id="Path_7640" data-name="Path 7640" d="M199.21,313.367v-18.25l9.386,3.65v18.25Z" transform="translate(-162.71 -199.436)" fill="#407bff"/>
            <path id="Path_7641" data-name="Path 7641" d="M133.76,346.092v-18.25l9.386,3.65v18.25Z" transform="translate(-133.76 -213.912)" fill="#407bff"/>
          </g>
          <path id="Path_7642" data-name="Path 7642" d="M374.07,117.752l10.964-13.18L396,125.733Z" transform="translate(-217.039 -104.572)" fill="#407bff"/>
        </g>
      </g>
      <g id="Character" transform="translate(41.585 87.472)">
        <g id="Group_337" data-name="Group 337">
          <g id="Group_321" data-name="Group 321" transform="translate(0 44.505)">
            <path id="Path_7643" data-name="Path 7643" d="M177.868,162.587a29.779,29.779,0,0,0-2.056,5.337c-.013.046-.026.092-.038.138-.074.279-.225.915-.232.948-.064.288-.124.579-.177.873,0,.014-.11.659-.152.97l-.013.108c-.08.632-.139,1.975-.139,2q-.005.486.021.973c0,.018.052.713.1,1.042v0l.011.093c0-.031-.006-.062-.011-.093.85,5.313,1.645,6.008,2.292,7.98,1.908,5.805,3.389,24.207,3.389,24.207-11.03,2.973-24.313,15.074-24.313,15.074l2.386,5.511s28.617-13.533,30.647-16.283c2.411-3.265,1.027-20.549,1.784-27.363.28-2.522.6-4.71.92-6.664l3.587-5.528Z" transform="translate(-146.83 -162.587)" fill="#263238"/>
            <g id="Group_320" data-name="Group 320" transform="translate(0 12.267)">
              <path id="Path_7644" data-name="Path 7644" d="M202.234,186.861l-2.138-2.278s-3.969,3.3,10.045,15.441c.018-2.425.078-4.594.255-6.187.023-.207.048-.4.071-.6Z" transform="translate(-165.864 -184.583)" opacity="0.2"/>
              <path id="Path_7645" data-name="Path 7645" d="M152.665,271.313l-5.8,2.951,1.788,2.928,5.4-2.394Z" transform="translate(-142.548 -222.946)" fill="#ffc3bd"/>
              <g id="Group_319" data-name="Group 319" transform="translate(0 50.631)">
                <path id="Path_7646" data-name="Path 7646" d="M150.512,283.074a.1.1,0,0,1,.02-.106.094.094,0,0,1,.106-.018c.064.03,1.5.717,1.726,1.365a.492.492,0,0,1-.013.368.352.352,0,0,1-.331.238c-.267-.013-.631-.381-.911-.786A6.975,6.975,0,0,1,150.512,283.074Zm.276.178c.345.658.919,1.476,1.235,1.48.041,0,.1-.008.158-.132a.26.26,0,0,0,0-.226.637.637,0,0,0-.083-.161A4.337,4.337,0,0,0,150.788,283.253Z" transform="translate(-144.158 -278.721)" fill="#407bff"/>
                <path id="Path_7647" data-name="Path 7647" d="M150.475,282.716a.093.093,0,0,1,.046-.083,2.692,2.692,0,0,1,1.611-.366.7.7,0,0,1,.429.339c.125.227.064.368-.019.437-.318.323-1.566.029-2.008-.24a.054.054,0,0,1-.025-.03A.09.09,0,0,1,150.475,282.716Zm1.9-.061a.488.488,0,0,0-.282-.2,2.207,2.207,0,0,0-1.3.259,2.439,2.439,0,0,0,1.633.2c.016-.02.065-.068-.019-.214l-.035-.041Z" transform="translate(-144.145 -278.406)" fill="#407bff"/>
                <path id="Path_7648" data-name="Path 7648" d="M145.7,279.079l-2.461-3.555a.348.348,0,0,0-.417-.125l-3.337,1.359a.579.579,0,0,0-.266.861c.909,1.266,1.768,2.357,2.87,3.954,1.3,1.883.747,1.561,2.248,3.8.906,1.346,2.59.54,2.274-.076-1.466-2.815-.87-3.624-.635-5.264A1.4,1.4,0,0,0,145.7,279.079Z" transform="translate(-139.124 -275.373)" fill="#263238"/>
              </g>
              <path id="Path_7649" data-name="Path 7649" d="M153.9,272.148l-2.173,1.106,1.573,3.2,1.794-.795Z" transform="translate(-144.699 -223.316)" opacity="0.2"/>
              <path id="Path_7650" data-name="Path 7650" d="M154.57,266.276l-2.455,1.43,3.076,7.053,2.854-.793Z" transform="translate(-144.87 -220.718)" fill="#407bff"/>
            </g>
          </g>
          <g id="Group_326" data-name="Group 326" transform="translate(33.737 51.159)">
            <g id="Group_322" data-name="Group 322">
              <path id="Path_7651" data-name="Path 7651" d="M227.378,208.4S202.24,187.2,200.1,183.44s3.584-8.921,3.584-8.921l6.377.893s26.86,24.372,25.76,29.251Z" transform="translate(-199.621 -174.519)" fill="#263238"/>
            </g>
            <g id="Group_325" data-name="Group 325" transform="translate(16.301 30.144)">
              <g id="Group_323" data-name="Group 323" transform="translate(2.373)">
                <path id="Path_7652" data-name="Path 7652" d="M250.633,228.573c-.7,4.951-11.318,28.762-11.318,28.762s-2.194-.129-6.209-2.638c0,0,4.2-18.818,8.455-26.124Z" transform="translate(-233.106 -228.573)" fill="#263238"/>
              </g>
              <path id="Path_7653" data-name="Path 7653" d="M234.839,277.445l-1.9,6.226,3.349.742,2.023-5.552Z" transform="translate(-230.66 -250.19)" fill="#ffc3bd"/>
              <g id="Group_324" data-name="Group 324" transform="translate(0 32.938)">
                <path id="Path_7654" data-name="Path 7654" d="M240.162,290.1a.1.1,0,0,1-.062-.088.094.094,0,0,1,.06-.089c.066-.025,1.556-.582,2.18-.3a.49.49,0,0,1,.257.264.353.353,0,0,1-.058.4,1.691,1.691,0,0,1-1.2.111A6.935,6.935,0,0,1,240.162,290.1Zm.32-.076c.713.209,1.7.363,1.923.137.031-.027.065-.079.015-.205a.258.258,0,0,0-.161-.159.629.629,0,0,0-.173-.052A4.347,4.347,0,0,0,240.483,290.021Z" transform="translate(-233.827 -288.479)" fill="#407bff"/>
                <path id="Path_7655" data-name="Path 7655" d="M240.1,289.241a.092.092,0,0,1-.028-.09,2.687,2.687,0,0,1,.853-1.414.7.7,0,0,1,.541-.075c.251.067.31.209.3.317.012.453-1.066,1.148-1.566,1.28a.057.057,0,0,1-.04,0A.089.089,0,0,1,240.1,289.241Zm1.276-1.414a.494.494,0,0,0-.339.064,2.207,2.207,0,0,0-.714,1.115c.531-.208,1.255-.771,1.274-1.04,0-.025,0-.094-.167-.135l-.054,0Z" transform="translate(-233.814 -287.637)" fill="#407bff"/>
                <path id="Path_7656" data-name="Path 7656" d="M234.877,288.886l-4.268-.693a.348.348,0,0,0-.379.214l-1.335,3.347a.579.579,0,0,0,.317.754.57.57,0,0,0,.118.034c1.543.223,2.924.361,4.839.675,2.261.368,1.643.545,4.295,1.014,1.6.282,2.186-1.491,1.522-1.691-3.044-.9-3.214-1.887-4.232-3.194A1.394,1.394,0,0,0,234.877,288.886Z" transform="translate(-228.851 -287.881)" fill="#263238"/>
              </g>
              <path id="Path_7657" data-name="Path 7657" d="M235.243,279.205l-.711,2.333,3.4,1.087.672-1.844Z" transform="translate(-231.364 -250.969)" opacity="0.2"/>
              <path id="Path_7658" data-name="Path 7658" d="M231.662,274.491l-.672,2.761,7.214,2.676,1.408-2.606Z" transform="translate(-229.797 -248.884)" fill="#407bff"/>
            </g>
          </g>
          <g id="Group_327" data-name="Group 327" transform="translate(21.282 16.881)">
            <path id="Path_7659" data-name="Path 7659" d="M179.082,144.036,179.5,140l3.522.734-1.2,4.092a7.379,7.379,0,0,1,1.094,3.575c-.091,1.679-1.053,1.45-1.053,1.45s.1,1.778-1.412,1.255-3.464-1.3-3.134-2.771A22.113,22.113,0,0,1,179.082,144.036Z" transform="translate(-177.286 -124.973)" fill="#ffc3bd"/>
            <path id="Path_7660" data-name="Path 7660" d="M205.512,115.134c-1.21-4.557-15.14-.21-15.14-.21s-6.8,2.194-8.583,3.845S179,130.121,179,130.121l4.882,1.065,3.025-8.344C200.509,120.5,206.686,119.558,205.512,115.134Z" transform="translate(-178.044 -113.053)" fill="#407bff"/>
            <path id="Path_7661" data-name="Path 7661" d="M187.371,142.216a.423.423,0,1,1-.037-.6A.424.424,0,0,1,187.371,142.216Z" transform="translate(-181.419 -125.642)" fill="#fff"/>
            <path id="Path_7662" data-name="Path 7662" d="M214.4,118.308l.031-4.305s-2.929-.5-7.382,7.893c2-.378,3.73-.743,5.184-1.129Z" transform="translate(-190.452 -113.471)" opacity="0.1"/>
          </g>
          <path id="Path_7663" data-name="Path 7663" d="M251.423,101.939l.57,2.7a2.071,2.071,0,0,1-1.8-.481Z" transform="translate(-188.253 -91.256)" fill="#ba4d3c"/>
          <path id="Path_7664" data-name="Path 7664" d="M252.938,99.59c-.023.282-.189.5-.374.485s-.327-.269-.3-.543.189-.5.374-.482S252.959,99.308,252.938,99.59Z" transform="translate(-189.169 -89.977)" fill="#263238"/>
          <path id="Path_7665" data-name="Path 7665" d="M230.189,112.026s2.421.177,3.158-4.2c0,0,2.373-.615,3.567.93s-2.047,4.085-.505,5.668S230.189,112.026,230.189,112.026Z" transform="translate(-179.405 -93.804)" fill="#ffc3bd"/>
          <path id="Path_7666" data-name="Path 7666" d="M239.334,112.343a8.244,8.244,0,0,0,1.021,1.789c.226-.545.515-1.1.7-1.628Z" transform="translate(-183.45 -95.858)" opacity="0.2"/>
          <path id="Path_7667" data-name="Path 7667" d="M233.76,92.761c-.479,3.736-.762,5.31.741,7.561,2.482,2.474,6.961,3.161,8.546-.36,1.428-3.168,1.969-8.732-1.365-10.914a5.142,5.142,0,0,0-7.922,3.712Z" transform="translate(-180.815 -85.183)" fill="#ffc3bd"/>
          <path id="Path_7668" data-name="Path 7668" d="M251.288,97.072a.155.155,0,0,0,.137.035,1.164,1.164,0,0,1,1.044.2.148.148,0,0,0,.208-.008.152.152,0,0,0-.01-.21,1.447,1.447,0,0,0-1.317-.27.149.149,0,0,0-.107.181h0A.157.157,0,0,0,251.288,97.072Z" transform="translate(-188.716 -88.965)" fill="#263238"/>
          <path id="Path_7669" data-name="Path 7669" d="M238.877,93.837l1.326-.076a3.231,3.231,0,0,1,.632-3.146c1.282-1.65,4.441-2.528,1.88-5.387a6.981,6.981,0,0,0-5.764-2.421l2.126,1.524s-4.385-3.218-6.97.279a3.061,3.061,0,0,1,1.956.038s-11.642,3.935-1.8,13.275c0,0,.373-.758,1.944.477a9.194,9.194,0,0,0,2.735-2.958C237.88,93.659,238.548,91.99,238.877,93.837Z" transform="translate(-178.574 -82.782)" fill="#263238"/>
          <path id="Path_7670" data-name="Path 7670" d="M245.28,99.9a2.892,2.892,0,0,1,.584,2.142c-.138,1.012-1.145,1.121-1.892.51-.676-.553-1.41-1.744-.893-2.6A1.311,1.311,0,0,1,245.28,99.9Z" transform="translate(-185.03 -90.098)" fill="#ffc3bd"/>
          <path id="Path_7671" data-name="Path 7671" d="M254.117,89s.34,2.029-2.85,3.232C251.267,92.237,255.706,92.69,254.117,89Z" transform="translate(-188.728 -85.534)" fill="#263238"/>
          <path id="Path_7672" data-name="Path 7672" d="M229.582,115.188l1.264-1.619s6.067.553,6.436,4Z" transform="translate(-179.136 -96.4)" fill="#407bff"/>
          <path id="Path_7673" data-name="Path 7673" d="M229.582,115.188l1.264-1.619s6.067.553,6.436,4Z" transform="translate(-179.136 -96.4)" fill="#fff" opacity="0.5"/>
          <path id="Path_7674" data-name="Path 7674" d="M200.363,129.049c1.675-4.161,4.367-15.214,8.655-15.718s16.616,4.423,18.07,8.805-15.429,29.319-15.429,29.319l-17.916-9.866S199.039,132.337,200.363,129.049Z" transform="translate(-163.284 -96.279)" fill="#407bff"/>
          <path id="Path_7675" data-name="Path 7675" d="M242.365,126.559s-3.25,6.2.669,14.011a77.366,77.366,0,0,0,3.972-7.877l-1.378-3.258Z" transform="translate(-184.231 -102.146)" opacity="0.1"/>
          <g id="Group_330" data-name="Group 330" transform="translate(39.652 21.797)">
            <g id="Group_328" data-name="Group 328">
              <path id="Path_7676" data-name="Path 7676" d="M210.764,133.258a12.466,12.466,0,0,0,7-1.361,19.458,19.458,0,0,0,5.907-4.865c1.563-1.743,3.66-3.732,6.1-4.057,5.532-.736,6.713,8.087,6.135,11.935-.688,4.576-3.259,8.765-6.075,12.341a44.8,44.8,0,0,1-5.558,5.978c-.66.579.372,1.477,1.025.9,5.284-4.635,10.417-11.2,11.818-18.206.845-4.227-.221-10.256-3.986-12.993-3.41-2.479-7.174-.189-9.665,2.32-3.322,3.346-7.163,7.445-12.438,6.662-.867-.129-1.136,1.212-.263,1.341Z" transform="translate(-210.228 -121.868)" fill="#407bff"/>
            </g>
            <g id="Group_329" data-name="Group 329" opacity="0.3">
              <path id="Path_7677" data-name="Path 7677" d="M210.764,133.258a12.466,12.466,0,0,0,7-1.361,19.458,19.458,0,0,0,5.907-4.865c1.563-1.743,3.66-3.732,6.1-4.057,5.532-.736,6.713,8.087,6.135,11.935-.688,4.576-3.259,8.765-6.075,12.341a44.8,44.8,0,0,1-5.558,5.978c-.66.579.372,1.477,1.025.9,5.284-4.635,10.417-11.2,11.818-18.206.845-4.227-.221-10.256-3.986-12.993-3.41-2.479-7.174-.189-9.665,2.32-3.322,3.346-7.163,7.445-12.438,6.662-.867-.129-1.136,1.212-.263,1.341Z" transform="translate(-210.228 -121.868)"/>
            </g>
          </g>
          <g id="Group_331" data-name="Group 331" transform="translate(57.331 22.873)">
            <path id="Path_7678" data-name="Path 7678" d="M279.179,151.227l-3.763,1.279-.514-2.837,3.857-1.21a5.006,5.006,0,0,1,2.3-2.6,1.635,1.635,0,0,1,2.159.505s1.542-.817,1.7.742.1,4.054-1.344,4.363S280.447,151.246,279.179,151.227Z" transform="translate(-256.513 -133.475)" fill="#ffc3bd"/>
            <path id="Path_7679" data-name="Path 7679" d="M262.586,138.5l-7.94,1.251c-5.216-12.219-7.483-17.619-11.447-15.5-4.159,2.222,3.22,14.076,3.22,14.076s3.5,6.432,5.36,8.02a1.406,1.406,0,0,0,.38.253c2.358.64,11.255-3.644,11.255-3.644Z" transform="translate(-241.928 -123.796)" fill="#407bff"/>
            <path id="Path_7680" data-name="Path 7680" d="M278.381,157.381a.424.424,0,1,1-.038-.6A.424.424,0,0,1,278.381,157.381Z" transform="translate(-257.724 -138.34)" fill="#fff"/>
          </g>
          <g id="Group_336" data-name="Group 336" transform="translate(26.321 31.163)">
            <path id="Rectangle_121" data-name="Rectangle 121" d="M3.242,0h20.73a3.242,3.242,0,0,1,3.242,3.242v8.2a5.585,5.585,0,0,1-5.585,5.585H5.585A5.585,5.585,0,0,1,0,11.442v-8.2A3.242,3.242,0,0,1,3.242,0Z" transform="translate(13.998 0) rotate(55.293)" fill="#407bff"/>
            <path id="Rectangle_122" data-name="Rectangle 122" d="M3.242,0h20.73a3.242,3.242,0,0,1,3.242,3.242v8.2a5.585,5.585,0,0,1-5.585,5.585H5.585A5.585,5.585,0,0,1,0,11.442v-8.2A3.242,3.242,0,0,1,3.242,0Z" transform="translate(13.998 0) rotate(55.293)" fill="#fff" opacity="0.3"/>
            <path id="Path_7681" data-name="Path 7681" d="M221.276,161.881,207.35,141.774a1.377,1.377,0,0,0-1.917-.348l-.415.288a3.88,3.88,0,0,0-.98,5.4l11.076,15.992a3.88,3.88,0,0,0,5.4.98l.415-.288A1.378,1.378,0,0,0,221.276,161.881Z" transform="translate(-193.852 -139.777)" opacity="0.1"/>
            <path id="Path_7682" data-name="Path 7682" d="M223.579,160.329l-13.926-20.106a1.378,1.378,0,0,0-1.917-.349l-.415.288a3.88,3.88,0,0,0-.98,5.4l11.076,15.992a3.88,3.88,0,0,0,5.4.98l.415-.288A1.377,1.377,0,0,0,223.579,160.329Z" transform="translate(-194.871 -139.091)" fill="#407bff"/>
            <g id="Group_332" data-name="Group 332" transform="translate(10.779 0.539)">
              <path id="Path_7683" data-name="Path 7683" d="M223.579,160.329l-13.926-20.106a1.378,1.378,0,0,0-1.917-.349l-.415.288a3.88,3.88,0,0,0-.98,5.4l11.076,15.992a3.88,3.88,0,0,0,5.4.98l.415-.288A1.377,1.377,0,0,0,223.579,160.329Z" transform="translate(-205.649 -139.63)" fill="#407bff"/>
              <path id="Path_7684" data-name="Path 7684" d="M223.579,160.329l-13.926-20.106a1.378,1.378,0,0,0-1.917-.349l-.415.288a3.88,3.88,0,0,0-.98,5.4l11.076,15.992a3.88,3.88,0,0,0,5.4.98l.415-.288A1.377,1.377,0,0,0,223.579,160.329Z" transform="translate(-205.649 -139.63)" fill="#fff" opacity="0.5"/>
            </g>
            <rect id="Rectangle_123" data-name="Rectangle 123" width="2.603" height="5.471" rx="1.301" transform="matrix(0.569, 0.822, -0.822, 0.569, 14.437, 6.674)" fill="#407bff"/>
            <path id="Rectangle_124" data-name="Rectangle 124" d="M1.3,0h0A1.3,1.3,0,0,1,2.6,1.3V4.169a1.3,1.3,0,0,1-1.3,1.3h0A1.3,1.3,0,0,1,0,4.169V1.3A1.3,1.3,0,0,1,1.3,0Z" transform="matrix(0.57, 0.822, -0.822, 0.57, 21.937, 17.502)" fill="#407bff"/>
            <rect id="Rectangle_125" data-name="Rectangle 125" width="2.603" height="5.471" rx="1.301" transform="matrix(0.569, 0.822, -0.822, 0.569, 14.437, 6.674)" opacity="0.3"/>
            <path id="Rectangle_126" data-name="Rectangle 126" d="M1.3,0h0A1.3,1.3,0,0,1,2.6,1.3V4.169a1.3,1.3,0,0,1-1.3,1.3h0A1.3,1.3,0,0,1,0,4.169V1.3A1.3,1.3,0,0,1,1.3,0Z" transform="matrix(0.57, 0.822, -0.822, 0.57, 21.937, 17.502)" opacity="0.3"/>
            <path id="Path_7685" data-name="Path 7685" d="M190.66,162.312s4.648,7.658,8.639,5.4L195.988,170Z" transform="translate(-188.24 -149.124)" opacity="0.2"/>
            <g id="Group_335" data-name="Group 335" transform="translate(19.193 6.21)">
              <g id="Group_333" data-name="Group 333">
                <path id="Path_7686" data-name="Path 7686" d="M221.4,152.608a8.644,8.644,0,0,0,2.6-1.2c.628-.294-.119-.555.438-.039a3.5,3.5,0,0,1,.477.708c.374.592.692,1.22,1.08,1.8.334.5,1.2,1.034,1.42,1.546.353.836-1.462,2.008-1.983,2.435-.63.517.09,1.569.726,1.048.908-.744,2.709-1.938,2.645-3.322-.04-.858-.792-1.255-1.31-1.826-.976-1.077-1.368-3-2.663-3.77a1.13,1.13,0,0,0-1.255-.015c-.505.277-.741.828-1.322,1.083a3.724,3.724,0,0,1-.952.272c-.81.115-.716,1.387.1,1.271Z" transform="translate(-220.739 -149.798)" fill="#407bff"/>
              </g>
              <g id="Group_334" data-name="Group 334" opacity="0.3">
                <path id="Path_7687" data-name="Path 7687" d="M221.4,152.608a8.644,8.644,0,0,0,2.6-1.2c.628-.294-.119-.555.438-.039a3.5,3.5,0,0,1,.477.708c.374.592.692,1.22,1.08,1.8.334.5,1.2,1.034,1.42,1.546.353.836-1.462,2.008-1.983,2.435-.63.517.09,1.569.726,1.048.908-.744,2.709-1.938,2.645-3.322-.04-.858-.792-1.255-1.31-1.826-.976-1.077-1.368-3-2.663-3.77a1.13,1.13,0,0,0-1.255-.015c-.505.277-.741.828-1.322,1.083a3.724,3.724,0,0,1-.952.272c-.81.115-.716,1.387.1,1.271Z" transform="translate(-220.739 -149.798)"/>
              </g>
            </g>
          </g>
        </g>
      </g>
    </g>
  </g>
</svg>
