<svg xmlns="http://www.w3.org/2000/svg" width="52" height="45.5" viewBox="0 0 52 45.5"><defs><style>.a{fill:#2ab39e;}</style></defs><path class="a" d="M47.125,25H39V18.5A6.506,6.506,0,0,1,45.5,12h.813A2.432,2.432,0,0,0,48.75,9.563V4.688A2.432,2.432,0,0,0,46.313,2.25H45.5A16.246,16.246,0,0,0,29.25,18.5V42.875a4.876,4.876,0,0,0,4.875,4.875h13A4.876,4.876,0,0,0,52,42.875v-13A4.876,4.876,0,0,0,47.125,25Zm-29.25,0H9.75V18.5a6.506,6.506,0,0,1,6.5-6.5h.813A2.432,2.432,0,0,0,19.5,9.563V4.688A2.432,2.432,0,0,0,17.063,2.25H16.25A16.246,16.246,0,0,0,0,18.5V42.875A4.876,4.876,0,0,0,4.875,47.75h13a4.876,4.876,0,0,0,4.875-4.875v-13A4.876,4.876,0,0,0,17.875,25Z" transform="translate(0 -2.25)"/></svg>