<svg xmlns="http://www.w3.org/2000/svg" width="40.535" height="40.535" viewBox="0 0 40.535 40.535"><defs><style>.a{fill:#2a84b3;}</style></defs><g transform="translate(-2 -2)"><path class="a" d="M41.378,31.676c-1.308,0-2.027-.507-2.027-.676H38c0,1.155,1.452,2.027,3.378,2.027s3.378-.871,3.378-2.027H43.4C43.4,31.168,42.686,31.676,41.378,31.676Z" transform="translate(-11.679 -9.408)"/><rect class="a" width="2" height="1" transform="translate(26.535 36)"/><rect class="a" width="2" height="2" transform="translate(26.535 38)"/><rect class="a" width="1" height="1" transform="translate(31.535 36)"/><rect class="a" width="1" height="2" transform="translate(31.535 38)"/><path class="a" d="M14.783,32H6.676A.676.676,0,0,0,6,32.676v2.7a.676.676,0,0,0,.676.676h8.107a.676.676,0,0,0,.676-.676v-2.7A.676.676,0,0,0,14.783,32Zm-.676,2.7H7.351V33.351h6.756Z" transform="translate(-1.298 -9.733)"/><path class="a" d="M9.378,40h-2.7A.676.676,0,0,0,6,40.676v2.7a.676.676,0,0,0,.676.676h2.7a.676.676,0,0,0,.676-.676v-2.7A.676.676,0,0,0,9.378,40ZM8.7,42.7H7.351V41.351H8.7Z" transform="translate(-1.298 -12.328)"/><path class="a" d="M17.378,40h-2.7a.676.676,0,0,0-.676.676v2.7a.676.676,0,0,0,.676.676h2.7a.676.676,0,0,0,.676-.676v-2.7A.676.676,0,0,0,17.378,40ZM16.7,42.7H15.351V41.351H16.7Z" transform="translate(-3.893 -12.328)"/><path class="a" d="M17.378,48h-2.7a.676.676,0,0,0-.676.676v2.7a.676.676,0,0,0,.676.676h2.7a.676.676,0,0,0,.676-.676v-2.7A.676.676,0,0,0,17.378,48ZM16.7,50.7H15.351V49.351H16.7Z" transform="translate(-3.893 -14.923)"/><path class="a" d="M9.378,48h-2.7A.676.676,0,0,0,6,48.676v2.7a.676.676,0,0,0,.676.676h2.7a.676.676,0,0,0,.676-.676v-2.7A.676.676,0,0,0,9.378,48ZM8.7,50.7H7.351V49.351H8.7Z" transform="translate(-1.298 -14.923)"/><path class="a" d="M41.184,29.344V13.485a11.485,11.485,0,0,0-22.97,0v15.86a3.374,3.374,0,0,0-1.351,2.7V21.592a2.027,2.027,0,0,0-2.027-2.027H4.027A2.027,2.027,0,0,0,2,21.592V37.806a2.027,2.027,0,0,0,2.027,2.027H14.836a2.027,2.027,0,0,0,2.027-2.027v4.053a.676.676,0,0,0,.676.676H41.859a.676.676,0,0,0,.676-.676V32.043a3.372,3.372,0,0,0-1.351-2.7ZM15.512,37.806a.676.676,0,0,1-.676.676H4.027a.676.676,0,0,1-.676-.676V21.592a.676.676,0,0,1,.676-.676H14.836a.676.676,0,0,1,.676.676ZM39.237,14.75a2.039,2.039,0,0,1,.6,1.438,2.018,2.018,0,0,1-1.351,1.9v-3.8A2.04,2.04,0,0,1,39.237,14.75ZM31.726,28.188,29.7,32.242l-2.027-4.053V26.751a8.5,8.5,0,0,0,4.053,0ZM29.7,25.645a7.44,7.44,0,0,1-7.431-7.431v-3.1l.676.676v2.423a.676.676,0,0,0,.676.676h4.053a.676.676,0,0,0,.676-.676v-.676h2.7v.676a.676.676,0,0,0,.676.676h4.053a.676.676,0,0,0,.676-.676V15.791l.676-.676v3.1A7.44,7.44,0,0,1,29.7,25.645Zm-5.4-8.107V16.187H27v1.351Zm8.107,0V16.187h2.7v1.351Zm3.1-2.7H31.726a.676.676,0,0,0-.676.676v.676h-2.7v-.676a.676.676,0,0,0-.676-.676H23.9l-1.023-1.024L32.952,10.85l3.812,2.723ZM20.916,18.09a2.021,2.021,0,0,1-.762-3.333,2.069,2.069,0,0,1,.762-.473Zm.106,1.419a8.8,8.8,0,0,0,5.3,6.813v1.443l-6.553.936c-.068.009-.135.034-.2.047v-9.88a3.382,3.382,0,0,0,1.457.638Zm7.415,13.231-3.05-.762,1.525-2.287Zm4.047-3.049,1.525,2.287-3.05.762Zm.592-3.369a8.8,8.8,0,0,0,5.3-6.811,3.341,3.341,0,0,0,1.457-.638v9.874c-.068-.013-.128-.038-.2-.047l-6.561-.937ZM29.7,3.351A10.12,10.12,0,0,1,39.833,13.485V13.5a3.352,3.352,0,0,0-1.775-.668L33.469,9.557a.676.676,0,0,0-.583-.1L21.445,12.823a3.354,3.354,0,0,0-1.88.676v-.014A10.145,10.145,0,0,1,29.7,3.351ZM18.214,32.043a2.027,2.027,0,0,1,1.025-1.757,1.84,1.84,0,0,1,.713-.247l5.644-.807-1.864,2.8a.676.676,0,0,0,.4,1.03l4.893,1.221v6.9H18.214Zm22.97,9.141H30.374v-6.9l4.893-1.223a.676.676,0,0,0,.4-1.03L33.8,29.23l5.65.811a1.86,1.86,0,0,1,.722.255,2.017,2.017,0,0,1,1.011,1.748Z" transform="translate(0)"/><path class="a" d="M9.431,18.863A7.431,7.431,0,1,0,2,11.431a7.431,7.431,0,0,0,7.431,7.431Zm0-13.512a6.08,6.08,0,1,1-6.08,6.08,6.08,6.08,0,0,1,6.08-6.08Z" transform="translate(0 -0.649)"/><path class="a" d="M11.7,15.783a1.351,1.351,0,0,1-1.351-1.351H9a2.7,2.7,0,0,0,2.027,2.606v.772h1.351v-.772a2.7,2.7,0,0,0-.676-5.309,1.351,1.351,0,1,1,1.351-1.351H14.4a2.7,2.7,0,0,0-2.027-2.606V7H11.027v.772A2.7,2.7,0,0,0,11.7,13.08a1.351,1.351,0,0,1,0,2.7Z" transform="translate(-2.271 -1.622)"/></g></svg>