<svg xmlns="http://www.w3.org/2000/svg" width="61.697" height="31.8" viewBox="0 0 61.697 31.8"><defs><style>.a{fill:#2a84b3;}</style></defs><g transform="translate(0 -124.053)"><g transform="translate(35.04 133.592)"><path class="a" d="M293,203.211h-1.314a.9.9,0,0,0-.9.9v4.81a.9.9,0,0,0,.9.9H293c3.66,0,4.055-2.332,4.055-3.335C297.058,205.507,296.663,203.211,293,203.211Zm-.409,4.81v-3c1.41,0,2.655.073,2.655,1.475C295.249,207.934,294.038,208.021,292.594,208.021Z" transform="translate(-290.785 -203.211)"/></g><g transform="translate(20.296 135.528)"><g transform="translate(0 0)"><path class="a" d="M173.979,225.9l-1.853-5.987a.93.93,0,0,0-1.762-.006l-1.893,5.968a.9.9,0,0,0,.539,1.118,6.5,6.5,0,0,0,4.416.024A.9.9,0,0,0,173.979,225.9Zm-3.5-.378.754-2.376.737,2.382A4.9,4.9,0,0,1,170.48,225.524Z" transform="translate(-168.428 -219.279)"/></g></g><g transform="translate(0 124.053)"><g transform="translate(0 0)"><path class="a" d="M60.248,124.053H26.768a.9.9,0,1,0,0,1.809H59.375l-13.5,13.495c.635-2.131.55-5.883-2.088-7.91-1.54-1.183-3.792-1.758-6.882-1.758H30.936a.9.9,0,0,0-.9.9v9.1l-3.459-9.414a.9.9,0,0,0-.849-.592H20.553a.9.9,0,0,0-.847.587l-3.66,9.752c-2.2-2.975-7.029-3.106-8.3-4.49a2.526,2.526,0,0,1,1.715-.323,8.767,8.767,0,0,1,4.012,1.088.9.9,0,0,0,1.178-.363c2.242-3.9,2.31-3.827,2.162-4.323a.9.9,0,0,0-.458-.548c-4.62-2.343-11.736-2.664-14.546,1.7v-6.9H22.548a.9.9,0,1,0,0-1.809H1.447A1.449,1.449,0,0,0,0,125.5v29.448a.9.9,0,0,0,.9.9H22.548a.9.9,0,1,0,0-1.809H1.809V148.7c3.247,1.69,7.7,2.309,10.967.817a.9.9,0,0,0,.82.522h5.42a.9.9,0,0,0,.859-.622l.637-1.937a11.357,11.357,0,0,0,5.114.017l.615,1.914a.9.9,0,0,0,.861.628h8.09l-4,4H26.768a.9.9,0,1,0,0,1.809H31.34a1.457,1.457,0,0,0,1.023-.424l28.908-28.9A1.448,1.448,0,0,0,60.248,124.053ZM2.808,143.59l-1,1.982V139.33c1.254,1.845,3.659,2.83,5.8,3.492.669.208,2.236.7,2.354,1.032-.01.555-.874.637-1.426.65a7.4,7.4,0,0,1-4.467-1.286A.9.9,0,0,0,2.808,143.59Zm34.041,4.8v-4.071a13.247,13.247,0,0,0,4.622-.551Zm1.021-5.88H35.944a.9.9,0,0,0-.9.9v4.823H27.762l-.678-2.11a.9.9,0,0,0-1.137-.585,9.453,9.453,0,0,1-5.739-.019.9.9,0,0,0-1.144.576l-.7,2.138H14.9l.139-.372a.9.9,0,0,0-.329-1.058c-1.271-.888-1.262,1.7-6.177,1.748a12.763,12.763,0,0,1-5.553-1.283L4,145.243a8.718,8.718,0,0,0,4.58,1.069c2.336-.056,3.175-1.276,3.2-2.426.064-3.677-9.2-2.02-9.1-7.937.066-4.337,5.976-6.105,11.989-3.665l-1.172,2.037c-3.643-1.57-7.556-1.14-7.6,1.209-.017,1.171,1.229,2.122,3.927,2.993,2.732.865,5.023,1.769,5.386,4.074a.905.905,0,0,0,1.74.177L21.18,131.5h3.913l4.994,13.594a.905.905,0,0,0,1.753-.312V131.5c6.888,0,12.549-.667,12.549,5.561C44.389,140.521,42.013,142.506,37.87,142.506Z" transform="translate(0 -124.053)"/></g></g></g></svg>