<svg xmlns="http://www.w3.org/2000/svg" width="39.927" height="39.905" viewBox="0 0 39.927 39.905"><defs><style>.a{fill:#2a84b3;}</style></defs><g transform="translate(-2 -2.033)"><path class="a" d="M38.6,7.335H27.913a5.989,5.989,0,0,0-11.9,0H5.327A3.331,3.331,0,0,0,2,10.662V31.956a3.331,3.331,0,0,0,3.327,3.327H17.305v2.662H12.647a2,2,0,0,0,0,3.993H31.28a2,2,0,1,0,0-3.993H26.622V35.284H38.6a3.331,3.331,0,0,0,3.327-3.327V10.662A3.331,3.331,0,0,0,38.6,7.335ZM19.3,8.666h5.324V10H19.3ZM19.4,7.335a2.649,2.649,0,0,1,5.135,0ZM19.3,11.327h5.324v1.8a7.838,7.838,0,0,0-5.324,0Zm2.662,2.662a6.655,6.655,0,1,1-6.655,6.655,6.655,6.655,0,0,1,6.655-6.655Zm-5.989,1.39a7.985,7.985,0,1,0,11.978,0V11.327h9.982V29.96H5.993V11.327h9.982ZM21.964,3.342A4.65,4.65,0,0,1,26.622,8v6.171q-.321-.232-.665-.432V8a3.993,3.993,0,0,0-7.985,0v5.739q-.344.2-.665.432V8a4.663,4.663,0,0,1,4.658-4.658Zm9.982,36.6a.665.665,0,0,1-.665.665H12.647a.665.665,0,0,1,0-1.331H31.28A.665.665,0,0,1,31.945,39.942Zm-6.655-2H18.636V35.284h6.655ZM40.6,31.956a2,2,0,0,1-2,2H5.327a2,2,0,0,1-2-2V10.662a2,2,0,0,1,2-2H15.974V10H5.327a.665.665,0,0,0-.665.665V30.626a.665.665,0,0,0,.665.665H38.6a.665.665,0,0,0,.665-.665V10.662A.665.665,0,0,0,38.6,10H27.953V8.666H38.6a2,2,0,0,1,2,2Z"/><path class="a" d="M32,47H30.665a.665.665,0,0,0,0,1.331H32A.665.665,0,0,0,32,47Z" transform="translate(-9.367 -15.044)"/><path class="a" d="M30.331,27.866v3.45a.665.665,0,0,0,1.331,0v-3.45a2,2,0,1,0-1.331,0ZM31,25.327a.665.665,0,1,1-.665.665A.665.665,0,0,1,31,25.327Z" transform="translate(-9.033 -7.345)"/></g></svg>