<svg xmlns="http://www.w3.org/2000/svg" width="18.286" height="14.88" viewBox="0 0 18.286 14.88"><defs><style>.a{fill:#2a84b3;}</style></defs><path class="a" d="M19.7,6.263a7.585,7.585,0,0,1-2.154.593A3.765,3.765,0,0,0,19.2,4.779a7.455,7.455,0,0,1-2.383.911,3.75,3.75,0,0,0-6.491,2.565,3.673,3.673,0,0,0,.1.856A10.632,10.632,0,0,1,2.684,5.186,3.759,3.759,0,0,0,3.851,10.2a3.664,3.664,0,0,1-1.7-.469v.047a3.755,3.755,0,0,0,3.011,3.681,3.776,3.776,0,0,1-.988.132,3.539,3.539,0,0,1-.705-.07A3.758,3.758,0,0,0,6.97,16.129a7.522,7.522,0,0,1-4.662,1.608,7.6,7.6,0,0,1-.9-.054,10.486,10.486,0,0,0,5.743,1.7A10.611,10.611,0,0,0,17.839,8.693c0-.163,0-.325-.012-.484A7.637,7.637,0,0,0,19.7,6.263Z" transform="translate(-1.413 -4.5)"/></svg>