<svg xmlns="http://www.w3.org/2000/svg" width="861.169" height="534.216" viewBox="0 0 861.169 534.216"><defs><style>.a,.d{fill:#6c63ff;}.a,.e{opacity:0.1;}.b,.h{opacity:0.2;}.c{fill:#3f3d56;}.f{fill:#f1c0c0;}.g{fill:#be6f72;}.i{fill:#fed253;}.j{fill:#fbbebe;}</style></defs><g transform="translate(0.02 0)"><path class="a" d="M872.239,430.874a179.42,179.42,0,0,1-5.169,42.945q-1.74,7.1-4.043,13.907a165.063,165.063,0,0,1-6.522,16.458q-1.864,4.07-3.941,7.979a108.12,108.12,0,0,1-8.9,43.13A111.119,111.119,0,0,1,742.4,621.953H174.561a142.137,142.137,0,0,1-71.959-19.4l-.336-.192q-4.672-2.758-9.11-5.84a143.139,143.139,0,0,1-18.7-15.544,140.1,140.1,0,0,1-20.552-25.683A137.914,137.914,0,0,1,33,482.122C19.149,457.6,11.07,428.234,11.07,396.674c0-39.819,12.839-76.143,33.932-103.64a145.292,145.292,0,0,1,14.411-16.171,134.346,134.346,0,0,1,16.48-13.6,128.011,128.011,0,0,1,14.623-8.849c2.113-1.084,4.233-2.109,6.39-3.06,1.894-.848,3.809-1.637,5.747-2.382q3.488-1.335,7.063-2.456t7.056-1.961q5.118-1.261,10.411-2.05c2.925-.435,5.849-.737,8.774-.966,2.325-.177,4.672-.273,7.034-.3h1.279c2.6,0,5.191.1,7.757.28.271-.546.563-1.1.833-1.637,1.024-1.969,2.084-3.93,3.151-5.847a.186.186,0,0,1,0-.052c.183-.339.366-.671.556-1,.863-1.571,1.762-3.127,2.683-4.668.424-.737.841-1.431,1.272-2.124a5.656,5.656,0,0,1,.3-.5q.658-1.106,1.338-2.212,3.385-5.457,7.041-10.722l.621-.9c.38-.546.731-1.077,1.155-1.622,1.009-1.423,2.047-2.854,3.093-4.255.731-1,1.462-2,2.252-2.95q2.851-3.687,5.849-7.374t6.229-7.278c.292-.332.585-.656.892-.981l3.122-3.436h0c.154-.162.285-.31.431-.457h0c.373-.406.731-.811,1.133-1.2,1.674-1.792,3.393-3.547,5.118-5.294a279.423,279.423,0,0,1,28-24.607c.388-.31.782-.6,1.17-.9,1.857-1.408,3.743-2.8,5.63-4.174A295.947,295.947,0,0,1,266.37,126.9c.775-.45,1.565-.87,2.362-1.283A308.772,308.772,0,0,1,299.8,111.194c5.783-2.308,11.7-4.476,17.65-6.459,3.963-1.313,7.94-2.559,11.969-3.731q9.446-2.743,19.024-4.918a336.072,336.072,0,0,1,57.2-7.861q8.774-.45,17.745-.465a337.265,337.265,0,0,1,85.544,10.913,3.078,3.078,0,0,0,2.654,1.394h2.457c1.068.295,2.128.59,3.2.9q8.942,2.6,17.628,5.671l1.462.531A313.352,313.352,0,0,1,577.94,125.6a299.843,299.843,0,0,1,34.839,21.709q2.566,1.858,5.06,3.746,3.027-1.954,6.156-3.746a120.546,120.546,0,0,1,25.5-10.965,115.375,115.375,0,0,1,57.2-2.256c24.31,5.2,46.318,18.1,64.092,36.456a150.651,150.651,0,0,1,19.222,24.614c.4.634.8,1.276,1.192,1.925a162.778,162.778,0,0,1,12.239,24.607c.124.317.249.612.358.922a171.465,171.465,0,0,1,7.531,24.592c.088.428.19.848.278,1.276a178.481,178.481,0,0,1,3.6,24.607,4.807,4.807,0,0,0,.058.907q.461,6.423.468,12.978c0,3.908-.132,7.787-.373,11.636,0,.42-.058.855-.1,1.29-.066,1.113-.161,2.212-.256,3.333A139.242,139.242,0,0,1,830.644,318.1q3.2,3.517,6.185,7.3a155.447,155.447,0,0,1,15.939,24.607A173.87,173.87,0,0,1,872.239,430.874Z" transform="translate(-11.09 -87.76)"/><path class="a" d="M823.155,783.752c0,5.036-17.2,9.756-47.224,13.811H208.1a142.139,142.139,0,0,1-71.959-19.4l-.336-.192c8.627-3.171,24.2-6.128,45.4-8.8h0l.951-.118c9.5-1.172,20.128-2.286,31.739-3.34a7.173,7.173,0,0,0,.885-.081h0q13.819-1.239,29.4-2.323c.329,0,.651-.059.98-.074q6.01-.435,12.269-.826h0l1.609-.1c30.379-1.9,64.911-3.421,102.36-4.424h.044q7.867-.221,15.9-.391,8.935-.214,18.088-.376c4.657-.1,9.373-.177,14.1-.251h.11c21.342-.324,43.393-.487,65.942-.487,55.757,0,108.458,1.025,155.156,2.868h.132c7.18.28,14.228.59,21.1.907l5.849.28q11.632.56,22.665,1.2h0C766.974,766.6,823.155,774.66,823.155,783.752Z" transform="translate(-44.625 -263.348)"/><g class="b" transform="translate(454.29 291.258)"><path class="c" d="M685.625,748.028a14.116,14.116,0,0,1-.27,2.367q-7.633-1.224-15.354-2.212v-.634a12.525,12.525,0,0,1,1.828-6.253,6.778,6.778,0,0,1,12.378.383,12.527,12.527,0,0,1,1.418,6.349Z" transform="translate(-642.539 -549.639)"/><ellipse class="c" cx="10.329" cy="7.821" rx="10.329" ry="7.821" transform="translate(27.546 195.618) rotate(-88.19)"/><ellipse class="c" cx="10.329" cy="7.821" rx="10.329" ry="7.821" transform="translate(27.944 182.994) rotate(-88.19)"/><ellipse class="c" cx="10.329" cy="7.821" rx="10.329" ry="7.821" transform="translate(28.336 170.37) rotate(-88.19)"/><ellipse class="c" cx="10.329" cy="7.821" rx="10.329" ry="7.821" transform="translate(28.728 157.745) rotate(-88.19)"/><path class="d" d="M642.7,543.068a36.674,36.674,0,0,1-2.778-4.424l20.662-2.75-22.241-.538a38.184,38.184,0,0,1,.227-29.967L667.9,521.941l-26.87-21.266a37.352,37.352,0,0,1,66.481,5.3,38.069,38.069,0,0,1-5.913,38.943,37.538,37.538,0,0,1,4.058,7.027l-27.118,13.125,28.756-8.723a38.106,38.106,0,0,1-7.18,35.328,38.041,38.041,0,0,1-5.62,51,37.261,37.261,0,0,1-50.859-1.617,38.049,38.049,0,0,1-2.423-51.26,38.066,38.066,0,0,1,1.462-46.736Z" transform="translate(-632.44 -482.747)"/><path class="e" d="M708.888,598.911a37.792,37.792,0,0,1-8.774,23.11,38.041,38.041,0,0,1-5.62,51,37.261,37.261,0,0,1-50.859-1.617,38.049,38.049,0,0,1-2.423-51.26C636.41,613.563,709.02,594.672,708.888,598.911Z" transform="translate(-632.44 -513.092)"/></g><g class="b" transform="translate(343.157 291.258)"><path class="c" d="M533.625,748.028a14.116,14.116,0,0,1-.271,2.367q-7.633-1.224-15.354-2.212v-.634a12.524,12.524,0,0,1,1.828-6.253,6.778,6.778,0,0,1,12.378.383,12.527,12.527,0,0,1,1.418,6.349Z" transform="translate(-490.539 -549.639)"/><ellipse class="c" cx="10.329" cy="7.821" rx="10.329" ry="7.821" transform="translate(27.537 195.621) rotate(-88.19)"/><ellipse class="c" cx="10.329" cy="7.821" rx="10.329" ry="7.821" transform="translate(27.936 182.997) rotate(-88.19)"/><ellipse class="c" cx="10.329" cy="7.821" rx="10.329" ry="7.821" transform="translate(28.328 170.372) rotate(-88.19)"/><ellipse class="c" cx="10.329" cy="7.821" rx="10.329" ry="7.821" transform="translate(28.719 157.748) rotate(-88.19)"/><path class="d" d="M490.7,543.068a36.663,36.663,0,0,1-2.778-4.424l20.662-2.75-22.241-.538a38.184,38.184,0,0,1,.227-29.967L515.9,521.941l-26.869-21.266a37.352,37.352,0,0,1,66.481,5.3,38.069,38.069,0,0,1-5.913,38.943,37.531,37.531,0,0,1,4.058,7.027l-27.118,13.125,28.756-8.723a38.106,38.106,0,0,1-7.18,35.328,38.041,38.041,0,0,1-5.62,51,37.261,37.261,0,0,1-50.858-1.617,38.049,38.049,0,0,1-2.423-51.26,38.067,38.067,0,0,1,1.462-46.736Z" transform="translate(-480.44 -482.747)"/><path class="e" d="M556.888,598.911a37.792,37.792,0,0,1-8.774,23.11,38.041,38.041,0,0,1-5.62,51,37.261,37.261,0,0,1-50.858-1.617,38.049,38.049,0,0,1-2.423-51.26C484.41,613.563,557.02,594.672,556.888,598.911Z" transform="translate(-480.44 -513.092)"/></g><g class="b" transform="translate(606.913 115.921)"><path class="c" d="M943.488,755.469a27.726,27.726,0,0,1-.534,4.483q-14.7-2.367-29.6-4.233V754.5a24.115,24.115,0,0,1,3.524-12.042c2.925-4.623,7.311-7.521,12.159-7.374s9.066,3.326,11.7,8.111a24.156,24.156,0,0,1,2.756,12.27Z" transform="translate(-860.588 -373.676)"/><ellipse class="c" cx="19.89" cy="15.064" rx="19.89" ry="15.064" transform="translate(52.952 376.444) rotate(-88.19)"/><ellipse class="c" cx="19.89" cy="15.064" rx="19.89" ry="15.064" transform="translate(53.712 352.139) rotate(-88.19)"/><ellipse class="c" cx="19.89" cy="15.064" rx="19.89" ry="15.064" transform="translate(54.48 327.835) rotate(-88.19)"/><ellipse class="c" cx="19.891" cy="15.064" rx="19.891" ry="15.064" transform="translate(54.396 302.479) rotate(-88.282)"/><path class="d" d="M860.879,360.96a73.29,73.29,0,0,1-5.345-8.5l39.774-5.294-42.808-1.04a73.5,73.5,0,0,1,.424-57.693L909.4,320.293l-51.721-40.94a71.907,71.907,0,0,1,127.9,10.3,73.288,73.288,0,0,1-11.3,74.908,72.939,72.939,0,0,1,7.816,13.531l-52.211,25.285,55.355-16.812a73.3,73.3,0,0,1-13.767,67.95A73.233,73.233,0,0,1,960.647,552.7a71.732,71.732,0,0,1-97.9-3.113,73.249,73.249,0,0,1-4.671-98.678,73.3,73.3,0,0,1,2.808-89.961Z" transform="translate(-841.186 -244.965)"/><path class="e" d="M988.328,468.409A72.873,72.873,0,0,1,971.511,512.9a73.234,73.234,0,0,1-10.825,98.185,71.732,71.732,0,0,1-97.9-3.113,73.249,73.249,0,0,1-4.67-98.678C848.8,496.607,988.583,460.246,988.328,468.409Z" transform="translate(-841.197 -303.334)"/></g><path class="f" d="M157.82,507.775l7.67-.022H176.3l13.672-224,135.4-227.875L319.49,49.5V33.37L173.057,278.47Z" transform="translate(-42.436 -8.763)"/><path class="e" d="M169.43,513.5h9.995l13.672-224L328.5,61.621l-5.886-6.371L182.949,286.082Z" transform="translate(-45.558 -14.509)"/><path class="f" d="M126.91,673.682l350.839,27.077.3.022,339.535-21.06.256-.015v-14.46l-374.126-6.924-312.132-.3H129.3l-.249,1.622Z" transform="translate(-34.126 -172.805)"/><path class="e" d="M126.91,673.682l350.839,27.077.3.022,339.535-21.06.256-.28V665.549h-.3L477.749,676.993,131.582,658.02h-.051l-.614.406-1.864,1.217Z" transform="translate(-34.126 -172.805)"/><path class="e" d="M126.91,673.827,477.749,700.9V677.137L130.917,658.57l-1.864,1.217Z" transform="translate(-34.126 -172.949)"/><path class="f" d="M378.88,49.262,533.553,216.693l-4.782,294.512,13.139,1.6.219.03h13.139l1.572-283.5,289.628,97.571,4.884,173.728,10.572,1.195,3.583.406-8.291-187.378L554.449,207.66,388.436,33.6H378.88Z" transform="translate(-101.87 -8.824)"/><path class="e" d="M620.65,291.7l1.192,5.42,289.628,97.571,4.884,173.728,10.572,1.195-8.291-178.536Z" transform="translate(-166.872 -76.604)"/><path class="e" d="M378.88,49.262,533.553,216.693l-4.782,294.512,13.139,1.6,3.583-305.75L378.88,33.6Z" transform="translate(-101.87 -8.824)"/><path class="f" d="M621.42,445.178l106.228,21.1.037.007,186.054,36.965,8.518-3.444-.029-.6-.556-11.983L621.53,426.05Z" transform="translate(-167.079 -111.886)"/><path class="e" d="M766.76,480.61l186.054,36.965,8.518-3.444-.029-.6Z" transform="translate(-206.154 -126.214)"/><path class="f" d="M776.49,350.56l2.873,159.526,1.484,81.843,13.08-.442,8.233-.28L799.6,352.868l-5.674-1.9-1.243-.406Z" transform="translate(-208.77 -92.062)"/><path class="e" d="M776.65,350.51v.037l2.756,159.526,1.484,81.843,13.08-.442V350.51Z" transform="translate(-208.813 -92.049)"/><path class="c" d="M499.421,489.953a16.65,16.65,0,0,1,2.193,1.438,14.592,14.592,0,0,1,2.193,2.426c3.137,4.092,6.032,8.849,5.725,14.01a5.726,5.726,0,0,1-1.63,4.056c-1.294,1.113-3.151,1.165-4.847,1.165-1.842,0-3.78,0-5.374-.959s-2.925-2.824-4.811-2.78a2.443,2.443,0,0,1-.8,0c-.651-.214-.782-1.077-1.206-1.622-.731-.981-2.274-.737-3.422-.31s-2.42,1.069-3.553.575a3.708,3.708,0,0,1-1.543-1.556c-2.713-4.424-3.29-9.741-3.8-14.88-.314-3.126-2.713-13.789,3.9-11.363,2.925,1.062,5.659,3.186,8.32,4.741Z" transform="translate(-136.59 -190.714)"/><path class="c" d="M497.915,493.57a3.239,3.239,0,0,0,4.014-.162,6.116,6.116,0,0,0,1.952-3.82c.731-.229,1.1.737,1.572,1.327.819,1,2.486.988,3.232,2.057.519.737.4,1.762.768,2.6.475,1.077,1.652,1.637,2.457,2.507a8.567,8.567,0,0,1,1.609,3.237l1.2,3.628a18.06,18.06,0,0,1,1.1,4.7,6.118,6.118,0,0,1-1.389,4.491c-1.609,1.748-4.248,1.932-6.58,1.88a8.4,8.4,0,0,1-2.31-.273c-2.069-.649-3.392-2.75-3.941-4.867a61.942,61.942,0,0,1-.812-6.5,25.654,25.654,0,0,0-1.828-6.179c-.643-1.534-2.413-3.82-2.384-5.449C497.1,492.736,497.477,493.223,497.915,493.57Z" transform="translate(-141.62 -193.276)"/><path class="g" d="M498.333,481.485a12.269,12.269,0,0,1-.592-3.237,14.176,14.176,0,0,1,2.011-6.268l-8.357,1.143a3.686,3.686,0,0,0-2.705,1.195,2.972,2.972,0,0,0,0,2.721,13.979,13.979,0,0,1,.994,2.633,13.253,13.253,0,0,0,.271,2.367,5.012,5.012,0,0,0,1.075,1.526,51.152,51.152,0,0,1,5.966,8.937c-.051-.089,5.038-4.063,4.833-5.361-.117-.737-1.587-1.622-2.055-2.33A11.918,11.918,0,0,1,498.333,481.485Z" transform="translate(-139.413 -188.661)"/><path class="f" d="M533.093,358.04V365.3l-123.322,24.26-6.4,3.908H381.3v-4.092l121.165-29.525Z" transform="translate(-102.521 -94.026)"/><path class="e" d="M533.093,367.89,409.771,392.15l-6.4,3.908H381.3l122.064-26.347Z" transform="translate(-102.521 -96.613)"/><path class="d" d="M457.027,724.173a9.5,9.5,0,0,0-11.625-2.492,3.067,3.067,0,0,0-1.067.841c-.731,1.032-.263,2.456-.2,3.731.168,3.112-2.288,5.641-4.5,7.816a10.717,10.717,0,0,0-2.925,4,3.763,3.763,0,0,0,1.294,4.424,5.354,5.354,0,0,0,2,.56,21.441,21.441,0,0,0,7.092.2,7.685,7.685,0,0,0,5.63-3.952,4.174,4.174,0,0,1,.943-1.571c1.287-1.025,3.261.177,4.723-.553,1.206-.6,1.258-1.556,1.272-2.809C459.718,730.9,459.206,726.975,457.027,724.173Z" transform="translate(-125.467 -253.971)"/><path class="d" d="M482.76,722.1a24.468,24.468,0,0,1,1.141,7.543,7.334,7.334,0,0,1-.68,4.3,5.814,5.814,0,0,1-3.809,2.212c-3.049.634-6.58.037-8.547-2.4a9.156,9.156,0,0,1-1.543-6.843c.234-1.984.731-4.306-.68-5.715-.366-.376-.841-.641-1.177-1.047a3.54,3.54,0,0,1-.219-3.363,14.689,14.689,0,0,0,1.148-3.326c.058-.546,9.9.383,10.806.833,1.236.612,1.046,1.637,1.418,2.876C481.136,718.9,482.131,720.451,482.76,722.1Z" transform="translate(-133.652 -252.033)"/><path class="c" d="M473.6,580.768c1.93,1.261,2.676,3.739,2.976,6.039.826,6.3-.621,12.676-.731,19.039-.1,8.915,2.457,17.992.271,26.627-1.309,5.162-.2,11.061-1.426,16.274-.366,1.549-1.038,3.009-1.389,4.557-.731,3.355.037,6.865,1.067,10.146a10.556,10.556,0,0,1,.621,2.75,9.963,9.963,0,0,1-1.067,4.159l-4.387,10.464c-.49,1.172-2.42,1.364-3.656,1.519-2.325.28-4.921.479-6.77-.973s-2.3-3.886-2.581-6.157a95.191,95.191,0,0,1-.731-13.148,10.921,10.921,0,0,0-.3-3.414c-.4-1.261-1.287-2.352-1.528-3.687-.307-1.726.563-3.422.885-5.162a15.681,15.681,0,0,0-.073-4.786c-.285-2.36-.614-4.719-.987-7.064-.526-3.281.227-6.519.731-9.807.475-3.09-.132-6.238-.731-9.306a25.861,25.861,0,0,1-.914,7.374c-.388,1.172-.943,2.293-1.28,3.488-1.5,5.361,1.7,10.987,1.243,16.54-.212,2.6-1.221,5.162-.936,7.72a26.208,26.208,0,0,0,1.652,5.375c.592,1.784.9,3.827,0,5.494-2.376,4.528-.6,10.685,1.528,15.33a20.784,20.784,0,0,1,1.126,2.551c.629,2.094.1,4.343.271,6.526a4.057,4.057,0,0,1-3.429-1.04c-.322-.339-.585-.737-.9-1.091a8.916,8.916,0,0,0-3.056-1.925,3.987,3.987,0,0,0-2.193-.509,4.382,4.382,0,0,0-2.084,1.305,20.438,20.438,0,0,1-2.3,1.762,2.708,2.708,0,0,1-1.17.524,1.028,1.028,0,0,1-1.075-.553,1.322,1.322,0,0,1-.08-.383,58.84,58.84,0,0,1-.431-6.71c0-3.857-4.577-6.511-5.155-10.323-.461-3.075.395-6.209.11-9.306a45.631,45.631,0,0,1-.548-4.749c0-1.032.234-2.043.314-3.068a23.14,23.14,0,0,0-.051-3.414l-.227-3.562c-.219-3.517-.461-7.108-1.835-10.323a35.324,35.324,0,0,1-2.851-11.857c-.146-2.581-.051-5.162-.344-7.75-.263-2.338-.848-4.66-.68-7.005.139-1.814.731-3.569.87-5.383.285-3.488-1.031-6.88-2.062-10.22s-1.791-7.042-.439-10.264a3.371,3.371,0,0,1,.936-1.372,4.058,4.058,0,0,1,1.726-.649,132.771,132.771,0,0,1,38.18-2.456,12.6,12.6,0,0,1,5.886,1.851Z" transform="translate(-122.686 -216.632)"/><ellipse class="g" cx="11.713" cy="11.813" rx="11.713" ry="11.813" transform="translate(297.694 262.193)"/><path class="g" d="M429.518,475.237a4.252,4.252,0,0,1,0,2.057,4.668,4.668,0,0,1-.768,1.3A33.219,33.219,0,0,1,425,482.707a6.821,6.821,0,0,0,3.5,3.488,20.2,20.2,0,0,0,4.833,1.394,5.031,5.031,0,0,0,4.738-.826l6.507-3.93a13,13,0,0,0,2.705-1.969,6.747,6.747,0,0,0,1.886-4.616,1.276,1.276,0,0,0-.234-.87,1.529,1.529,0,0,0-.892-.376,7.95,7.95,0,0,1-5.118-4.505,24.022,24.022,0,0,1-1.777-6.836l-6.939,3.687c-1.031.553-2.055,1.106-3.122,1.585-.68.31-2.055.568-2.537,1.195C427.632,471.285,429.277,473.843,429.518,475.237Z" transform="translate(-122.378 -186.476)"/><path class="c" d="M424.165,483.9a7.775,7.775,0,0,0-2.245,3.06,8.037,8.037,0,0,0,.409,4.491,134.949,134.949,0,0,1,4.387,19.017c.614,4.424.841,8.915,1.141,13.391.614,9.129,1.506,23.685,2.7,32.755,4.387.2,8.664-1.091,13.014-1.563,8.13-.87,16.5,1.121,24.464-.737-1.93-7.691-3.86-20.824-5.791-28.507a54.807,54.807,0,0,1-1.769-9.254c-.168-2.249-.066-4.505-.036-6.769.066-4.424-.175-8.849-.417-13.273a84.9,84.9,0,0,0-1.769-15.375,2.87,2.87,0,0,0-.848-1.689,3.408,3.408,0,0,0-2.552-.229,11.025,11.025,0,0,1-7.589-1.814c-.965-.664-2.259-1.475-3.159-.737a3.183,3.183,0,0,0-.731,1.571,7.819,7.819,0,0,1-4.577,4.55,22.737,22.737,0,0,1-6.478,1.342,3.156,3.156,0,0,1-2.011-.229c-1.038-.642-1.111-2.95-2.42-3.1C426.739,480.663,424.94,483.155,424.165,483.9Z" transform="translate(-121.499 -189.815)"/><path class="d" d="M436.692,502.081c-2.7-2.6-3.882-6.378-5.849-9.586a21.277,21.277,0,0,0-5.052-5.6,15.1,15.1,0,0,1-2.749-2.352c-.695-.863-1.221-2.013-2.274-2.345a2.733,2.733,0,0,0-2.464.686,24.371,24.371,0,0,0-1.828,1.961c-3.1,3.237-8.547,3.687-11,7.433a6.112,6.112,0,0,0-1.309,2.765,21.567,21.567,0,0,0,3.9,15.411,5.2,5.2,0,0,0,2.705,2.212,8.605,8.605,0,0,0,.526,4.056,109.045,109.045,0,0,0,4.979,13.679,33.34,33.34,0,0,0-.98,5.3c-.512,4.505-.037,9.077-.519,13.59-.395,3.687-1.462,7.278-1.5,10.972,0,.59.051,1.29.556,1.593a1.669,1.669,0,0,0,.87.184l8.993.273c5.22.155,10.492.31,15.632-.664a6.467,6.467,0,0,0,1.967-.627c1.74-.981,2.318-3.193,2.6-5.162a45.362,45.362,0,0,0,.431-7.713c1.089,3.473,2.384,7.064,5.674,8.568a12.629,12.629,0,0,0,5.637.686,105.262,105.262,0,0,0,12.276-1.276,1.608,1.608,0,0,0,1.369-.493,1.639,1.639,0,0,0,.423-1.4l.044-4.026c.088-8.178-1.923-15.994-2.705-24.135a52.9,52.9,0,0,0-.848-7.676c-.256-1.054-.629-2.087-.855-3.149a22.687,22.687,0,0,1-.366-3.149l-.57-8.111c-.271-3.753-.658-7.374-.943-11.12a54.258,54.258,0,0,0-1.565-10.81c-.636-2.212-1.959-4.719-4.248-4.992a8.694,8.694,0,0,0-3.568.774,14.3,14.3,0,0,1-8.774-.037,12.275,12.275,0,0,0-2.734-.737,2.673,2.673,0,0,0-2.5,1.047,3.81,3.81,0,0,0-.387,1.858C439.339,487.333,438.7,494.921,436.692,502.081Z" transform="translate(-116.728 -189.989)"/><path class="c" d="M425.168,507.439c-3.371-3.584-6.829-7.234-11.172-9.512a8.862,8.862,0,0,0-5.549-1.239c-1.894.339-3.656,2-3.568,3.938.058,1.2.782,2.264,1.009,3.444.263,1.327-.117,2.743.292,4.026a6.819,6.819,0,0,0,1.462,2.264l5.176,6.187c2.193,2.581,4.387,5.2,7.209,6.983s6.478,2.618,9.578,1.349a11.81,11.81,0,0,0,5.25-4.859c1.287-2.065,2.193-4.321,3.4-6.452a31.98,31.98,0,0,1,7.311-8.945c-1.521-.4-3.429-.959-4.387-2.212a7.328,7.328,0,0,1-.695-1.268l-1.184-2.581a2.91,2.91,0,0,0-2.193.833,18.479,18.479,0,0,1-1.63,1.674c-1.031.782-2.427,1-3.363,1.888a8.97,8.97,0,0,0-.98,1.239,8.184,8.184,0,0,1-5.966,3.245Z" transform="translate(-116.968 -195.127)"/><path class="g" d="M458.038,482.924c2.537-4.668,2.42-10.264,3.144-15.537a7.131,7.131,0,0,1,1.4-3.857c1.462-1.667,4.043-1.689,6.251-1.475.651.074,1.462.383,1.426,1.04a1.33,1.33,0,0,1-.329.627,17.632,17.632,0,0,0-3.612,9.674c1.148.8,2.925-.848,4.029,0,.731.619.395,1.843-.044,2.728q-1.528,3.075-3.151,6.106a19.611,19.611,0,0,1-3.341,4.859c-.929.9-2.018,1.607-2.961,2.492-2.193,2.072-3.517,5-5.783,7.02a1.181,1.181,0,0,1-.731.376,1.224,1.224,0,0,1-.768-.347,11.159,11.159,0,0,1-2.764-3.37c-.863-1.607-.731-2.079.629-3.215A24.29,24.29,0,0,0,458.038,482.924Z" transform="translate(-129.168 -186.03)"/><path class="d" d="M421.788,503.488c.439.273.98.583,1.462.354a1.527,1.527,0,0,0,.49-.479,17.4,17.4,0,0,0,2.076-3.643,1.41,1.41,0,0,0,.154-.59c0-.472-.417-.819-.8-1.091a29.692,29.692,0,0,0-6.646-3.186,13.614,13.614,0,0,0-6-1.195,5.7,5.7,0,0,0-4,2.05c-1.462,1.9.987,2.47,2.522,3.156C414.6,500.494,418.447,501.438,421.788,503.488Z" transform="translate(-117.828 -194.346)"/><path class="e" d="M423.676,521.617a1.09,1.09,0,0,0,.307.929c.212-1.047-.066-2.153.154-3.208.322-1.585,1.85-2.78,1.981-4.373C423.317,514.413,423.7,519.907,423.676,521.617Z" transform="translate(-122.019 -199.94)"/><path class="h" d="M577.648,358.04V365.3l-29.728,1.821-.9-7.271Z" transform="translate(-147.076 -94.026)"/><path class="c" d="M418.546,455.517c1.857-1.526.782-4.727,2.04-6.777a6.528,6.528,0,0,1,3.18-2.212,14.374,14.374,0,0,1,4.643-1.3,5.363,5.363,0,0,1,4.387,1.63c.475.546.8,1.209,1.243,1.777a4.73,4.73,0,0,0,4.606,1.608c.972-.221,1.981-.966,1.916-1.969a2.786,2.786,0,0,0-.877-1.578l-2.091-2.338c-2.376-2.655-5.016-5.471-8.5-6.135a14.473,14.473,0,0,0-7.253.981c-.943.317-2,.789-2.267,1.755-.175.664.088,1.386-.066,2.057-.3,1.335-2,1.785-2.786,2.905s-.548,2.448-.775,3.687a32.466,32.466,0,0,0-.965,3.731c-.051.774.336,2.212,1.2,2.492S418.013,454.595,418.546,455.517Z" transform="translate(-119.682 -179.756)"/><path class="i" d="M439.623,445.058a22.217,22.217,0,0,0-3.89-8.967,15.6,15.6,0,0,0-6.924-5.545,9.84,9.84,0,0,0-8.62.686,12.607,12.607,0,0,0-4.306,5.479c-1.894,4.115-2.6,9.144-.395,13.1.877-1.077,2.384-.59,3.714-.981,1.667-.479,3.078-1.6,4.665-2.3C428.656,444.394,434.505,446.119,439.623,445.058Z" transform="translate(-119.454 -177.6)"/><path class="e" d="M417.445,448.739c-.168-1.327-.278-2.868.658-3.812a.473.473,0,0,1,.388-.177.506.506,0,0,1,.3.265,16.555,16.555,0,0,1,1.375,2.714,2.782,2.782,0,0,0-2.925,1.143" transform="translate(-120.292 -181.51)"/><path class="e" d="M440.764,443.775l-.263-2.632a1.211,1.211,0,0,1,.051-.649.822.822,0,0,1,1.067-.295,2.2,2.2,0,0,1,.855.863,15.537,15.537,0,0,1,1.506,3,8.774,8.774,0,0,0-3.561.044" transform="translate(-126.524 -180.291)"/><path class="e" d="M427.154,502.21v6.017l-5.038.339h-26.5V502.21Z" transform="translate(-106.371 -131.887)"/><path class="f" d="M396.349,465v6.356H364.814L281.04,365.519v-5H298.6Z" transform="translate(-75.565 -94.677)"/><path class="e" d="M396.349,465v6.356H364.814L281.04,365.519v-5H298.6Z" transform="translate(-75.565 -94.677)"/><path class="e" d="M396.349,465v6.356H364.814L281.04,365.519v-5L365.268,465Z" transform="translate(-75.565 -94.677)"/><path class="d" d="M303.938,732.053a2.227,2.227,0,0,1-.4,1.723,2.189,2.189,0,0,1-1.52.88c-2.033.693-4.189,1.379-5.63,2.949s-1.725,4.483,0,5.759a5.514,5.514,0,0,0,2.925.8c3.312.229,6.763.184,9.768-1.231,2.15-1,4.175-2.714,6.536-2.559,1.221.074,2.522.649,3.612.089s1.4-2.124,1.4-3.429a25.588,25.588,0,0,0-1.206-8.03c-.11-.354-4.76-.627-5.315-.737l-5.637-.737c-1.067-.14-3.371-.951-4.211-.052S303.938,730.984,303.938,732.053Z" transform="translate(-87.481 -255.649)"/><path class="d" d="M353.088,704.97a17.921,17.921,0,0,0,1.155,3.864c.782,2.006,1.784,4.137,3.7,5.11a6.553,6.553,0,0,0,5.644-.273,4.654,4.654,0,0,0,1.879-1.438,5.747,5.747,0,0,0,.731-3.311c0-2.854-.168-5.8-1.462-8.34-1.111-2.212-3.049-4.115-3.078-6.563l-6.661,1.3a1.892,1.892,0,0,0-.98.391,1.708,1.708,0,0,0-.424.8A22.133,22.133,0,0,0,353.088,704.97Z" transform="translate(-102.991 -246.972)"/><path class="d" d="M244.324,609.533a11.059,11.059,0,0,0,1.067,6.968c1.228,2.05,3.817,3.407,6.054,2.588a.886.886,0,0,0,.548-.42,1.047,1.047,0,0,0-.1-.737,10.97,10.97,0,0,1,.227-8.2c.146-.339.461-.737.8-.6a.735.735,0,0,1,.329.339,3.883,3.883,0,0,1,.512,2.035,7.63,7.63,0,0,0-.058,1.954c.139.634.812,1.231,1.4.959a1.475,1.475,0,0,0,.665-.951c1.63-4.756.892-9.955.146-14.932a.785.785,0,0,0-.245-.614.771.771,0,0,0-.625-.2c-3.451-.347-5.337-1.18-7.311,2.057C246.042,602.5,244.324,606.252,244.324,609.533Z" transform="translate(-73.769 -221.586)"/><path class="c" d="M298.77,596.706a45.591,45.591,0,0,0-1.506,21.251l.768,6.386c.263,2.153.519,4.3.892,6.43a17.212,17.212,0,0,1,.388,3.34,18.029,18.029,0,0,1-.519,3.281,38.664,38.664,0,0,0-.768,6.858c-.08,3.687.373,7.374.658,11.061a124.219,124.219,0,0,1-.256,22.063,8.331,8.331,0,0,0,1.2,5.685,7.326,7.326,0,0,1,1.06,1.755c.548,1.689-.731,3.377-1.06,5.11a5.156,5.156,0,0,0,4.255,5.9c5.849.7,11.859.383,17.131,3.082.556-1.637-.658-3.5-.1-5.162.351-1.032,1.316-1.7,1.974-2.573a7.54,7.54,0,0,0,1.258-4.5,16.561,16.561,0,0,0-1.082-6.1c-.621-1.622-1.513-3.222-1.462-4.963a6.323,6.323,0,0,0-.044-2.544,3.97,3.97,0,0,0-.943-1.187,15.052,15.052,0,0,1-3.824-8.738,40.586,40.586,0,0,1,.307-9.689c.358-3.053.841-6.275,2.764-8.657A56.006,56.006,0,0,1,321.4,623.23c.19-.649.49-1.4,1.148-1.556a1.631,1.631,0,0,1,1.4.56,9.693,9.693,0,0,1,2.193,4.159,9.139,9.139,0,0,1,.687,5.036c-.175.737-.526,1.386-.731,2.094a6.258,6.258,0,0,0,.219,4.328,4.184,4.184,0,0,1,.526,1.63,4.541,4.541,0,0,1-.439,1.416,6.567,6.567,0,0,0,.607,5.272,19.057,19.057,0,0,0,3.414,4.225,15.611,15.611,0,0,0,.475,8.524,1.085,1.085,0,0,1,.1.819c-.132.28-.468.383-.731.583-.731.6-.278,1.748.212,2.537a58.162,58.162,0,0,0,4.438,6.209c1.462,1.762,1.331,5.162,3.509,5.8a6.525,6.525,0,0,0,2.778,0c2.15-.332,4.548-.958,5.6-2.876a7.758,7.758,0,0,1,1.28-2.338c.673-.59,1.543-.693,1.916-1.4s-.044-1.637.08-2.455.833-1.475,1.06-2.338c.541-1.991-1.762-3.628-2.076-5.663-.453-2.95,3.232-5.162,3.078-8.111-.322-6.408-.526-12.845-.855-19.253a140.005,140.005,0,0,1-.175-17.247c.256-3.576.731-7.322-.57-10.648-1.872-4.69-7.034-7.322-12.027-7.824s-9.973.693-14.923,1.475A93.526,93.526,0,0,1,298.77,596.706Z" transform="translate(-87.87 -220.86)"/><ellipse class="j" cx="11.713" cy="11.813" rx="11.713" ry="11.813" transform="translate(214.029 281.741)"/><path class="j" d="M311.538,502.223a4.991,4.991,0,0,1-4.774,3.045c-.424,1.77.592,3.554,1.755,4.948a20.722,20.722,0,0,0,19.931,6.894,9.79,9.79,0,0,0,3.926-1.652,8.8,8.8,0,0,0,3-5.235,26.248,26.248,0,0,0,.285-6.157,1.206,1.206,0,0,0-1.345-1.475c-2.471-.221-5.052-.317-7.224-1.541s-3.714-3.989-2.669-6.26c-.168.354-4.438.524-5,.6-1.762.251-3.524.531-5.279.855a9.529,9.529,0,0,0-2.479.472c-1.06.553-.665.28-.417,1.283C311.619,499.531,312.167,500.63,311.538,502.223Z" transform="translate(-90.563 -194.651)"/><path class="c" d="M304.783,511.548a19.238,19.238,0,0,1-4.687-.524,6.578,6.578,0,0,1-3.846-2.588c-.541-.826-.892-1.866-1.755-2.33-1.411-.737-3.02.509-4.146,1.652a15.087,15.087,0,0,1-3.524,2.861c-1.565.833-3.393,1.128-4.869,2.109a12.3,12.3,0,0,0-2.925,3.186l-10.36,14.232c-4.16,5.722-7.779,11.865-11.486,17.9-3.21,5.228-4.891,11.245-7.311,16.886a1.9,1.9,0,0,0-.227,1.136c.088.383.548.693.87.472-1.089,1.091-.132,2.95-.388,4.483a5.506,5.506,0,0,1-1.74,2.75,13.631,13.631,0,0,1,4.826.229,14.737,14.737,0,0,1,4.562,2.212c.885-.14.8-1.726,1.462-2.315.395-.347.98-.3,1.5-.406,1.952-.383,2.727-2.75,4.226-4.085,1.25-1.113,3.02-1.475,4.343-2.522,2.15-1.7,2.61-4.734,3.736-7.249.958-2.131,2.464-3.989,3.3-6.172a26.729,26.729,0,0,1,1.594-4.255c1.25-2.109,3.6-3.23,5.849-4.24a9.623,9.623,0,0,1,4.453-1.2c-.08,3.429-.512,6.806.227,10.154.256,1.18.614,2.33.921,3.5a66.494,66.494,0,0,1,1.791,16.223,48.549,48.549,0,0,1,10.236-1.239c2.713-.081,5.418.273,8.13.221,3.217-.059,6.4-.686,9.615-.907a17.824,17.824,0,0,1,9.424,1.475,91.064,91.064,0,0,1,.387-14.01l.775-7.33a45.385,45.385,0,0,1,.972-6.327c.424-1.681,1.038-3.3,1.506-4.977,1.645-5.9,1.345-12.2,1.031-18.339a23.258,23.258,0,0,0-2.786-9.07,24.6,24.6,0,0,0-1.755-3.009,17.222,17.222,0,0,0-15.105-7.153,3.033,3.033,0,0,0-1.082.236,3.627,3.627,0,0,0-1.382,1.659,18,18,0,0,1-6.368,6.666Z" transform="translate(-74.895 -196.794)"/><path class="c" d="M304.442,484.7c.329-.737,1.214-1.01,1.755-1.6,1.038-1.121.57-2.913.731-4.424a6.34,6.34,0,0,1,4.168-4.852,13.359,13.359,0,0,1,6.58-.42,6.332,6.332,0,0,1,2.968,1c.38.28.731.642,1.089.9a2.91,2.91,0,0,0,3.977-.936c-2.588-3.141-5.454-6.46-9.388-7.425a19.093,19.093,0,0,0-4.1-.391,13.214,13.214,0,0,0-5.381.634,9.024,9.024,0,0,0-4.723,5.5,26.953,26.953,0,0,0-1.148,7.374,28.017,28.017,0,0,0,0,5.014,13.932,13.932,0,0,0,2.442,6.319,1.9,1.9,0,0,0,.731.686C307.476,493.548,304.171,485.311,304.442,484.7Z" transform="translate(-89.001 -187.23)"/><path class="i" d="M324.434,469.842c-.4-3.473-2.859-6.342-5.469-8.65a20.133,20.133,0,0,0-7.348-4.461,9.747,9.747,0,0,0-8.291,1.018,12.842,12.842,0,0,0-4.036,5.6,17.742,17.742,0,0,0-1.762,8.111,8.761,8.761,0,0,0,3.926,7.02,7.378,7.378,0,0,1,3.8-2.47,185,185,0,0,1,19.178-6.165Z" transform="translate(-88.105 -184.532)"/><path class="e" d="M303.708,472.72c.234,0,.388.243.5.442a18.747,18.747,0,0,1,1.528,2.95c-.855.184-2.325.391-2.749-.369C302.764,475.36,303.035,472.683,303.708,472.72Z" transform="translate(-89.554 -188.855)"/><path class="e" d="M326.65,469.163c-.175.17-.38-.177-.38-.428v-2.861a.423.423,0,0,1,.051-.229.343.343,0,0,1,.241-.118c.592-.066,1.082.442,1.462.929a15.6,15.6,0,0,1,1.5,2.515l-3.093-.1" transform="translate(-95.834 -186.965)"/><path class="c" d="M370.967,527.96a19.168,19.168,0,0,1,2.15-1.777c2.025-1.364,4.475-1.9,6.748-2.773s4.584-2.279,5.469-4.564a10.928,10.928,0,0,0,.424-4.424,4.457,4.457,0,0,0-.322-1.821,3.609,3.609,0,0,0-1.155-1.268c-3.085-2.3-7.224-2.485-11.055-2.249a68.818,68.818,0,0,0-24.427,6.15,1.562,1.562,0,0,0-1.221,1.762,17.1,17.1,0,0,0,.826,6.423c1.009,2.625,3.085,4.741,3.956,7.418.395,1.2.526,2.478.87,3.687a5.164,5.164,0,0,0,2.055,3.082c2.888,1.74,5.615-.6,7.618-2.411Z" transform="translate(-101.554 -198.384)"/><path class="d" d="M318.216,536.024l-3.707-8.156a28.677,28.677,0,0,1-1.4-3.488c-.424-1.423-.629-2.9-1.024-4.328-1.3-4.764-4.584-8.731-6.185-13.4a2.551,2.551,0,0,0-.6-1.128,1.939,1.939,0,0,0-1.63-.295c-2.237.391-3.985,2.109-6.032,3.082-.951.442-1.974.737-2.925,1.246a3.679,3.679,0,0,0-1.959,2.352,5.789,5.789,0,0,0,.8,3.311c1.989,4.528,2.442,9.586,2.53,14.541.066,3.333-.1,6.909-2.055,9.586-3.751,5.162-1.353,12.742.051,18.988.168.737.366,1.534.483,2.315a21.467,21.467,0,0,1,.168,2.95c0,3.311-.183,6.725-1.557,9.726a10.722,10.722,0,0,0,4.387,1.254q6.368.818,12.788,1.15a13.817,13.817,0,0,0,4.014-.206,7.365,7.365,0,0,0,5.4-7.226c.234,2.043.665,4.262,2.135,5.678s3.612,1.63,5.608,1.74a103.379,103.379,0,0,0,16.889-.479,2.9,2.9,0,0,0,1.038-.243c1.082-.546,1.141-2.05,1.053-3.259-.161-2.264-.329-4.528-.6-6.777a27.961,27.961,0,0,1-.351-4.336,25.141,25.141,0,0,1,.731-4.424,50.587,50.587,0,0,0,1.426-14.01,23.841,23.841,0,0,1-.139-3.458c.19-2.6,1.55-5.081,1.294-7.669-.731-7.61-1.323-15.419-3.429-22.763a5.911,5.911,0,0,0-2-3.473c-1.462-.988-3.517-.472-5.191-1.1a12.962,12.962,0,0,1-2.23-1.335,10.175,10.175,0,0,0-5.038-1.563,4.256,4.256,0,0,0-3.656,1.342,5.382,5.382,0,0,0-.731,2.013c-1.06,4.5-2.3,8.944-3.546,13.391l-1.192,4.262-3.2,11.444C318.325,534.5,318.537,534.873,318.216,536.024Z" transform="translate(-86.624 -196.236)"/><path class="f" d="M337.2,400.25l70.723,74.955v6.356H376.387L323.24,411.606" transform="translate(-86.911 -105.111)"/><path class="e" d="M337.2,400.25l70.723,74.955v6.356H376.387L323.24,411.606" transform="translate(-86.911 -105.111)"/><path class="e" d="M324.366,414.31l.227.081L376.84,478.9h31.081v6.356H376.387L323.24,415.3Z" transform="translate(-86.911 -108.803)"/><path class="d" d="M344.678,503.113c-2.559,1.128-5.4,2.573-6.171,5.287a3.063,3.063,0,0,0-.1,1.475,2.987,2.987,0,0,0,2.683,2.072,8.708,8.708,0,0,0,3.517-.649l15.1-5.029c.409-.133.877-.332.98-.737a1.278,1.278,0,0,0-.146-.737c-.468-1.15-.929-3.5-1.908-4.306-.8-.649-2.4-.42-3.371-.406C351.521,500.111,348,501.638,344.678,503.113Z" transform="translate(-99.085 -196.028)"/><path class="c" d="M364.224,506.318a24.093,24.093,0,0,1,7.494,1.172,13.347,13.347,0,0,1,6.207,4.277,4.7,4.7,0,0,1,.98,1.932c.146.737,2.53,1.18,2,1.681,1.6-.258,1.221.5,2.844.487a5.351,5.351,0,0,0,4.35-1.74,5.739,5.739,0,0,0,.855-3.606,6.188,6.188,0,0,0-.483-2.551c-.731-1.548-2.413-2.382-3.963-3.1l-13.058-6.024a8.625,8.625,0,0,0-2.413-.863,8.947,8.947,0,0,0-2.128.052l-5.915.686a8.967,8.967,0,0,1,4.043,7.868" transform="translate(-105.171 -195.48)"/></g></svg>