<svg xmlns="http://www.w3.org/2000/svg" width="45.997" height="45.997" viewBox="0 0 45.997 45.997"><defs><style>.a{fill:#2a84b3;}</style></defs><path class="a" d="M23,0A23,23,0,1,0,46,23,23,23,0,0,0,23,0Zm19.89,31.055-6.541,1.129a34.32,34.32,0,0,0,1.2-8.419h6.893a21.323,21.323,0,0,1-1.556,7.29ZM1.552,23.765H8.445a34.321,34.321,0,0,0,1.2,8.419L3.108,31.056a21.323,21.323,0,0,1-1.556-7.29Zm1.556-8.824,6.541-1.129a34.32,34.32,0,0,0-1.2,8.419H1.552a21.323,21.323,0,0,1,1.556-7.29Zm20.657-2.633a52.738,52.738,0,0,1,8.218.751l2.706.467a32.906,32.906,0,0,1,1.33,8.706H23.765Zm8.48-.761a54.34,54.34,0,0,0-8.48-.773v-9.2c4.395.422,8.213,4.446,10.376,10.3Zm-10.013-.773a54.331,54.331,0,0,0-8.479.773l-1.9.328c2.164-5.858,5.981-9.883,10.376-10.3Zm-8.218,2.284a52.725,52.725,0,0,1,8.218-.751v9.923H9.978a32.907,32.907,0,0,1,1.33-8.706ZM9.978,23.765H22.232v9.923a52.738,52.738,0,0,1-8.218-.751l-2.706-.467a32.907,32.907,0,0,1-1.33-8.706Zm3.775,10.684a54.524,54.524,0,0,0,8.48.777v9.2c-4.395-.423-8.213-4.447-10.376-10.3Zm10.013.777a54.518,54.518,0,0,0,8.479-.777l1.9-.328C31.978,39.978,28.16,44,23.765,44.424Zm8.218-2.288a52.725,52.725,0,0,1-8.218.751V23.765H36.019a32.907,32.907,0,0,1-1.33,8.706Zm5.569-10.706a34.32,34.32,0,0,0-1.2-8.419l6.541,1.129a21.323,21.323,0,0,1,1.556,7.29Zm4.562-8.98-6.27-1.082a21.14,21.14,0,0,0-6.1-9.545A21.567,21.567,0,0,1,42.113,13.252ZM16.252,2.625a21.14,21.14,0,0,0-6.1,9.545l-6.27,1.082A21.567,21.567,0,0,1,16.252,2.625ZM3.884,32.745l6.27,1.082a21.14,21.14,0,0,0,6.1,9.545A21.567,21.567,0,0,1,3.884,32.745ZM29.745,43.372a21.14,21.14,0,0,0,6.1-9.545l6.27-1.082A21.567,21.567,0,0,1,29.745,43.372Zm0,0"/></svg>