<svg width="271" height="271" viewBox="0 0 271 271" fill="none" xmlns="http://www.w3.org/2000/svg">
<circle cx="135.5" cy="135.5" r="135.5" fill="#0C3950"/>
<mask id="mask0" mask-type="alpha" maskUnits="userSpaceOnUse" x="0" y="0" width="271" height="271">
<circle cx="135.5" cy="135.5" r="135.5" fill="#C4C4C4"/>
</mask>
<g mask="url(#mask0)">
<path d="M205.603 341.236H83.5V81.4393C83.5 41.8052 115.547 9.60249 155.123 9.60249C194.7 9.60249 226.746 41.8052 226.746 81.4393V319.969C226.806 331.69 217.289 341.236 205.603 341.236Z" fill="#0C3B52"/>
<path d="M129.764 72.5581H101.813V109.775H129.764V72.5581Z" fill="#77B4B3"/>
<path d="M124.101 79.9894H107.415V102.284H124.101V79.9894Z" fill="#C1DDDC"/>
<path d="M124.101 102.283L127.896 107.902H103.681L107.415 102.283H124.101Z" fill="#F2FFFF"/>
<path d="M124.101 79.8684L127.896 74.2495H103.681L107.415 79.8684H124.101Z" fill="#A8D4DA"/>
<path d="M153.436 209.646C153.436 209.646 127.353 196.536 118.919 197.2C115.425 197.502 89.8242 257.195 89.8242 257.195H101.029C101.029 257.195 121.63 206.625 123.558 206.202C127.292 205.357 150.364 216.232 150.364 216.232L153.436 209.646Z" fill="#77B4B3"/>
<path d="M130.427 257.195L183.858 137.145H240.361C245.542 137.145 249.036 142.522 246.927 147.295L201.267 249.824C199.279 254.295 194.882 257.135 190.002 257.135H130.427V257.195Z" fill="#C1DDDC"/>
<path d="M196.928 246.018L241.143 143.126" stroke="#87C4CA" stroke-miterlimit="10"/>
<path d="M4.34766 341.115H205.242C217.35 341.115 227.229 331.267 227.229 319.063V198.046" stroke="#87C4CA" stroke-miterlimit="10"/>
<path d="M187.651 134.788C187.651 134.788 197.892 134.788 203.313 143.549C208.735 152.309 216.686 178.893 216.686 178.893C216.686 178.893 215.722 180.827 213.433 182.096C209.699 184.21 206.144 185.056 201.627 185.056C198.313 185.056 195.603 183.606 195.603 183.606L183.917 227.167L128.799 210.431C128.859 207.35 129.522 204.329 130.847 201.49L143.437 174.181C143.437 174.181 136.81 178.048 132.594 179.679C128.377 181.31 124.642 178.47 123.739 177.745C122.835 177.02 120.365 174 120.245 169.045C120.124 164.091 122.353 161.07 122.353 161.07C122.353 161.07 150.244 139.018 159.4 136.299C168.556 133.58 187.651 134.788 187.651 134.788Z" fill="#1E8FC6"/>
<path d="M177.472 191.581L188.375 202.396L190.182 203.725L191.929 197.442C191.869 197.502 183.074 189.648 177.472 191.581Z" fill="#172B4D"/>
<path d="M199.821 183.606C199.098 183.606 197.472 183.606 196.99 182.639C196.448 181.491 199.941 178.772 205.845 177.564C211.206 176.477 214.7 177.202 215.242 177.987C215.784 178.712 215.904 179.377 214.338 180.464C212.772 181.431 203.495 183.485 199.821 183.606Z" fill="#172B4D"/>
<path d="M127.836 160.043C127.836 160.043 130.547 162.46 132.053 167.595C133.558 172.731 133.137 176.477 132.053 178.048C130.968 179.679 127.655 179.317 124.523 176.779C121.39 174.241 120.125 167.958 120.908 164.756C121.692 161.554 125.306 158.835 127.836 160.043Z" fill="#172B4D"/>
<path d="M162.773 156.72L160.002 169.408" stroke="#172B4D" stroke-miterlimit="10"/>
<path d="M184.279 115.334C184.279 115.334 183.857 137.93 182.653 139.259C181.448 140.588 177.05 142.28 172.533 142.159C168.075 142.038 165.123 139.863 164.22 138.715L165.665 123.43L184.279 115.334Z" fill="#FFCC99"/>
<path d="M169.822 188.56C169.822 188.56 166.508 188.258 165.665 187.654C164.882 187.05 162.593 183.062 163.858 182.821C165.123 182.579 168.496 185.419 168.858 186.385C169.279 187.352 169.822 188.56 169.822 188.56Z" fill="#FFC183"/>
<path d="M212.771 176.96C212.771 176.96 209.88 176.537 206.025 177.443C200.905 178.591 199.76 179.618 199.76 179.618L202.531 189.648L191.809 186.083C191.809 186.083 188.315 177.927 187.17 176.356C185.725 174.301 183.556 174.483 183.857 176.356C184.158 178.229 185.785 181.189 185.785 181.189V181.37C185.664 182.458 184.761 183.364 183.496 182.82C183.496 182.82 179.58 182.035 178.617 181.31C177.653 180.585 172.532 177.624 170.906 177.262C169.28 176.899 164.822 175.631 163.918 175.872C163.015 176.174 162.834 177.202 163.256 178.047C163.677 178.893 170.183 180.947 171.147 181.672C172.111 182.397 176.568 185.358 176.568 185.358C176.568 185.358 171.388 184.452 168.978 183.304C166.569 182.156 163.497 180.041 163.075 180.343C162.653 180.645 161.629 181.068 161.931 182.458C162.232 183.848 163.256 184.633 163.256 184.633C163.256 184.633 169.039 187.714 170.243 188.741C171.448 189.768 174.279 190.554 175.846 191.037C177.412 191.521 183.436 192.729 184.701 193.031C185.966 193.333 205.603 206.927 211.627 208.498C217.651 210.069 221.145 204.51 220.783 201.61C220.422 198.71 212.771 176.96 212.771 176.96Z" fill="#FFCC99"/>
<path d="M209.879 192.064C209.639 191.944 202.169 189.406 202.169 189.406" stroke="#C97C00" stroke-miterlimit="10" stroke-linecap="round" stroke-linejoin="round"/>
<path d="M137.474 139.32C137.474 139.32 114.042 155.874 109.464 162.701C104.765 169.71 107.174 173.758 110.186 177.141C112.596 179.86 115.066 179.921 118.68 179.618C122.294 179.316 133.017 173.698 133.017 173.698C133.017 173.698 133.017 173.697 132.896 171.704C132.715 169.347 131.631 165.783 130.246 163.306L142.414 151.101C142.414 151.101 146.45 147.174 152.474 145.059C159.04 142.764 156.811 138.836 157.112 137.205C157.413 135.574 154.823 127.055 153.799 125.726C152.775 124.397 150.486 119.261 147.775 117.388C145.787 115.998 143.739 118.355 144.763 120.228C145.546 121.678 146.51 124.638 146.51 124.638C146.51 124.638 142.233 135.634 137.474 139.32Z" fill="#FFCC99"/>
<path d="M127.775 165.843C127.775 165.843 129.281 168.139 129.522 170.979C129.763 173.818 129.522 175.449 129.522 175.449C129.703 175.329 133.016 173.697 133.016 173.697C133.016 173.697 133.076 169.226 131.149 165.178C130.426 163.668 130.245 163.305 130.245 163.305L127.775 165.843Z" fill="#FFA74F"/>
<path d="M159.099 106.09C158.738 105.909 156.087 106.03 156.027 109.896C155.967 114.367 159.882 115.153 159.882 115.153C159.882 115.153 161.027 112.253 161.208 111.226C161.328 110.259 159.099 106.09 159.099 106.09Z" fill="#FFCC99"/>
<path d="M181.326 127.84C181.326 127.84 178.495 134.366 173.194 137.749C167.893 141.132 166.568 140.407 166.568 140.407C166.568 140.407 164.761 139.018 164.58 135.03C164.46 132.07 164.399 130.197 164.399 130.197L181.326 127.84Z" fill="#FFA74F"/>
<path d="M158.315 106.09C158.315 106.09 157.652 110.198 158.315 112.434C158.978 114.669 158.556 113.944 158.315 116.3C158.014 119.019 160.544 127.357 162.471 129.774C164.399 132.19 168.254 133.942 169.82 133.942C171.628 133.942 179.7 131.828 181.386 127.84C183.073 123.853 184.217 116.723 184.217 116.723C184.217 116.723 185.663 116.784 186.928 114.367C188.193 111.95 188.555 108.748 186.928 108.325C185.302 107.842 184.519 108.567 184.519 108.567C184.519 108.567 184.278 105.969 183.193 104.519C182.169 103.069 181.145 100.894 177.772 99.2626C174.399 97.6313 162.652 99.1417 161.206 100.411C159.761 101.679 158.315 106.09 158.315 106.09Z" fill="#FFCC99"/>
<path d="M164.039 123.43C164.039 123.43 165.425 125.545 168.497 125.847C171.629 126.149 173.617 124.397 174.219 123.43" stroke="#C97C00" stroke-miterlimit="10" stroke-linecap="round" stroke-linejoin="round"/>
<path d="M167.895 141.132L163.377 146.147C163.377 146.147 160.245 143.066 160.787 139.864C161.148 137.568 161.51 135.514 161.51 135.514L164.642 135.091C164.582 135.091 164.883 139.864 167.895 141.132Z" fill="#172B4D"/>
<path d="M146.389 123.067C146.389 123.067 146.449 120.53 147.352 119.805C148.256 119.08 150.907 117.751 155.967 117.932C161.027 118.113 165.183 120.349 165.544 122.161C166.087 125.001 162.412 139.984 161.99 140.77C161.388 142.099 155.906 143.549 152.593 142.884C149.28 142.22 147.112 141.072 146.389 139.622C145.666 138.111 146.389 123.067 146.389 123.067Z" fill="#87C4CA"/>
<path d="M149.763 141.555C149.763 141.555 152.113 142.703 156.691 142.461C161.269 142.159 155.365 140.286 153.438 140.166C151.57 140.045 147.414 140.347 149.763 141.555Z" fill="#63B2BA"/>
<path d="M148.376 123.369C148.376 123.369 151.267 123.128 152.472 125.363C153.677 127.599 152.773 136.722 151.629 137.205C150.484 137.688 145.846 136.843 145.846 136.843L145.665 123.551L148.376 123.369Z" fill="#63B2BA"/>
<path d="M143.137 132.191C143.137 132.191 141.209 128.143 143.257 125.363C145.365 122.645 146.209 122.886 147.112 123.067C148.016 123.249 150.847 123.551 150.606 125.363C150.425 127.176 147.835 126.813 147.112 126.632C146.389 126.451 145.185 128.384 145.245 128.807C145.305 129.23 146.209 131.224 145.365 132.13C144.522 133.097 143.438 132.795 143.137 132.191Z" fill="#FFCC99"/>
<path d="M143.137 135.694C143.137 135.694 141.029 132.371 143.137 129.653C145.246 126.934 146.209 126.451 147.113 126.632C148.017 126.813 150.848 127.115 150.607 128.928C150.426 130.74 147.836 130.378 147.113 130.196C146.39 130.015 145.185 131.949 145.246 132.371C145.306 132.794 146.209 134.788 145.366 135.694C144.523 136.601 143.438 136.299 143.137 135.694Z" fill="#FFCC99"/>
<path d="M143.558 139.259C143.558 139.259 141.45 135.936 143.558 133.218C145.666 130.499 146.63 130.015 147.534 130.197C148.437 130.378 151.269 130.68 151.028 132.493C150.847 134.305 148.257 133.943 147.534 133.761C146.811 133.58 145.606 135.513 145.666 135.936C145.727 136.359 146.63 138.353 145.787 139.259C145.004 140.166 143.92 139.864 143.558 139.259Z" fill="#FFCC99"/>
<path d="M144.824 137.568C144.824 137.568 148.318 139.199 151.39 139.199C154.462 139.138 154.221 140.045 154.221 140.891C154.221 141.857 153.317 142.28 151.811 142.461C150.305 142.643 147.354 141.978 146.39 141.736C145.366 141.495 142.414 140.226 142.234 138.534C141.993 136.903 143.92 137.084 144.824 137.568Z" fill="#FFCC99"/>
<path d="M149.04 121.738C149.04 121.738 145.185 120.651 142.474 122.403C140.245 123.853 141.631 133.338 142.896 136.238C144.161 139.138 149.522 139.018 149.522 139.018C149.703 138.897 149.582 138.534 149.1 137.265C149.1 137.265 146.57 136.963 145.908 136.48C145.245 135.997 144.161 133.882 143.799 130.257C143.438 126.632 143.558 124.88 144.161 124.396C144.582 124.034 146.329 122.644 149.1 123.49C149.04 123.49 149.522 122.101 149.04 121.738Z" fill="#87C4CA"/>
<path d="M122.896 170.918L130.245 163.245L142.352 151.101" stroke="#C97C00" stroke-miterlimit="10" stroke-linecap="round" stroke-linejoin="round"/>
<path d="M42.1767 272.239L32.8398 282.208C32.8398 282.208 31.3338 287.041 36.3336 292.177C40.5503 296.527 45.55 294.775 45.55 294.775L56.5736 283.114C56.5134 283.114 53.3207 270.729 42.1767 272.239Z" fill="#FFCC99"/>
<path d="M95.9086 213.755C95.9086 213.755 101.149 209.163 106.27 208.921C111.39 208.619 126.028 213.755 126.028 213.755L128.738 210.432C128.738 210.432 136.931 211.882 156.749 215.748C177.049 219.676 183.856 227.167 183.856 227.167C183.856 227.167 175.302 254.053 168.977 256.651C162.652 259.249 138.979 246.864 134.581 244.447C130.184 242.03 115.606 235.384 115.606 235.384L56.2719 288.25C56.2719 288.25 48.441 287.646 43.5014 279.791C38.5619 271.937 38.9836 271.212 38.9836 271.212C38.9836 271.212 88.68 219.675 95.9086 213.755Z" fill="#36798C"/>
<path d="M159.281 234.901C159.281 234.901 117.416 218.527 112.777 219.192C106.573 220.098 45.4912 282.389 45.4912 282.389" stroke="#0C3B52" stroke-miterlimit="10"/>
<path d="M109.342 230.007L111.089 241.909" stroke="#0C3B52" stroke-miterlimit="10"/>
<path d="M108.138 221.971C108.138 221.971 113.439 232.242 126.089 240.157" stroke="#0C3B52" stroke-miterlimit="10"/>
<path d="M153.014 259.551C153.014 259.551 142.292 266.5 138.075 266.862C133.858 267.225 126.027 266.862 126.027 266.862V269.943H137.774C137.774 269.943 141.147 270.004 146.93 266.862C153.918 262.995 155.484 261.243 155.484 261.243L153.014 259.551Z" fill="#A7D4D9"/>
<path d="M145.786 257.195C145.786 257.195 149.822 263.72 160.123 263.72C170.484 263.72 180.122 263.72 180.122 263.72C180.122 263.72 187.35 263.177 187.35 257.195H145.786Z" fill="#C1DDDC"/>
<path d="M167.531 327.219C165.423 327.219 163.736 325.528 163.736 323.413V251.999H171.387V323.413C171.387 325.467 169.64 327.219 167.531 327.219Z" fill="#77B4B3"/>
<path d="M202.712 246.561L201.507 249.22C199.338 254.114 194.579 257.255 189.278 257.255H122.173H112.716L123.98 241.97C123.98 241.97 125.787 240.157 129.221 240.217C132.655 240.278 202.712 246.561 202.712 246.561Z" fill="#A7D4D9"/>
<path d="M136.932 240.761C136.932 240.761 137.414 242.816 135.908 247.951C134.402 253.087 131.932 257.195 131.932 257.195L124.402 257.376L132.836 240.157L136.932 240.761Z" fill="#87C4CA"/>
<path d="M124.402 230.551C119.282 229.826 115.848 232.001 111.089 237.499C104.463 245.051 68.6816 297.735 68.6816 297.735C68.6816 297.735 69.7659 302.206 77.4162 306.919C83.8616 310.846 87.235 310.544 87.235 310.544C87.235 310.544 124.824 257.497 126.872 254.839C128.86 252.241 132.775 246.078 132.895 240.218C132.956 233.511 127.956 231.034 124.402 230.551Z" fill="#36798C"/>
<path d="M126.027 213.754L160.122 224.569" stroke="#0C3B52" stroke-miterlimit="10"/>
<path d="M168.314 251.999C168.314 251.999 170.182 247.166 169.7 238.284L168.314 251.999Z" fill="white"/>
<path d="M168.314 251.999C168.314 251.999 170.182 247.166 169.7 238.284" stroke="black" stroke-miterlimit="10"/>
<path d="M189.399 134.909L183.495 134.184C183.495 134.184 182.773 138.111 179.339 140.468C176.929 142.099 174.399 142.099 174.399 142.099L178.134 147.657C178.134 147.657 181.086 146.63 183.977 144.334C188.375 140.83 189.399 134.909 189.399 134.909Z" fill="#172B4D"/>
<path d="M174.399 142.099C174.399 142.099 171.809 142.642 170.363 145.845C168.978 148.986 165.183 161.734 165.183 161.493" stroke="#172B4D" stroke-miterlimit="10"/>
<path d="M167.894 141.132C167.894 141.132 169.942 142.099 169.701 144.636C169.46 147.114 168.436 151.464 168.436 151.464" stroke="#172B4D" stroke-miterlimit="10"/>
<path d="M151.629 156.72C151.629 156.72 154.159 156.116 157.111 156.056C160.062 155.995 162.773 156.72 162.773 156.72L162.231 158.895C161.629 158.654 158.797 158.291 157.111 158.352C154.942 158.412 150.906 158.895 150.906 158.895L151.629 156.72Z" fill="#172B4D"/>
<path d="M219.156 209.646C219.156 209.646 192.953 195.508 184.64 197.2C180.483 198.046 155.545 257.195 155.545 257.195H166.749C166.749 257.195 187.351 206.625 189.278 206.202C193.013 205.357 216.084 216.232 216.084 216.232L219.156 209.646Z" fill="#77B4B3"/>
<path d="M62.839 341.115H61.8752C60.2488 341.115 58.8633 339.786 58.8633 338.094V201.852C58.8633 200.221 60.1885 198.831 61.8752 198.831H62.839C64.4654 198.831 65.8509 200.16 65.8509 201.852V338.094C65.7907 339.786 64.4654 341.115 62.839 341.115Z" fill="#FFE980"/>
<path d="M58.6816 204.812H65.7897C65.7897 204.812 65.7897 208.498 65.7897 208.437C65.7897 208.377 63.5007 208.437 61.1514 207.35C58.8624 206.323 58.6816 204.812 58.6816 204.812Z" fill="#FFD341"/>
<path d="M36.0327 278.825C36.0327 278.825 38.6229 278.825 39.2253 280.456C39.9482 282.51 38.2615 284.806 38.2615 284.806C38.2615 284.806 39.8879 287.646 41.8156 289.881C43.7432 292.117 47.4177 292.721 47.4177 292.721L49.4056 290.606C49.4056 290.606 49.767 291.996 49.4056 293.083C49.0441 294.171 35.9725 306.677 36.0327 306.979C36.0929 307.281 31.2136 310 24.7079 304.986C18.2022 299.971 -0.110164 287.283 -3.30278 279.006C-6.4954 270.729 2.11865 270.366 3.6246 270.668C5.13055 270.97 19.2865 277.798 22.7201 278.402C26.1536 279.006 36.0327 278.825 36.0327 278.825Z" fill="#786CFF"/>
<path d="M215.241 169.408C215.241 169.408 215.362 163.91 224.397 151.463" stroke="#87C4CA" stroke-miterlimit="10"/>
<path d="M149.22 197.2H35.249V204.632H149.22V197.2Z" fill="#FFEFA3"/>
<path d="M149.219 204.632H92.7758C90.7277 204.632 89.041 202.94 89.041 200.886C89.041 198.831 90.7277 197.14 92.7758 197.14H149.219V204.632Z" fill="#FFDC36"/>
<path d="M143.378 174.181C143.378 174.181 145.547 168.199 146.39 164.272C147.233 160.345 147.474 158.411 147.474 158.411" stroke="#172B4D" stroke-miterlimit="10"/>
<path d="M128.859 232.182C129.402 232.544 135.124 239.432 142.473 241.244" stroke="#0C3B52" stroke-miterlimit="10"/>
<path d="M137.654 191.521H105.607V193.212H137.654V191.521Z" fill="#77B4B3"/>
<path d="M104.283 197.2L84.2842 160.406H87.0551C89.3442 160.406 91.3923 161.675 92.4766 163.668L110.729 197.2H104.283Z" fill="#87C4CA"/>
<path d="M61.5139 194.844L44.828 164.152C43.9244 162.52 45.1292 160.466 46.9966 160.466H85.6092L105.608 197.261H65.4897C63.803 197.2 62.297 196.294 61.5139 194.844Z" fill="#C1DDDC"/>
<path d="M170.484 153.88C170.983 153.88 171.387 153.475 171.387 152.974C171.387 152.473 170.983 152.068 170.484 152.068C169.985 152.068 169.58 152.473 169.58 152.974C169.58 153.475 169.985 153.88 170.484 153.88Z" fill="#172B4D"/>
<path d="M140.967 197.2H65.2472C63.0786 197.2 61.2715 195.387 61.2715 193.212H140.967V197.2Z" fill="#77B4B3"/>
<path d="M185.723 110.259C185.723 110.259 185.422 111.346 184.519 112.675" stroke="#C97C00" stroke-miterlimit="10"/>
<path d="M175.424 115.877C176.056 115.877 176.568 115.255 176.568 114.488C176.568 113.72 176.056 113.098 175.424 113.098C174.792 113.098 174.279 113.72 174.279 114.488C174.279 115.255 174.792 115.877 175.424 115.877Z" fill="#C97C00"/>
<path d="M171.869 110.923C171.869 110.923 173.134 110.017 175.061 110.319C176.989 110.621 178.134 111.407 177.953 111.648C177.772 111.89 177.652 112.071 176.808 111.83C175.965 111.588 175.182 111.165 174.399 111.346C173.555 111.527 172.652 111.95 172.23 111.648C171.748 111.467 171.447 111.346 171.869 110.923Z" fill="#C97C00"/>
<path d="M166.328 110.923C166.328 110.923 165.063 110.017 163.136 110.319C161.208 110.621 160.064 111.407 160.244 111.648C160.425 111.89 160.545 112.071 161.389 111.83C162.232 111.588 163.015 111.165 163.798 111.346C164.642 111.527 165.545 111.95 165.967 111.648C166.389 111.346 166.75 111.346 166.328 110.923Z" fill="#C97C00"/>
<path d="M164.581 115.757C165.213 115.757 165.726 115.134 165.726 114.367C165.726 113.6 165.213 112.977 164.581 112.977C163.949 112.977 163.437 113.6 163.437 114.367C163.437 115.134 163.949 115.757 164.581 115.757Z" fill="#C97C00"/>
<path d="M184.037 111.467C184.037 111.467 184.82 112.796 185.061 114.428" stroke="#C97C00" stroke-miterlimit="10"/>
<path d="M171.989 120.107C171.507 120.167 170.242 120.711 169.098 120.59C167.953 120.469 166.869 120.409 166.688 120.107C166.507 119.805 166.989 118.355 166.989 118.355" stroke="#FFA74F" stroke-miterlimit="10"/>
<path d="M160.123 205.961C160.123 205.961 161.569 212.909 167.593 218.467" stroke="#172B4D" stroke-miterlimit="10"/>
<path d="M131.931 207.169C131.931 207.169 131.871 209.102 133.738 211.338" stroke="#172B4D" stroke-miterlimit="10"/>
<path d="M181.026 235.384C181.629 233.692 185.484 222.213 191.99 212.244" stroke="#87C4CA" stroke-miterlimit="10"/>
<path d="M242.409 245.232C242.409 245.232 236.806 244.024 233.072 247.951C230.12 251.093 229.819 253.086 229.819 253.086C229.819 253.086 222.771 252.784 221.446 259.914C220.121 267.043 222.47 272.601 222.47 272.601C222.47 272.601 219.819 272.058 220.121 278.281C220.422 284.504 223.916 288.673 223.916 288.673L242.409 245.232Z" fill="#FFC633"/>
<path d="M224.156 276.166C225.963 267.345 231.264 255.503 242.408 245.232C242.408 245.232 245.48 247.347 244.998 253.268C244.516 259.189 241.263 260.76 241.263 260.76C241.263 260.76 243.613 266.499 242.649 271.454C241.685 276.408 231.143 278.523 231.143 278.523C231.143 278.523 231.445 285.471 226.686 288.975C221.927 292.358 223.553 279.368 224.156 276.166Z" fill="#FFB200"/>
<path d="M218.495 278.462C218.495 278.462 211.146 266.862 199.218 264.445C187.291 262.029 189.58 273.327 189.58 273.327C189.58 273.327 182.653 271.393 177.412 275.26C172.473 278.885 175.605 281.302 179.942 281.906C179.942 281.906 188.135 277.858 201.327 280.093C214.519 282.329 224.699 289.76 224.699 289.76C224.699 289.76 225.121 282.873 222.892 279.308C220.663 275.683 218.495 278.462 218.495 278.462Z" fill="#FFB200"/>
<path d="M77.1141 177.443C78.0177 180.464 76.4515 183.002 73.4998 183.002C70.5481 183.002 67.5965 180.464 66.8736 177.443C66.211 174.543 67.8977 172.308 70.6084 172.308C73.3191 172.308 76.2105 174.543 77.1141 177.443Z" fill="#77B4B3"/>
<path d="M107.114 137.387H110.548" stroke="#87C4CA" stroke-miterlimit="10"/>
<path d="M113.499 137.387H116.872" stroke="#87C4CA" stroke-miterlimit="10"/>
<path d="M7.7195 272.299C7.7195 272.299 5.49069 271.695 4.58712 273.93C3.68355 276.166 8.56283 280.879 8.92426 282.872C9.28569 284.866 15.0083 289.579 14.7674 290.787C14.5264 291.995 13.924 292.66 13.924 292.66C13.924 292.66 2.11735 282.933 -0.713835 277.858C-3.78598 272.36 0.671641 270.789 0.671641 270.789C0.671641 270.789 3.68355 269.641 7.7195 272.299Z" fill="#FFC633"/>
<path d="M0.733125 270.789C0.733125 270.789 -2.64021 270.366 -3.96545 274.716C-5.29069 279.066 -0.953542 283.658 1.93789 286.618C6.63646 291.391 23.2622 303.958 25.8524 305.771C28.4427 307.583 31.0329 308.913 32.4184 308.973C33.7436 309.033 35.1893 308.006 36.1531 307.04C37.0567 306.013 37.6591 305.469 37.6591 305.469C37.6591 305.469 36.4543 305.952 32.2377 304.26C28.021 302.569 9.28694 287.948 7.9617 286.679C6.63646 285.41 1.39574 282.329 -0.411399 277.012C-2.03783 272.662 0.733125 270.789 0.733125 270.789Z" fill="#EDEDED"/>
<path d="M184.158 116.24C184.158 116.24 181.086 117.509 182.049 118.294C183.013 119.08 184.579 118.536 185.122 117.872C185.604 117.267 185.122 115.757 184.158 116.24Z" fill="#FFA74F"/>
<path d="M162.413 100.833C162.413 100.833 163.317 103.069 170.184 103.733C177.051 104.458 179.461 104.519 179.461 104.519C179.461 104.519 181.207 109.473 182.894 109.231C184.581 108.99 186.448 107.54 187.171 109.473C187.834 111.406 186.448 114.911 185.304 115.515C184.159 116.179 184.159 116.179 184.159 116.179L184.099 117.267V121.375C184.099 121.375 186.448 120.832 188.014 117.871C189.581 114.911 190.364 110.681 190.062 108.688C189.761 106.694 188.677 103.492 187.532 101.075C186.448 98.6582 185.243 92.4351 180.424 91.1664C175.666 89.8976 163.016 90.9851 158.016 92.8581C153.016 94.731 154.341 102.887 154.883 104.458C156.269 108.265 157.052 109.05 158.016 108.99C158.016 108.99 158.498 105.183 159.341 103.915C159.401 103.975 161.148 100.35 162.413 100.833Z" fill="#172B4D"/>
<path d="M200.422 182.216C200.422 182.216 204.217 180.162 207.711 179.739C211.205 179.316 213.735 179.739 213.735 179.739L212.771 177.02C212.771 177.02 210.844 176.416 206.025 177.504C201.386 178.531 199.76 179.679 199.76 179.679L200.422 182.216Z" fill="#FFA74F"/>
<path d="M180.363 187.714C180.183 187.896 177.773 190.796 175.785 191.158L182.472 192.669C182.472 192.669 185.363 190.071 185.724 188.319C186.146 186.506 181.749 185.902 180.363 187.714Z" fill="#FFA74F"/>
<path d="M141.388 197.2H107.414C105.246 197.2 103.438 195.387 103.438 193.212H141.388V197.2Z" fill="#A7D4D9"/>
<path d="M124.402 230.551C124.402 230.551 116.33 227.349 105.607 244.628" stroke="#0C3B52" stroke-miterlimit="10"/>
<path d="M141.268 141.615C142.412 143.549 141.147 146.388 138.858 144.999C136.569 143.609 137.473 139.259 137.473 139.259C137.473 139.259 138.617 138.353 139.28 137.567C139.882 136.782 140.846 135.513 140.846 135.513C140.846 135.513 140.123 139.682 141.268 141.615Z" fill="#FFA74F"/>
<path d="M191.748 186.083C191.748 186.083 192.772 188.56 194.64 188.62C196.507 188.681 194.7 186.989 194.7 186.989L191.989 186.143" fill="#FFA74F"/>
<path d="M227.228 202.577C229.723 202.577 231.746 200.548 231.746 198.045C231.746 195.543 229.723 193.514 227.228 193.514C224.733 193.514 222.71 195.543 222.71 198.045C222.71 200.548 224.733 202.577 227.228 202.577Z" fill="white"/>
<path d="M227.227 193.816C229.577 193.816 231.444 195.75 231.444 198.045C231.444 200.341 229.516 202.275 227.227 202.275C224.878 202.275 223.011 200.341 223.011 198.045C223.011 195.75 224.878 193.816 227.227 193.816ZM227.227 193.212C224.577 193.212 222.408 195.387 222.408 198.045C222.408 200.704 224.577 202.879 227.227 202.879C229.878 202.879 232.046 200.704 232.046 198.045C232.046 195.387 229.878 193.212 227.227 193.212Z" fill="#A7D4D9"/>
<path d="M238.493 168.683C237.228 168.683 236.144 167.656 236.144 166.326C236.144 165.058 237.168 163.97 238.493 163.97C239.758 163.97 240.842 164.997 240.842 166.326C240.842 167.595 239.758 168.683 238.493 168.683Z" fill="white"/>
<path d="M238.492 164.272C239.637 164.272 240.54 165.178 240.54 166.326C240.54 167.474 239.637 168.381 238.492 168.381C237.348 168.381 236.444 167.474 236.444 166.326C236.444 165.178 237.348 164.272 238.492 164.272ZM238.492 163.668C237.047 163.668 235.842 164.876 235.842 166.326C235.842 167.776 237.047 168.985 238.492 168.985C239.938 168.985 241.143 167.776 241.143 166.326C241.143 164.876 239.938 163.668 238.492 163.668Z" fill="#A7D4D9"/>
<path d="M112.656 207.169C112.656 207.169 119.282 208.438 121.21 210.19L120.366 211.942L111.451 209.586L112.656 207.169Z" fill="#A7D4D9"/>
<path d="M146.57 126.572C146.57 126.572 147.052 126.511 148.137 126.813" stroke="#C97C00" stroke-miterlimit="10" stroke-linecap="round" stroke-linejoin="round"/>
<path d="M148.316 126.813C148.316 126.813 149.642 127.115 150.124 127.719" stroke="#FFA74F" stroke-miterlimit="10" stroke-linecap="round" stroke-linejoin="round"/>
<path d="M146.87 130.136C146.87 130.136 147.352 130.076 148.436 130.378" stroke="#C97C00" stroke-miterlimit="10" stroke-linecap="round" stroke-linejoin="round"/>
<path d="M148.618 130.438C148.618 130.438 149.943 130.741 150.425 131.345" stroke="#FFA74F" stroke-miterlimit="10" stroke-linecap="round" stroke-linejoin="round"/>
<path d="M147.354 141.918C147.354 141.918 149.763 142.461 151.45 142.461C153.076 142.461 154.16 142.099 154.221 140.891" stroke="#C97C00" stroke-miterlimit="10" stroke-linecap="round" stroke-linejoin="round"/>
<path d="M164.58 135.091C164.58 135.091 164.459 138.051 166.206 139.864C166.206 139.864 166.869 140.649 167.833 141.132" stroke="#172B4D" stroke-miterlimit="10"/>
<path d="M56.3335 197.261L48.1412 178.833H36.8164L44.9485 197.261H56.3335Z" fill="#A7D4D9"/>
<path d="M54.7662 197.261L46.634 178.833H35.249L43.3812 197.261H54.7662Z" fill="#C1DDDC"/>
<path d="M42.5977 185.721L40.1279 197.261H44.947L44.1036 185.721H42.5977Z" fill="#87C4CA"/>
<path d="M41.7549 185.721L39.2852 197.261H40.9116L43.2609 185.721H41.7549Z" fill="#A7D4D9"/>
<path d="M132.836 240.157C132.836 240.157 132.836 237.257 131.631 234.84C131.631 234.84 135.667 238.284 138.016 239.432C139.462 240.157 141.871 241.184 141.871 241.184C141.871 241.184 137.474 240.882 135.667 240.519C133.86 240.157 132.836 240.157 132.836 240.157Z" fill="#0C3B52"/>
</g>
</svg>
