<svg width="344" height="504" viewBox="0 0 344 504" fill="none" xmlns="http://www.w3.org/2000/svg">
<path opacity="0.2" d="M55.3852 98.0945C3.208 109.618 -12.1633 161.86 9.52733 213.334C31.218 264.808 138.476 401.645 138.476 401.645C138.476 401.645 123.19 419.315 134.206 438.607C145.222 457.899 184.931 491.275 205.426 500.239C225.922 509.202 237.963 500.239 243.428 493.153C243.428 493.153 271.779 513.043 293.47 498.275C315.161 483.507 338.645 444.326 309.098 401.303C279.551 358.28 262.727 335.147 262.727 335.147C262.727 335.147 253.675 322.513 261.532 315.001C269.388 307.489 319.26 283.844 305.511 240.053C291.762 196.262 156.58 26.1336 124.642 7.52456C92.7033 -11.0845 51.7131 7.52456 43.8567 33.9017C36.0002 60.2788 67.5114 90.4118 65.2911 93.6556C63.2416 96.814 55.3852 98.0945 55.3852 98.0945Z" fill="#F0F0E7"/>
<path d="M103.701 317.69C103.701 317.69 88.7231 327.879 79.1756 332.289C69.6281 336.698 64.6753 340.452 64.6753 340.452C64.6753 340.452 171.13 399.683 178.052 404.688C184.974 409.694 188.316 411.005 188.316 411.005C188.316 411.005 206.933 399.206 218.868 393.128C230.802 386.991 290.713 361.129 310.226 344.862C329.738 328.594 344 324.959 344 324.959C344 324.959 282.359 295.761 257.535 289.624C232.712 283.486 172.861 269.9 172.861 269.9L103.701 317.69Z" fill="#77B4B3"/>
<g style="mix-blend-mode:multiply">
<g style="mix-blend-mode:multiply">
<path opacity="0.7" d="M162.896 351.357C162.896 351.357 163.254 363.453 168.266 378.887C173.278 394.32 180.081 395.273 187.122 393.188C194.164 391.102 195.059 381.687 192.791 372.451C190.524 363.215 162.896 351.357 162.896 351.357Z" fill="#C4E2E5"/>
</g>
</g>
<g style="mix-blend-mode:multiply">
<path d="M165.282 393.664L164.686 392.652C165.103 392.413 167.788 390.923 172.145 388.48C261.056 338.605 305.094 314.174 306.705 313.757L307.003 314.889C305.691 315.306 281.344 328.594 172.682 389.553C168.326 391.936 165.64 393.426 165.282 393.664Z" fill="#C2E1E4"/>
</g>
<g style="mix-blend-mode:multiply" opacity="0.7">
<path opacity="0.7" d="M283.373 353.383C283.373 353.383 269.828 357.435 254.492 349.152C239.156 340.869 226.446 329.726 236.053 324.959C245.661 320.192 270.246 332.586 274.124 338.068C278.003 343.551 283.373 353.383 283.373 353.383Z" fill="#C4E2E5"/>
</g>
<path d="M110.504 355.111C110.504 355.111 94.1534 376.861 93.139 378.529C92.1246 380.198 96.779 381.568 101.791 382.521C106.804 383.475 120.886 384.13 126.794 387.527C132.702 390.923 132.702 390.923 132.702 390.923C132.702 390.923 150.066 359.401 150.484 355.23L111.399 353.264L110.504 355.111Z" fill="white"/>
<path d="M236.113 324.959H247.331C247.331 324.959 250.494 324.304 251.867 320.55C253.239 316.795 252.762 314.233 251.867 310.002C250.971 305.831 248.823 304.103 248.823 304.103L234.204 303.448L236.113 324.959Z" fill="#FFCC99"/>
<path d="M238.918 325.376L242.737 324.9C242.737 324.9 245.601 320.013 244.408 314.651C243.214 309.288 243.214 309.288 243.214 309.288L239.634 313.34C239.634 313.399 240.111 322.218 238.918 325.376Z" fill="#FFA74F"/>
<path d="M252.702 315.902C252.702 315.902 247.51 316.557 245.72 320.192C243.93 323.827 245.183 324.602 245.183 324.602L243.453 324.959C243.453 324.959 244.825 326.568 246.675 327.224C248.525 327.879 255.089 332.408 257.356 334.97C259.624 337.532 272.692 348.437 274.482 350.105C276.272 351.774 285.163 356.422 290.593 350.344C296.024 344.266 292.98 341.763 292.384 339.558C291.787 337.413 273.468 316.021 269.887 309.228C266.307 302.435 263.502 297.966 258.132 299.158C252.761 300.349 248.823 304.103 248.823 304.103C248.823 304.103 252.642 313.28 252.702 315.902Z" fill="#147FA0"/>
<path d="M271.081 347.186C271.081 347.186 272.931 346.709 274.9 347.96C276.809 349.212 280.032 350.88 282.299 349.688C282.299 349.688 285.402 348.854 283.97 344.564C282.538 340.273 278.062 335.983 277.764 331.037C277.466 326.032 277.764 325.496 277.764 325.496C277.764 325.496 286.178 335.924 288.326 340.571C290.474 345.219 291.847 347.126 290.594 350.403C289.281 353.621 279.196 356.839 271.081 347.186Z" fill="#41D1FF"/>
<path d="M289.699 351.535C289.699 351.535 292.682 350.105 294.353 346.47C296.024 342.835 293.219 338.486 293.219 338.486C293.219 338.486 273.289 312.565 272.334 310.956C271.141 308.989 263.324 298.621 263.324 298.621L258.669 302.435C258.669 302.435 267.501 312.743 268.992 314.829C270.425 316.855 279.733 330.441 280.39 331.573C281.046 332.706 289.758 340.631 290.176 345.457C290.594 350.284 289.699 351.535 289.699 351.535Z" fill="white"/>
<path d="M288.744 352.31L289.4 351.357C289.4 351.297 290.176 350.046 289.818 345.458C289.52 341.823 284.209 336.162 281.643 333.421C280.807 332.527 280.27 331.931 280.091 331.693C279.435 330.62 270.126 317.034 268.694 314.948C267.262 312.863 258.49 302.673 258.43 302.554L258.251 302.316L263.383 298.145L263.562 298.383C263.861 298.8 271.439 308.811 272.573 310.777C273.468 312.327 293.219 338.009 293.398 338.247C293.518 338.426 296.322 342.836 294.592 346.53C292.861 350.225 289.878 351.655 289.758 351.714L288.744 352.31ZM259.087 302.435C260.459 303.984 267.859 312.684 269.171 314.65C270.604 316.676 279.912 330.322 280.569 331.395C280.688 331.633 281.285 332.229 282.061 333.063C284.865 336.043 290.057 341.584 290.415 345.458C290.653 348.377 290.474 349.986 290.236 350.88C291.19 350.225 292.921 348.794 294.055 346.411C295.666 342.955 292.981 338.784 292.921 338.724C292.145 337.711 272.99 312.744 272.036 311.194C270.962 309.407 264.398 300.707 263.204 299.098L259.087 302.435Z" fill="#C2E1E4"/>
<path d="M85.0832 183.139C85.0832 183.139 76.4904 188.562 76.013 215.317C75.5356 242.072 74.2825 262.928 76.013 287.836C77.2065 305.414 82.3383 329.547 113.666 341.286C144.994 353.085 187.6 355.349 228.893 321.801C270.186 288.253 224.835 270.913 203.95 250.831C183.065 230.75 165.819 189.992 154.064 179.087C142.309 168.183 99.1658 155.908 85.0832 183.139Z" fill="#E7F6F8"/>
<path d="M144.934 326.151C144.934 326.151 157.644 349.986 168.266 351.357C178.888 352.727 198.341 337.234 184.139 327.998C169.997 318.762 144.934 326.151 144.934 326.151Z" fill="#9FD0D5"/>
<path d="M121.781 277.229C121.781 277.229 97.9127 270.257 98.3304 259.829C98.6884 249.402 120.707 260.008 121.781 263.941C122.856 267.874 127.51 274.905 121.781 277.229Z" fill="#9FD0D5"/>
<path d="M131.866 273.535C131.866 273.535 120.111 287.776 126.854 296.178C133.597 304.58 150.782 305.355 153.288 299.456C155.795 293.556 131.866 273.535 131.866 273.535Z" fill="#9FD0D5"/>
<path d="M126.854 187.013C126.854 187.013 108.236 180.697 101.195 203.757C94.1532 226.818 99.9414 253.275 116.948 257.923C133.954 262.571 132.94 196.428 126.854 187.013Z" fill="#9FD0D5"/>
<path d="M116.411 250.117C113.428 242.966 96.9581 223.779 96.7791 223.6L97.6741 222.825C98.3305 223.6 114.442 242.37 117.485 249.64L116.411 250.117Z" fill="#66B4BC"/>
<path d="M126.317 204.055C118.798 190.35 107.043 186.536 106.923 186.536L107.281 185.404C107.759 185.583 119.633 189.396 127.391 203.519L126.317 204.055Z" fill="#66B4BC"/>
<path d="M227.103 216.271C224.895 216.449 215.526 228.963 215.526 228.963L208.545 224.077C208.545 224.077 180.976 191.124 174.83 187.549C168.684 183.974 149.648 177.121 126.854 187.013C123.751 188.383 110.862 193.627 106.804 210.967C102.746 228.307 117.545 269.244 118.559 274.011C119.454 278.302 129.778 279.553 137.535 279.255C137.475 279.374 137.356 279.494 137.356 279.613L139.624 287.776C139.624 287.776 138.251 291.65 139.624 293.437C140.996 295.225 145.949 297.966 145.949 297.966C145.949 297.966 151.319 296.834 173.517 291.411C195.656 285.989 207.709 276.455 210.872 273.952C214.034 271.449 212.244 268.529 211.528 267.278C210.872 266.027 209.38 265.788 209.38 265.788L205.024 259.532L200.25 243.383C200.25 243.383 216.421 251.726 222.568 249.342C228.714 246.958 239.097 229.44 240.768 225.745C242.379 222.051 229.311 216.092 227.103 216.271Z" fill="#00444E"/>
<path d="M159.196 264.418H159.136C155.973 264.06 139.683 262.571 139.504 262.571C139.146 262.511 138.907 262.273 138.967 261.915C139.027 261.558 139.265 261.319 139.623 261.379C139.802 261.379 156.093 262.868 159.255 263.226C159.554 263.286 159.792 263.584 159.792 263.881C159.733 264.179 159.494 264.418 159.196 264.418Z" fill="#18B0E1"/>
<path d="M139.564 287.776C139.564 287.776 159.315 283.069 162.895 278.778C166.476 274.488 165.581 269.304 160.449 268.767C155.257 268.231 156.51 278.004 156.51 278.004L137.475 279.255L139.564 287.776Z" fill="#18B0E1"/>
<path d="M154.78 273.952C154.78 273.952 155.198 277.11 156.511 278.004C157.823 278.898 159.375 277.646 160.449 272.164C161.523 266.682 159.733 263.881 159.196 263.822C158.659 263.762 154.601 265.014 154.78 273.952Z" fill="#1EBBA6"/>
<path d="M112.95 208.881C112.652 208.881 112.353 208.643 112.353 208.286C112.353 207.928 112.353 199.526 125.839 190.528C143.681 178.611 169.28 184.45 169.579 184.51C169.877 184.569 170.116 184.927 169.996 185.225C169.937 185.523 169.579 185.761 169.28 185.642C169.042 185.582 143.86 179.862 126.496 191.482C113.547 200.122 113.547 208.166 113.547 208.226C113.547 208.583 113.308 208.881 112.95 208.881Z" fill="#1EBBA6"/>
<path d="M160.449 202.923C160.091 202.923 156.69 202.863 148.574 199.646C137.595 195.355 131.687 188.86 131.448 188.562C131.21 188.324 131.269 187.966 131.508 187.728C131.747 187.49 132.105 187.549 132.343 187.787C132.403 187.847 138.311 194.342 148.992 198.513C157.048 201.672 160.389 201.672 160.449 201.672C160.747 201.672 161.046 201.91 161.046 202.267C161.046 202.625 160.807 202.923 160.449 202.923Z" fill="#1EBBA6"/>
<path d="M146.903 208.882C146.784 208.882 146.665 208.822 146.545 208.762C146.307 208.584 146.247 208.167 146.426 207.928C153.945 197.619 152.572 187.192 152.512 187.132C152.453 186.834 152.691 186.476 152.99 186.476C153.288 186.417 153.646 186.655 153.646 186.953C153.706 187.37 155.138 197.917 147.321 208.643C147.321 208.762 147.142 208.882 146.903 208.882Z" fill="#1EBBA6"/>
<path d="M225.133 248.269C225.014 248.269 224.954 248.269 224.835 248.21C224.537 248.031 224.417 247.674 224.596 247.376C226.028 244.873 229.191 231.108 229.191 230.989C229.251 230.691 229.609 230.453 229.907 230.512C230.205 230.572 230.444 230.929 230.385 231.227C230.265 231.823 227.162 245.29 225.67 247.971C225.551 248.15 225.372 248.269 225.133 248.269Z" fill="#1EBBA6"/>
<path d="M155.794 293.556C155.794 293.556 145.59 292.901 140.638 295.284C135.685 297.668 132.463 305.95 132.463 309.883C132.403 320.669 139.444 329.249 150.842 332.288C155.556 333.54 186.585 337.055 206.456 333.123C226.327 329.19 238.082 327.343 238.082 327.343C238.082 327.343 240.409 322.754 240.767 315.306C241.125 307.857 238.917 302.554 238.917 302.554C238.917 302.554 202.219 302.554 189.27 301.72C176.321 300.885 163.015 295.046 163.015 295.046L155.794 293.556Z" fill="#C7FDF1"/>
<path d="M181.692 307.5C181.692 307.5 178.888 310.479 177.992 317.69C177.097 324.9 179.126 334.911 179.126 334.911L187.898 334.017L197.804 327.879L199.653 308.573L181.692 307.5Z" fill="#FF9D00"/>
<path d="M172.085 303.448C172.085 303.448 166.297 303.21 163.134 307.798C159.972 312.386 169.519 307.321 171.488 307.798C171.488 307.798 164.029 317.213 165.64 319.12C167.252 321.026 174.532 317.034 177.992 312.029C181.453 307.023 181.692 306.129 181.692 306.129L172.085 303.448Z" fill="#FF9D00"/>
<path d="M148.813 301.958L148.694 300.767C148.813 300.767 158.36 299.932 168.266 299.456L168.326 300.647C158.48 301.184 148.873 301.958 148.813 301.958Z" fill="#FF9D00"/>
<path d="M195.059 320.729L223.88 299.396L208.127 301.303C208.067 301.362 195.894 309.288 195.059 320.729Z" fill="#FF9D00"/>
<path d="M233.965 267.397C233.965 267.397 264.159 274.19 266.844 277.944C269.589 281.698 270.007 285.512 269.768 291.411C269.529 297.31 258.669 307.023 257.058 308.632C255.447 310.241 206.456 344.444 206.456 344.444C206.456 344.444 202.577 346.47 195.357 341.525C188.077 336.519 185.392 329.964 186.645 327.7L187.6 326.27C189.748 324.482 195.238 320.669 196.67 319.537C196.968 319.298 214.034 306.308 218.748 303.209L209.559 302.375C208.723 301.005 217.615 272.164 233.965 267.397Z" fill="#C7FDF1"/>
<path d="M216.183 304.402L215.586 303.389C215.705 303.329 227.998 295.821 234.562 290.637L235.278 291.59C228.654 296.774 216.362 304.342 216.183 304.402Z" fill="#FF9D00"/>
<path d="M238.142 284.439L237.545 283.426C243.214 280.089 252.284 278.719 252.642 278.659L252.821 279.851C252.702 279.851 243.572 281.221 238.142 284.439Z" fill="#FF9D00"/>
<path d="M200.191 244.039C199.952 244.039 199.713 243.86 199.594 243.621C199.474 243.324 190.225 211.98 187.719 206.498C187.6 206.2 187.719 205.843 188.017 205.723C188.316 205.604 188.674 205.723 188.793 206.021C191.359 211.623 200.37 242.013 200.728 243.324C200.847 243.621 200.668 243.979 200.31 244.039C200.31 244.039 200.25 244.039 200.191 244.039Z" fill="#18B0E1"/>
<path d="M181.812 204.71C181.812 204.71 188.972 234.445 188.256 246.839L181.812 204.71Z" fill="#41D1FF"/>
<path d="M186.048 265.788C185.988 265.788 185.929 265.788 185.869 265.788C172.204 261.915 150.424 250.593 150.185 250.474C149.887 250.295 149.767 249.938 149.946 249.699C150.125 249.401 150.483 249.282 150.722 249.461C150.961 249.58 172.622 260.842 186.167 264.716C186.466 264.835 186.645 265.133 186.585 265.431C186.585 265.609 186.346 265.788 186.048 265.788Z" fill="#18B0E1"/>
<path d="M190.822 312.028L148.037 284.26L194.939 262.332L241.663 285.869L190.822 312.028Z" fill="#C1DDDC"/>
<path d="M163.074 289.028L200.847 268.768L223.821 282.413L188.495 305.533L163.074 289.028Z" fill="#A8D4DA"/>
<path d="M168.684 289.087L199.892 272.402L218.868 283.665L189.688 302.733L168.684 289.087Z" fill="#E2F1F3"/>
<g style="mix-blend-mode:multiply" opacity="0.7">
<g opacity="0.7">
<path opacity="0.7" d="M158.54 279.374C158.54 279.374 166.178 289.743 173.458 289.028C180.738 288.312 181.573 282.056 181.573 280.506C181.573 280.506 185.034 282.95 185.213 284.558C185.392 286.167 188.674 284.976 187.301 280.983C185.929 276.991 183.781 274.667 183.781 274.667L178.53 272.045L170.414 273.594L158.54 279.374Z" fill="#C4E2E5"/>
</g>
</g>
<path d="M207.829 249.878L274.9 219.965L269.828 252.44L204.308 284.022L207.829 249.878Z" fill="#E2F1F3"/>
<path d="M211.946 253.156L270.365 227.235L266.784 250.176L209.44 277.229L211.946 253.156Z" fill="#A8D4DA"/>
<g style="mix-blend-mode:multiply">
<g opacity="0.7">
<path opacity="0.7" d="M215.705 255.062L260.519 235.1L259.385 242.847L214.81 263.583L215.705 255.062Z" fill="#C4E2E5"/>
</g>
</g>
<path d="M192.254 274.607L187.182 309.645L190.822 312.028L241.663 285.869L250.494 249.342L247.988 248.329C246.973 247.912 245.84 247.912 244.825 248.388L194.999 270.972C193.567 271.628 192.493 272.998 192.254 274.607Z" fill="#77B4B3"/>
<g style="mix-blend-mode:multiply">
<path d="M244.407 273.952C244.407 273.952 251.21 278.778 250.375 282.056C249.539 285.333 212.125 310.062 208.067 304.997C206.695 303.329 232.115 276.931 244.407 273.952Z" fill="#FFDEAF"/>
</g>
<path d="M187.958 313.995C187.958 313.995 189.151 315.246 194.88 312.028C200.31 308.93 240.35 288.312 240.35 288.312C240.35 288.312 241.663 287.538 241.663 285.869L190.822 312.028C190.822 312.028 189.509 312.982 187.958 313.995Z" fill="#2B97A2"/>
<path d="M196.61 274.011L190.822 312.028L241.663 285.869L250.494 249.342L196.61 274.011Z" fill="#E7F6F8"/>
<path d="M148.037 284.261C148.037 286.942 149.41 289.445 151.677 290.875L187.063 313.638C188.554 314.591 190.524 313.757 190.822 312.029L148.037 284.261Z" fill="#2B97A2"/>
<path d="M168.266 276.633L181.871 269.9L188.674 273.237L174.949 280.507L168.266 276.633Z" fill="#A8D4DA"/>
<path d="M157.645 264.656C157.645 264.656 161.225 263.464 164.925 262.928C168.624 262.392 175.964 266.742 177.098 267.099C178.231 267.457 183.96 271.509 186.466 272.76C188.972 274.011 189.808 276.335 190.762 278.838C191.658 281.281 190.822 282.115 189.509 282.652C188.256 283.128 186.526 279.494 185.094 277.646C183.662 275.799 180.081 273.535 180.081 273.535C180.081 273.535 183.184 278.004 183.184 279.792C183.184 281.579 183.184 281.996 182.528 282.354C181.871 282.711 180.678 282.652 180.678 282.652C180.678 282.652 179.783 284.499 178.41 284.856C177.038 285.214 176.262 284.499 176.262 284.499C176.262 284.499 174.353 282.652 173.875 281.877C173.398 281.102 172.085 279.196 172.085 279.196C172.085 279.196 173.756 284.022 173.338 284.261C172.98 284.499 172.085 285.572 170.951 284.141C169.818 282.711 168.206 281.579 167.49 280.387C166.715 279.255 165.76 276.455 165.223 275.74C164.686 275.024 159.256 274.607 158.778 274.727C158.301 274.846 154.84 274.965 154.84 274.965C154.84 274.965 154.064 268.946 157.645 264.656Z" fill="#FFCC99"/>
<path d="M156.511 278.6C156.391 278.6 156.212 278.54 156.093 278.481C152.99 275.74 154.124 269.84 155.556 266.742C157.048 263.584 158.898 263.286 159.077 263.286C159.435 263.286 159.673 263.464 159.733 263.822C159.793 264.12 159.554 264.418 159.196 264.477C159.136 264.477 157.764 264.716 156.63 267.278C155.258 270.257 154.422 275.442 156.869 277.646C157.108 277.885 157.167 278.242 156.929 278.481C156.869 278.54 156.69 278.6 156.511 278.6Z" fill="#1EBBA6"/>
<path d="M139.564 262.57C139.325 262.57 139.086 262.392 138.967 262.153C138.907 261.915 132.582 240.225 131.866 238.378C131.687 237.841 131.031 235.815 130.076 233.074C127.689 225.924 123.691 214.006 122.856 212.278C122.736 211.98 122.856 211.622 123.094 211.503C123.393 211.384 123.751 211.503 123.87 211.742C124.705 213.351 127.928 223.004 131.15 232.657C132.045 235.339 132.761 237.424 132.94 237.96C133.597 239.808 139.803 260.902 140.041 261.796C140.161 262.094 139.982 262.451 139.624 262.511C139.683 262.57 139.623 262.57 139.564 262.57Z" fill="#1EBBA6"/>
<path d="M180.141 282.95C178.768 279.613 175.009 275.322 174.949 275.322L175.844 274.548C176.023 274.727 179.723 279.017 181.215 282.533L180.141 282.95Z" fill="#FFA74F"/>
<path d="M234.263 174.857L220.837 207.511C220.3 208.882 221.076 210.431 222.508 210.789L238.202 214.721L252.165 178.909C252.583 177.777 251.926 176.585 250.792 176.287L237.665 173.188C236.233 172.831 234.8 173.546 234.263 174.857Z" fill="#E2F1F3"/>
<path d="M236.411 175.572L222.985 208.226C222.448 209.597 223.224 211.146 224.656 211.503L240.35 215.436L254.313 179.624C254.731 178.492 254.074 177.3 252.94 177.002L239.813 173.903C238.38 173.486 236.948 174.261 236.411 175.572Z" fill="#A8D4DA"/>
<g opacity="0.7">
<g opacity="0.7">
<path opacity="0.7" d="M245.422 188.562C245.422 188.562 242.498 186.178 239.932 190.528C237.366 194.878 233.547 203.161 233.487 207.034C233.368 210.907 231.936 215.794 236.232 214.423C240.529 213.112 246.317 203.518 246.675 199.288C246.973 195.057 245.422 188.562 245.422 188.562Z" fill="#C4E2E5"/>
</g>
</g>
<path d="M227.043 217.879C227.043 217.879 227.043 223.54 232.175 225.745C237.306 227.95 238.321 227.056 238.321 227.056C238.321 227.056 243.393 217.998 245.78 214.363C248.167 210.729 248.525 210.729 249.658 208.345C250.792 205.962 248.644 191.243 248.883 188.383C249.121 185.523 246.675 185.106 245.78 187.012C244.885 188.919 245.899 200.479 245.243 201.194C244.586 201.85 242.975 193.508 242.856 191.541C242.737 189.634 241.782 188.8 240.887 189.277C239.992 189.754 239.753 193.567 240.23 195.832C240.708 198.096 241.125 206.379 240.887 207.272C240.708 208.166 238.619 200.36 238.5 199.705C238.38 199.049 236.232 195.832 235.337 194.58C234.442 193.329 232.413 194.223 232.294 195.951C232.175 197.679 235.218 200.479 235.218 202.088C235.218 203.697 236.471 213.887 236.232 214.304C235.994 214.781 229.31 211.265 228.773 210.669C228.236 210.073 226.625 209.418 225.909 210.073C225.253 210.729 226.864 212.099 227.819 213.35C228.415 214.125 228.535 215.555 228.535 215.555L227.043 217.879Z" fill="#FFCC99"/>
<path d="M277.764 228.427C275.497 232.896 271.737 235.637 268.754 235.637C265.77 235.637 263.323 232.896 263.323 228.427C263.323 221.932 268.157 214.006 274.184 214.006C280.211 214.006 281.046 221.932 277.764 228.427Z" fill="white"/>
<path d="M268.754 236.53C265.054 236.53 262.428 233.193 262.428 228.426C262.428 221.514 267.68 213.112 274.184 213.112C276.392 213.112 278.182 214.066 279.316 215.913C281.225 219.012 280.927 224.196 278.6 228.844C276.272 233.372 272.274 236.53 268.754 236.53ZM274.124 214.9C268.754 214.9 264.159 222.348 264.159 228.426C264.159 232.121 266.009 234.743 268.694 234.743C271.141 234.743 274.721 232.419 276.929 228.009C278.958 223.957 279.256 219.369 277.704 216.807C276.929 215.555 275.735 214.9 274.124 214.9Z" fill="#C2E1E4"/>
<path d="M236.357 255.102C236.357 246.164 229.077 238.894 220.126 238.894C211.175 238.894 203.895 246.164 203.895 255.102C203.895 264.04 211.175 271.31 220.126 271.31C221.379 271.31 222.632 271.131 223.825 270.893L228.062 275.779V269.224C233.015 266.424 236.357 261.18 236.357 255.102Z" fill="#F8D98B"/>
<path d="M228.957 278.162L223.468 271.846C222.334 272.084 221.2 272.204 220.126 272.204C210.698 272.204 203 264.517 203 255.102C203 245.687 210.698 238 220.126 238C229.554 238 237.252 245.687 237.252 255.102C237.252 261.12 234.089 266.662 228.957 269.76V278.162ZM224.124 269.88L227.167 273.395V268.747L227.645 268.509C232.478 265.768 235.521 260.643 235.521 255.161C235.521 246.7 228.659 239.847 220.186 239.847C211.712 239.847 204.85 246.7 204.85 255.161C204.85 263.623 211.712 270.476 220.186 270.476C221.379 270.476 222.513 270.356 223.706 270.058L224.124 269.88Z" fill="white"/>
<path d="M282.729 222.141C282.729 216.318 277.987 211.583 272.156 211.583C266.325 211.583 261.583 216.318 261.583 222.141C261.583 227.963 266.325 232.699 272.156 232.699C272.972 232.699 273.789 232.582 274.566 232.427L277.326 235.61V231.34C280.552 229.516 282.729 226.1 282.729 222.141Z" fill="#F8D98B"/>
<path d="M277.909 237.162L274.333 233.048C273.594 233.203 272.856 233.281 272.156 233.281C266.014 233.281 261 228.273 261 222.14C261 216.007 266.014 211 272.156 211C278.298 211 283.312 216.007 283.312 222.14C283.312 226.061 281.252 229.671 277.909 231.689V237.162ZM274.76 231.767L276.743 234.057V231.029L277.054 230.874C280.202 229.089 282.185 225.75 282.185 222.179C282.185 216.667 277.715 212.203 272.195 212.203C266.675 212.203 262.205 216.667 262.205 222.179C262.205 227.691 266.675 232.155 272.195 232.155C272.972 232.155 273.711 232.077 274.488 231.883L274.76 231.767Z" fill="white"/>
<path d="M237.357 162.102C237.357 153.164 230.077 145.894 221.126 145.894C212.175 145.894 204.895 153.164 204.895 162.102C204.895 171.04 212.175 178.31 221.126 178.31C222.379 178.31 223.632 178.131 224.825 177.893L229.062 182.779V176.224C234.015 173.424 237.357 168.18 237.357 162.102Z" fill="#F8D98B"/>
<path d="M229.957 185.162L224.468 178.846C223.334 179.084 222.2 179.204 221.126 179.204C211.698 179.204 204 171.517 204 162.102C204 152.687 211.698 145 221.126 145C230.554 145 238.252 152.687 238.252 162.102C238.252 168.12 235.089 173.662 229.957 176.76V185.162ZM225.124 176.88L228.167 180.395V175.747L228.645 175.509C233.478 172.768 236.521 167.643 236.521 162.161C236.521 153.7 229.659 146.847 221.186 146.847C212.712 146.847 205.85 153.7 205.85 162.161C205.85 170.623 212.712 177.476 221.186 177.476C222.379 177.476 223.513 177.356 224.706 177.058L225.124 176.88Z" fill="white"/>
<path d="M131.866 188.205C131.866 188.205 135.088 191.84 140.459 192.674C145.829 193.568 150.245 192.435 151.796 191.363C153.348 190.29 153.587 181.948 153.587 181.948C153.587 181.948 157.585 182.365 160.508 180.994C163.432 179.684 164.865 179.505 165.76 174.082C166.714 168.66 165.939 161.748 166.774 159.602C167.669 157.457 167.967 155.848 166.774 151.677C165.581 147.506 164.865 141.488 159.434 138.806C154.004 136.125 143.741 136.661 139.146 143.156C134.611 149.592 133.656 155.431 133.954 160.913C134.253 166.395 136.222 170.984 136.103 173.069C135.924 175.155 131.031 187.37 131.866 188.205Z" fill="#FFCC99"/>
<path d="M166.714 160.973C167.67 160.973 168.445 160.199 168.445 159.245C168.445 158.29 167.67 157.517 166.714 157.517C165.759 157.517 164.984 158.29 164.984 159.245C164.984 160.199 165.759 160.973 166.714 160.973Z" fill="#C97C00"/>
<path d="M165.342 156.385C165.103 156.385 164.924 156.265 164.805 156.027C164.686 155.729 164.805 155.372 165.044 155.252C165.103 155.193 166.893 154.359 168.982 155.014C169.28 155.133 169.459 155.431 169.4 155.729C169.28 156.027 168.982 156.206 168.684 156.146C167.072 155.67 165.64 156.325 165.64 156.325C165.521 156.325 165.402 156.385 165.342 156.385Z" fill="#C97C00"/>
<path d="M187.122 332.11C187.122 332.11 185.034 327.641 187.659 326.27C189.271 325.376 196.014 329.667 199.594 333.778C203.174 337.89 204.487 342.538 204.368 343.729C204.248 344.921 202.219 344.862 200.549 344.206C198.818 343.551 187.122 332.11 187.122 332.11Z" fill="#B4672E"/>
<path d="M192.731 327.998L178.41 337.949C178.41 337.949 179.186 344.504 183.721 348.02C188.256 351.535 190.046 351.774 190.046 351.774L204.009 341.644C204.009 341.644 202.398 333.182 192.731 327.998Z" fill="#FFCC99"/>
<path d="M186.347 332.467L180.678 336.698L189.39 345.457L192.672 349.152L196.61 346.828C196.551 346.828 193.03 335.447 186.347 332.467Z" fill="white"/>
<path d="M142.846 152.213C142.846 152.213 139.683 150.485 138.191 155.073C136.699 159.662 141.115 161.866 141.115 161.866C141.115 161.866 140.518 165.501 138.49 165.144C136.461 164.786 135.864 169.672 135.864 169.672C135.864 169.672 132.403 169.315 131.687 157.993C130.434 138.15 134.909 133.979 140.339 132.072C145.77 130.166 160.568 125.518 166.476 129.689C172.383 133.86 171.667 143.752 170.533 145.778C169.4 147.804 166.118 149.293 166.118 149.293C166.118 149.293 164.865 145.063 164.089 143.573C163.313 142.083 159.196 145.003 154.541 147.387C149.887 149.77 146.605 148.876 146.605 148.876C146.605 148.876 145.949 153.643 144.337 152.928C142.846 152.213 142.846 152.213 142.846 152.213Z" fill="#172B4D"/>
<path d="M183.96 334.374C183.96 334.374 182.05 333.361 179.186 334.91C176.322 336.46 172.503 338.962 169.698 341.048C163.731 345.398 157.823 347.484 168.147 359.401C177.217 369.889 189.629 382.521 194.581 386.812C201.145 392.473 203.174 393.545 204.606 392.413C206.098 391.281 209.917 386.693 210.096 385.203C210.633 381.33 205.442 372.213 204.547 367.207C203.652 362.202 199.236 354.753 198.221 353.025C197.207 351.297 198.699 348.258 198.341 346.888C197.983 345.517 196.551 343.729 193.686 343.491C190.822 343.253 191.836 345.338 189.33 344.802C189.33 344.802 185.69 340.095 183.303 338.545C180.916 336.996 180.678 336.638 180.678 336.638L183.96 334.374Z" fill="#147FA0"/>
<path d="M194.044 351.118C194.044 351.118 192.075 349.748 192.194 348.079C192.314 346.411 191.717 344.385 193.149 344.385C194.581 344.385 197.625 346.053 197.804 346.887C197.983 347.722 197.565 350.701 197.386 350.939C197.207 351.178 195.536 351.654 194.044 351.118Z" fill="#41D1FF"/>
<path d="M196.371 369.889C196.371 369.889 197.744 367.982 199.355 368.399C200.966 368.816 206.993 375.609 207.232 376.026C207.47 376.443 208.485 378.291 208.485 378.291C208.485 378.291 209.977 382.283 210.096 384.309C210.215 386.335 208.007 388.599 208.007 388.599C208.007 388.599 198.161 372.451 196.371 369.889Z" fill="#41D1FF"/>
<path d="M94.6306 356.422L134.551 334.017L159.196 345.994L130.673 376.145L94.6306 356.422Z" fill="#9FD0D5"/>
<g style="mix-blend-mode:multiply">
<path d="M135.088 349.152C135.088 349.152 134.671 349.331 135.088 351.953C135.506 354.574 121.364 372.987 119.753 373.762C118.141 374.536 110.802 372.63 110.981 372.034C111.219 371.438 135.088 349.152 135.088 349.152Z" fill="#FFDEAF"/>
</g>
<path d="M69.6878 355.111L107.639 334.613C108.296 334.255 109.131 334.196 109.847 334.493L134.492 344.564C136.103 345.219 136.64 347.245 135.506 348.616L114.203 374.715C113.487 375.55 112.294 375.907 111.279 375.49L69.9861 359.818C67.8976 359.044 67.7186 356.184 69.6878 355.111Z" fill="#E2F1F3"/>
<path d="M136.341 323.827C136.282 323.767 127.45 316.617 116.769 312.624L117.187 311.492C128.047 315.544 136.998 322.814 137.117 322.933L136.341 323.827Z" fill="#66B4BC"/>
<path d="M139.086 293.854C126.734 278.957 107.221 275.859 107.042 275.799L107.221 274.607C107.401 274.667 127.391 277.825 140.041 293.08L139.086 293.854Z" fill="#66B4BC"/>
<path d="M75.7147 260.127L74.6406 259.651C74.7003 259.531 79.4144 249.282 93.7953 251.427L93.6163 252.619C88.0072 251.785 83.1737 252.858 79.5337 255.658C76.7888 257.744 75.7147 260.127 75.7147 260.127Z" fill="#66B4BC"/>
<path d="M92.0051 306.308L90.8713 305.891C96.4208 291.232 112.532 289.027 112.652 288.968L112.831 290.16C112.711 290.219 97.3159 292.364 92.0051 306.308Z" fill="#66B4BC"/>
<path d="M260.221 306.308L259.087 305.951C261.533 298.443 262.667 288.193 262.667 288.074L263.861 288.193C263.92 288.313 262.727 298.681 260.221 306.308Z" fill="#FF9D00"/>
<path d="M226.088 326.568L225.372 325.615C240.23 315.008 255.685 292.305 255.864 292.066L256.879 292.722C256.7 292.96 241.125 315.842 226.088 326.568Z" fill="#FF9D00"/>
<path d="M163.134 346.172C163.134 346.172 163.91 344.802 167.43 342.597C167.43 342.597 173.756 344.206 177.396 347.96C181.036 351.714 201.205 375.251 202.637 377.397C204.069 379.542 207.769 384.547 208.127 388.599C208.127 388.599 205.919 391.34 204.666 392.353L163.134 346.172Z" fill="white"/>
<path d="M204.606 392.83L162.776 346.232L162.895 346.053C162.955 345.994 163.731 344.564 167.252 342.418L167.371 342.359L167.49 342.418C167.729 342.478 173.935 344.087 177.575 347.901C181.394 351.893 201.503 375.311 202.816 377.337C202.995 377.576 203.174 377.873 203.413 378.231C205.143 380.793 208.008 385.024 208.306 388.659V388.778L208.246 388.897C208.127 389.016 205.979 391.698 204.785 392.711L204.606 392.83ZM163.492 346.173L204.606 391.996C205.68 391.042 207.351 389.016 207.709 388.599C207.351 385.143 204.547 381.032 202.876 378.529C202.637 378.171 202.458 377.873 202.279 377.635C200.907 375.609 180.916 352.251 177.097 348.258C173.815 344.862 168.326 343.253 167.431 343.014C164.865 344.564 163.85 345.755 163.492 346.173Z" fill="#C2E1E4"/>
<path d="M205.74 390.864C206.456 388.957 204.904 387.586 202.756 384.071C200.608 380.555 173.04 350.225 169.459 346.828C165.879 343.431 164.029 345.457 164.029 345.457C164.029 345.457 161.344 346.59 162.955 351.357C165.939 360.295 197.326 391.4 199.415 391.996C201.503 392.592 204.606 393.962 205.74 390.864Z" fill="#172B4D"/>
<path d="M245.183 324.601C245.183 324.601 249.36 327.104 250.972 327.76C252.583 328.415 255.984 325.019 256.342 322.099C256.76 319.179 254.373 317.808 252.702 315.842C252.702 315.842 249.897 315.782 247.332 317.808C244.766 319.834 243.453 322.277 245.183 324.601Z" fill="#41D1FF"/>
<path d="M258.788 321.444C258.788 321.444 255.089 321.324 252.762 324.9C250.434 328.535 251.21 330.501 252.224 330.858C253.179 331.216 252.941 329.667 253.776 328.117C255.805 324.483 257.476 324.959 259.504 324.363C261.474 323.887 260.877 321.086 258.788 321.444Z" fill="white"/>
<path d="M262.07 325.078C262.07 325.078 258.37 324.959 256.043 328.534C253.716 332.169 254.492 334.136 255.506 334.493C256.461 334.851 256.222 333.301 257.058 331.752C259.087 328.117 260.757 328.594 262.786 327.998C264.755 327.521 264.159 324.721 262.07 325.078Z" fill="white"/>
<path d="M265.77 328.594C265.77 328.594 262.07 328.475 259.743 332.05C257.416 335.685 258.192 337.652 259.206 338.009C260.161 338.367 259.922 336.817 260.758 335.268C262.786 331.633 264.457 332.11 266.486 331.514C268.455 330.978 267.799 328.237 265.77 328.594Z" fill="white"/>
<path d="M269.887 332.348C269.887 332.348 266.188 332.229 263.86 335.804C261.533 339.439 262.309 341.406 263.323 341.763C264.278 342.121 264.039 340.571 264.875 339.022C266.904 335.387 268.574 335.864 270.603 335.268C272.572 334.791 271.916 331.991 269.887 332.348Z" fill="white"/>
<path d="M265.591 314.055L267.023 316.021C267.202 316.26 267.202 316.617 266.963 316.855L265.293 318.524C264.875 318.941 265.173 319.656 265.77 319.596L268.813 319.358C269.052 319.358 269.291 319.477 269.41 319.656L270.186 321.027C270.424 321.444 270.186 321.92 269.708 321.98L263.025 322.874C262.786 322.933 262.548 322.814 262.428 322.576L260.578 319.716C260.399 319.418 260.459 319.06 260.698 318.881L261.772 317.988C262.309 317.57 261.891 316.736 261.235 316.855L258.967 317.273C258.729 317.332 258.43 317.213 258.311 316.975L257.595 315.902C257.356 315.544 257.595 315.008 258.013 314.889L264.994 313.757C265.233 313.757 265.472 313.876 265.591 314.055Z" fill="#C1DDDC"/>
<path d="M190.166 359.342L188.972 358.209C188.674 357.971 188.674 357.494 188.913 357.196L189.509 356.362C189.927 355.766 189.39 354.992 188.734 355.17L187.182 355.587C186.884 355.647 186.585 355.587 186.406 355.349L185.929 354.753C185.571 354.336 185.75 353.681 186.287 353.561L191.001 352.131C191.299 352.072 191.598 352.131 191.777 352.37L193.388 354.157C193.627 354.455 193.627 354.872 193.388 355.17C192.851 355.766 193.507 356.66 194.223 356.362L194.999 356.064C195.297 355.945 195.596 356.064 195.834 356.243L196.193 356.66C196.551 357.077 196.372 357.733 195.894 357.911L190.941 359.58C190.643 359.58 190.345 359.52 190.166 359.342Z" fill="#C1DDDC"/>
<path d="M215.526 228.963C215.526 228.963 213.676 231.168 212.304 236.173C212.304 236.173 209.38 232.121 211.528 226.162L215.526 228.963Z" fill="#18B0E1"/>
<path d="M167.789 143.931C167.669 143.931 167.61 143.871 167.55 143.811C166.774 142.62 163.791 143.216 162.716 143.573C162.537 143.633 162.418 143.514 162.358 143.394C162.299 143.216 162.418 143.096 162.537 143.037C162.716 142.977 166.834 141.726 168.027 143.514C168.147 143.633 168.087 143.811 167.968 143.931C167.908 143.871 167.848 143.931 167.789 143.931Z" fill="#004C75"/>
<path d="M148.216 149.294C143.204 149.294 137.296 144.705 137.058 144.527C136.938 144.407 136.879 144.229 136.998 144.109C137.117 143.99 137.296 143.931 137.416 144.05C137.475 144.109 143.383 148.698 148.216 148.698C148.395 148.698 148.515 148.817 148.515 148.996C148.515 149.115 148.395 149.294 148.216 149.294Z" fill="#004C75"/>
<path d="M123.452 212.576C123.333 212.576 123.214 212.516 123.094 212.457C119.454 209.478 115.993 208.107 112.831 208.465C109.25 208.882 107.341 211.325 107.281 211.325C107.102 211.563 106.685 211.623 106.446 211.444C106.207 211.265 106.147 210.848 106.327 210.61C106.446 210.491 108.594 207.749 112.652 207.273C116.172 206.856 119.932 208.286 123.81 211.563C124.049 211.801 124.109 212.159 123.87 212.397C123.81 212.516 123.631 212.576 123.452 212.576Z" fill="#18B0E1"/>
<path d="M227.818 213.47C227.818 213.47 231.876 216.33 233.845 218.177C235.814 220.024 233.726 221.037 232.652 220.978C231.578 220.859 227.043 217.879 227.043 217.879L228.535 215.615L227.818 213.47Z" fill="#FFA74F"/>
<path d="M153.587 181.888C153.587 181.888 146.545 179.028 143.383 173.963C143.383 173.963 143.502 176.048 145.054 179.683C147.082 184.51 152.871 188.8 152.871 188.8C152.871 188.8 153.706 184.212 153.587 181.888Z" fill="#FFA74F"/>
<path d="M197.804 350.642C197.386 350.522 195.118 349.629 193.686 350.225C192.254 350.82 194.104 352.31 195.297 352.548C196.491 352.787 197.625 353.8 198.878 352.906C200.19 352.072 199.952 351.238 197.804 350.642Z" fill="white"/>
<path d="M200.728 354.694C200.728 354.694 196.431 353.681 195.834 354.872C195.238 356.064 196.789 356.481 198.042 356.66C199.295 356.839 201.205 356.958 201.623 356.839C202.04 356.6 202.04 355.23 200.728 354.694Z" fill="white"/>
<path d="M202.398 357.911C202.398 357.911 201.324 357.256 199.952 357.315C198.579 357.435 197.624 359.043 198.579 359.639C199.534 360.235 201.682 359.222 202.279 359.461C202.816 359.639 203.114 358.686 202.398 357.911Z" fill="white"/>
<path d="M203.771 360.891C203.771 360.891 202.697 360.235 201.324 360.295C199.952 360.414 198.997 362.023 199.952 362.619C200.907 363.215 203.055 362.202 203.651 362.44C204.189 362.619 204.487 361.665 203.771 360.891Z" fill="white"/>
<path d="M215.884 326.091C215.109 327.522 209.798 337.354 211.469 337.115C213.139 336.877 215.109 334.613 217.973 329.845C220.897 325.078 217.316 323.47 215.884 326.091Z" fill="#FF9D00"/>
<g style="mix-blend-mode:multiply">
<path d="M245.72 293.496C242.916 294.39 240.708 300.885 245.302 298.621C249.897 296.357 254.253 291.411 252.105 291.113C249.957 290.815 245.72 293.496 245.72 293.496Z" fill="#FFDEAF"/>
</g>
<path d="M189.092 330.56C189.092 330.56 192.672 331.752 195.775 336.221C198.878 340.69 199.594 344.921 199.594 344.921L204.01 341.703C204.01 341.703 203.114 337.771 199.534 333.361C195.894 328.951 192.732 327.998 192.732 327.998L189.092 330.56Z" fill="#FFA74F"/>
<path d="M172.085 279.255L171.19 275.203C171.19 275.203 172.861 276.037 173.338 277.527C173.816 279.017 173.457 281.341 173.457 281.341L172.085 279.255Z" fill="#FFA74F"/>
<path d="M245.422 202.148C245.422 202.148 246.436 206.856 246.973 206.617C247.51 206.379 248.167 203.757 247.63 201.85C247.093 199.943 245.601 200.063 245.422 202.148Z" fill="#FFA74F"/>
<path d="M241.364 208.703C241.364 208.703 241.603 211.444 242.14 211.384C242.677 211.384 243.632 208.822 243.214 207.571C242.796 206.319 241.543 207.034 241.364 208.703Z" fill="#FFA74F"/>
<g style="mix-blend-mode:multiply" opacity="0.7">
<g opacity="0.7">
<path opacity="0.7" d="M225.133 260.961C225.133 260.961 202.04 306.248 196.431 309.168L209.619 302.375C209.619 302.375 226.983 277.229 234.92 256.492L225.133 260.961Z" fill="#C4E2E5"/>
</g>
</g>
<g style="mix-blend-mode:multiply" opacity="0.7">
<g opacity="0.7">
<path opacity="0.7" d="M238.619 254.764C238.619 254.764 234.144 266.801 231.876 270.674C229.609 274.548 232.175 274.011 236.412 267.933C240.648 261.855 243.393 252.5 243.393 252.5L238.619 254.764Z" fill="#C4E2E5"/>
</g>
</g>
<path d="M143.204 155.073C143.084 155.014 141.175 153.048 140.22 155.073C139.265 157.099 139.922 158.41 140.876 159.185C141.831 159.96 142.786 159.125 142.428 158.351C142.07 157.576 142.666 157.04 143.263 157.04C143.86 157.04 143.681 155.491 143.204 155.073Z" fill="#FFA74F"/>
<path d="M142.726 162.284C142.726 162.284 145.054 162.88 145.71 164.071C146.426 165.263 150.305 169.613 151.438 170.149C152.572 170.626 157.227 167.587 161.702 167.945C166.237 168.362 166.177 169.613 166.177 169.613C166.177 169.613 165.521 177.657 164.805 179.564C164.089 181.471 157.525 182.424 153.527 181.888C149.589 181.352 144.636 177.657 143.323 173.963C142.01 170.269 141.593 166.276 141.593 165.68C141.593 165.084 140.16 163.475 140.16 162.82C140.16 162.165 140.28 161.569 141.115 161.807C141.951 162.045 142.726 162.284 142.726 162.284Z" fill="#172B4D"/>
<path d="M162 171.877C161.881 171.877 161.762 171.877 161.642 171.877C159.255 171.818 158.062 170.984 158.002 170.924C157.704 170.745 157.644 170.388 157.823 170.09C158.002 169.792 158.36 169.732 158.659 169.911C158.659 169.911 159.673 170.567 161.642 170.626C163.433 170.686 163.91 170.328 163.91 170.328C164.149 170.09 164.507 170.149 164.745 170.388C164.984 170.626 164.924 171.043 164.686 171.222C164.566 171.46 163.91 171.877 162 171.877Z" fill="white"/>
<path d="M158.301 160.675C159.257 160.675 160.031 159.901 160.031 158.947C160.031 157.992 159.257 157.219 158.301 157.219C157.345 157.219 156.57 157.992 156.57 158.947C156.57 159.901 157.345 160.675 158.301 160.675Z" fill="#C97C00"/>
<path d="M153.288 156.385C153.109 156.385 152.93 156.265 152.811 156.087C152.632 155.789 152.692 155.431 152.99 155.252C153.05 155.193 155.138 153.882 157.764 153.584C159.733 153.346 160.807 154.12 160.867 154.18C161.105 154.359 161.165 154.776 160.986 155.014C160.807 155.252 160.389 155.312 160.151 155.133C160.151 155.133 159.375 154.597 157.883 154.776C155.556 155.074 153.646 156.265 153.646 156.265C153.527 156.325 153.408 156.385 153.288 156.385Z" fill="#C97C00"/>
<path d="M163.85 156.384C163.85 156.384 167.55 162.045 167.55 163.296C167.55 164.548 165.581 165.74 163.85 165.799C162.12 165.859 161.702 165.084 161.702 165.084" fill="#FFCC99"/>
</svg>
