<svg width="30" height="18" viewBox="0 0 30 18" fill="none" xmlns="http://www.w3.org/2000/svg">
<path d="M8 0C4.69922 0 2 2.69922 2 6C2 7.98438 2.97656 9.75 4.46875 10.8438C1.83203 12.1523 0 14.8633 0 18H2C2 14.6758 4.67578 12 8 12C11.3242 12 14 14.6758 14 18H16C16 14.6758 18.6758 12 22 12C25.3242 12 28 14.6758 28 18H30C30 14.8633 28.168 12.1523 25.5312 10.8438C27.0234 9.75 28 7.98438 28 6C28 2.69922 25.3008 0 22 0C18.6992 0 16 2.69922 16 6C16 7.98438 16.9766 9.75 18.4688 10.8438C17.0117 11.5664 15.7891 12.707 15 14.125C14.2109 12.707 12.9883 11.5664 11.5312 10.8438C13.0234 9.75 14 7.98438 14 6C14 2.69922 11.3008 0 8 0ZM8 2C10.2227 2 12 3.77734 12 6C12 8.22266 10.2227 10 8 10C5.77734 10 4 8.22266 4 6C4 3.77734 5.77734 2 8 2ZM22 2C24.2227 2 26 3.77734 26 6C26 8.22266 24.2227 10 22 10C19.7773 10 18 8.22266 18 6C18 3.77734 19.7773 2 22 2Z" fill="#1E8FC6"/>
</svg>
