<svg width="28" height="20" viewBox="0 0 28 20" fill="none" xmlns="http://www.w3.org/2000/svg">
<path d="M3 0V12.6562L0.5 16C0.175781 16.4336 0 16.9609 0 17.5C0 18.8672 1.13281 20 2.5 20H25.5C26.8672 20 28 18.8672 28 17.5C28 16.9609 27.8242 16.4336 27.5 16L25 12.6562V0H3ZM5 2H23V12H5V2ZM8 4V6H20V4H8ZM8 8V10H18V8H8ZM4.5 14H23.5L25.875 17.1562L25.9062 17.1875C25.9727 17.2734 26 17.3906 26 17.5C26 17.7852 25.7852 18 25.5 18H2.5C2.21484 18 2 17.7852 2 17.5C2 17.4023 2.03906 17.3008 2.09375 17.2188V17.1875L4.5 14Z" fill="#1E8FC6"/>
</svg>
