<svg width="22" height="20" viewBox="0 0 22 20" fill="none" xmlns="http://www.w3.org/2000/svg">
<path d="M4.5 0C2.57 0 1 1.57 1 3.5C1 4.71187 1.62013 5.78172 2.55859 6.41016C1.07684 7.04445 0 8.36953 0 10H2C2 8.97346 3.03018 8 4.5 8C5.96982 8 7 8.97346 7 10H9C9 8.36953 7.92316 7.04445 6.44141 6.41016C7.37987 5.78172 8 4.71187 8 3.5C8 1.57 6.43 0 4.5 0ZM11 0V2C14.7611 2 17.8995 4.58501 18.7637 8.06641L20.7051 7.58398C19.6232 3.22538 15.6789 0 11 0ZM4.5 2C5.327 2 6 2.673 6 3.5C6 4.327 5.327 5 4.5 5C3.673 5 3 4.327 3 3.5C3 2.673 3.673 2 4.5 2ZM17.5 10C15.57 10 14 11.57 14 13.5C14 14.7119 14.6201 15.7817 15.5586 16.4102C14.0768 17.0445 13 18.3695 13 20H15C15 18.9735 16.0302 18 17.5 18C18.9698 18 20 18.9735 20 20H22C22 18.3695 20.9232 17.0445 19.4414 16.4102C20.3799 15.7817 21 14.7119 21 13.5C21 11.57 19.43 10 17.5 10ZM17.5 12C18.327 12 19 12.673 19 13.5C19 14.327 18.327 15 17.5 15C16.673 15 16 14.327 16 13.5C16 12.673 16.673 12 17.5 12ZM3.36523 12.4004L1.45898 13C2.7355 17.0597 6.53284 20 11 20V18C7.40916 18 4.38472 15.6427 3.36523 12.4004Z" fill="#1E8FC6"/>
</svg>
