<svg width="257" height="291" viewBox="0 0 257 291" fill="none" xmlns="http://www.w3.org/2000/svg">
<path d="M83.4163 33.7374C83.4163 33.7374 66.0236 37.9117 66.4241 61.9282C66.8246 85.9447 53.0935 66.1025 41.9942 61.1849C30.8949 56.2672 7.26602 43.5156 0.80097 87.7746C-5.66408 132.034 29.7507 184.298 67.5111 207.971C105.272 231.645 132.619 266.412 147.609 276.59C162.599 286.769 202.934 303.294 217.809 275.046C232.685 246.798 212.374 213.347 210.772 192.875C209.17 172.404 193.322 112.191 152.358 71.4777C111.393 30.764 97.4906 29.1629 83.4163 33.7374Z" fill="#F8F8F4"/>
<path d="M83.4163 33.7374C83.4163 33.7374 66.0236 37.9117 66.4241 61.9282C66.8246 85.9447 53.0935 66.1025 41.9942 61.1849C30.8949 56.2672 7.26602 43.5156 0.80097 87.7746C-5.66408 132.034 29.7507 184.298 67.5111 207.971C105.272 231.645 132.619 266.412 147.609 276.59C162.599 286.769 202.934 303.294 217.809 275.046C232.685 246.798 212.374 213.347 210.772 192.875C209.17 172.404 193.322 112.191 152.358 71.4777C111.393 30.764 97.4906 29.1629 83.4163 33.7374Z" fill="#F0F0E7"/>
<path d="M69.9141 186.585L104.642 87.8319L111.794 83.8291L86.0481 191.789L69.9141 186.585Z" fill="#41D1FF"/>
<path d="M86.2197 98.9251L79.2397 93.2069L85.8764 220.837C89.3664 223.525 92.7992 226.327 96.0603 229.072L86.2197 98.9251Z" fill="#41D1FF"/>
<path d="M61.2176 108.703L59.5012 202.425C62.133 204.369 64.822 206.199 67.511 207.914C73.9189 211.917 80.0978 216.32 85.8763 220.78L79.2396 93.2069L72.0308 95.0367C65.7374 96.695 61.332 102.242 61.2176 108.703Z" fill="#147FA0"/>
<path d="M205.394 177.551L210.715 180.982L111.107 212.489C108.99 213.175 106.645 212.889 104.7 211.803L103.155 210.888L205.394 177.551Z" fill="#41D1FF"/>
<path d="M107.045 194.762L201.675 162.626L205.394 177.493L103.155 210.831L102.239 202.196C101.896 198.937 103.899 195.849 107.045 194.762Z" fill="#147FA0"/>
<path d="M187.658 290.657L147.609 165.943L138.055 169.088L162.084 284.252C169.808 287.569 178.905 290.257 187.658 290.657Z" fill="#1E8FC6"/>
<path opacity="0.7" d="M180.85 169.717C180.85 169.717 175.014 183.097 166.833 186.585V190.131V194.877L162.942 196.135L156.992 180.753L180.85 169.717Z" fill="#41D1FF"/>
<path d="M138.512 195.563L111.794 83.8291L104.642 87.8319L126.154 199.394L138.512 195.563Z" fill="#41D1FF"/>
<path d="M154.875 172.862L147.609 165.943L187.658 290.657C190.347 290.771 193.036 290.714 195.668 290.314L154.875 172.862Z" fill="#147FA0"/>
<path opacity="0.7" d="M141.43 185.213C141.43 185.213 149.097 185.327 153.388 183.955L158.251 182.583L157.564 180.638L140.171 179.094L141.43 185.213Z" fill="#41D1FF"/>
<path d="M150.012 53.1223C134.793 27.1616 116.485 10.9218 102.067 6.57599L99.9506 1.65833C99.9506 1.65833 93.6572 3.25943 86.6772 7.09063C85.4757 7.66245 84.3315 8.34864 83.1872 9.14919L83.13 9.20637C74.262 15.8395 68.7696 30.9356 70.1427 53.1223C73.3466 104.472 110.993 181.039 151.557 181.039C151.557 181.039 161.168 182.068 173.927 174.12L171.982 169.545C185.427 146.215 173.011 92.3492 150.012 53.1223Z" fill="#FFC633"/>
<path opacity="0.7" d="M120.776 171.604L121.692 176.35C121.692 176.35 128.958 182.125 135.48 182.926L133.935 176.407C133.935 176.407 128.557 172.976 124.781 170.288L120.776 171.604Z" fill="#41D1FF"/>
<path d="M150.012 53.1223C134.793 27.1616 116.485 10.9218 102.067 6.57599L99.9506 1.65833C99.9506 1.65833 93.6572 3.25943 86.6772 7.09063C85.4757 7.66245 84.3315 8.34864 83.1872 9.14919L83.13 9.20637C74.262 15.8395 68.7696 30.9356 70.1427 53.1223C73.3466 104.472 110.993 181.039 151.557 181.039C151.557 181.039 161.168 182.068 173.927 174.12L171.982 169.545C185.427 146.215 173.011 92.3492 150.012 53.1223Z" fill="url(#paint0_linear)"/>
<path d="M163.171 47.7471C193.265 99.0967 205.28 175.664 164.716 175.664C124.152 175.664 86.5058 99.1539 83.3019 47.7471C81.4139 17.0975 92.6276 0 107.732 0C122.836 0 145.206 17.0975 163.171 47.7471Z" fill="#FFEFA3"/>
<path d="M159.28 54.7805C184.626 96.1232 195.668 158.28 162.599 158.909C129.53 159.538 97.6622 97.8387 94.1723 56.0957C92.1126 31.1071 100.981 17.0403 113.281 16.8116C125.639 16.5257 144.119 30.0778 159.28 54.7805Z" fill="#F8D98B"/>
<g style="mix-blend-mode:multiply">
<path d="M122.321 107.788C122.321 107.788 119.06 107.045 119.403 117.166C119.747 127.287 119.403 145.3 119.403 145.3L126.669 154.277L123.751 110.705C123.694 110.705 123.694 110.247 122.321 107.788Z" fill="url(#paint1_linear)"/>
</g>
<path d="M154.074 66.6744C169.979 93.7787 176.33 134.206 154.875 134.206C133.42 134.206 113.568 93.7787 111.851 66.6744C110.821 50.4918 116.771 41.457 124.781 41.457C132.791 41.457 144.577 50.4918 154.074 66.6744Z" fill="#FFEFA3"/>
<path d="M153.845 66.6744C170.036 93.7787 176.501 134.206 154.703 134.206C132.905 134.206 112.652 93.7787 110.936 66.6744C109.906 50.4918 115.913 41.457 124.095 41.457C132.276 41.457 144.176 50.4918 153.845 66.6744Z" fill="url(#paint2_linear)"/>
<path d="M146.121 78.797C152.93 90.3478 155.619 107.617 146.465 107.617C137.311 107.617 128.843 90.3478 128.099 78.797C127.642 71.878 130.216 68.0468 133.592 68.0468C136.967 68.0468 142.059 71.878 146.121 78.797Z" fill="#FFC633"/>
<g style="mix-blend-mode:multiply">
<path d="M137.425 84.6296C137.425 84.6296 136.395 86.5167 138.512 89.2614C140.572 92.0061 186.628 161.311 186.628 161.311L190.118 148.502L137.425 84.6296Z" fill="url(#paint3_linear)"/>
</g>
<g style="mix-blend-mode:multiply">
<path d="M140.229 90.9768L159.624 139.81L164.372 136.951L144.577 92.4635C144.634 92.5207 140.4 87.6602 140.229 90.9768Z" fill="url(#paint4_linear)"/>
</g>
<path d="M118.602 165.085L47.4866 192.018L40.7927 189.387L40.7355 190.988C40.6211 193.219 41.7081 195.334 43.5962 196.592C45.5986 197.907 48.116 198.193 50.4045 197.393L124.61 170.289L118.602 165.085Z" fill="#41D1FF"/>
<path d="M45.2553 175.892L118.602 148.559V165.142L45.4841 192.761C43.1384 193.619 40.7355 191.846 40.8499 189.387L41.1932 181.439C41.3076 178.98 42.9095 176.75 45.2553 175.892Z" fill="#147FA0"/>
<path d="M118.602 148.559L120.49 150.332C123.237 152.962 124.781 156.565 124.724 160.339L124.61 170.346L118.602 165.142V148.559Z" fill="#41D1FF"/>
<path d="M201.675 162.683L204.307 164.799C206.31 166.4 207.74 168.63 208.369 171.146L210.772 181.039L205.451 177.608L201.675 162.683Z" fill="#41D1FF"/>
<path d="M181.479 32.365L180.106 24.188L196.64 1.37231V16.354C196.64 17.612 197.098 18.8129 197.956 19.785C198.757 20.6999 199.902 21.2717 201.16 21.4433L213.747 22.93L194.295 38.5407L185.884 36.8824C185.884 36.9396 182.166 36.425 181.479 32.365Z" fill="url(#paint5_linear)"/>
<path d="M196.812 16.297C195.21 16.8688 146.007 74.5656 137.997 83.9435C137.368 84.6868 137.253 85.8305 137.768 86.6882C138.569 88.0606 140.457 88.2321 141.544 87.0313L201.561 20.1853C202.133 18.7558 201.732 14.4671 196.812 16.297Z" fill="#A7D4D9"/>
<g style="mix-blend-mode:multiply">
<path d="M196.812 16.297C195.21 16.8688 146.007 74.5656 137.997 83.9435C137.368 84.6868 137.253 85.8305 137.768 86.6882C138.569 88.0606 140.457 88.2321 141.544 87.0313L201.561 20.1853C202.133 18.7558 201.732 14.4671 196.812 16.297Z" fill="url(#paint6_linear)"/>
</g>
<path d="M221.528 47.6327L225.19 36.4822L245.214 24.6455L238.749 39.5701L242.239 46.146L257 50.2059L232.055 58.5545L224.503 54.6661L221.528 47.6327Z" fill="url(#paint7_linear)"/>
<path d="M238.749 39.5701C236.689 39.4557 155.047 81.2559 141.773 88.0605C140.686 88.6324 140.057 89.8332 140.229 91.034C140.515 92.921 142.574 94.0075 144.291 93.2069L242.239 46.2032C243.555 44.7736 245.1 39.7988 238.749 39.5701Z" fill="#87C4CA"/>
<g style="mix-blend-mode:multiply">
<path d="M238.749 39.5701C236.689 39.4557 155.047 81.2559 141.773 88.0605C140.686 88.6324 140.057 89.8332 140.229 91.034C140.515 92.921 142.574 94.0075 144.291 93.2069L242.239 46.2032C243.555 44.7736 245.1 39.7988 238.749 39.5701Z" fill="url(#paint8_linear)"/>
</g>
<path d="M197.899 97.0381L202.705 86.002L230.224 77.9965L218.21 94.4649L219.354 103.271L231.254 118.024L202.705 114.936L197.899 105.501V97.0381Z" fill="url(#paint9_linear)"/>
<path d="M218.21 94.4649C216.15 94.6365 136.968 104.986 122.321 107.846C121.12 108.074 120.09 109.046 120.033 110.247C119.918 112.249 121.406 113.735 123.351 113.449L219.354 103.271C223.016 103.042 224.045 93.8931 218.21 94.4649Z" fill="#C2E1E4"/>
<g style="mix-blend-mode:multiply">
<path d="M218.21 94.4649C216.15 94.6365 136.968 104.986 122.321 107.846C121.12 108.074 120.09 109.046 120.033 110.247C119.918 112.249 121.406 113.735 123.351 113.449L219.354 103.271C223.016 103.042 224.045 93.8931 218.21 94.4649Z" fill="url(#paint10_linear)"/>
</g>
<path opacity="0.7" d="M59.6156 194.019L59.5012 202.482L84.3888 193.276L93.7717 199.394L92.513 182.011L59.6156 194.019Z" fill="#41D1FF"/>
<path opacity="0.7" d="M88.7942 132.891L90.8539 158.909L93.8861 157.766L96.003 149.932L90.8539 128.031L88.7942 132.891Z" fill="#147FA0"/>
<path d="M130.388 193.504C131.715 193.504 132.791 192.429 132.791 191.103C132.791 189.776 131.715 188.701 130.388 188.701C129.061 188.701 127.985 189.776 127.985 191.103C127.985 192.429 129.061 193.504 130.388 193.504Z" fill="#147FA0"/>
<path opacity="0.7" d="M138.512 195.563L142.288 189.387L141.029 183.269L135.938 184.984L138.512 195.563Z" fill="#41D1FF"/>
<path opacity="0.7" d="M60.3022 165.542L82.3292 157.251L90.8539 158.909L60.3595 170.289L60.3022 165.542Z" fill="#41D1FF"/>
<path opacity="0.7" d="M137.826 199.623L144.92 201.796L144.005 197.564L137.826 199.623Z" fill="#33B8E3"/>
<defs>
<linearGradient id="paint0_linear" x1="108.8" y1="70.6421" x2="144.816" y2="130.129" gradientUnits="userSpaceOnUse">
<stop offset="0.00200123" stop-color="white" stop-opacity="0"/>
<stop offset="0.0971443" stop-color="#FFF8E7" stop-opacity="0.0971443"/>
<stop offset="1" stop-color="#EF9B00"/>
</linearGradient>
<linearGradient id="paint1_linear" x1="123.015" y1="148.984" x2="120.919" y2="119.058" gradientUnits="userSpaceOnUse">
<stop offset="0.00200123" stop-color="white" stop-opacity="0"/>
<stop offset="1" stop-color="#93CAD0"/>
</linearGradient>
<linearGradient id="paint2_linear" x1="142.668" y1="96.0448" x2="163.682" y2="146.506" gradientUnits="userSpaceOnUse">
<stop offset="0.00200123" stop-color="white" stop-opacity="0"/>
<stop offset="0.0971443" stop-color="#FFF8E7" stop-opacity="0.0971443"/>
<stop offset="1" stop-color="#FFB200"/>
</linearGradient>
<linearGradient id="paint3_linear" x1="183.759" y1="135.569" x2="140.963" y2="110.761" gradientUnits="userSpaceOnUse">
<stop offset="0.00200123" stop-color="white" stop-opacity="0"/>
<stop offset="1" stop-color="#93CAD0"/>
</linearGradient>
<linearGradient id="paint4_linear" x1="160.668" y1="135.337" x2="145.425" y2="100.45" gradientUnits="userSpaceOnUse">
<stop offset="0.00200123" stop-color="white" stop-opacity="0"/>
<stop offset="1" stop-color="#93CAD0"/>
</linearGradient>
<linearGradient id="paint5_linear" x1="208.437" y1="7.84951" x2="184.043" y2="40.2653" gradientUnits="userSpaceOnUse">
<stop offset="0.00200123" stop-color="white" stop-opacity="0"/>
<stop offset="0.0971443" stop-color="#FFF8E7" stop-opacity="0.0971443"/>
<stop offset="1" stop-color="#FFB200"/>
</linearGradient>
<linearGradient id="paint6_linear" x1="155.349" y1="79.1601" x2="179.359" y2="33.9755" gradientUnits="userSpaceOnUse">
<stop offset="0.00200123" stop-color="white" stop-opacity="0"/>
<stop offset="1" stop-color="#93CAD0"/>
</linearGradient>
<linearGradient id="paint7_linear" x1="281.405" y1="27.088" x2="202.079" y2="54.1802" gradientUnits="userSpaceOnUse">
<stop offset="0.00200123" stop-color="white" stop-opacity="0"/>
<stop offset="0.0971443" stop-color="#FFF8E7" stop-opacity="0.0971443"/>
<stop offset="1" stop-color="#FFB200"/>
</linearGradient>
<linearGradient id="paint8_linear" x1="211.764" y1="48.4288" x2="163.157" y2="94.2006" gradientUnits="userSpaceOnUse">
<stop offset="0.00200123" stop-color="white" stop-opacity="0"/>
<stop offset="1" stop-color="#93CAD0"/>
</linearGradient>
<linearGradient id="paint9_linear" x1="249.024" y1="94.3761" x2="207.07" y2="102.771" gradientUnits="userSpaceOnUse">
<stop offset="0.00200123" stop-color="white" stop-opacity="0"/>
<stop offset="0.0971443" stop-color="#FFF8E7" stop-opacity="0.0971443"/>
<stop offset="1" stop-color="#FFB200"/>
</linearGradient>
<linearGradient id="paint10_linear" x1="156.104" y1="104.219" x2="214.175" y2="103.074" gradientUnits="userSpaceOnUse">
<stop offset="0.00200123" stop-color="white" stop-opacity="0"/>
<stop offset="1" stop-color="#93CAD0"/>
</linearGradient>
</defs>
</svg>
