<svg width="173" height="37" viewBox="0 0 173 37" fill="none" xmlns="http://www.w3.org/2000/svg">
<path fill-rule="evenodd" clip-rule="evenodd" d="M7.47583 36.2148H35.9819V15.6395H21.9531C21.5665 15.6395 21.2803 15.6929 21.0924 15.7997C20.9044 15.9065 20.8104 16.1008 20.8104 16.3785C20.8104 16.6583 20.9044 16.8527 21.0924 16.9659C21.2803 17.0791 21.5665 17.1346 21.9531 17.1346H27.8141C29.1341 17.1346 30.138 17.3781 30.8258 17.8672C31.5135 18.3564 31.8574 19.0933 31.8574 20.0822C31.8574 20.629 31.772 21.1245 31.599 21.5645C31.4281 22.0045 31.1526 22.374 30.7788 22.6752C30.4028 22.9764 29.9223 23.207 29.337 23.3672C28.7518 23.5274 28.0512 23.6086 27.2353 23.6086H17.2028H13.8836V19.4542H7.47583V23.6086V36.2148Z" fill="#1E8FC6"/>
<path fill-rule="evenodd" clip-rule="evenodd" d="M18.6744 13.7577C19.0439 13.4672 19.5224 13.243 20.1076 13.0806C20.6928 12.9204 21.3934 12.8393 22.2093 12.8393H35.9818V0.235168H0V36.2148H4.12447V23.6107V12.8371H7.47574V16.654H13.8835V12.8371H17.2006V23.6107L19.3429 20.8404H27.4915C27.8888 20.8404 28.1793 20.7785 28.3608 20.6546C28.5424 20.5307 28.6342 20.3299 28.6342 20.0501C28.6342 19.7703 28.5424 19.5717 28.3608 19.4542C28.1793 19.3367 27.8888 19.2769 27.4915 19.2769H21.6305C20.9321 19.2769 20.3319 19.2022 19.8278 19.0505C19.3237 18.901 18.9051 18.6917 18.5719 18.4226C18.2387 18.1534 17.993 17.8288 17.8307 17.4486C17.6705 17.0684 17.5893 16.6455 17.5893 16.1841C17.5893 15.68 17.6769 15.2208 17.8542 14.8064C18.0293 14.3985 18.3049 14.0461 18.6744 13.7577Z" fill="black"/>
<path fill-rule="evenodd" clip-rule="evenodd" d="M127.995 18.3991C125.819 16.1649 122.944 13.3797 120.577 10.9426L119.909 10.2548H124.123C125.821 12.002 127.643 13.7513 129.394 15.5007C128.886 16.4447 128.418 17.4123 127.995 18.3991Z" fill="black"/>
<path fill-rule="evenodd" clip-rule="evenodd" d="M78.5934 23.2092H75.5796V12.8393H78.5934V23.2092Z" fill="black"/>
<path fill-rule="evenodd" clip-rule="evenodd" d="M82.5899 16.7758V23.2092H79.8794V14.5138C79.8794 14.2255 79.9136 13.9286 80.0204 13.6573C80.1037 13.4459 80.2211 13.2451 80.3856 13.087C80.5351 12.9418 80.7103 12.835 80.9068 12.7688C81.1097 12.6983 81.3233 12.6641 81.539 12.6641C81.7334 12.6641 81.9235 12.7004 82.1072 12.7602C82.3464 12.8393 82.5771 13.0272 82.7608 13.196L89.5316 19.2727V12.8393H92.2592V21.5197C92.2592 21.808 92.225 22.1049 92.1182 22.374C92.0328 22.5898 91.9153 22.7927 91.753 22.955C91.6035 23.1045 91.4262 23.2113 91.2254 23.2797C91.0182 23.348 90.8046 23.3843 90.5868 23.3843C90.3881 23.3843 90.1916 23.3502 90.0015 23.2882C89.7645 23.2092 89.5423 23.0234 89.365 22.8546L82.5899 16.7758Z" fill="black"/>
<path fill-rule="evenodd" clip-rule="evenodd" d="M96.5716 20.7529H100.534C100.976 20.7529 101.418 20.6973 101.843 20.5628C102.219 20.4432 102.576 20.268 102.883 20.0202C103.172 19.7874 103.407 19.5012 103.573 19.1701C103.748 18.8241 103.827 18.4482 103.827 18.0616C103.827 17.6793 103.746 17.3076 103.573 16.9637C103.404 16.6241 103.163 16.3315 102.866 16.0966C102.554 15.8488 102.198 15.663 101.822 15.5327C101.407 15.3896 100.972 15.3255 100.534 15.3255H93.6838L95.572 12.8371H100.534C101.392 12.8371 102.251 12.9461 103.069 13.2109C103.787 13.4437 104.468 13.7833 105.053 14.2618C105.596 14.7039 106.034 15.2422 106.346 15.8701C106.664 16.5109 106.809 17.203 106.809 17.9164C106.809 18.6468 106.66 19.3538 106.337 20.0117C106.021 20.6589 105.583 21.2206 105.034 21.6863C104.449 22.1839 103.77 22.5449 103.048 22.7991C102.24 23.0832 101.386 23.2049 100.532 23.2049H93.5386V16.8463H96.5673V20.7529H96.5716Z" fill="black"/>
<path fill-rule="evenodd" clip-rule="evenodd" d="M71.2949 19.1018H64.6757V23.2092H61.647V12.8393H64.6757V16.6113H71.2949V12.8393H74.2938V23.2092H71.2949V19.1018Z" fill="black"/>
<path fill-rule="evenodd" clip-rule="evenodd" d="M159.759 19.1018H153.139V23.2092H150.108V15.3276H141.654C141.219 15.3276 140.783 15.3874 140.367 15.5263C139.988 15.6523 139.634 15.8381 139.326 16.0923C139.038 16.3315 138.801 16.622 138.63 16.9573C138.455 17.3033 138.376 17.6771 138.376 18.0637C138.376 18.4482 138.451 18.8241 138.621 19.1701C138.786 19.5055 139.021 19.7917 139.314 20.0224C139.623 20.268 139.978 20.4432 140.354 20.5628C140.772 20.6973 141.214 20.7529 141.654 20.7529H145.824V18.9245H140.473L142.214 16.8334H148.823V23.207H141.654C140.8 23.207 139.946 23.0853 139.138 22.8012C138.416 22.547 137.737 22.1861 137.152 21.6884C136.605 21.2228 136.165 20.661 135.851 20.0138C135.529 19.356 135.379 18.649 135.379 17.9185C135.379 17.1987 135.524 16.5002 135.849 15.8573C136.165 15.2315 136.605 14.689 137.15 14.2468C137.737 13.7705 138.416 13.4331 139.134 13.2045C139.948 12.9461 140.802 12.8371 141.654 12.8371H153.141V16.6113H162.757V23.207H159.761V19.1018H159.759Z" fill="black"/>
<path fill-rule="evenodd" clip-rule="evenodd" d="M167.057 15.3276V23.2092H164.043V15.3276H159.035V12.8393H172.85L170.934 15.3276H167.057Z" fill="black"/>
<path fill-rule="evenodd" clip-rule="evenodd" d="M120.359 12.8393L122.777 15.3276H112.26C111.963 15.3276 111.598 15.3554 111.337 15.5049C111.079 15.6523 110.989 15.915 110.989 16.1991C110.989 16.4853 111.081 16.748 111.337 16.9018C111.598 17.0577 111.963 17.0898 112.262 17.0898H118.057C119.016 17.0898 120.152 17.2179 120.953 17.7882C121.656 18.288 121.912 19.0249 121.912 19.8622C121.912 20.3449 121.842 20.8255 121.666 21.2762C121.504 21.6905 121.246 22.0387 120.897 22.3164C120.498 22.6367 120.013 22.8397 119.522 22.9742C118.862 23.1558 118.166 23.207 117.482 23.207H107.849L109.748 20.7507H117.736C118.04 20.7507 118.418 20.7187 118.676 20.5435C118.92 20.3769 119.009 20.1142 119.009 19.8301C119.009 19.5461 118.922 19.2833 118.674 19.1232C118.416 18.9565 118.037 18.9245 117.738 18.9245H111.942C111.358 18.9245 110.76 18.8754 110.199 18.7088C109.771 18.5828 109.353 18.3948 109.005 18.1129C108.701 17.8672 108.466 17.5639 108.315 17.2051C108.155 16.8249 108.086 16.4191 108.086 16.009C108.086 15.5604 108.161 15.1162 108.338 14.7039C108.507 14.3088 108.77 13.9798 109.107 13.7171C109.507 13.4053 109.989 13.2066 110.474 13.0742C111.136 12.8927 111.833 12.8414 112.514 12.8414H120.359V12.8393Z" fill="black"/>
<path fill-rule="evenodd" clip-rule="evenodd" d="M163.279 2.44586C144.307 -2.38561 129.777 9.96644 126.964 28.156H129.785C132.681 11.7905 145.79 -0.43337 163.279 2.44586Z" fill="#1E8FC6"/>
<path fill-rule="evenodd" clip-rule="evenodd" d="M49.1305 0.235168H48.4961V36.2148H49.1305V0.235168Z" fill="black"/>
</svg>
